<?xml version="1.0" encoding="utf-8"?>
<!-- Generator: Adobe Illustrator 18.0.0, SVG Export Plug-In . SVG Version: 6.00 Build 0)  -->
<!DOCTYPE svg PUBLIC "-//W3C//DTD SVG 1.1//EN" "http://www.w3.org/Graphics/SVG/1.1/DTD/svg11.dtd">
<svg version="1.1" id="all" xmlns="http://www.w3.org/2000/svg" xmlns:xlink="http://www.w3.org/1999/xlink" x="0px" y="0px"
	 viewBox="832 0 630 800" enable-background="new 832 0 630 800" xml:space="preserve">
<g id="space" opacity="0">
	
		<rect x="968" y="230.3" fill="#88CCEE" stroke="#231F20" stroke-width="0.2872" stroke-miterlimit="10" width="8.6" height="547.7"/>
	
		<rect x="969.7" y="157.4" fill="#88CCEE" stroke="#231F20" stroke-width="0.2872" stroke-miterlimit="10" width="4.1" height="73.4"/>
	
		<rect x="967.6" y="113" fill="#88CCEE" stroke="#231F20" stroke-width="0.2872" stroke-miterlimit="10" width="9.4" height="43.9"/>
	
		<rect x="923.5" y="58.8" transform="matrix(0.9699 -0.2436 0.2436 0.9699 18.4893 278.326)" fill="#88CCEE" stroke="#231F20" stroke-width="0.2872" stroke-miterlimit="10" width="422.3" height="11.3"/>
	
		<rect x="976.4" y="275.6" fill="none" stroke="#88CCEE" stroke-width="0.2285" stroke-miterlimit="10" width="313.4" height="22.1"/>
	
		<rect x="1290" y="226.1" fill="#88CCEE" stroke="#231F20" stroke-width="0.2872" stroke-miterlimit="10" width="9.4" height="74.4"/>
	
		<rect x="1292.4" y="152.4" fill="#88CCEE" stroke="#231F20" stroke-width="0.2872" stroke-miterlimit="10" width="4.1" height="73.4"/>
	
		<rect x="1290" y="108.3" fill="#88CCEE" stroke="#231F20" stroke-width="0.2872" stroke-miterlimit="10" width="9.4" height="43.9"/>
	
		<rect x="1292.4" y="72.1" fill="#88CCEE" stroke="#231F20" stroke-width="0.2872" stroke-miterlimit="10" width="4.1" height="36.3"/>
	<polygon fill="#88CCEE" stroke="#231F20" stroke-width="0.2872" stroke-miterlimit="10" points="1299.1,72.6 1290,72.6 1290,31.4 
		1299.1,28.3 	"/>
	<rect x="976.1" y="742" fill="#88CCEE" stroke="#231F20" stroke-width="0.2872" stroke-miterlimit="10" width="31" height="34.7"/>
	
		<rect x="963.3" y="776.7" fill="#88CCEE" stroke="#231F20" stroke-width="0.2872" stroke-miterlimit="10" width="49.7" height="9.4"/>
	<rect x="1260" y="742" fill="#88CCEE" stroke="#231F20" stroke-width="0.2872" stroke-miterlimit="10" width="31" height="35.3"/>
	
		<rect x="1254.6" y="776.7" fill="#88CCEE" stroke="#231F20" stroke-width="0.2872" stroke-miterlimit="10" width="49.7" height="9.4"/>
	<polygon fill="none" stroke="#88CCEE" stroke-width="0.1436" stroke-miterlimit="10" points="1112.9,123.9 1003.3,123.9 
		1008.4,116 1108,116 	"/>
	<line fill="none" stroke="#88CCEE" stroke-width="0.1436" stroke-miterlimit="10" x1="1017" y1="115.4" x2="1023.9" y2="97.4"/>
	<line fill="none" stroke="#88CCEE" stroke-width="0.1436" stroke-miterlimit="10" x1="1102.3" y1="115.4" x2="1093.7" y2="80.3"/>
	<polygon fill="none" stroke="#88CCEE" stroke-width="0.1436" stroke-miterlimit="10" points="1242.4,125.1 1133,125.1 1138,116.7 
		1237.6,116.7 	"/>
	<line fill="none" stroke="#88CCEE" stroke-width="0.1436" stroke-miterlimit="10" x1="1146.4" y1="116" x2="1159" y2="65.4"/>
	<line fill="none" stroke="#88CCEE" stroke-width="0.1436" stroke-miterlimit="10" x1="1231.9" y1="116" x2="1219.6" y2="50.4"/>
	<g>
		<line fill="none" stroke="#88CCEE" stroke-width="0.1107" stroke-miterlimit="10" x1="1086" y1="516.1" x2="1086" y2="534.3"/>
		<path fill="none" stroke="#88CCEE" stroke-width="0.1107" stroke-miterlimit="10" d="M1093.7,540.7c0,4.1-15.6,4.1-15.6,0
			s3.4-7.6,7.6-7.6C1090.4,533.1,1093.7,536.6,1093.7,540.7z"/>
	</g>
	<g>
		
			<line fill="none" stroke="#88CCEE" stroke-width="0.1107" stroke-miterlimit="10" x1="1179.6" y1="515.3" x2="1179.6" y2="533.9"/>
		<path fill="none" stroke="#88CCEE" stroke-width="0.1107" stroke-miterlimit="10" d="M1187.6,540.3c0,4.1-15.6,4.1-15.6,0
			c0-4.1,3.4-7.6,7.6-7.6C1184.3,532.3,1187.6,535.9,1187.6,540.3z"/>
	</g>
	<g opacity="0.4">
		<g>
			<path fill="none" stroke="#88CCEE" stroke-width="1.7232" stroke-miterlimit="10" d="M1347.9,226.9c-13.6,0-13.6-6.4-27.3-6.4
				c-13.6,0-13.6,6.4-27.3,6.4c-13.6,0-13.6-6.4-27.3-6.4c-13.9,0-13.9,6.4-27.3,6.4c-1.7,0-3.4,0-4.9-0.3"/>
			<g>
				<path fill="#88CCEE" d="M1211.4,220.7c11.9-1,26.1-4.7,36.3-9.6l-11.1,16l1.7,19.3C1232.1,237,1221,226.9,1211.4,220.7z"/>
			</g>
		</g>
	</g>
	
		<rect x="1291.7" y="699.1" fill="#88CCEE" stroke="#231F20" stroke-width="0.2872" stroke-miterlimit="10" width="9.4" height="77.6"/>
	
		<rect x="1289.6" y="335.7" fill="#88CCEE" stroke="#231F20" stroke-width="0.2872" stroke-miterlimit="10" width="9.4" height="43.9"/>
	<g opacity="0.4">
		<g>
			<path fill="none" stroke="#88CCEE" stroke-width="1.7232" stroke-miterlimit="10" d="M1345.7,413.3c0,0-14.3,0-26.1,0
				c-12.1,0-7.4-12.3-28.6-12.3s-182.1,0-182.1,0s-55,3.4-55-18.7v-42.1c0,0-0.3-18.4,33.3-19.3c0,0,195.1,0,204.4,0
				c9.4,0,14.7,8.9,24.1,8.9c4.9,0,18.4,0,30.9,0"/>
			<g>
				<path fill="#88CCEE" d="M1369.3,329.6c-11.1,4-24.4,11.1-32.7,18l6.7-18l-6.7-18C1345.1,318.7,1358.6,325.9,1369.3,329.6z"/>
			</g>
		</g>
	</g>
	<ellipse stroke="#88CCEE" stroke-width="0.1389" stroke-miterlimit="10" cx="1040.9" cy="278.3" rx="14.3" ry="3.1"/>
	<ellipse stroke="#88CCEE" stroke-width="0.1389" stroke-miterlimit="10" cx="1129.1" cy="278.3" rx="14.3" ry="3.1"/>
	<ellipse stroke="#88CCEE" stroke-width="0.1389" stroke-miterlimit="10" cx="1217.6" cy="278.3" rx="14.3" ry="3.1"/>
	<g opacity="0.57">
		<g>
			
				<line fill="none" stroke="#88CCEE" stroke-width="0.2872" stroke-miterlimit="10" x1="1040.9" y1="278.3" x2="1040.9" y2="266.3"/>
			<g>
				<path fill="#88CCEE" d="M1040.9,256.7c1.7,4.7,4.7,10.1,7.4,13.6l-7.4-2.7l-7.4,2.7C1036.3,266.6,1039.1,261.1,1040.9,256.7z"/>
			</g>
		</g>
	</g>
	<g opacity="0.57">
		<g>
			
				<line fill="none" stroke="#88CCEE" stroke-width="0.2872" stroke-miterlimit="10" x1="1129.1" y1="276.1" x2="1129.1" y2="263.9"/>
			<g>
				<path fill="#88CCEE" d="M1129.1,254.1c1.7,4.7,4.7,10.1,7.4,13.6l-7.4-2.7l-7.4,2.7C1124.4,264.6,1127.7,258.9,1129.1,254.1z"/>
			</g>
		</g>
	</g>
	<g opacity="0.57">
		<g>
			
				<line fill="none" stroke="#88CCEE" stroke-width="0.2872" stroke-miterlimit="10" x1="1217.6" y1="281.9" x2="1217.6" y2="269.7"/>
			<g>
				<path fill="#88CCEE" d="M1217.6,260.1c1.7,4.7,4.7,10.1,7.4,13.6l-7.4-2.7l-7.6,2.7C1213.1,270.1,1215.9,264.6,1217.6,260.1z"/>
			</g>
		</g>
	</g>
	
		<rect x="977.6" y="488.4" fill="none" stroke="#88CCEE" stroke-width="0.2285" stroke-miterlimit="10" width="313.4" height="22.1"/>
	<ellipse stroke="#88CCEE" stroke-width="0.1389" stroke-miterlimit="10" cx="1042.4" cy="491.4" rx="14.3" ry="3.1"/>
	<ellipse stroke="#88CCEE" stroke-width="0.1389" stroke-miterlimit="10" cx="1130.6" cy="491.4" rx="14.3" ry="3.1"/>
	<ellipse stroke="#88CCEE" stroke-width="0.1389" stroke-miterlimit="10" cx="1218.9" cy="491.4" rx="14.3" ry="3.1"/>
	<g opacity="0.57">
		<g>
			
				<line fill="none" stroke="#88CCEE" stroke-width="0.2872" stroke-miterlimit="10" x1="1042.4" y1="491.4" x2="1042.4" y2="479.4"/>
			<g>
				<path fill="#88CCEE" d="M1042.4,469.6c1.7,4.7,4.7,10.1,7.4,13.6l-7.4-2.7l-7.4,2.7C1037.7,479.9,1040.7,474.1,1042.4,469.6z"/>
			</g>
		</g>
	</g>
	<g opacity="0.57">
		<g>
			
				<line fill="none" stroke="#88CCEE" stroke-width="0.2872" stroke-miterlimit="10" x1="1130.6" y1="489.4" x2="1130.6" y2="476.9"/>
			<g>
				<path fill="#88CCEE" d="M1130.6,467.3c1.7,4.7,4.7,10.1,7.4,13.6l-7.4-2.7l-7.4,2.7C1125.9,477.9,1128.9,472,1130.6,467.3z"/>
			</g>
		</g>
	</g>
	<g opacity="0.57">
		<g>
			
				<line fill="none" stroke="#88CCEE" stroke-width="0.2872" stroke-miterlimit="10" x1="1218.9" y1="495.1" x2="1218.9" y2="483.1"/>
			<g>
				<path fill="#88CCEE" d="M1218.9,473.3c1.7,4.7,4.7,10.1,7.4,13.6l-7.4-2.7l-7.4,2.7C1214.1,483.3,1217.3,477.9,1218.9,473.3z"/>
			</g>
		</g>
	</g>
	<rect x="991.7" y="347.9" fill="none" stroke="#88CCEE" stroke-width="0.238" stroke-miterlimit="10" width="18" height="26.9"/>
	<path fill="none" stroke="#88CCEE" stroke-width="0.238" stroke-miterlimit="10" d="M1000.7,351.7c-4,0-7.1,3.1-7.1,7.1h13.9
		C1007.9,354.7,1004.7,351.7,1000.7,351.7z"/>
	<line fill="none" stroke="#88CCEE" stroke-width="0.238" stroke-miterlimit="10" x1="1000.3" y1="361.4" x2="1000.7" y2="354.3"/>
	
		<rect x="1291.7" y="569.9" fill="#88CCEE" stroke="#231F20" stroke-width="0.2872" stroke-miterlimit="10" width="9.4" height="74.4"/>
	
		<rect x="1294.1" y="515.3" fill="#88CCEE" stroke="#231F20" stroke-width="0.2872" stroke-miterlimit="10" width="4.1" height="54.1"/>
	
		<rect x="1291.7" y="462.4" fill="#88CCEE" stroke="#231F20" stroke-width="0.2872" stroke-miterlimit="10" width="9.4" height="52.4"/>
	
		<rect x="1294.1" y="644.1" fill="#88CCEE" stroke="#231F20" stroke-width="0.2872" stroke-miterlimit="10" width="4.1" height="54.1"/>
	<polygon fill="#88CCEE" stroke="#231F20" stroke-width="0.2872" stroke-miterlimit="10" points="1291,742 976.1,742 976.1,725.3 
		1291.7,725.7 	"/>
	<path stroke="#88CCEE" stroke-width="9.552911e-02" stroke-miterlimit="10" d="M1016.3,661.7h-37.1c0,5.7,5.9,10.1,14.3,11.9
		l-2.4,47.9h13.9l-4-47.9C1009.4,672.6,1016.3,667.6,1016.3,661.7z"/>
	<rect x="981" y="658.7" fill="none" stroke="#88CCEE" stroke-width="0.1179" stroke-miterlimit="10" width="2.4" height="2.7"/>
	<rect x="981.9" y="656.3" fill="none" stroke="#88CCEE" stroke-width="0.1179" stroke-miterlimit="10" width="0.7" height="2.7"/>
	<path fill="none" stroke="#F3743F" stroke-width="0.1179" stroke-miterlimit="10" d="M1080.3,704.6V729H981l-0.3-63.9l3.4-4.7
		c0,0-0.3-6.4,0-6.7c1-1.7,7.4-4,8.6-3.1c0.7,0.3,0.7,1.7,0.7,1.7"/>
	<g>
		<path fill="none" stroke="#89CCED" stroke-width="5.894918e-02" stroke-miterlimit="10" d="M984.7,661.7c-0.3,0-1-0.3-1-1
			c-0.3-6.7,0-7.1,0-7.4c1-2.3,8.1-4.1,9.9-3.4c1.4,0.7,1.4,2.4,1.4,2.7c0,0.7-0.3,1-1,1l0,0c-0.7,0-1-0.3-1-1c0-0.3,0-0.7-0.3-1
			c-1.4,0-6.4,1.7-7.1,2.7c0,0.7,0,4,0,6.4C985.7,661.1,985.3,661.7,984.7,661.7L984.7,661.7z"/>
	</g>
	<ellipse fill="#88CCEE" cx="980.9" cy="655.6" rx="1.7" ry="0.3"/>
	<ellipse fill="#88CCEE" cx="983.7" cy="655.6" rx="1.7" ry="0.3"/>
	
		<rect x="1292.4" y="381.1" fill="#88CCEE" stroke="#231F20" stroke-width="0.2872" stroke-miterlimit="10" width="4.1" height="83"/>
	
		<rect x="1292.4" y="300.6" fill="#88CCEE" stroke="#231F20" stroke-width="0.2872" stroke-miterlimit="10" width="4.1" height="36.3"/>
	<g>
		<line fill="none" stroke="#88CCEE" stroke-width="0.1436" stroke-miterlimit="10" x1="1000.6" y1="348" x2="1000.6" y2="335.7"/>
		
			<rect x="992.6" y="317.3" fill="none" stroke="#88CCEE" stroke-width="0.1436" stroke-miterlimit="10" width="16.3" height="18.7"/>
		
			<text transform="matrix(1 0 0 1 996.4747 333.2938)" opacity="0.57" fill="#88CCEE" enable-background="new    " font-family="'PTSans-Regular'" font-size="15.9433">T</text>
	</g>
	<path stroke="#88CCEE" stroke-width="0.1006" stroke-miterlimit="10" d="M1129.9,721.6h-50.6c-4,0-6.7-3.1-6.7-6.7v-132
		c0-4,3.1-6.7,6.7-6.7h50.3c4,0,6.7,3.1,6.7,6.7v132C1136.6,718.1,1133.3,721.6,1129.9,721.6z"/>
</g>
<g id="hvac">
	
		<rect id="diffuserduct" x="911.9" y="676.4" opacity="0.5" fill="#DDCC77" enable-background="new    " width="16.7" height="21.9"/>
	<polygon id="vavducts" opacity="0.5" fill="#DDCC77" enable-background="new    " points="1115.3,516.9 1115.3,540 910.9,540 
		910.9,554.3 910.9,565.1 910.9,586.6 927.6,586.6 927.6,565.1 1042.7,565.1 1042.7,586.6 1059.4,586.6 1059.4,565.1 1140.4,565.1 
		1140.4,563.1 1140.4,540 1140.4,516.9 	"/>
	<polygon id="coldpipe3" fill="#15A6FF" points="1328.7,413.9 1328.7,397.3 1452.1,397.1 1451.9,390.4 967,390.4 967,390.7 
		961.9,390.7 961.9,322 956.7,322 957.1,397.1 967,397.1 1079.9,397.1 1079.9,411.4 1085,411.4 1085,397.1 1321.9,397.1 
		1322.3,411.1 	"/>
	<rect id="coldpipe2" x="995.6" y="113.7" fill="#15A6FF" width="5.7" height="117.6"/>
	<rect id="coldpipe1" x="936.4" y="126.3" fill="#15A6FF" width="5.7" height="89.1"/>
	<a id="chiller_1_" xlink:href="/#/chiller/basics" >
		<path id="chiller" fill="#010101" stroke="#45AB99" stroke-width="0.5" stroke-miterlimit="10" d="M1093.1,293.9V285h-12.9v-19.4
			h-5.7v12.9c-3.4-5.7-9.9-9.9-17.7-12.9c-0.4-28.9-24.4-39.4-40.4-39.4h-63.9v-13.3h-90v50h90V249h63.9c1.7,0,15,0.4,17.3,13.9
			h-140c-16.7,0-31,7.6-36.3,19v-19h-10.3V321h10.3v-15c5.1,10.3,19.4,19,36.3,19v26.1h23.7V325h90.4v26.1h23.7V325h9.4
			c15,0,27.6-6.7,34.4-15.6V325h5.7v-19.4h12.1v-9.4h-12.1v-2.3L1093.1,293.9L1093.1,293.9z"/>
	</a>
	<g id="valve">
		<polygon fill="#010101" stroke="#DDCC77" stroke-width="0.6904" stroke-miterlimit="10" points="1016.3,379.3 1040.7,393.1 
			1016.3,408.4 		"/>
		<polygon fill="#010101" stroke="#DDCC77" stroke-width="0.6904" stroke-miterlimit="10" points="1066.9,408.4 1041.1,393.1 
			1066.9,379.3 		"/>
	</g>
	<path id="cp-pump" fill="#010101" stroke="#45AB99" stroke-width="0.5" stroke-miterlimit="10" d="M1047.3,138.6h-34
		c-1.4,0-3-0.4-4.7-0.4c-2,0-3,0-4.7,0.4l0,0l0,0c-13.3,2-24.1,14-24.1,28.6c0,16,13,29.1,29.1,29.1c16,0,29.1-13,29.1-29.1
		c0-2,0-3-0.4-4.9h10.1L1047.3,138.6L1047.3,138.6z"/>
	<g id="tower">
		<path fill="#010101" stroke="#45AB99" stroke-width="0.4372" stroke-miterlimit="10" d="M910.6,19.9l2-2h81c0,0-2.7,4.4,0.4,0
			c-8.4,34.4,19.4,104,19.4,104c0,1.4-0.4,2.3-2,2.3c0,0-46.1,28.1-117.6,0c-2-1.4-2-1.4-2-2.3C892.1,121.9,917,50.9,910.6,19.9z"/>
		
			<ellipse fill="#010101" stroke="#45AB99" stroke-width="0.3689" stroke-miterlimit="10" cx="952.4" cy="19.6" rx="40.1" ry="8.4"/>
	</g>
	<path id="d-pump" stroke="#DDCC77" stroke-width="0.4493" stroke-miterlimit="10" d="M1004,380.3h-34c-1.4,0-3-0.4-4.7-0.4
		c-2,0-3,0-4.7,0.4l0,0l0,0c-13.3,2-24.1,14-24.1,28.6c0,16,13,29.1,29.1,29.1c16,0,29.1-13,29.1-29.1c0-2,0-3-0.4-4.9h10.1
		L1004,380.3L1004,380.3z"/>
	<path id="ahu1" fill="#010101" stroke="#DDCC77" stroke-width="0.5" stroke-miterlimit="10" d="M1190.7,525.7h-129.6
		c-6.1,0-11.1-4.9-11.1-11.1v-92.4c0-6.1,4.9-11.1,11.1-11.1h129.6c6.1,0,11.1,4.9,11.1,11.1v92.4
		C1201.9,520.7,1196.9,525.7,1190.7,525.7z"/>
	<text transform="matrix(1 0 0 1 1088.8029 463.5589)" fill="#DDCC77" font-family="'OpenSans-Semibold'" font-size="34.4934">AHU</text>
	<g id="vavbox2">
		<g>
			
				<rect x="1001" y="584.6" fill="#010101" stroke="#DDCC77" stroke-width="0.3504" stroke-miterlimit="10" width="100.6" height="97.1"/>
			
				<line fill="none" stroke="#DDCC77" stroke-linecap="round" stroke-miterlimit="10" x1="1089.3" y1="661" x2="1089.3" y2="638.9"/>
			
				<line fill="none" stroke="#DDCC77" stroke-linecap="round" stroke-miterlimit="10" x1="1073.4" y1="661" x2="1073.4" y2="638.9"/>
			
				<line fill="none" stroke="#DDCC77" stroke-linecap="round" stroke-miterlimit="10" x1="1058.1" y1="661" x2="1058.1" y2="638.9"/>
			
				<line fill="none" stroke="#DDCC77" stroke-linecap="round" stroke-miterlimit="10" x1="1042.1" y1="661" x2="1042.1" y2="638.9"/>
			
				<line fill="none" stroke="#DDCC77" stroke-linecap="round" stroke-miterlimit="10" x1="1025.7" y1="661" x2="1025.7" y2="638.9"/>
			
				<line fill="none" stroke="#DDCC77" stroke-linecap="round" stroke-miterlimit="10" x1="1009.9" y1="661" x2="1009.9" y2="638.9"/>
			
				<line fill="none" stroke="#DDCC77" stroke-linecap="round" stroke-miterlimit="10" x1="1101.6" y1="633.1" x2="1000" y2="633.1"/>
			
				<line fill="none" stroke="#DDCC77" stroke-linecap="round" stroke-miterlimit="10" x1="1101.6" y1="666.9" x2="1000" y2="666.9"/>
		</g>
		<text transform="matrix(1 0 0 1 1016.8644 622.6232)" fill="#DDCC77" font-family="'OpenSans-Semibold'" font-size="34.4934">VAV</text>
	</g>
	<path id="ahu2_1_" fill="#010101" stroke="#DDCC77" stroke-width="0.5" stroke-miterlimit="10" d="M1393.7,522.7h-129.6
		c-6.1,0-11.1-4.9-11.1-11.1v-92.4c0-6.1,4.9-11.1,11.1-11.1h129.6c6.1,0,11.1,4.9,11.1,11.1v92.4
		C1404.9,517.9,1399.9,522.7,1393.7,522.7z"/>
	<text transform="matrix(1 0 0 1 1291.8839 460.7376)" fill="#DDCC77" font-family="'OpenSans-Semibold'" font-size="34.4934">AHU</text>
	<path fill="none" stroke="#7C7C7C" stroke-width="0.539" stroke-linecap="round" stroke-miterlimit="10" d="M1443.6,382
		c0,0,10.6-0.7,8.1,12.6c0,0-1.7,8.4,5.1,10.3"/>
	<polygon id="hotwater" fill="#AF173C" points="1451.6,360.6 1392,360.6 1386.3,360.6 1192.4,360.6 1192.4,118.7 1186.7,118.7 
		1186.7,360.6 1186.7,366.6 1186.7,411.4 1192.4,411.4 1192.4,366.6 1386.3,366.6 1386.3,407.7 1392,407.7 1392,366.6 1451.6,366.6 
			"/>
	<path fill="none" stroke="#7C7C7C" stroke-width="0.539" stroke-linecap="round" stroke-miterlimit="10" d="M1443.6,353
		c0,0,10.6-0.7,8.1,12.6c0,0-1.7,8.4,5.1,10.3"/>
	<g id="diffuser_1_">
		
			<rect x="881" y="697" fill="#010101" stroke="#DDCC77" stroke-width="0.4171" stroke-miterlimit="10" width="77.1" height="70.4"/>
		<polygon fill="#010101" stroke="#DDCC77" stroke-width="0.5" stroke-miterlimit="10" points="881,767.4 919.7,732.1 958.4,767.4 
					"/>
		<polygon fill="#010101" stroke="#DDCC77" stroke-width="0.5" stroke-miterlimit="10" points="957.9,697 919.1,732.1 880.6,697 		
			"/>
		<circle fill="#010101" stroke="#DDCC77" stroke-width="0.5" stroke-miterlimit="10" cx="919.7" cy="732.1" r="14.7"/>
	</g>
	
		<rect id="duct-to-terminal" x="1316.4" y="522.7" opacity="0.5" fill="#DDCC77" enable-background="new    " width="25.1" height="46.3"/>
	<g id="vavbox1">
		<g>
			
				<rect x="869.7" y="584.6" fill="#010101" stroke="#DDCC77" stroke-width="0.3504" stroke-miterlimit="10" width="100.6" height="97.1"/>
			
				<line fill="none" stroke="#DDCC77" stroke-width="0.413" stroke-linecap="round" stroke-miterlimit="10" x1="957.9" y1="661" x2="957.9" y2="639"/>
			
				<line fill="none" stroke="#DDCC77" stroke-width="0.413" stroke-linecap="round" stroke-miterlimit="10" x1="942.1" y1="661" x2="942.1" y2="639"/>
			
				<line fill="none" stroke="#DDCC77" stroke-width="0.413" stroke-linecap="round" stroke-miterlimit="10" x1="926.9" y1="661" x2="926.9" y2="639"/>
			
				<line fill="none" stroke="#DDCC77" stroke-width="0.413" stroke-linecap="round" stroke-miterlimit="10" x1="911.1" y1="661" x2="911.1" y2="639"/>
			
				<line fill="none" stroke="#DDCC77" stroke-width="0.413" stroke-linecap="round" stroke-miterlimit="10" x1="894.6" y1="661" x2="894.6" y2="639"/>
			
				<line fill="none" stroke="#DDCC77" stroke-width="0.413" stroke-linecap="round" stroke-miterlimit="10" x1="878.6" y1="661" x2="878.6" y2="639"/>
			
				<line fill="none" stroke="#DDCC77" stroke-width="0.413" stroke-linecap="round" stroke-miterlimit="10" x1="970.1" y1="633.1" x2="868.7" y2="633.1"/>
			
				<line fill="none" stroke="#DDCC77" stroke-width="0.413" stroke-linecap="round" stroke-miterlimit="10" x1="970.1" y1="667.1" x2="868.7" y2="667.1"/>
		</g>
		<text transform="matrix(1 0 0 1 883.4572 622.7249)" fill="#DDCC77" font-family="'OpenSans-Semibold'" font-size="34.4934">VAV</text>
	</g>
	<g id="terminal">
		
			<rect x="1290" y="569.6" fill="#010101" stroke="#DDCC77" stroke-width="0.4799" stroke-miterlimit="10" width="78.1" height="95.6"/>
		
			<line fill="none" stroke="#DDCC77" stroke-width="1.0737" stroke-linecap="round" stroke-miterlimit="10" x1="1303.3" y1="635.1" x2="1353.9" y2="583.3"/>
		<line fill="none" stroke="#DDCC77" stroke-width="1.0737" stroke-miterlimit="10" x1="1290" y1="648.1" x2="1368.1" y2="648.1"/>
	</g>
	<path id="boiler" fill="#010101" stroke="#45AB99" stroke-width="0.5" stroke-miterlimit="10" d="M1400.9,75.9v9.4h-15
		c-2.3-21.7-17.7-38.7-37.1-38.7h-147.6c-13.9,0-24.9,7.6-32.3,20h-9.4v58.1h9.4c6.7,12.1,19,20,32.3,20v26.1h22.9V145h90.9v26.1
		h23.7V145h9.4c19.4,0,35-16.7,37.1-37.1h15v7.4h34.4V76L1400.9,75.9L1400.9,75.9z"/>
	<path id="cp-pump2" fill="#010101" stroke="#45AB99" stroke-width="0.5" stroke-miterlimit="10" d="M1316.1,324.7h-34
		c-1.4,0-3-0.4-4.7-0.4c-2,0-3,0-4.7,0.4l0,0l0,0c-13.3,2-24.1,14-24.1,28.6c0,16,13,29.1,29.1,29.1c16,0,29.1-13,29.1-29.1
		c0-2,0-3-0.4-4.9h10.1L1316.1,324.7L1316.1,324.7z"/>
	<g id="controls">
		<line fill="none" stroke="#DDCC77" stroke-miterlimit="10" x1="1403.9" y1="465.3" x2="1421.1" y2="465.3"/>
		<rect x="1423" y="452.3" stroke="#DDCC77" stroke-width="0.5" stroke-miterlimit="10" width="22.9" height="26.6"/>
		<g>
			<path fill="#DDCC77" d="M1440.6,460.9h-5.1v14.6h-2.3v-14.6h-5.1v-1.7h11.6L1440.6,460.9L1440.6,460.9z"/>
		</g>
	</g>
	<g id="controls_1_">
		<line fill="none" stroke="#DDCC77" stroke-miterlimit="10" x1="1032.9" y1="460.7" x2="1049.9" y2="460.7"/>
		<rect x="1007.9" y="450.3" stroke="#DDCC77" stroke-width="0.5" stroke-miterlimit="10" width="22.9" height="26.6"/>
		<g>
			<path fill="#DDCC77" d="M1025.7,459h-5.1v14.6h-2.3V459h-5.1v-1.9h11.6L1025.7,459L1025.7,459z"/>
		</g>
	</g>
	<g id="controls_2_">
		<line fill="none" stroke="#DDCC77" stroke-miterlimit="10" x1="863.7" y1="733.7" x2="881" y2="733.7"/>
		<rect x="839.1" y="723.3" stroke="#DDCC77" stroke-width="0.5" stroke-miterlimit="10" width="22.9" height="26.6"/>
		<g>
			<path fill="#DDCC77" d="M856.9,731.9h-5.1v14.6h-2.3v-14.6h-5.1v-1.7h11.6L856.9,731.9L856.9,731.9z"/>
		</g>
	</g>
	<g id="cp-controls">
		<line fill="none" stroke="#45AB99" stroke-width="0.5" stroke-miterlimit="10" x1="922.4" y1="174.1" x2="939.7" y2="174.1"/>
		
			<rect x="897.6" y="160.9" fill="#010101" stroke="#45AB99" stroke-width="0.5" stroke-miterlimit="10" width="22.9" height="26.6"/>
		<g>
			<path fill="#45AB99" d="M915.3,169.7h-5.1v14.6h-2.3v-14.6h-5.1V168h11.6L915.3,169.7L915.3,169.7z"/>
		</g>
	</g>
	<g id="fan">
		<ellipse fill="#010101" stroke="#DDCC77" stroke-width="0.636" stroke-miterlimit="10" cx="1155" cy="498.9" rx="25.6" ry="8.9"/>
		
			<ellipse fill="#010101" stroke="#DDCC77" stroke-width="0.636" stroke-miterlimit="10" cx="1104.7" cy="500.9" rx="25.6" ry="8.9"/>
		<path fill="#010101" stroke="#DDCC77" stroke-width="0.8134" stroke-miterlimit="10" d="M1127.1,504v-29.3c0-1.4,1.3-2.4,2.4-2.4
			l0,0c1.4,0,2.4,1.3,2.4,2.4V504c0,1.4-1.3,2.4-2.4,2.4l0,0C1128.4,506.7,1127.1,505.6,1127.1,504z"/>
	</g>
</g>
</svg>
