<?xml version="1.0" encoding="utf-8"?>
<!-- Generator: Adobe Illustrator 18.0.0, SVG Export Plug-In . SVG Version: 6.00 Build 0)  -->
<!DOCTYPE svg PUBLIC "-//W3C//DTD SVG 1.1//EN" "http://www.w3.org/Graphics/SVG/1.1/DTD/svg11.dtd">
<svg version="1.1" xmlns="http://www.w3.org/2000/svg" xmlns:xlink="http://www.w3.org/1999/xlink" x="0px" y="0px"
	 viewBox="0 0 131.2 244.6" style="enable-background:new 0 0 131.2 244.6;" xml:space="preserve">
<g id="space">
	<g>
		
			<rect x="14.2" y="73.7" style="fill:#88CCEE;stroke:#231F20;stroke-width:0.45;stroke-miterlimit:10;" width="2.4" height="153.9"/>
		
			<rect x="14.7" y="53.2" style="fill:#88CCEE;stroke:#231F20;stroke-width:0.45;stroke-miterlimit:10;" width="1.2" height="20.7"/>
		
			<rect x="14.1" y="40.6" style="fill:#88CCEE;stroke:#231F20;stroke-width:0.45;stroke-miterlimit:10;" width="2.6" height="12.4"/>
		
			<rect x="1.6" y="25.3" transform="matrix(0.9699 -0.2436 0.2436 0.9699 -4.6991 15.7141)" style="fill:#88CCEE;stroke:#231F20;stroke-width:0.45;stroke-miterlimit:10;" width="119.2" height="3.2"/>
		<rect x="16.6" y="86.5" style="fill:none;stroke:#88CCEE;stroke-width:0.358;stroke-miterlimit:10;" width="88.5" height="6.3"/>
		<rect x="105.1" y="72.6" style="fill:#88CCEE;stroke:#231F20;stroke-width:0.45;stroke-miterlimit:10;" width="2.6" height="21"/>
		
			<rect x="105.8" y="51.8" style="fill:#88CCEE;stroke:#231F20;stroke-width:0.45;stroke-miterlimit:10;" width="1.2" height="20.7"/>
		
			<rect x="105.1" y="39.3" style="fill:#88CCEE;stroke:#231F20;stroke-width:0.45;stroke-miterlimit:10;" width="2.6" height="12.4"/>
		
			<rect x="105.8" y="29.1" style="fill:#88CCEE;stroke:#231F20;stroke-width:0.45;stroke-miterlimit:10;" width="1.2" height="10.2"/>
		<polygon style="fill:#88CCEE;stroke:#231F20;stroke-width:0.45;stroke-miterlimit:10;" points="107.7,29.2 105.1,29.2 105.1,17.6 
			107.7,16.7 		"/>
		
			<rect x="16.5" y="218.2" style="fill:#88CCEE;stroke:#231F20;stroke-width:0.45;stroke-miterlimit:10;" width="8.8" height="9.8"/>
		<rect x="12.9" y="228" style="fill:#88CCEE;stroke:#231F20;stroke-width:0.45;stroke-miterlimit:10;" width="14" height="2.6"/>
		
			<rect x="96.6" y="218.2" style="fill:#88CCEE;stroke:#231F20;stroke-width:0.45;stroke-miterlimit:10;" width="8.8" height="9.9"/>
		<rect x="95.1" y="228" style="fill:#88CCEE;stroke:#231F20;stroke-width:0.45;stroke-miterlimit:10;" width="14" height="2.6"/>
		<polygon style="fill:none;stroke:#88CCEE;stroke-width:0.225;stroke-miterlimit:10;" points="55.1,43.8 24.2,43.8 25.6,41.5 
			53.7,41.5 		"/>
		<line style="fill:none;stroke:#88CCEE;stroke-width:0.225;stroke-miterlimit:10;" x1="28.1" y1="41.3" x2="30" y2="36.3"/>
		<line style="fill:none;stroke:#88CCEE;stroke-width:0.225;stroke-miterlimit:10;" x1="52.1" y1="41.3" x2="49.7" y2="31.4"/>
		<polygon style="fill:none;stroke:#88CCEE;stroke-width:0.225;stroke-miterlimit:10;" points="91.7,44 60.8,44 62.2,41.7 
			90.3,41.7 		"/>
		<line style="fill:none;stroke:#88CCEE;stroke-width:0.225;stroke-miterlimit:10;" x1="64.6" y1="41.5" x2="68.1" y2="27.2"/>
		<line style="fill:none;stroke:#88CCEE;stroke-width:0.225;stroke-miterlimit:10;" x1="88.7" y1="41.5" x2="85.2" y2="23"/>
		<g>
			<line style="fill:none;stroke:#88CCEE;stroke-width:0.1734;stroke-miterlimit:10;" x1="47.5" y1="154.4" x2="47.5" y2="159.6"/>
			<path style="fill:none;stroke:#88CCEE;stroke-width:0.1734;stroke-miterlimit:10;" d="M49.7,161.4c0,1.2-4.4,1.2-4.4,0
				c0-1.2,1-2.2,2.2-2.2C48.8,159.2,49.7,160.2,49.7,161.4z"/>
		</g>
		<g>
			<line style="fill:none;stroke:#88CCEE;stroke-width:0.1734;stroke-miterlimit:10;" x1="74" y1="154.2" x2="74" y2="159.4"/>
			<path style="fill:none;stroke:#88CCEE;stroke-width:0.1734;stroke-miterlimit:10;" d="M76.2,161.2c0,1.2-4.4,1.2-4.4,0
				c0-1.2,1-2.2,2.2-2.2C75.3,159,76.2,160,76.2,161.2z"/>
		</g>
		<g style="opacity:0.4;">
			<g>
				<path style="fill:none;stroke:#88CCEE;stroke-width:2.7003;stroke-miterlimit:10;" d="M121.4,72.8c-3.8,0-3.8-1.8-7.7-1.8
					c-3.8,0-3.8,1.8-7.7,1.8c-3.8,0-3.8-1.8-7.7-1.8c-3.9,0-3.9,1.8-7.7,1.8c-0.5,0-1,0-1.4-0.1"/>
				<g>
					<path style="fill:#88CCEE;" d="M82.9,71c3.3-0.3,7.4-1.3,10.2-2.7L90,72.8l0.5,5.4C88.8,75.6,85.6,72.8,82.9,71z"/>
				</g>
			</g>
		</g>
		
			<rect x="105.6" y="206.1" style="fill:#88CCEE;stroke:#231F20;stroke-width:0.45;stroke-miterlimit:10;" width="2.6" height="21.9"/>
		
			<rect x="105" y="103.5" style="fill:#88CCEE;stroke:#231F20;stroke-width:0.45;stroke-miterlimit:10;" width="2.6" height="12.4"/>
		<g style="opacity:0.4;">
			<g>
				<path style="fill:none;stroke:#88CCEE;stroke-width:2.7003;stroke-miterlimit:10;" d="M120.8,125.4c0,0-4,0-7.4,0
					s-2.1-3.5-8.1-3.5s-51.4,0-51.4,0s-15.5,1-15.5-5.3l0-11.9c0,0-0.1-5.2,9.4-5.4c0,0,55.1,0,57.7,0s4.2,2.5,6.8,2.5
					c1.4,0,5.2,0,8.7,0"/>
				<g>
					<path style="fill:#88CCEE;" d="M127.5,101.8c-3.1,1.1-6.9,3.1-9.2,5.1l1.9-5.1l-1.9-5.1C120.7,98.7,124.5,100.7,127.5,101.8z"
						/>
				</g>
			</g>
		</g>
		<ellipse style="stroke:#88CCEE;stroke-width:0.2177;stroke-miterlimit:10;" cx="34.8" cy="87.3" rx="4" ry="0.9"/>
		<ellipse style="stroke:#88CCEE;stroke-width:0.2177;stroke-miterlimit:10;" cx="59.7" cy="87.3" rx="4" ry="0.9"/>
		<ellipse style="stroke:#88CCEE;stroke-width:0.2177;stroke-miterlimit:10;" cx="84.7" cy="87.3" rx="4" ry="0.9"/>
		<g style="opacity:0.57;">
			<g>
				<line style="fill:none;stroke:#88CCEE;stroke-width:0.45;stroke-miterlimit:10;" x1="34.8" y1="87.3" x2="34.8" y2="83.9"/>
				<g>
					<path style="fill:#88CCEE;" d="M34.8,81.2c0.5,1.3,1.3,2.9,2.1,3.8l-2.1-0.8L32.7,85C33.5,84,34.3,82.4,34.8,81.2z"/>
				</g>
			</g>
		</g>
		<g style="opacity:0.57;">
			<g>
				<line style="fill:none;stroke:#88CCEE;stroke-width:0.45;stroke-miterlimit:10;" x1="59.7" y1="86.7" x2="59.7" y2="83.2"/>
				<g>
					<path style="fill:#88CCEE;" d="M59.7,80.5c0.5,1.3,1.3,2.9,2.1,3.8l-2.1-0.8l-2.1,0.8C58.4,83.4,59.3,81.8,59.7,80.5z"/>
				</g>
			</g>
		</g>
		<g style="opacity:0.57;">
			<g>
				<line style="fill:none;stroke:#88CCEE;stroke-width:0.45;stroke-miterlimit:10;" x1="84.7" y1="88.3" x2="84.7" y2="84.9"/>
				<g>
					<path style="fill:#88CCEE;" d="M84.7,82.2c0.5,1.3,1.3,2.9,2.1,3.8l-2.1-0.8L82.5,86C83.4,85,84.2,83.4,84.7,82.2z"/>
				</g>
			</g>
		</g>
		<rect x="16.9" y="146.6" style="fill:none;stroke:#88CCEE;stroke-width:0.358;stroke-miterlimit:10;" width="88.5" height="6.3"/>
		<ellipse style="stroke:#88CCEE;stroke-width:0.2177;stroke-miterlimit:10;" cx="35.2" cy="147.5" rx="4" ry="0.9"/>
		<ellipse style="stroke:#88CCEE;stroke-width:0.2177;stroke-miterlimit:10;" cx="60.1" cy="147.5" rx="4" ry="0.9"/>
		<ellipse style="stroke:#88CCEE;stroke-width:0.2177;stroke-miterlimit:10;" cx="85" cy="147.5" rx="4" ry="0.9"/>
		<g style="opacity:0.57;">
			<g>
				<line style="fill:none;stroke:#88CCEE;stroke-width:0.45;stroke-miterlimit:10;" x1="35.2" y1="147.5" x2="35.2" y2="144.1"/>
				<g>
					<path style="fill:#88CCEE;" d="M35.2,141.3c0.5,1.3,1.3,2.9,2.1,3.8l-2.1-0.8l-2.1,0.8C33.9,144.2,34.7,142.6,35.2,141.3z"/>
				</g>
			</g>
		</g>
		<g style="opacity:0.57;">
			<g>
				<line style="fill:none;stroke:#88CCEE;stroke-width:0.45;stroke-miterlimit:10;" x1="60.1" y1="146.9" x2="60.1" y2="143.4"/>
				<g>
					<path style="fill:#88CCEE;" d="M60.1,140.7c0.5,1.3,1.3,2.9,2.1,3.8l-2.1-0.8l-2.1,0.8C58.8,143.6,59.6,142,60.1,140.7z"/>
				</g>
			</g>
		</g>
		<g style="opacity:0.57;">
			<g>
				<line style="fill:none;stroke:#88CCEE;stroke-width:0.45;stroke-miterlimit:10;" x1="85" y1="148.5" x2="85" y2="145.1"/>
				<g>
					<path style="fill:#88CCEE;" d="M85,142.3c0.5,1.3,1.3,2.9,2.1,3.8l-2.1-0.8l-2.1,0.8C83.7,145.2,84.6,143.6,85,142.3z"/>
				</g>
			</g>
		</g>
		<rect x="20.9" y="106.9" style="fill:none;stroke:#88CCEE;stroke-width:0.3729;stroke-miterlimit:10;" width="5.1" height="7.6"/>
		<path style="fill:none;stroke:#88CCEE;stroke-width:0.3729;stroke-miterlimit:10;" d="M23.5,108c-1.1,0-2,0.9-2,2h3.9
			C25.5,108.9,24.6,108,23.5,108z"/>
		<line style="fill:none;stroke:#88CCEE;stroke-width:0.3729;stroke-miterlimit:10;" x1="23.3" y1="110.7" x2="23.5" y2="108.7"/>
		
			<rect x="105.6" y="169.6" style="fill:#88CCEE;stroke:#231F20;stroke-width:0.45;stroke-miterlimit:10;" width="2.6" height="21"/>
		
			<rect x="106.3" y="154.2" style="fill:#88CCEE;stroke:#231F20;stroke-width:0.45;stroke-miterlimit:10;" width="1.2" height="15.3"/>
		
			<rect x="105.6" y="139.3" style="fill:#88CCEE;stroke:#231F20;stroke-width:0.45;stroke-miterlimit:10;" width="2.6" height="14.8"/>
		
			<rect x="106.3" y="190.6" style="fill:#88CCEE;stroke:#231F20;stroke-width:0.45;stroke-miterlimit:10;" width="1.2" height="15.3"/>
		
			<rect x="16.9" y="211.9" transform="matrix(0.9994 -3.528595e-02 3.528595e-02 0.9994 -7.5497 2.2928)" style="fill:#88CCEE;stroke:#231F20;stroke-width:0.45;stroke-miterlimit:10;" width="88.5" height="6.3"/>
		<path style="stroke:#88CCEE;stroke-width:0.1497;stroke-miterlimit:10;" d="M27.8,195.5H17.3c0,1.6,1.7,2.9,4,3.3l-0.7,13.5h3.9
			l-1.1-13.5C25.9,198.6,27.8,197.2,27.8,195.5z"/>
		<rect x="17.9" y="194.7" style="fill:none;stroke:#88CCEE;stroke-width:0.1848;stroke-miterlimit:10;" width="0.7" height="0.8"/>
		<rect x="18.1" y="194" style="fill:none;stroke:#88CCEE;stroke-width:0.1848;stroke-miterlimit:10;" width="0.2" height="0.8"/>
		<path style="fill:none;stroke:#F3743F;stroke-width:0.1848;stroke-miterlimit:10;" d="M45.9,207.6v6.9h-28l-0.1-18l1-1.3
			c0,0-0.1-1.8,0-1.9c0.3-0.5,2.1-1.1,2.4-0.9c0.2,0.1,0.2,0.5,0.2,0.5"/>
		<g>
			<path style="fill:none;stroke:#89CCED;stroke-width:9.237701e-02;stroke-miterlimit:10;" d="M18.9,195.5c-0.1,0-0.3-0.1-0.3-0.3
				c-0.1-1.9,0-2,0-2.1c0.3-0.6,2.3-1.2,2.8-1c0.4,0.2,0.4,0.7,0.4,0.8c0,0.2-0.1,0.3-0.3,0.3c0,0,0,0,0,0c-0.2,0-0.3-0.1-0.3-0.3
				c0-0.1,0-0.2-0.1-0.3c-0.4,0-1.8,0.5-2,0.8c0,0.2,0,1.1,0,1.8C19.2,195.4,19.1,195.5,18.9,195.5
				C18.9,195.5,18.9,195.5,18.9,195.5z"/>
		</g>
		<ellipse style="fill:#88CCEE;" cx="17.8" cy="193.8" rx="0.5" ry="0.1"/>
		<ellipse style="fill:#88CCEE;" cx="18.7" cy="193.8" rx="0.5" ry="0.1"/>
		
			<rect x="105.8" y="116.3" style="fill:#88CCEE;stroke:#231F20;stroke-width:0.45;stroke-miterlimit:10;" width="1.2" height="23.4"/>
		
			<rect x="105.8" y="93.6" style="fill:#88CCEE;stroke:#231F20;stroke-width:0.45;stroke-miterlimit:10;" width="1.2" height="10.2"/>
		<g>
			<line style="fill:none;stroke:#88CCEE;stroke-width:0.225;stroke-miterlimit:10;" x1="23.4" y1="107" x2="23.4" y2="103.5"/>
			<rect x="21.2" y="98.3" style="fill:none;stroke:#88CCEE;stroke-width:0.225;stroke-miterlimit:10;" width="4.6" height="5.3"/>
			
				<text transform="matrix(1 0 0 1 22.2528 102.821)" style="opacity:0.57;fill:#88CCEE; font-family:'PTSans-Regular'; font-size:4.5004;">T</text>
		</g>
		<path style="stroke:#88CCEE;stroke-width:0.1577;stroke-miterlimit:10;" d="M59.9,212.4H45.6c-1.1,0-1.9-0.9-1.9-1.9v-37.3
			c0-1.1,0.9-1.9,1.9-1.9h14.2c1.1,0,1.9,0.9,1.9,1.9v37.3C61.8,211.5,60.9,212.4,59.9,212.4z"/>
	</g>
</g>
<g id="Layer_2">
	<g>
		<path id="cp-dots_2_" style="fill:none;stroke:#45AB99;stroke-width:0.5;stroke-miterlimit:10;stroke-dasharray:3;" d="
			M124.4,77.3H4.8c-1.2,0-1.9-0.9-1.9-1.9v-73c0-1.2,0.9-1.9,1.9-1.9h119.6c1.2,0,1.9,0.9,1.9,1.9v72.9
			C126.5,76.4,125.6,77.3,124.4,77.3z"/>
		<path id="dis-dots_2_" style="fill:none;stroke:#DDCC77;stroke-width:0.5;stroke-miterlimit:10;stroke-dasharray:3;" d="
			M124.7,155.9H4.7c-1,0-1.8-0.8-1.8-1.8v-68c0-1,0.8-1.8,1.8-1.8h120c1,0,1.8,0.8,1.8,1.8v68C126.5,155.1,125.7,155.9,124.7,155.9z
			"/>
		<g id="cp-dis-pipes_2_">
			<polygon style="fill:#010101;stroke:#DDCC77;stroke-width:0.5;stroke-miterlimit:10;" points="24.3,41.4 23,41.4 23,73.1 
				23,98.2 64.1,98.2 64.1,113.1 65.2,113.1 65.2,97 24.3,97 			"/>
			<polygon style="fill:#010101;stroke:#DDCC77;stroke-width:0.5;stroke-miterlimit:10;" points="76.9,60.4 78.1,60.4 78.1,94.2 
				72.4,94.2 72.4,113.3 71.2,113.3 71.2,93.1 76.9,93.1 			"/>
			<polygon style="fill:#010101;stroke:#DDCC77;stroke-width:0.5;stroke-miterlimit:10;" points="44.3,41 43.4,41 43.5,73.1 
				43.5,94.1 66.9,94.1 66.9,113.1 68.1,113.1 68.1,92.9 44.8,92.9 			"/>
			<polygon style="fill:#010101;stroke:#DDCC77;stroke-width:0.5;stroke-miterlimit:10;" points="95,63.7 96.3,63.7 96.2,98.6 
				75.3,98.6 75.3,113.3 74.2,113.3 74.2,97.5 95,97.5 			"/>
		</g>
		<polygon id="diffuser_2_" style="fill:#010101;stroke:#DDCC77;stroke-width:0.5;stroke-miterlimit:10;" points="40.9,216.6 
			56.8,216.6 51.3,211.4 45.8,211.4 		"/>
		<path id="boiler_2_" style="fill:#010101;stroke:#45AB99;stroke-width:0.5;stroke-miterlimit:10;" d="M49.8,32.9v1.7h-2.7
			c-0.4-3.9-3.2-7-6.7-7H13.8c-2.5,0-4.5,1.4-5.8,3.6H6.3v10.5H8c1.2,2.2,3.4,3.6,5.8,3.6V50h4.1v-4.7h16.4V50h4.3v-4.7h1.7
			c3.5,0,6.3-3,6.7-6.7h2.7v1.3h6.2v-7H49.8L49.8,32.9z"/>
		<path id="cp-piper-back-tower_2_" style="stroke:#45AB99;stroke-width:0.5;stroke-miterlimit:10;" d="M106.7,53.8h1V26v-1.7
			c0-0.4-0.3-0.5-0.5-0.5h-8L98.9,25h7.3c0.3,0,0.5,0.3,0.5,0.5V53.8L106.7,53.8z"/>
		<g id="tower_2_">
			<path style="fill:none;stroke:#45AB99;stroke-width:0.5;stroke-miterlimit:10;" d="M97.9,30.3c0,0.3-0.3,0.4-0.4,0.4H80.8h-0.1
				l-1-5.6l-3-15.8c0-0.3,0.1-0.5,0.4-0.5h24.2c0.3,0,0.4,0.3,0.4,0.5L97.9,30.3z"/>
			<line style="fill:none;stroke:#45AB99;stroke-width:0.5;stroke-miterlimit:10;" x1="77.8" y1="17.5" x2="100.1" y2="17.5"/>
			<g>
				<path style="fill:none;stroke:#45AB99;stroke-width:0.5;stroke-linecap:round;stroke-miterlimit:10;" d="M83.5,20.3l0.9-0.8
					c0.1-0.1,0.1-0.3,0.1-0.4v-1.4"/>
				
					<line style="fill:none;stroke:#45AB99;stroke-width:0.5;stroke-linecap:round;stroke-miterlimit:10;" x1="85.6" y1="20.3" x2="84.7" y2="19.4"/>
			</g>
			<g>
				<path style="fill:none;stroke:#45AB99;stroke-width:0.5;stroke-linecap:round;stroke-miterlimit:10;" d="M92.2,20.2l0.9-0.8
					c0.1-0.1,0.1-0.3,0.1-0.4v-1.4"/>
				
					<line style="fill:none;stroke:#45AB99;stroke-width:0.5;stroke-linecap:round;stroke-miterlimit:10;" x1="94.2" y1="20.2" x2="93.3" y2="19.1"/>
			</g>
			<path style="fill:none;stroke:#45AB99;stroke-width:0.5;stroke-miterlimit:10;" d="M89.7,22.8H88c-0.3,0-0.4-0.3-0.4-0.4V21
				c0-0.3,0.3-0.4,0.4-0.4h1.7c0.3,0,0.4,0.3,0.4,0.4v1.4C90.2,22.6,90,22.8,89.7,22.8z"/>
			
				<line style="fill:none;stroke:#45AB99;stroke-width:0.5;stroke-linecap:round;stroke-miterlimit:10;" x1="88.9" y1="22.9" x2="88.9" y2="30.1"/>
			<path id="waterpath_2_" style="fill:none;stroke:#45AB99;stroke-width:0.5;stroke-miterlimit:10;" d="M79.7,26
				c-0.1-0.4,0.3-0.6,0.6-0.5c1.4,0.6,4.8,1.7,9.1-0.4c0,0,4.8-2.3,9.1-0.4c0.1,0.1,0.3,0.3,0.3,0.5l-1,5.2c0,0.3-0.3,0.4-0.4,0.4
				H81.1c-0.3,0-0.4-0.1-0.4-0.4L79.7,26z"/>
		</g>
		<path id="chiller_2_" style="fill:#010101;stroke:#45AB99;stroke-width:0.5;stroke-miterlimit:10;" d="M115.9,59.1v-1.6h-2.3V54
			h-1v2.3c-0.6-1-1.8-1.8-3.2-2.3c-0.1-5.2-4.4-7.1-7.3-7.1H90.6v-2.4H74.4v9h16.2V51h11.5c0.3,0,2.7,0.1,3.1,2.5H80
			c-3,0-5.6,1.4-6.5,3.4v-3.4h-1.9V64h1.9v-2.7c0.9,1.9,3.5,3.4,6.5,3.4v4.7h4.3v-4.7h16.3v4.7h4.3v-4.7h1.7c2.7,0,5-1.2,6.2-2.8
			v2.8h1v-3.5h2.2v-1.7h-2.2v-0.4H115.9L115.9,59.1z"/>
		<path id="cp-pipe-tower_2_" style="stroke:#45AB99;stroke-width:0.5;stroke-miterlimit:10;" d="M73.3,53.5h-1v-29V24
			c0-0.4,0.3-0.5,0.5-0.5h6c0.3,0,0.4,0.3,0.5,0.4h0.3c0,0.4-0.1,0.6-0.5,0.6h-5.2c-0.3,0-0.5,0.3-0.5,0.5v28.5H73.3z"/>
		<path id="cp-fan_2_" style="fill:#010101;stroke:#45AB99;stroke-width:0.5;stroke-miterlimit:10;" d="M93.2,15.5V8.7
			c0-0.3,0.1-0.6,0.1-0.9c0-0.4,0-0.6-0.1-0.9l0,0l0,0C92.8,4.2,90.4,2,87.5,2c-3.2,0-5.8,2.6-5.8,5.8s2.6,5.8,5.8,5.8
			c0.4,0,0.6,0,1-0.1v2H93.2z"/>
		<path id="ds-pump2_2_" style="fill:#010101;stroke:#DDCC77;stroke-width:0.5539;stroke-miterlimit:10;" d="M99.2,94.6
			c0-3.1-2.5-5.6-5.6-5.6S88,91.5,88,94.6c0,1.9,0.9,3.5,2.3,4.5l-2.1,2.5h11L97,99C98.3,98,99.2,96.4,99.2,94.6z"/>
		<path id="ds-pump1_2_" style="fill:#010101;stroke:#DDCC77;stroke-width:0.5725;stroke-miterlimit:10;" d="M31.7,94.6
			c0-3.1-2.5-5.6-5.6-5.6s-5.6,2.5-5.6,5.6c0,1.8,0.8,3.4,2.2,4.4l-2.1,2.6h11L29.5,99C30.9,98,31.7,96.4,31.7,94.6z"/>
		<path id="cp-pump_2_" style="fill:#010101;stroke:#45AB99;stroke-width:0.5652;stroke-miterlimit:10;" d="M75.5,33.4
			c0-3.1-2.5-5.6-5.6-5.6s-5.6,2.5-5.6,5.6c0,1.8,0.9,3.4,2.2,4.4l-2.2,2.7h11l-2.1-2.6C74.6,36.9,75.5,35.3,75.5,33.4z"/>
		<path id="ducts_2_" style="fill:none;stroke:#DDCC77;stroke-width:0.5;stroke-miterlimit:10;stroke-dasharray:2.8964;" d="
			M124.7,243.3H4.5c-1,0-1.8-0.8-1.8-1.8v-76.8c0-1,0.8-1.8,1.8-1.8h120.1c1,0,1.8,0.8,1.8,1.8v76.8
			C126.5,242.3,125.7,243.3,124.7,243.3z"/>
		<polygon id="vav-duct_2_" style="fill:#010101;stroke:#DDCC77;stroke-width:0.5;stroke-miterlimit:10;" points="101.2,121.4 
			102.4,127 104,126.9 104,173.6 17,173.5 17,211.3 22.4,211.3 22.4,180.2 45.8,180.2 45.8,211.3 51.4,211.3 51.4,180.2 
			109.9,180.2 109.9,170.4 109.9,121.4 		"/>
		<g id="zone1_4_">
			<path style="fill:#010101;stroke:#DDCC77;stroke-width:0.5;stroke-miterlimit:10;" d="M30.9,237.3H8.2c-0.8,0-1.4-0.6-1.4-1.4
				v-17.5c0-0.8,0.6-1.4,1.4-1.4H31c0.8,0,1.4,0.6,1.4,1.4v17.5C32.4,236.6,31.7,237.3,30.9,237.3z"/>
			<g>
				<g>
					<path style="fill:#DDCC77;" d="M15.5,226.8l1.3-2.3l0.1-0.1h-1.4V224h1.7v0.4l-1.3,2.3l-0.1,0.1h1.4v0.4h-1.7V226.8z"/>
					<path style="fill:#DDCC77;" d="M17.3,225.9c0-0.4,0.1-0.6,0.3-0.9c0.1-0.3,0.4-0.3,0.6-0.3c0.3,0,0.5,0.1,0.6,0.3
						s0.3,0.5,0.3,0.9s-0.1,0.6-0.3,0.9c-0.1,0.3-0.4,0.3-0.6,0.3c-0.3,0-0.5-0.1-0.6-0.3C17.3,226.7,17.3,226.4,17.3,225.9z
						 M17.6,225.9c0,0.1,0,0.3,0,0.4s0,0.3,0.1,0.3c0,0.1,0.1,0.1,0.1,0.1s0.1,0.1,0.3,0.1s0.3-0.1,0.4-0.3c0.1-0.1,0.1-0.4,0.1-0.6
						c0-0.1,0-0.3,0-0.4c0-0.1,0-0.3-0.1-0.3c0-0.1-0.1-0.1-0.1-0.1s-0.1-0.1-0.3-0.1c-0.1,0-0.3,0.1-0.4,0.3
						C17.7,225.4,17.6,225.6,17.6,225.9z"/>
					<path style="fill:#DDCC77;" d="M20.5,227.1v-1.4c0-0.3,0-0.4-0.1-0.5c0-0.1-0.1-0.1-0.3-0.1c-0.1,0-0.3,0-0.3,0.1
						c-0.1,0.1-0.1,0.1-0.1,0.3v1.7h-0.4V225h0.3v0.3l0,0c0-0.1,0.1-0.1,0.3-0.3c0.1,0,0.3-0.1,0.4-0.1s0.1,0,0.3,0s0.1,0.1,0.3,0.1
						c0,0.1,0.1,0.1,0.1,0.3c0,0.1,0,0.3,0,0.4v1.4H20.5L20.5,227.1z"/>
					<path style="fill:#DDCC77;" d="M22.7,226.9c-0.1,0.1-0.1,0.1-0.3,0.1s-0.3,0-0.4,0c-0.1,0-0.3,0-0.4-0.1
						c-0.1,0-0.3-0.1-0.3-0.3c-0.1-0.1-0.1-0.3-0.1-0.4s0-0.3,0-0.5c0-0.4,0.1-0.6,0.3-0.9c0.1-0.1,0.4-0.3,0.6-0.3
						c0.1,0,0.1,0,0.3,0c0.1,0,0.1,0.1,0.3,0.1c0.1,0.1,0.1,0.1,0.1,0.3s0,0.3,0,0.4v0.1v0.1h-1.2c0,0.1,0,0.3,0,0.4
						c0,0.1,0,0.3,0.1,0.3c0,0.1,0.1,0.1,0.1,0.1c0.1,0,0.1,0,0.3,0c0.1,0,0.1,0,0.3,0s0.1-0.1,0.1-0.1L22.7,226.9z M22.4,225.6
						c0-0.3,0-0.4-0.1-0.5S22.2,225,22,225s-0.3,0-0.4,0.1c-0.1,0.1-0.1,0.3-0.1,0.5H22.4z"/>
				</g>
			</g>
		</g>
		<g id="zone2_4_">
			<path id="zoneoutline_2_" style="fill:#010101;stroke:#DDCC77;stroke-width:0.5;stroke-miterlimit:10;" d="M59.4,237.3H36.6
				c-0.8,0-1.4-0.6-1.4-1.4v-17.5c0-0.8,0.6-1.4,1.4-1.4h22.8c0.8,0,1.4,0.6,1.4,1.4v17.5C60.8,236.6,60.2,237.3,59.4,237.3z"/>
			<g id="text_2_">
				<g>
					<path style="fill:#DDCC77;" d="M44.5,226.8l1.3-2.3l0.1-0.1h-1.4V224h1.7v0.4l-1.3,2.3l-0.1,0.1h1.4v0.4h-1.7V226.8z"/>
					<path style="fill:#DDCC77;" d="M46.3,225.9c0-0.4,0.1-0.6,0.3-0.9c0.1-0.3,0.4-0.3,0.6-0.3c0.3,0,0.5,0.1,0.6,0.3
						c0.1,0.3,0.3,0.5,0.3,0.9s-0.1,0.6-0.3,0.9c-0.1,0.3-0.4,0.3-0.6,0.3c-0.3,0-0.5-0.1-0.6-0.3C46.5,226.7,46.3,226.4,46.3,225.9
						z M46.6,225.9c0,0.1,0,0.3,0,0.4s0,0.3,0.1,0.3c0,0.1,0.1,0.1,0.1,0.1s0.1,0.1,0.3,0.1s0.3-0.1,0.4-0.3
						c0.1-0.1,0.1-0.4,0.1-0.6c0-0.1,0-0.3,0-0.4c0-0.1,0-0.3-0.1-0.3c0-0.1-0.1-0.1-0.1-0.1c-0.1,0-0.1-0.1-0.3-0.1
						c-0.1,0-0.3,0.1-0.4,0.3C46.7,225.4,46.6,225.6,46.6,225.9z"/>
					<path style="fill:#DDCC77;" d="M49.6,227.1v-1.4c0-0.3,0-0.4-0.1-0.5c0-0.1-0.1-0.1-0.3-0.1s-0.3,0-0.3,0.1
						c-0.1,0.1-0.1,0.1-0.1,0.3v1.7h-0.4V225h0.3v0.3l0,0c0-0.1,0.1-0.1,0.3-0.3c0.1,0,0.3-0.1,0.4-0.1c0.1,0,0.1,0,0.3,0
						s0.1,0.1,0.3,0.1c0,0.1,0.1,0.1,0.1,0.3c0,0.1,0,0.3,0,0.4v1.4H49.6L49.6,227.1z"/>
					<path style="fill:#DDCC77;" d="M51.7,226.9c-0.1,0.1-0.1,0.1-0.3,0.1s-0.3,0-0.4,0c-0.1,0-0.3,0-0.4-0.1
						c-0.1,0-0.3-0.1-0.3-0.3c-0.1-0.1-0.1-0.3-0.1-0.4s0-0.3,0-0.5c0-0.4,0.1-0.6,0.3-0.9c0.2-0.3,0.4-0.3,0.6-0.3
						c0.1,0,0.1,0,0.3,0c0.1,0,0.1,0.1,0.3,0.1c0,0,0.1,0.1,0.1,0.3c0,0.1,0,0.3,0,0.4v0.1v0.1h-1.2c0,0.1,0,0.3,0,0.4
						c0,0.1,0,0.3,0.1,0.3c0,0.1,0.1,0.1,0.1,0.1c0.1,0,0.1,0,0.3,0c0.1,0,0.1,0,0.3,0s0.1-0.1,0.1-0.1L51.7,226.9z M51.4,225.6
						c0-0.3,0-0.4-0.1-0.5S51.2,225,51,225s-0.3,0-0.4,0.1c-0.1,0.1-0.1,0.3-0.1,0.5H51.4z"/>
				</g>
			</g>
		</g>
		<g id="air-compressor_2_">
			<path id="back_2_" style="fill:#010101;stroke:#45AB99;stroke-width:0.5;stroke-miterlimit:10;" d="M33.3,7.5l-0.8-0.8
				c-0.6-0.6-1.7-0.6-2.3,0l-1,1c-0.9-0.5-1.9-0.8-3-0.8s-2.1,0.3-3,0.8l-1-1c-0.6-0.6-1.7-0.6-2.3,0L19,7.5c-0.6,0.6-0.6,1.7,0,2.3
				l1.3,1.3C20,11.6,20,12.3,20,12.9c0,2.3,1.3,4.4,3.4,5.3l-1.8,3.1h9l-1.8-3.1c1.9-1,3.4-3,3.4-5.3c0-0.6-0.1-1.3-0.3-1.8l1.3-1.3
				C33.9,9,33.9,8,33.3,7.5z"/>
		</g>
		<polygon id="ducts2_2_" style="fill:#010101;stroke:#DDCC77;stroke-width:0.5;stroke-miterlimit:10;" points="102.1,113.5 
			103.1,119 118.1,119 117.8,186.9 78.5,186.8 78.5,196.8 83.9,196.8 83.9,193.5 105,193.5 105,196.8 110.4,196.8 110.4,193.5 
			123.9,193.3 123.9,113.5 		"/>
		<g id="terminal1_2_">
			
				<rect x="75.1" y="196.8" style="fill:#010101;stroke:#DDCC77;stroke-width:0.5;stroke-miterlimit:10;" width="13.1" height="20.1"/>
			
				<line style="fill:none;stroke:#DDCC77;stroke-width:0.5;stroke-linecap:round;stroke-miterlimit:10;" x1="77.3" y1="207.8" x2="85.8" y2="199.1"/>
			<g>
				<path style="fill:#DDCC77;" d="M81.8,213h-1.6v1.4h-0.4v-3.1h0.4v1.4h1.6v-1.4h0.4v3.1h-0.4V213z"/>
			</g>
			<line style="fill:none;stroke:#DDCC77;stroke-width:0.5;stroke-miterlimit:10;" x1="75.1" y1="210" x2="88.2" y2="210"/>
		</g>
		<g id="terminal2_2_">
			
				<rect x="101.2" y="196.8" style="fill:#010101;stroke:#DDCC77;stroke-width:0.5;stroke-miterlimit:10;" width="13.1" height="20.1"/>
			
				<line style="fill:none;stroke:#DDCC77;stroke-width:0.5;stroke-linecap:round;stroke-miterlimit:10;" x1="103.4" y1="207.8" x2="112" y2="199.1"/>
			<g>
				<path style="fill:#DDCC77;" d="M107.8,213h-1.6v1.4h-0.3v-3.1h0.4v1.4h1.6v-1.4h0.4v3.1h-0.4L107.8,213L107.8,213z"/>
			</g>
			<line style="fill:none;stroke:#DDCC77;stroke-width:0.5;stroke-miterlimit:10;" x1="101.2" y1="210" x2="114.2" y2="210"/>
		</g>
		<g id="zone1_1_">
			<path style="fill:#010101;stroke:#DDCC77;stroke-width:0.5;stroke-miterlimit:10;" d="M92.2,237.3H69.4c-0.8,0-1.4-0.6-1.4-1.4
				v-17.5c0-0.8,0.6-1.4,1.4-1.4h22.8c0.8,0,1.4,0.6,1.4,1.4v17.5C93.6,236.6,93,237.3,92.2,237.3z"/>
			<g>
				<g>
					<path style="fill:#DDCC77;" d="M77.4,226.8l1.3-2.3l0.1-0.1h-1.3V224h1.7v0.4l-1.3,2.3l-0.1,0.1h1.4v0.4h-1.7L77.4,226.8
						L77.4,226.8z"/>
					<path style="fill:#DDCC77;" d="M79.2,225.9c0-0.4,0.1-0.6,0.3-0.9c0.2-0.3,0.4-0.3,0.6-0.3c0.3,0,0.5,0.1,0.6,0.3
						c0.1,0.3,0.3,0.5,0.3,0.9s-0.1,0.6-0.3,0.9c-0.1,0.3-0.4,0.3-0.6,0.3c-0.3,0-0.5-0.1-0.6-0.3C79.4,226.7,79.2,226.4,79.2,225.9
						z M79.6,225.9c0,0.1,0,0.3,0,0.4s0,0.3,0.1,0.3s0.1,0.1,0.1,0.1s0.1,0.1,0.3,0.1c0.1,0,0.3-0.1,0.4-0.3
						c0.1-0.1,0.1-0.4,0.1-0.6c0-0.1,0-0.3,0-0.4c0-0.1,0-0.3-0.1-0.3c0-0.1-0.1-0.1-0.1-0.1s-0.1-0.1-0.3-0.1
						c-0.1,0-0.3,0.1-0.4,0.3C79.6,225.4,79.6,225.6,79.6,225.9z"/>
					<path style="fill:#DDCC77;" d="M82.5,227.1v-1.4c0-0.3,0-0.4-0.1-0.5c0-0.1-0.1-0.1-0.3-0.1c-0.1,0-0.3,0-0.3,0.1
						c-0.1,0.1-0.1,0.1-0.1,0.3v1.7h-0.4V225h0.3v0.3l0,0c0-0.1,0.1-0.1,0.3-0.3c0.1,0,0.3-0.1,0.4-0.1c0.1,0,0.1,0,0.3,0
						c0.1,0,0.1,0.1,0.3,0.1c0,0.1,0.1,0.1,0.1,0.3c0,0.1,0,0.3,0,0.4v1.4H82.5L82.5,227.1z"/>
					<path style="fill:#DDCC77;" d="M84.7,226.9c-0.1,0.1-0.1,0.1-0.3,0.1c-0.1,0-0.3,0-0.4,0c-0.1,0-0.3,0-0.4-0.1
						c-0.1,0-0.3-0.1-0.3-0.3c-0.1-0.1-0.1-0.3-0.1-0.4s0-0.3,0-0.5c0-0.4,0.1-0.6,0.3-0.9c0.1-0.3,0.4-0.3,0.6-0.3
						c0.1,0,0.1,0,0.3,0c0.1,0,0.1,0.1,0.3,0.1c0.1,0.1,0.1,0.1,0.1,0.3c0,0.1,0,0.3,0,0.4v0.1v0.1h-1.2c0,0.1,0,0.3,0,0.4
						c0,0.1,0,0.3,0.1,0.3c0,0.1,0.1,0.1,0.1,0.1c0.1,0,0.1,0,0.3,0c0.1,0,0.1,0,0.3,0c0.1,0,0.1-0.1,0.1-0.1L84.7,226.9z
						 M84.4,225.6c0-0.3,0-0.4-0.1-0.5S84.2,225,84,225s-0.3,0-0.4,0.1c-0.1,0.1-0.1,0.3-0.1,0.5H84.4z"/>
				</g>
			</g>
		</g>
		<g id="zone2_1_">
			<path style="fill:#010101;stroke:#DDCC77;stroke-width:0.5;stroke-miterlimit:10;" d="M119.9,237.3H97.1c-0.8,0-1.4-0.6-1.4-1.4
				v-17.5c0-0.8,0.6-1.4,1.4-1.4h22.8c0.8,0,1.4,0.6,1.4,1.4v17.5C121.4,236.6,120.8,237.3,119.9,237.3z"/>
			<g>
				<g>
					<path style="fill:#DDCC77;" d="M105,226.8l1.3-2.3l0.1-0.1H105V224h1.7v0.4l-1.3,2.3l-0.1,0.1h1.4v0.4H105V226.8z"/>
					<path style="fill:#DDCC77;" d="M106.8,225.9c0-0.4,0.1-0.6,0.3-0.9c0.2-0.3,0.4-0.3,0.6-0.3s0.5,0.1,0.6,0.3
						c0.1,0.3,0.3,0.5,0.3,0.9s-0.1,0.6-0.3,0.9c-0.1,0.3-0.4,0.3-0.6,0.3s-0.5-0.1-0.6-0.3C106.8,226.7,106.8,226.4,106.8,225.9z
						 M107.1,225.9c0,0.1,0,0.3,0,0.4s0,0.3,0.1,0.3s0.1,0.1,0.1,0.1s0.1,0.1,0.3,0.1c0.1,0,0.3-0.1,0.4-0.3
						c0.1-0.1,0.1-0.4,0.1-0.6c0-0.1,0-0.3,0-0.4c0-0.1,0-0.3-0.1-0.3c0-0.1-0.1-0.1-0.1-0.1c-0.1,0-0.1-0.1-0.3-0.1
						c-0.1,0-0.3,0.1-0.4,0.3C107.2,225.4,107.1,225.6,107.1,225.9z"/>
					<path style="fill:#DDCC77;" d="M109.9,227.1v-1.4c0-0.3,0-0.4-0.1-0.5c0-0.1-0.1-0.1-0.3-0.1s-0.3,0-0.3,0.1
						c-0.1,0.1-0.1,0.1-0.1,0.3v1.7h-0.4V225h0.3v0.3l0,0c0-0.1,0.1-0.1,0.3-0.3c0.1,0,0.3-0.1,0.4-0.1s0.1,0,0.3,0
						c0.1,0,0.1,0.1,0.3,0.1c0,0.1,0.1,0.1,0.1,0.3c0,0.1,0,0.3,0,0.4v1.4H109.9L109.9,227.1z"/>
					<path style="fill:#DDCC77;" d="M112.1,226.9c-0.1,0.1-0.1,0.1-0.3,0.1c-0.1,0-0.3,0-0.4,0c-0.1,0-0.3,0-0.4-0.1
						c-0.1,0-0.3-0.1-0.3-0.3c-0.1-0.1-0.1-0.3-0.1-0.4s0-0.3,0-0.5c0-0.4,0.1-0.6,0.3-0.9c0.1-0.1,0.4-0.3,0.6-0.3
						c0.1,0,0.1,0,0.3,0c0.1,0,0.1,0.1,0.3,0.1c0,0,0.1,0.1,0.1,0.3c0,0.1,0,0.3,0,0.4v0.1v0.1H111c0,0.1,0,0.3,0,0.4
						c0,0.1,0,0.3,0.1,0.3c0,0.1,0.1,0.1,0.1,0.1c0.1,0,0.1,0,0.3,0s0.1,0,0.3,0c0.1,0,0.1-0.1,0.1-0.1L112.1,226.9z M111.9,225.6
						c0-0.3,0-0.4-0.1-0.5s-0.1-0.1-0.3-0.1c-0.1,0-0.3,0-0.4,0.1c-0.1,0.1-0.1,0.3-0.1,0.5H111.9z"/>
				</g>
			</g>
		</g>
		<g>
			<polygon style="fill:#010101;stroke:#DDCC77;stroke-width:0.5;stroke-miterlimit:10;" points="20.6,64.2 23.8,66 20.6,68 			"/>
			<polygon style="fill:#010101;stroke:#DDCC77;stroke-width:0.5;stroke-miterlimit:10;" points="27.2,68 23.9,66 27.2,64.2 			"/>
		</g>
		<g>
			<g>
				<polygon style="fill:#010101;stroke:#DDCC77;stroke-width:0.5;stroke-miterlimit:10;" points="46.5,62.4 44.5,65.8 42.7,62.4 
									"/>
				<polygon style="fill:#010101;stroke:#DDCC77;stroke-width:0.5;stroke-miterlimit:10;" points="42.7,69 44.5,65.8 46.5,69 				
					"/>
				<polygon style="fill:#010101;stroke:#DDCC77;stroke-width:0.5;stroke-miterlimit:10;" points="41.3,63.8 44.5,65.8 41.3,67.6 
									"/>
			</g>
			<line style="fill:none;stroke:#DDCC77;stroke-width:0.5;stroke-miterlimit:10;" x1="44.5" y1="65.8" x2="48.3" y2="65.8"/>
			<rect x="48.3" y="62.9" style="fill:none;stroke:#DDCC77;stroke-width:0.5;stroke-miterlimit:10;" width="4.1" height="5.7"/>
			<g>
				<path style="fill:#DDCC77;" d="M50.2,64.2h0.4V67h-0.4V64.2z"/>
			</g>
		</g>
		<g>
			<line style="fill:none;stroke:#45AB99;stroke-width:0.5;stroke-miterlimit:10;" x1="39" y1="27.6" x2="39" y2="24.3"/>
			<rect x="37" y="19.7" style="fill:none;stroke:#45AB99;stroke-width:0.5;stroke-miterlimit:10;" width="4.1" height="4.8"/>
			<g>
				<path style="fill:#45AB99;" d="M40.3,21.2h-0.9v2.6H39v-2.6h-0.9v-0.3h2.1L40.3,21.2L40.3,21.2z"/>
			</g>
		</g>
		<g>
			<line style="fill:none;stroke:#DDCC77;stroke-width:0.5;stroke-miterlimit:10;" x1="26.1" y1="113.1" x2="26.1" y2="110"/>
			<rect x="24.1" y="105.2" style="fill:none;stroke:#DDCC77;stroke-width:0.5;stroke-miterlimit:10;" width="4.1" height="4.8"/>
			<g>
				<path style="fill:#DDCC77;" d="M27.3,106.8h-0.9v2.6H26v-2.6h-0.9v-0.3h2.1L27.3,106.8L27.3,106.8z"/>
			</g>
		</g>
		<g>
			<g>
				<polygon style="fill:#010101;stroke:#DDCC77;stroke-width:0.5;stroke-miterlimit:10;" points="76,87.5 77.9,84.3 79.7,87.5 				
					"/>
				<polygon style="fill:#010101;stroke:#DDCC77;stroke-width:0.5;stroke-miterlimit:10;" points="79.7,80.9 77.9,84.1 76,80.9 				
					"/>
				<polygon style="fill:#010101;stroke:#DDCC77;stroke-width:0.5;stroke-miterlimit:10;" points="81.2,86.1 77.9,84.3 81.2,82.3 
									"/>
			</g>
			<line style="fill:none;stroke:#DDCC77;stroke-width:0.5;stroke-miterlimit:10;" x1="77.9" y1="84.1" x2="74.2" y2="84.1"/>
			<rect x="69.8" y="81.4" style="fill:#010101;stroke:#DDCC77;stroke-width:0.5;stroke-miterlimit:10;" width="4.1" height="5.7"/>
			<g>
				<path style="fill:#DDCC77;" d="M71.7,82.7h0.4v2.8h-0.4V82.7z"/>
			</g>
		</g>
		<g>
			<rect x="83" y="105.4" style="fill:#010101;stroke:#DDCC77;stroke-width:0.5;stroke-miterlimit:10;" width="4.1" height="4.8"/>
			<line style="fill:none;stroke:#DDCC77;stroke-width:0.5;stroke-miterlimit:10;" x1="85.1" y1="113.5" x2="85.1" y2="110.4"/>
			<g>
				<path style="fill:#DDCC77;" d="M84.9,106.5h0.4v2.8h-0.4V106.5z"/>
			</g>
		</g>
		<g>
			<g>
				
					<rect x="71.2" y="169.3" style="fill:#010101;stroke:#DDCC77;stroke-width:0.5;stroke-miterlimit:10;" width="29.4" height="13.3"/>
				
					<line style="fill:none;stroke:#DDCC77;stroke-width:0.5;stroke-linecap:round;stroke-miterlimit:10;" x1="96.1" y1="170.9" x2="91.3" y2="170.9"/>
				
					<line style="fill:none;stroke:#DDCC77;stroke-width:0.5;stroke-linecap:round;stroke-miterlimit:10;" x1="96.1" y1="173" x2="91.3" y2="173"/>
				
					<line style="fill:none;stroke:#DDCC77;stroke-width:0.5;stroke-linecap:round;stroke-miterlimit:10;" x1="96.1" y1="175" x2="91.3" y2="175"/>
				
					<line style="fill:none;stroke:#DDCC77;stroke-width:0.5;stroke-linecap:round;stroke-miterlimit:10;" x1="96.1" y1="177.1" x2="91.3" y2="177.1"/>
				
					<line style="fill:none;stroke:#DDCC77;stroke-width:0.5;stroke-linecap:round;stroke-miterlimit:10;" x1="96.1" y1="179.3" x2="91.3" y2="179.3"/>
				
					<line style="fill:none;stroke:#DDCC77;stroke-width:0.5;stroke-linecap:round;stroke-miterlimit:10;" x1="96.1" y1="181.4" x2="91.3" y2="181.4"/>
				
					<line style="fill:none;stroke:#DDCC77;stroke-width:0.5;stroke-linecap:round;stroke-miterlimit:10;" x1="90" y1="169.3" x2="90" y2="182.7"/>
				
					<line style="fill:none;stroke:#DDCC77;stroke-width:0.5;stroke-linecap:round;stroke-miterlimit:10;" x1="97.4" y1="169.3" x2="97.4" y2="182.7"/>
			</g>
			<g>
				<g>
					<path style="fill:#DDCC77;" d="M77.7,177.1l0.1,0.5l0,0l0.1-0.5l0.5-2.1h0.4l-0.9,3.2h-0.4l-1-3.2h0.4L77.7,177.1z"/>
					<path style="fill:#DDCC77;" d="M80,177.1h-0.9l-0.3,0.9h-0.4l0.9-3.2h0.3l0.9,3.2h-0.4L80,177.1z M79.2,176.8H80l-0.3-1
						l-0.1-0.5l0,0l-0.1,0.5L79.2,176.8z"/>
					<path style="fill:#DDCC77;" d="M81.4,177.1l0.1,0.5l0,0l0.1-0.5l0.5-2.1h0.4l-0.9,3.2h-0.3l-1-3.2h0.4L81.4,177.1z"/>
				</g>
			</g>
		</g>
		<g>
			<line style="fill:none;stroke:#DDCC77;stroke-width:0.5;stroke-miterlimit:10;" x1="11.5" y1="237.3" x2="11.5" y2="234.1"/>
			<rect x="9.4" y="229.4" style="fill:none;stroke:#DDCC77;stroke-width:0.5;stroke-miterlimit:10;" width="4.1" height="4.8"/>
			<g>
				<path style="fill:#DDCC77;" d="M12.7,231h-0.9v2.6h-0.3V231h-0.9v-0.3h2.1L12.7,231L12.7,231z"/>
			</g>
		</g>
		<g>
			<line style="fill:none;stroke:#DDCC77;stroke-width:0.5;stroke-miterlimit:10;" x1="40.6" y1="237.4" x2="40.6" y2="234.2"/>
			<rect x="38.6" y="229.5" style="fill:none;stroke:#DDCC77;stroke-width:0.5;stroke-miterlimit:10;" width="4.1" height="4.8"/>
			<g>
				<path style="fill:#DDCC77;" d="M41.8,231.1h-0.9v2.6h-0.4v-2.6h-0.9v-0.3h2.1L41.8,231.1L41.8,231.1z"/>
			</g>
		</g>
		<g>
			<line style="fill:none;stroke:#DDCC77;stroke-width:0.5;stroke-miterlimit:10;" x1="73.3" y1="237.6" x2="73.3" y2="234.3"/>
			<rect x="71.2" y="229.7" style="fill:none;stroke:#DDCC77;stroke-width:0.5;stroke-miterlimit:10;" width="4.1" height="4.8"/>
			<g>
				<path style="fill:#DDCC77;" d="M74.4,231.2h-0.9v2.6h-0.4v-2.6h-0.8v-0.3h2.1L74.4,231.2L74.4,231.2z"/>
			</g>
		</g>
		<g>
			<line style="fill:none;stroke:#DDCC77;stroke-width:0.5;stroke-miterlimit:10;" x1="101.2" y1="237.4" x2="101.2" y2="234.2"/>
			<rect x="99.2" y="229.5" style="fill:none;stroke:#DDCC77;stroke-width:0.5;stroke-miterlimit:10;" width="4.1" height="4.8"/>
			<g>
				<path style="fill:#DDCC77;" d="M102.4,231.1h-0.9v2.6h-0.4v-2.6h-0.9v-0.3h2.1L102.4,231.1L102.4,231.1z"/>
			</g>
		</g>
		<polygon style="fill:#010101;stroke:#DDCC77;stroke-width:0.5;stroke-miterlimit:10;" points="12,216.6 28,216.6 22.4,211.4 
			17,211.4 		"/>
		<g>
			<g>
				
					<rect x="76.9" y="113.3" style="fill:#010101;stroke:#DDCC77;stroke-width:0.5;stroke-miterlimit:10;" width="16.4" height="13.7"/>
				<path style="stroke:#DDCC77;stroke-width:0.5;stroke-miterlimit:10;" d="M90.6,114.9h-5.7c-0.3,0-0.5-0.1-0.8-0.1
					s-0.5,0-0.8,0.1l0,0l0,0c-2.3,0.4-4,2.3-4,4.7c0,2.6,2.1,4.8,4.8,4.8s4.8-2.1,4.8-4.8c0-0.3,0-0.5-0.1-0.8h1.7L90.6,114.9
					L90.6,114.9z"/>
				<polygon style="fill:#010101;stroke:#DDCC77;stroke-width:0.5;stroke-miterlimit:10;" points="93.3,113.3 96.6,113.3 98.9,127 
					93.3,127 				"/>
				
					<rect x="70.3" y="113.3" style="fill:#010101;stroke:#DDCC77;stroke-width:0.5;stroke-miterlimit:10;" width="6.6" height="13.7"/>
				
					<rect x="63.6" y="113.3" style="fill:#010101;stroke:#DDCC77;stroke-width:0.5;stroke-miterlimit:10;" width="6.6" height="13.7"/>
				
					<rect x="50.1" y="113.3" style="fill:#010101;stroke:#DDCC77;stroke-width:0.5;stroke-miterlimit:10;" width="3.9" height="13.7"/>
				
					<rect x="54.1" y="113.3" style="fill:#010101;stroke:#DDCC77;stroke-width:0.5;stroke-miterlimit:10;" width="9.6" height="13.7"/>
				<polyline style="fill:none;stroke:#DDCC77;stroke-width:0.5;stroke-miterlimit:10;" points="50.2,127 53.9,124.8 50.1,122.7 
					53.9,120.5 50.1,118.3 53.9,115.6 49.8,113.3 				"/>
				
					<rect x="76.1" y="133.1" style="fill:#010101;stroke:#DDCC77;stroke-width:0.5;stroke-miterlimit:10;" width="17.3" height="13.7"/>
				<path style="stroke:#DDCC77;stroke-width:0.5;stroke-miterlimit:10;" d="M79.6,134.8h5.7c0.3,0,0.5-0.1,0.8-0.1s0.5,0,0.8,0.1
					l0,0l0,0c2.3,0.4,4,2.3,4,4.7c0,2.6-2.1,4.8-4.8,4.8s-4.8-2.1-4.8-4.8c0-0.3,0-0.5,0.1-0.8h-1.7L79.6,134.8L79.6,134.8z"/>
				
					<rect x="93.5" y="133.1" style="fill:#010101;stroke:#DDCC77;stroke-width:0.5;stroke-miterlimit:10;" width="4.3" height="13.7"/>
				
					<rect x="68" y="133.1" style="fill:#010101;stroke:#DDCC77;stroke-width:0.5;stroke-miterlimit:10;" width="4.1" height="13.7"/>
				
					<rect x="72" y="133.1" style="fill:#010101;stroke:#DDCC77;stroke-width:0.5;stroke-miterlimit:10;" width="4.1" height="13.7"/>
				<polygon style="fill:#010101;stroke:#DDCC77;stroke-width:0.5;stroke-miterlimit:10;" points="19.9,133.1 19.9,146.8 
					36.1,146.8 36.1,146.8 47,146.8 50.1,146.8 68,146.8 68,133.1 50.1,133.1 50.1,113.3 36.1,113.3 34.4,113.3 19.9,113.3 
					19.9,127 34.4,127 34.4,133.1 				"/>
				<g>
					<line style="fill:none;stroke:#DDCC77;stroke-width:0.5;stroke-miterlimit:10;" x1="49.8" y1="130" x2="34.4" y2="130"/>
					<line style="fill:none;stroke:#DDCC77;stroke-width:0.5;stroke-miterlimit:10;" x1="48.8" y1="128.5" x2="46" y2="131.4"/>
					<line style="fill:none;stroke:#DDCC77;stroke-width:0.5;stroke-miterlimit:10;" x1="45.6" y1="128.5" x2="42.7" y2="131.4"/>
					<line style="fill:none;stroke:#DDCC77;stroke-width:0.5;stroke-miterlimit:10;" x1="42.3" y1="128.5" x2="39.5" y2="131.4"/>
					<line style="fill:none;stroke:#DDCC77;stroke-width:0.5;stroke-miterlimit:10;" x1="39" y1="128.5" x2="36.2" y2="131.4"/>
				</g>
				<g>
					<line style="fill:none;stroke:#DDCC77;stroke-width:0.5;stroke-miterlimit:10;" x1="32.6" y1="146.7" x2="32.6" y2="133.3"/>
					<line style="fill:none;stroke:#DDCC77;stroke-width:0.5;stroke-miterlimit:10;" x1="34" y1="146" x2="31.2" y2="143.2"/>
					<line style="fill:none;stroke:#DDCC77;stroke-width:0.5;stroke-miterlimit:10;" x1="34" y1="142.7" x2="31.2" y2="139.9"/>
					<line style="fill:none;stroke:#DDCC77;stroke-width:0.5;stroke-miterlimit:10;" x1="34" y1="139.4" x2="31.2" y2="136.6"/>
					<line style="fill:none;stroke:#DDCC77;stroke-width:0.5;stroke-miterlimit:10;" x1="34" y1="136.2" x2="31.2" y2="133.3"/>
				</g>
				<g>
					<line style="fill:none;stroke:#DDCC77;stroke-width:0.5;stroke-miterlimit:10;" x1="32.6" y1="126.7" x2="32.6" y2="113.4"/>
					<line style="fill:none;stroke:#DDCC77;stroke-width:0.5;stroke-miterlimit:10;" x1="34" y1="126.1" x2="31.2" y2="123.2"/>
					<line style="fill:none;stroke:#DDCC77;stroke-width:0.5;stroke-miterlimit:10;" x1="34" y1="122.8" x2="31.2" y2="120"/>
					<line style="fill:none;stroke:#DDCC77;stroke-width:0.5;stroke-miterlimit:10;" x1="34" y1="119.5" x2="31.2" y2="116.8"/>
					<line style="fill:none;stroke:#DDCC77;stroke-width:0.5;stroke-miterlimit:10;" x1="34" y1="116.2" x2="31.2" y2="113.4"/>
				</g>
				<g>
					<path style="fill:#DDCC77;" d="M67.7,120.4h-1.6v1.4h-0.4v-3.1h0.4v1.4h1.6v-1.4h0.4v3.1h-0.4V120.4z"/>
				</g>
				<g>
					<path style="fill:#DDCC77;" d="M70.7,140.1h-1.6v1.4h-0.4v-3.1h0.4v1.4h1.6v-1.4h0.4v3.1h-0.4V140.1z"/>
				</g>
				<g>
					<path style="fill:#DDCC77;" d="M74.7,121.7c-0.1,0.1-0.3,0.1-0.4,0.1c-0.1,0-0.3,0-0.4,0c-0.3,0-0.4,0-0.5-0.1
						c-0.1,0-0.4-0.1-0.4-0.3c-0.1-0.1-0.3-0.3-0.3-0.5c0-0.3-0.1-0.4-0.1-0.8c0-0.3,0-0.5,0.1-0.8s0.3-0.4,0.4-0.5
						c0.1-0.1,0.3-0.3,0.4-0.3s0.4-0.1,0.5-0.1s0.4,0,0.4,0c0.1,0,0.3,0,0.3,0.1l-0.1,0.4c-0.1-0.1-0.4-0.1-0.6-0.1
						c-0.1,0-0.3,0-0.4,0.1c-0.1,0.1-0.3,0.1-0.4,0.3c-0.1,0.1-0.1,0.3-0.3,0.4c0,0.1-0.1,0.4-0.1,0.6c0,0.3,0,0.4,0.1,0.5
						c0,0.1,0.1,0.3,0.3,0.4c0.1,0.1,0.3,0.3,0.4,0.3c0.1,0,0.3,0.1,0.4,0.1c0.1,0,0.3,0,0.4,0c0.1,0,0.3-0.1,0.3-0.1L74.7,121.7
						L74.7,121.7z"/>
				</g>
			</g>
			<line style="fill:none;stroke:#DDCC77;stroke-width:0.5;stroke-miterlimit:10;" x1="96.1" y1="110.2" x2="99.3" y2="128.7"/>
		</g>
		<line style="fill:none;stroke:#DDCC77;stroke-width:0.5;stroke-miterlimit:10;" x1="101.6" y1="111.3" x2="103.2" y2="120.5"/>
		<line style="fill:none;stroke:#DDCC77;stroke-width:0.5;stroke-miterlimit:10;" x1="101" y1="120.1" x2="102.7" y2="129.3"/>
	</g>
</g>
</svg>
