<?xml version="1.0" encoding="utf-8"?>
<!-- Generator: Adobe Illustrator 18.0.0, SVG Export Plug-In . SVG Version: 6.00 Build 0)  -->
<!DOCTYPE svg PUBLIC "-//W3C//DTD SVG 1.1//EN" "http://www.w3.org/Graphics/SVG/1.1/DTD/svg11.dtd">
<svg version="1.1" id="Layer_1" xmlns="http://www.w3.org/2000/svg" xmlns:xlink="http://www.w3.org/1999/xlink" x="0px" y="0px"
	 viewBox="326 -9 301 569" style="enable-background:new 326 -9 301 569;" xml:space="preserve">
<g id="space">
	<g>
		<g>
			<defs>
				<rect id="SVGID_1_" x="-574.3" y="-1073.8" width="4464.4" height="1588.9"/>
			</defs>
			<clipPath id="SVGID_2_">
				<use xlink:href="#SVGID_1_"  style="overflow:visible;"/>
			</clipPath>
			<g style="clip-path:url(#SVGID_2_);">
				<text transform="matrix(1 0 0 1 -358.3443 -734.9827)" style="font-family:'TimesNewRomanPSMT'; font-size:27.4734;"> </text>
			</g>
		</g>
	</g>
	
		<rect x="362.3" y="164.2" style="fill:#88CCEE;stroke:#231F20;stroke-width:0.45;stroke-miterlimit:10;" width="5.5" height="352.3"/>
	
		<rect x="363.5" y="117.2" style="fill:#88CCEE;stroke:#231F20;stroke-width:0.45;stroke-miterlimit:10;" width="2.7" height="47.4"/>
	<rect x="362.1" y="88.4" style="fill:#88CCEE;stroke:#231F20;stroke-width:0.45;stroke-miterlimit:10;" width="6" height="28.4"/>
	
		<rect x="333.5" y="53.3" transform="matrix(-0.9699 0.2436 -0.2436 -0.9699 939.6359 -2.1987)" style="fill:#88CCEE;stroke:#231F20;stroke-width:0.45;stroke-miterlimit:10;" width="272.9" height="7.3"/>
	
		<rect x="367.8" y="193.5" style="fill:none;stroke:#88CCEE;stroke-width:0.358;stroke-miterlimit:10;" width="202.6" height="14.4"/>
	<rect x="570.4" y="161.6" style="fill:#88CCEE;stroke:#231F20;stroke-width:0.45;stroke-miterlimit:10;" width="6" height="48.1"/>
	<rect x="572" y="114" style="fill:#88CCEE;stroke:#231F20;stroke-width:0.45;stroke-miterlimit:10;" width="2.7" height="47.4"/>
	<rect x="570.4" y="85.4" style="fill:#88CCEE;stroke:#231F20;stroke-width:0.45;stroke-miterlimit:10;" width="6" height="28.4"/>
	<rect x="572" y="62" style="fill:#88CCEE;stroke:#231F20;stroke-width:0.45;stroke-miterlimit:10;" width="2.7" height="23.4"/>
	<polygon style="fill:#88CCEE;stroke:#231F20;stroke-width:0.45;stroke-miterlimit:10;" points="576.4,62.3 570.4,62.3 570.4,35.7 
		576.4,33.7 	"/>
	
		<rect x="367.6" y="495" style="fill:#88CCEE;stroke:#231F20;stroke-width:0.45;stroke-miterlimit:10;" width="20.1" height="22.4"/>
	<rect x="359.3" y="517.4" style="fill:#88CCEE;stroke:#231F20;stroke-width:0.45;stroke-miterlimit:10;" width="32.1" height="6"/>
	<rect x="551" y="495" style="fill:#88CCEE;stroke:#231F20;stroke-width:0.45;stroke-miterlimit:10;" width="20.1" height="22.7"/>
	<rect x="547.5" y="517.4" style="fill:#88CCEE;stroke:#231F20;stroke-width:0.45;stroke-miterlimit:10;" width="32.1" height="6"/>
	<polygon style="fill:none;stroke:#88CCEE;stroke-width:0.225;stroke-miterlimit:10;" points="456,95.5 385.2,95.5 388.4,90.4 
		452.8,90.4 	"/>
	<line style="fill:none;stroke:#88CCEE;stroke-width:0.225;stroke-miterlimit:10;" x1="394.1" y1="90" x2="398.5" y2="78.5"/>
	<line style="fill:none;stroke:#88CCEE;stroke-width:0.225;stroke-miterlimit:10;" x1="449.1" y1="90" x2="443.6" y2="67.3"/>
	<polygon style="fill:none;stroke:#88CCEE;stroke-width:0.225;stroke-miterlimit:10;" points="539.8,96.2 469,96.2 472.2,90.9 
		536.5,90.9 	"/>
	<line style="fill:none;stroke:#88CCEE;stroke-width:0.225;stroke-miterlimit:10;" x1="477.7" y1="90.4" x2="485.7" y2="57.7"/>
	<line style="fill:none;stroke:#88CCEE;stroke-width:0.225;stroke-miterlimit:10;" x1="532.9" y1="90.4" x2="524.9" y2="48.1"/>
	<g>
		<line style="fill:none;stroke:#88CCEE;stroke-width:0.1734;stroke-miterlimit:10;" x1="438.6" y1="348.9" x2="438.6" y2="360.8"/>
		<path style="fill:none;stroke:#88CCEE;stroke-width:0.1734;stroke-miterlimit:10;" d="M443.6,364.9c0,2.7-10.1,2.7-10.1,0
			c0-2.7,2.3-5,5-5C441.5,359.9,443.6,362.2,443.6,364.9z"/>
	</g>
	<g>
		<line style="fill:none;stroke:#88CCEE;stroke-width:0.1734;stroke-miterlimit:10;" x1="499.2" y1="348.5" x2="499.2" y2="360.4"/>
		<path style="fill:none;stroke:#88CCEE;stroke-width:0.1734;stroke-miterlimit:10;" d="M504.3,364.5c0,2.7-10.1,2.7-10.1,0
			c0-2.7,2.3-5,5-5C502.2,359.4,504.3,361.7,504.3,364.5z"/>
	</g>
	<g style="opacity:0.4;">
		<g>
			<path style="fill:none;stroke:#88CCEE;stroke-width:2.7003;stroke-miterlimit:10;" d="M607.8,162.1c-8.7,0-8.7-4.1-17.6-4.1
				c-8.7,0-8.7,4.1-17.6,4.1c-8.7,0-8.7-4.1-17.6-4.1c-8.9,0-8.9,4.1-17.6,4.1c-1.1,0-2.3,0-3.2-0.2"/>
			<g>
				<path style="fill:#88CCEE;" d="M519.6,158c7.6-0.7,16.9-3,23.4-6.2l-7.1,10.3l1.1,12.4C533.1,168.5,525.8,162.1,519.6,158z"/>
			</g>
		</g>
	</g>
	<rect x="571.6" y="467.3" style="fill:#88CCEE;stroke:#231F20;stroke-width:0.45;stroke-miterlimit:10;" width="6" height="50.1"/>
	<rect x="570.2" y="232.4" style="fill:#88CCEE;stroke:#231F20;stroke-width:0.45;stroke-miterlimit:10;" width="6" height="28.4"/>
	<g style="opacity:0.4;">
		<g>
			<path style="fill:none;stroke:#88CCEE;stroke-width:2.7003;stroke-miterlimit:10;" d="M606.4,282.5c0,0-9.2,0-16.9,0
				c-7.8,0-4.8-8-18.5-8c-13.7,0-117.7,0-117.7,0s-35.5,2.3-35.5-12.1v-27.2c0,0-0.2-11.9,21.5-12.4c0,0,126.1,0,132.1,0
				s9.6,5.7,15.6,5.7c3.2,0,11.9,0,19.9,0"/>
			<g>
				<path style="fill:#88CCEE;" d="M621.7,228.5c-7.1,2.5-15.8,7.1-21.1,11.7l4.3-11.7l-4.3-11.7C606.1,221.4,614.8,226,621.7,228.5
					z"/>
			</g>
		</g>
	</g>
	<ellipse style="stroke:#88CCEE;stroke-width:0.2177;stroke-miterlimit:10;" cx="409.5" cy="195.3" rx="9.2" ry="2.1"/>
	<ellipse style="stroke:#88CCEE;stroke-width:0.2177;stroke-miterlimit:10;" cx="466.5" cy="195.3" rx="9.2" ry="2.1"/>
	<ellipse style="stroke:#88CCEE;stroke-width:0.2177;stroke-miterlimit:10;" cx="523.7" cy="195.3" rx="9.2" ry="2.1"/>
	<g style="opacity:0.57;">
		<g>
			<line style="fill:none;stroke:#88CCEE;stroke-width:0.45;stroke-miterlimit:10;" x1="409.5" y1="195.3" x2="409.5" y2="187.5"/>
			<g>
				<path style="fill:#88CCEE;" d="M409.5,181.3c1.1,3,3,6.6,4.8,8.7l-4.8-1.8l-4.8,1.8C406.5,187.7,408.3,184.1,409.5,181.3z"/>
			</g>
		</g>
	</g>
	<g style="opacity:0.57;">
		<g>
			<line style="fill:none;stroke:#88CCEE;stroke-width:0.45;stroke-miterlimit:10;" x1="466.5" y1="193.9" x2="466.5" y2="185.9"/>
			<g>
				<path style="fill:#88CCEE;" d="M466.5,179.7c1.1,3,3,6.6,4.8,8.7l-4.8-1.8l-4.8,1.8C463.5,186.4,465.6,182.7,466.5,179.7z"/>
			</g>
		</g>
	</g>
	<g style="opacity:0.57;">
		<g>
			<line style="fill:none;stroke:#88CCEE;stroke-width:0.45;stroke-miterlimit:10;" x1="523.7" y1="197.6" x2="523.7" y2="189.8"/>
			<g>
				<path style="fill:#88CCEE;" d="M523.7,183.6c1.1,3,3,6.6,4.8,8.7l-4.8-1.8l-5,1.8C520.8,190,522.6,186.4,523.7,183.6z"/>
			</g>
		</g>
	</g>
	
		<rect x="368.5" y="331.1" style="fill:none;stroke:#88CCEE;stroke-width:0.358;stroke-miterlimit:10;" width="202.6" height="14.4"/>
	<ellipse style="stroke:#88CCEE;stroke-width:0.2177;stroke-miterlimit:10;" cx="410.4" cy="333.1" rx="9.2" ry="2.1"/>
	<ellipse style="stroke:#88CCEE;stroke-width:0.2177;stroke-miterlimit:10;" cx="467.4" cy="333.1" rx="9.2" ry="2.1"/>
	<ellipse style="stroke:#88CCEE;stroke-width:0.2177;stroke-miterlimit:10;" cx="524.4" cy="333.1" rx="9.2" ry="2.1"/>
	<g style="opacity:0.57;">
		<g>
			<line style="fill:none;stroke:#88CCEE;stroke-width:0.45;stroke-miterlimit:10;" x1="410.4" y1="333.1" x2="410.4" y2="325.3"/>
			<g>
				<path style="fill:#88CCEE;" d="M410.4,318.9c1.1,3,3,6.6,4.8,8.7l-4.8-1.8l-4.8,1.8C407.4,325.6,409.3,321.9,410.4,318.9z"/>
			</g>
		</g>
	</g>
	<g style="opacity:0.57;">
		<g>
			<line style="fill:none;stroke:#88CCEE;stroke-width:0.45;stroke-miterlimit:10;" x1="467.4" y1="331.7" x2="467.4" y2="323.7"/>
			<g>
				<path style="fill:#88CCEE;" d="M467.4,317.5c1.1,3,3,6.6,4.8,8.7l-4.8-1.8l-4.8,1.8C464.4,324.2,466.3,320.5,467.4,317.5z"/>
			</g>
		</g>
	</g>
	<g style="opacity:0.57;">
		<g>
			<line style="fill:none;stroke:#88CCEE;stroke-width:0.45;stroke-miterlimit:10;" x1="524.4" y1="335.4" x2="524.4" y2="327.6"/>
			<g>
				<path style="fill:#88CCEE;" d="M524.4,321.2c1.1,3,3,6.6,4.8,8.7l-4.8-1.8l-4.8,1.8C521.4,327.8,523.5,324.2,524.4,321.2z"/>
			</g>
		</g>
	</g>
	
		<rect x="377.7" y="240.2" style="fill:none;stroke:#88CCEE;stroke-width:0.3729;stroke-miterlimit:10;" width="11.7" height="17.4"/>
	<path style="fill:none;stroke:#88CCEE;stroke-width:0.3729;stroke-miterlimit:10;" d="M383.6,242.7c-2.5,0-4.6,2.1-4.6,4.6h8.9
		C388.2,244.7,386.1,242.7,383.6,242.7z"/>
	<line style="fill:none;stroke:#88CCEE;stroke-width:0.3729;stroke-miterlimit:10;" x1="383.2" y1="248.9" x2="383.6" y2="244.3"/>
	<rect x="571.6" y="383.7" style="fill:#88CCEE;stroke:#231F20;stroke-width:0.45;stroke-miterlimit:10;" width="6" height="48.1"/>
	<rect x="573.2" y="348.5" style="fill:#88CCEE;stroke:#231F20;stroke-width:0.45;stroke-miterlimit:10;" width="2.7" height="35"/>
	<rect x="571.6" y="314.3" style="fill:#88CCEE;stroke:#231F20;stroke-width:0.45;stroke-miterlimit:10;" width="6" height="33.9"/>
	<rect x="573.2" y="431.8" style="fill:#88CCEE;stroke:#231F20;stroke-width:0.45;stroke-miterlimit:10;" width="2.7" height="35"/>
	
		<rect x="368.5" y="480.6" transform="matrix(-0.9994 3.528521e-02 -3.528521e-02 -0.9994 956.5514 958.6818)" style="fill:#88CCEE;stroke:#231F20;stroke-width:0.45;stroke-miterlimit:10;" width="202.6" height="14.4"/>
	<path style="stroke:#88CCEE;stroke-width:0.1497;stroke-miterlimit:10;" d="M393.5,443h-24c0,3.7,3.9,6.6,9.2,7.6l-1.6,30.9h8.9
		l-2.5-30.9C389.1,450.1,393.5,446.9,393.5,443z"/>
	<rect x="370.8" y="441.2" style="fill:none;stroke:#88CCEE;stroke-width:0.1848;stroke-miterlimit:10;" width="1.6" height="1.8"/>
	<rect x="371.3" y="439.6" style="fill:none;stroke:#88CCEE;stroke-width:0.1848;stroke-miterlimit:10;" width="0.5" height="1.8"/>
	<path style="fill:none;stroke:#F3743F;stroke-width:0.1848;stroke-miterlimit:10;" d="M434.9,470.7v15.8h-64.1l-0.2-41.2l2.3-3
		c0,0-0.2-4.1,0-4.3c0.7-1.1,4.8-2.5,5.5-2.1c0.5,0.2,0.5,1.1,0.5,1.1"/>
	<g>
		<path style="fill:none;stroke:#89CCED;stroke-width:9.237701e-02;stroke-miterlimit:10;" d="M373.1,443c-0.2,0-0.7-0.2-0.7-0.7
			c-0.2-4.3,0-4.6,0-4.8c0.7-1.4,5.3-2.7,6.4-2.3c0.9,0.5,0.9,1.6,0.9,1.8c0,0.5-0.2,0.7-0.7,0.7l0,0c-0.5,0-0.7-0.2-0.7-0.7
			c0-0.2,0-0.5-0.2-0.7c-0.9,0-4.1,1.1-4.6,1.8c0,0.5,0,2.5,0,4.1C373.8,442.8,373.5,443,373.1,443L373.1,443z"/>
	</g>
	<ellipse style="fill:#88CCEE;" cx="370.6" cy="439.1" rx="1.1" ry="0.2"/>
	<ellipse style="fill:#88CCEE;" cx="372.6" cy="439.1" rx="1.1" ry="0.2"/>
	<rect x="572" y="261.7" style="fill:#88CCEE;stroke:#231F20;stroke-width:0.45;stroke-miterlimit:10;" width="2.7" height="53.6"/>
	<rect x="572" y="209.7" style="fill:#88CCEE;stroke:#231F20;stroke-width:0.45;stroke-miterlimit:10;" width="2.7" height="23.4"/>
	<g>
		<line style="fill:none;stroke:#88CCEE;stroke-width:0.225;stroke-miterlimit:10;" x1="383.4" y1="240.4" x2="383.4" y2="232.4"/>
		
			<rect x="378.3" y="220.5" style="fill:none;stroke:#88CCEE;stroke-width:0.225;stroke-miterlimit:10;" width="10.5" height="12.1"/>
		
			<text transform="matrix(1 0 0 1 380.758 230.8214)" style="opacity:0.57;fill:#88CCEE;enable-background:new    ; font-family:'PTSans-Regular'; font-size:10.3035;">T</text>
	</g>
	<path style="stroke:#88CCEE;stroke-width:0.1577;stroke-miterlimit:10;" d="M467,481.7h-32.7c-2.5,0-4.3-2.1-4.3-4.3V392
		c0-2.5,2.1-4.3,4.3-4.3h32.5c2.5,0,4.3,2.1,4.3,4.3v85.4C471.3,479.6,469.2,481.7,467,481.7z"/>
</g>
<g id="hvac">
	<path id="cp-dots" style="fill:none;stroke:#45AB99;stroke-width:0.5;stroke-miterlimit:10;stroke-dasharray:3;" d="M614.6,172.4
		H340.8c-2.7,0-4.3-2.1-4.3-4.3V0.9c0-2.7,2.1-4.3,4.3-4.3h273.8c2.7,0,4.3,2.1,4.3,4.3v166.9C619.4,170.3,617.4,172.4,614.6,172.4z
		"/>
	<path id="dis-dots" style="fill:none;stroke:#DDCC77;stroke-width:0.5;stroke-miterlimit:10;stroke-dasharray:3;" d="M615.3,352.3
		H340.6c-2.3,0-4.1-1.8-4.1-4.1V192.5c0-2.3,1.8-4.1,4.1-4.1h274.7c2.3,0,4.1,1.8,4.1,4.1v155.7
		C619.4,350.5,617.6,352.3,615.3,352.3z"/>
	<g id="cp-dis-pipes">
		<polygon style="fill:#010101;stroke:#DDCC77;stroke-width:0.5;stroke-miterlimit:10;" points="385.4,90.2 382.5,90.2 382.5,162.8 
			382.5,220.2 476.6,220.2 476.6,254.4 479.1,254.4 479.1,217.5 385.4,217.5 		"/>
		<polygon style="fill:#010101;stroke:#DDCC77;stroke-width:0.5;stroke-miterlimit:10;" points="505.9,133.7 508.6,133.7 
			508.6,211.1 495.6,211.1 495.6,254.8 492.8,254.8 492.8,208.6 505.9,208.6 		"/>
		<polygon style="fill:#010101;stroke:#DDCC77;stroke-width:0.5;stroke-miterlimit:10;" points="431.2,89.3 429.2,89.3 429.4,162.8 
			429.4,210.9 483,210.9 483,254.4 485.7,254.4 485.7,208.1 432.4,208.1 		"/>
		<polygon style="fill:#010101;stroke:#DDCC77;stroke-width:0.5;stroke-miterlimit:10;" points="547.3,141.3 550.3,141.3 
			550.1,221.2 502.2,221.2 502.2,254.8 499.7,254.8 499.7,218.6 547.3,218.6 		"/>
	</g>
	<polygon id="diffuser" style="fill:#010101;stroke:#DDCC77;stroke-width:0.5;stroke-miterlimit:10;" points="423.5,491.3 
		459.9,491.3 447.3,479.4 434.7,479.4 	"/>
	<path id="boiler" style="fill:#010101;stroke:#45AB99;stroke-width:0.5;stroke-miterlimit:10;" d="M443.8,70.7v3.9h-6.2
		c-0.9-8.9-7.3-16-15.3-16h-60.9c-5.7,0-10.3,3.2-13.3,8.2h-3.9v24h3.9c2.7,5,7.8,8.2,13.3,8.2v10.8h9.4V99.1h37.5v10.8h9.8V99.1
		h3.9c8,0,14.4-6.9,15.3-15.3h6.2v3h14.2v-16L443.8,70.7L443.8,70.7z"/>
	<path id="cp-piper-back-tower" style="stroke:#45AB99;stroke-width:0.5;stroke-miterlimit:10;" d="M574.1,118.6h2.3V54.9v-3.9
		c0-0.9-0.7-1.1-1.1-1.1h-18.3l-0.7,2.7H573c0.7,0,1.1,0.7,1.1,1.1V118.6L574.1,118.6z"/>
	<g id="tower">
		<path style="fill:none;stroke:#45AB99;stroke-width:0.5;stroke-miterlimit:10;" d="M553.9,64.8c0,0.7-0.7,0.9-0.9,0.9h-38.2h-0.2
			l-2.3-12.8l-6.9-36.2c0-0.7,0.2-1.1,0.9-1.1h55.4c0.7,0,0.9,0.7,0.9,1.1L553.9,64.8z"/>
		<line style="fill:none;stroke:#45AB99;stroke-width:0.5;stroke-miterlimit:10;" x1="507.9" y1="35.5" x2="559" y2="35.5"/>
		<g>
			<path style="fill:none;stroke:#45AB99;stroke-width:0.5;stroke-linecap:round;stroke-miterlimit:10;" d="M521,41.9l2.1-1.8
				c0.2-0.2,0.2-0.7,0.2-0.9v-3.2"/>
			
				<line style="fill:none;stroke:#45AB99;stroke-width:0.5;stroke-linecap:round;stroke-miterlimit:10;" x1="525.8" y1="41.9" x2="523.7" y2="39.8"/>
		</g>
		<g>
			<path style="fill:none;stroke:#45AB99;stroke-width:0.5;stroke-linecap:round;stroke-miterlimit:10;" d="M540.9,41.7l2.1-1.8
				c0.2-0.2,0.2-0.7,0.2-0.9v-3.2"/>
			
				<line style="fill:none;stroke:#45AB99;stroke-width:0.5;stroke-linecap:round;stroke-miterlimit:10;" x1="545.5" y1="41.7" x2="543.4" y2="39.1"/>
		</g>
		<path style="fill:none;stroke:#45AB99;stroke-width:0.5;stroke-miterlimit:10;" d="M535.2,47.6h-3.9c-0.7,0-0.9-0.7-0.9-0.9v-3.2
			c0-0.7,0.7-0.9,0.9-0.9h3.9c0.7,0,0.9,0.7,0.9,0.9v3.2C536.3,47.2,535.9,47.6,535.2,47.6z"/>
		
			<line style="fill:none;stroke:#45AB99;stroke-width:0.5;stroke-linecap:round;stroke-miterlimit:10;" x1="533.3" y1="47.8" x2="533.3" y2="64.3"/>
		<path id="waterpath" style="fill:none;stroke:#45AB99;stroke-width:0.5;stroke-miterlimit:10;" d="M512.3,54.9
			c-0.2-0.9,0.7-1.4,1.4-1.1c3.2,1.4,11,3.9,20.8-0.9c0,0,11-5.3,20.8-0.9c0.2,0.2,0.7,0.7,0.7,1.1L553.7,65c0,0.7-0.7,0.9-0.9,0.9
			h-37.3c-0.7,0-0.9-0.2-0.9-0.9L512.3,54.9z"/>
	</g>
	<a xlink:href="/#/chiller/basics"><path id="chiller" style="fill:#010101;stroke:#45AB99;stroke-width:0.5;stroke-miterlimit:10;" d="M595.2,130.7v-3.7h-5.3v-8h-2.3
		v5.3c-1.4-2.3-4.1-4.1-7.3-5.3c-0.2-11.9-10.1-16.3-16.7-16.3h-26.3v-5.5h-37.1v20.6h37.1v-5.7h26.3c0.7,0,6.2,0.2,7.1,5.7H513
		c-6.9,0-12.8,3.2-14.9,7.8v-7.8h-4.3v24h4.3v-6.2c2.1,4.3,8,7.8,14.9,7.8v10.8h9.8v-10.8h37.3v10.8h9.8v-10.8h3.9
		c6.2,0,11.4-2.7,14.2-6.4v6.4h2.3v-8h5v-3.9h-5v-0.9H595.2L595.2,130.7z"/></a>
	<path id="cp-pipe-tower" style="stroke:#45AB99;stroke-width:0.5;stroke-miterlimit:10;" d="M497.6,117.9h-2.3V51.5v-1.1
		c0-0.9,0.7-1.1,1.1-1.1h13.7c0.7,0,0.9,0.7,1.1,0.9h0.7c0,0.9-0.2,1.4-1.1,1.4H499c-0.7,0-1.1,0.7-1.1,1.1v65.2H497.6z"/>
	<path id="cp-fan" style="fill:#010101;stroke:#45AB99;stroke-width:0.5;stroke-miterlimit:10;" d="M543.2,30.9V15.3
		c0-0.7,0.2-1.4,0.2-2.1c0-0.9,0-1.4-0.2-2.1l0,0l0,0C542.3,5,536.8,0,530.1,0c-7.3,0-13.3,6-13.3,13.3s6,13.3,13.3,13.3
		c0.9,0,1.4,0,2.3-0.2v4.6H543.2z"/>
	<path id="ds-pump2" style="fill:#010101;stroke:#DDCC77;stroke-width:0.5539;stroke-miterlimit:10;" d="M556.9,212
		c0-7.1-5.7-12.8-12.8-12.8s-12.8,5.7-12.8,12.8c0,4.3,2.1,8,5.3,10.3l-4.8,5.7h25.2l-5-6C554.9,219.8,556.9,216.1,556.9,212z"/>
	<path id="ds-pump1" style="fill:#010101;stroke:#DDCC77;stroke-width:0.5725;stroke-miterlimit:10;" d="M402.4,212
		c0-7.1-5.7-12.8-12.8-12.8s-12.8,5.7-12.8,12.8c0,4.1,1.8,7.8,5,10.1l-4.8,6h25.2l-4.8-6C400.6,219.8,402.4,216.1,402.4,212z"/>
	<path id="cp-pump" style="fill:#010101;stroke:#45AB99;stroke-width:0.5652;stroke-miterlimit:10;" d="M502.7,71.9
		c0-7.1-5.7-12.8-12.8-12.8c-7.1,0-12.8,5.7-12.8,12.8c0,4.1,2.1,7.8,5,10.1l-5,6.2h25.2l-4.8-6C500.6,79.9,502.7,76.2,502.7,71.9z"
		/>
	<path id="ducts" style="fill:none;stroke:#DDCC77;stroke-width:0.5;stroke-miterlimit:10;stroke-dasharray:2.8964;" d="
		M615.3,552.4H340.1c-2.3,0-4.1-1.8-4.1-4.1V372.5c0-2.3,1.8-4.1,4.1-4.1h275c2.3,0,4.1,1.8,4.1,4.1v175.8
		C619.4,550.2,617.6,552.4,615.3,552.4z"/>
	<polygon id="vav-duct" style="fill:#010101;stroke:#DDCC77;stroke-width:0.5;stroke-miterlimit:10;" points="561.5,273.4 
		564.3,286.2 567.9,286 567.9,392.9 368.7,392.6 368.7,479.2 381.1,479.2 381.1,408 434.7,408 434.7,479.2 447.5,479.2 447.5,408 
		581.4,408 581.4,385.5 581.4,273.4 	"/>
	<g id="zone1">
		<path style="fill:#010101;stroke:#DDCC77;stroke-width:0.5;stroke-miterlimit:10;" d="M400.6,538.7h-52c-1.8,0-3.2-1.4-3.2-3.2
			v-40.1c0-1.8,1.4-3.2,3.2-3.2h52.2c1.8,0,3.2,1.4,3.2,3.2v40.1C404,537.1,402.4,538.7,400.6,538.7z"/>
		<g>
			<g>
				<path style="fill:#DDCC77;" d="M365.3,514.7l3-5.3l0.2-0.2h-3.2v-0.9h3.9v0.9l-3,5.3l-0.2,0.2h3.2v0.9h-3.9
					C365.3,515.6,365.3,514.7,365.3,514.7z"/>
				<path style="fill:#DDCC77;" d="M369.4,512.6c0-0.9,0.2-1.4,0.7-2.1c0.2-0.7,0.9-0.7,1.4-0.7c0.7,0,1.1,0.2,1.4,0.7
					s0.7,1.1,0.7,2.1c0,0.9-0.2,1.4-0.7,2.1c-0.2,0.7-0.9,0.7-1.4,0.7c-0.7,0-1.1-0.2-1.4-0.7C369.4,514.4,369.4,513.8,369.4,512.6z
					 M370.1,512.6c0,0.2,0,0.7,0,0.9c0,0.2,0,0.7,0.2,0.7c0,0.2,0.2,0.2,0.2,0.2s0.2,0.2,0.7,0.2s0.7-0.2,0.9-0.7
					c0.2-0.2,0.2-0.9,0.2-1.4c0-0.2,0-0.7,0-0.9s0-0.7-0.2-0.7c0-0.2-0.2-0.2-0.2-0.2s-0.2-0.2-0.7-0.2c-0.2,0-0.7,0.2-0.9,0.7
					C370.3,511.5,370.1,511.9,370.1,512.6z"/>
				<path style="fill:#DDCC77;" d="M376.7,515.4v-3.2c0-0.7,0-0.9-0.2-1.1c0-0.2-0.2-0.2-0.7-0.2c-0.2,0-0.7,0-0.7,0.2
					c-0.2,0.2-0.2,0.2-0.2,0.7v3.9H374v-5h0.7v0.7l0,0c0-0.2,0.2-0.2,0.7-0.7c0.2,0,0.7-0.2,0.9-0.2c0.2,0,0.2,0,0.7,0
					s0.2,0.2,0.7,0.2c0,0.2,0.2,0.2,0.2,0.7c0,0.2,0,0.7,0,0.9v3.2H376.7L376.7,515.4z"/>
				<path style="fill:#DDCC77;" d="M381.8,514.9c-0.2,0.2-0.2,0.2-0.7,0.2s-0.7,0-0.9,0s-0.7,0-0.9-0.2c-0.2,0-0.7-0.2-0.7-0.7
					c-0.2-0.2-0.2-0.7-0.2-0.9c0-0.2,0-0.7,0-1.1c0-0.9,0.2-1.4,0.7-2.1c0.2-0.2,0.9-0.7,1.4-0.7c0.2,0,0.2,0,0.7,0
					c0.2,0,0.2,0.2,0.7,0.2c0.2,0.2,0.2,0.2,0.2,0.7s0,0.7,0,0.9v0.2v0.2h-2.7c0,0.2,0,0.7,0,0.9s0,0.7,0.2,0.7
					c0,0.2,0.2,0.2,0.2,0.2c0.2,0,0.2,0,0.7,0c0.2,0,0.2,0,0.7,0s0.2-0.2,0.2-0.2L381.8,514.9z M381.1,511.9c0-0.7,0-0.9-0.2-1.1
					c-0.2-0.2-0.2-0.2-0.7-0.2s-0.7,0-0.9,0.2c-0.2,0.2-0.2,0.7-0.2,1.1H381.1z"/>
			</g>
		</g>
	</g>
	<g id="zone2">
		<path id="zoneoutline" style="fill:#010101;stroke:#DDCC77;stroke-width:0.5;stroke-miterlimit:10;" d="M465.8,538.7h-52.2
			c-1.8,0-3.2-1.4-3.2-3.2v-40.1c0-1.8,1.4-3.2,3.2-3.2h52.2c1.8,0,3.2,1.4,3.2,3.2v40.1C469,537.1,467.6,538.7,465.8,538.7z"/>
		<g id="text">
			<g>
				<path style="fill:#DDCC77;" d="M431.7,514.7l3-5.3l0.2-0.2h-3.2v-0.9h3.9v0.9l-3,5.3l-0.2,0.2h3.2v0.9h-3.9V514.7z"/>
				<path style="fill:#DDCC77;" d="M435.8,512.6c0-0.9,0.2-1.4,0.7-2.1c0.2-0.7,0.9-0.7,1.4-0.7c0.7,0,1.1,0.2,1.4,0.7
					c0.2,0.7,0.7,1.1,0.7,2.1c0,0.9-0.2,1.4-0.7,2.1c-0.2,0.7-0.9,0.7-1.4,0.7c-0.7,0-1.1-0.2-1.4-0.7
					C436.3,514.4,435.8,513.8,435.8,512.6z M436.5,512.6c0,0.2,0,0.7,0,0.9c0,0.2,0,0.7,0.2,0.7c0,0.2,0.2,0.2,0.2,0.2
					s0.2,0.2,0.7,0.2c0.5,0,0.7-0.2,0.9-0.7c0.2-0.2,0.2-0.9,0.2-1.4c0-0.2,0-0.7,0-0.9s0-0.7-0.2-0.7c0-0.2-0.2-0.2-0.2-0.2
					c-0.2,0-0.2-0.2-0.7-0.2c-0.2,0-0.7,0.2-0.9,0.7C436.7,511.5,436.5,511.9,436.5,512.6z"/>
				<path style="fill:#DDCC77;" d="M443.4,515.4v-3.2c0-0.7,0-0.9-0.2-1.1c0-0.2-0.2-0.2-0.7-0.2s-0.7,0-0.7,0.2
					c-0.2,0.2-0.2,0.2-0.2,0.7v3.9h-0.9v-5h0.7v0.7l0,0c0-0.2,0.2-0.2,0.7-0.7c0.2,0,0.7-0.2,0.9-0.2s0.2,0,0.7,0s0.2,0.2,0.7,0.2
					c0,0.2,0.2,0.2,0.2,0.7c0,0.2,0,0.7,0,0.9v3.2H443.4L443.4,515.4z"/>
				<path style="fill:#DDCC77;" d="M448.2,514.9c-0.2,0.2-0.2,0.2-0.7,0.2c-0.5,0-0.7,0-0.9,0s-0.7,0-0.9-0.2
					c-0.2,0-0.7-0.2-0.7-0.7c-0.2-0.2-0.2-0.7-0.2-0.9c0-0.2,0-0.7,0-1.1c0-0.9,0.2-1.4,0.7-2.1c0.5-0.7,0.9-0.7,1.4-0.7
					c0.2,0,0.2,0,0.7,0c0.2,0,0.2,0.2,0.7,0.2c0,0,0.2,0.2,0.2,0.7c0,0.2,0,0.7,0,0.9v0.2v0.2h-2.7c0,0.2,0,0.7,0,0.9s0,0.7,0.2,0.7
					c0,0.2,0.2,0.2,0.2,0.2c0.2,0,0.2,0,0.7,0c0.2,0,0.2,0,0.7,0c0.5,0,0.2-0.2,0.2-0.2L448.2,514.9z M447.5,511.9
					c0-0.7,0-0.9-0.2-1.1c-0.2-0.2-0.2-0.2-0.7-0.2s-0.7,0-0.9,0.2c-0.2,0.2-0.2,0.7-0.2,1.1H447.5z"/>
			</g>
		</g>
	</g>
	<g id="air-compressor">
		<path id="back" style="fill:#010101;stroke:#45AB99;stroke-width:0.5;stroke-miterlimit:10;" d="M406.1,12.6l-1.8-1.8
			c-1.4-1.4-3.9-1.4-5.3,0l-2.3,2.3c-2.1-1.1-4.3-1.8-6.9-1.8s-4.8,0.7-6.9,1.8l-2.3-2.3c-1.4-1.4-3.9-1.4-5.3,0l-2.1,1.8
			c-1.4,1.4-1.4,3.9,0,5.3l3,3c-0.7,1.1-0.7,2.7-0.7,4.1c0,5.3,3,10.1,7.8,12.1l-4.1,7.1h20.6l-4.1-7.1c4.3-2.3,7.8-6.9,7.8-12.1
			c0-1.4-0.2-3-0.7-4.1l3-3C407.4,16,407.4,13.7,406.1,12.6z"/>
	</g>
	<polygon id="ducts2" style="fill:#010101;stroke:#DDCC77;stroke-width:0.5;stroke-miterlimit:10;" points="563.6,255.3 
		565.9,267.9 600.2,267.9 599.5,423.3 509.5,423.1 509.5,446 521.9,446 521.9,438.4 570.2,438.4 570.2,446 582.6,446 582.6,438.4 
		613.5,438 613.5,255.3 	"/>
	<g id="terminal1">
		<rect x="501.7" y="446" style="fill:#010101;stroke:#DDCC77;stroke-width:0.5;stroke-miterlimit:10;" width="30" height="46"/>
		
			<line style="fill:none;stroke:#DDCC77;stroke-width:0.5;stroke-linecap:round;stroke-miterlimit:10;" x1="506.8" y1="471.2" x2="526.2" y2="451.3"/>
		<g>
			<path style="fill:#DDCC77;" d="M517.1,483.1h-3.7v3.2h-0.9v-7.1h0.9v3.2h3.7v-3.2h0.9v7.1h-0.9V483.1z"/>
		</g>
		<line style="fill:none;stroke:#DDCC77;stroke-width:0.5;stroke-miterlimit:10;" x1="501.7" y1="476.2" x2="531.7" y2="476.2"/>
	</g>
	<g id="terminal2">
		<rect x="561.5" y="446" style="fill:#010101;stroke:#DDCC77;stroke-width:0.5;stroke-miterlimit:10;" width="30" height="46"/>
		
			<line style="fill:none;stroke:#DDCC77;stroke-width:0.5;stroke-linecap:round;stroke-miterlimit:10;" x1="566.5" y1="471.2" x2="586.2" y2="451.3"/>
		<g>
			<path style="fill:#DDCC77;" d="M576.6,483.1H573v3.2h-0.7v-7.1h0.9v3.2h3.7v-3.2h0.9v7.1h-0.9L576.6,483.1L576.6,483.1z"/>
		</g>
		<line style="fill:none;stroke:#DDCC77;stroke-width:0.5;stroke-miterlimit:10;" x1="561.5" y1="476.2" x2="591.3" y2="476.2"/>
	</g>
	<g id="zone1_1_">
		<path style="fill:#010101;stroke:#DDCC77;stroke-width:0.5;stroke-miterlimit:10;" d="M540.9,538.7h-52.2c-1.8,0-3.2-1.4-3.2-3.2
			v-40.1c0-1.8,1.4-3.2,3.2-3.2h52.2c1.8,0,3.2,1.4,3.2,3.2v40.1C544.1,537.1,542.7,538.7,540.9,538.7z"/>
		<g>
			<g>
				<path style="fill:#DDCC77;" d="M507,514.7l3-5.3l0.2-0.2h-3v-0.9h3.9v0.9l-3,5.3l-0.2,0.2h3.2v0.9h-3.9L507,514.7L507,514.7z"/>
				<path style="fill:#DDCC77;" d="M511.1,512.6c0-0.9,0.2-1.4,0.7-2.1c0.5-0.7,0.9-0.7,1.4-0.7c0.7,0,1.1,0.2,1.4,0.7
					c0.2,0.7,0.7,1.1,0.7,2.1c0,0.9-0.2,1.4-0.7,2.1c-0.2,0.7-0.9,0.7-1.4,0.7c-0.7,0-1.1-0.2-1.4-0.7
					C511.6,514.4,511.1,513.8,511.1,512.6z M512.1,512.6c0,0.2,0,0.7,0,0.9c0,0.2,0,0.7,0.2,0.7s0.2,0.2,0.2,0.2s0.2,0.2,0.7,0.2
					c0.2,0,0.7-0.2,0.9-0.7c0.2-0.2,0.2-0.9,0.2-1.4c0-0.2,0-0.7,0-0.9s0-0.7-0.2-0.7c0-0.2-0.2-0.2-0.2-0.2s-0.2-0.2-0.7-0.2
					c-0.2,0-0.7,0.2-0.9,0.7C512.1,511.5,512.1,511.9,512.1,512.6z"/>
				<path style="fill:#DDCC77;" d="M518.7,515.4v-3.2c0-0.7,0-0.9-0.2-1.1c0-0.2-0.2-0.2-0.7-0.2c-0.2,0-0.7,0-0.7,0.2
					c-0.2,0.2-0.2,0.2-0.2,0.7v3.9h-0.9v-5h0.7v0.7l0,0c0-0.2,0.2-0.2,0.7-0.7c0.2,0,0.7-0.2,0.9-0.2s0.2,0,0.7,0
					c0.2,0,0.2,0.2,0.7,0.2c0,0.2,0.2,0.2,0.2,0.7c0,0.2,0,0.7,0,0.9v3.2H518.7L518.7,515.4z"/>
				<path style="fill:#DDCC77;" d="M523.7,514.9c-0.2,0.2-0.2,0.2-0.7,0.2c-0.2,0-0.7,0-0.9,0s-0.7,0-0.9-0.2
					c-0.2,0-0.7-0.2-0.7-0.7c-0.2-0.2-0.2-0.7-0.2-0.9c0-0.2,0-0.7,0-1.1c0-0.9,0.2-1.4,0.7-2.1c0.2-0.7,0.9-0.7,1.4-0.7
					c0.2,0,0.2,0,0.7,0c0.2,0,0.2,0.2,0.7,0.2c0.2,0.2,0.2,0.2,0.2,0.7c0,0.2,0,0.7,0,0.9v0.2v0.2h-2.7c0,0.2,0,0.7,0,0.9
					s0,0.7,0.2,0.7c0,0.2,0.2,0.2,0.2,0.2c0.2,0,0.2,0,0.7,0c0.2,0,0.2,0,0.7,0c0.2,0,0.2-0.2,0.2-0.2L523.7,514.9z M523,511.9
					c0-0.7,0-0.9-0.2-1.1c-0.2-0.2-0.2-0.2-0.7-0.2s-0.7,0-0.9,0.2c-0.2,0.2-0.2,0.7-0.2,1.1H523z"/>
			</g>
		</g>
	</g>
	<g id="zone2_1_">
		<path style="fill:#010101;stroke:#DDCC77;stroke-width:0.5;stroke-miterlimit:10;" d="M604.3,538.7h-52.2c-1.8,0-3.2-1.4-3.2-3.2
			v-40.1c0-1.8,1.4-3.2,3.2-3.2h52.2c1.8,0,3.2,1.4,3.2,3.2v40.1C607.8,537.1,606.4,538.7,604.3,538.7z"/>
		<g>
			<g>
				<path style="fill:#DDCC77;" d="M570.2,514.7l3-5.3l0.2-0.2h-3.2v-0.9h3.9v0.9l-3,5.3l-0.2,0.2h3.2v0.9h-3.9V514.7z"/>
				<path style="fill:#DDCC77;" d="M574.3,512.6c0-0.9,0.2-1.4,0.7-2.1c0.5-0.7,0.9-0.7,1.4-0.7s1.1,0.2,1.4,0.7
					c0.2,0.7,0.7,1.1,0.7,2.1c0,0.9-0.2,1.4-0.7,2.1c-0.2,0.7-0.9,0.7-1.4,0.7s-1.1-0.2-1.4-0.7
					C574.3,514.4,574.3,513.8,574.3,512.6z M575,512.6c0,0.2,0,0.7,0,0.9c0,0.2,0,0.7,0.2,0.7s0.2,0.2,0.2,0.2s0.2,0.2,0.7,0.2
					c0.2,0,0.7-0.2,0.9-0.7c0.2-0.2,0.2-0.9,0.2-1.4c0-0.2,0-0.7,0-0.9s0-0.7-0.2-0.7c0-0.2-0.2-0.2-0.2-0.2c-0.2,0-0.2-0.2-0.7-0.2
					c-0.2,0-0.7,0.2-0.9,0.7C575.2,511.5,575,511.9,575,512.6z"/>
				<path style="fill:#DDCC77;" d="M581.4,515.4v-3.2c0-0.7,0-0.9-0.2-1.1c0-0.2-0.2-0.2-0.7-0.2s-0.7,0-0.7,0.2
					c-0.2,0.2-0.2,0.2-0.2,0.7v3.9h-0.9v-5h0.7v0.7l0,0c0-0.2,0.2-0.2,0.7-0.7c0.2,0,0.7-0.2,0.9-0.2s0.2,0,0.7,0
					c0.2,0,0.2,0.2,0.7,0.2c0,0.2,0.2,0.2,0.2,0.7c0,0.2,0,0.7,0,0.9v3.2H581.4L581.4,515.4z"/>
				<path style="fill:#DDCC77;" d="M586.5,514.9c-0.2,0.2-0.2,0.2-0.7,0.2c-0.2,0-0.7,0-0.9,0s-0.7,0-0.9-0.2
					c-0.2,0-0.7-0.2-0.7-0.7c-0.2-0.2-0.2-0.7-0.2-0.9c0-0.2,0-0.7,0-1.1c0-0.9,0.2-1.4,0.7-2.1c0.2-0.2,0.9-0.7,1.4-0.7
					c0.2,0,0.2,0,0.7,0c0.2,0,0.2,0.2,0.7,0.2c0,0,0.2,0.2,0.2,0.7c0,0.2,0,0.7,0,0.9v0.2v0.2h-2.7c0,0.2,0,0.7,0,0.9s0,0.7,0.2,0.7
					c0,0.2,0.2,0.2,0.2,0.2c0.2,0,0.2,0,0.7,0c0.5,0,0.2,0,0.7,0c0.2,0,0.2-0.2,0.2-0.2L586.5,514.9z M586,511.9
					c0-0.7,0-0.9-0.2-1.1c-0.2-0.2-0.2-0.2-0.7-0.2c-0.2,0-0.7,0-0.9,0.2c-0.2,0.2-0.2,0.7-0.2,1.1H586z"/>
			</g>
		</g>
	</g>
	<g>
		<polygon style="fill:#010101;stroke:#DDCC77;stroke-width:0.5;stroke-miterlimit:10;" points="377,142.4 384.3,146.5 377,151.1 		
			"/>
		<polygon style="fill:#010101;stroke:#DDCC77;stroke-width:0.5;stroke-miterlimit:10;" points="392.1,151.1 384.5,146.5 
			392.1,142.4 		"/>
	</g>
	<g>
		<g>
			<polygon style="fill:#010101;stroke:#DDCC77;stroke-width:0.5;stroke-miterlimit:10;" points="436.3,138.3 431.7,146.1 
				427.6,138.3 			"/>
			<polygon style="fill:#010101;stroke:#DDCC77;stroke-width:0.5;stroke-miterlimit:10;" points="427.6,153.4 431.7,146.1 
				436.3,153.4 			"/>
			<polygon style="fill:#010101;stroke:#DDCC77;stroke-width:0.5;stroke-miterlimit:10;" points="424.4,141.5 431.7,146.1 
				424.4,150.2 			"/>
		</g>
		<line style="fill:none;stroke:#DDCC77;stroke-width:0.5;stroke-miterlimit:10;" x1="431.7" y1="146.1" x2="440.4" y2="146.1"/>
		<rect x="440.4" y="139.4" style="fill:none;stroke:#DDCC77;stroke-width:0.5;stroke-miterlimit:10;" width="9.4" height="13"/>
		<g>
			<path style="fill:#DDCC77;" d="M444.7,142.4h0.9v6.4h-0.9V142.4z"/>
		</g>
	</g>
	<g>
		<line style="fill:none;stroke:#45AB99;stroke-width:0.5;stroke-miterlimit:10;" x1="419.1" y1="58.6" x2="419.1" y2="51.1"/>
		<rect x="414.5" y="40.5" style="fill:none;stroke:#45AB99;stroke-width:0.5;stroke-miterlimit:10;" width="9.4" height="11"/>
		<g>
			<path style="fill:#45AB99;" d="M422.1,44H420v6h-0.9v-6H417v-0.7h4.8L422.1,44L422.1,44z"/>
		</g>
	</g>
	<g>
		<line style="fill:none;stroke:#DDCC77;stroke-width:0.5;stroke-miterlimit:10;" x1="389.6" y1="254.4" x2="389.6" y2="247.3"/>
		<rect x="385" y="236.3" style="fill:none;stroke:#DDCC77;stroke-width:0.5;stroke-miterlimit:10;" width="9.4" height="11"/>
		<g>
			<path style="fill:#DDCC77;" d="M392.3,239.9h-2.1v6h-0.9v-6h-2.1v-0.7h4.8L392.3,239.9L392.3,239.9z"/>
		</g>
	</g>
	<g>
		<g>
			<polygon style="fill:#010101;stroke:#DDCC77;stroke-width:0.5;stroke-miterlimit:10;" points="503.8,195.7 508.2,188.4 
				512.3,195.7 			"/>
			<polygon style="fill:#010101;stroke:#DDCC77;stroke-width:0.5;stroke-miterlimit:10;" points="512.3,180.6 508.2,188 
				503.8,180.6 			"/>
			<polygon style="fill:#010101;stroke:#DDCC77;stroke-width:0.5;stroke-miterlimit:10;" points="515.7,192.5 508.2,188.4 
				515.7,183.8 			"/>
		</g>
		<line style="fill:none;stroke:#DDCC77;stroke-width:0.5;stroke-miterlimit:10;" x1="508.2" y1="188" x2="499.7" y2="188"/>
		<rect x="489.6" y="181.8" style="fill:#010101;stroke:#DDCC77;stroke-width:0.5;stroke-miterlimit:10;" width="9.4" height="13"/>
		<g>
			<path style="fill:#DDCC77;" d="M494,184.8h0.9v6.4H494V184.8z"/>
		</g>
	</g>
	<g>
		<rect x="519.8" y="236.7" style="fill:#010101;stroke:#DDCC77;stroke-width:0.5;stroke-miterlimit:10;" width="9.4" height="11"/>
		<line style="fill:none;stroke:#DDCC77;stroke-width:0.5;stroke-miterlimit:10;" x1="524.6" y1="255.3" x2="524.6" y2="248.2"/>
		<g>
			<path style="fill:#DDCC77;" d="M524.2,239.2h0.9v6.4h-0.9V239.2z"/>
		</g>
	</g>
	<g>
		<g>
			
				<rect x="492.8" y="383" style="fill:#010101;stroke:#DDCC77;stroke-width:0.5;stroke-miterlimit:10;" width="67.3" height="30.4"/>
			
				<line style="fill:none;stroke:#DDCC77;stroke-width:0.5;stroke-linecap:round;stroke-miterlimit:10;" x1="549.8" y1="386.7" x2="538.8" y2="386.7"/>
			
				<line style="fill:none;stroke:#DDCC77;stroke-width:0.5;stroke-linecap:round;stroke-miterlimit:10;" x1="549.8" y1="391.5" x2="538.8" y2="391.5"/>
			
				<line style="fill:none;stroke:#DDCC77;stroke-width:0.5;stroke-linecap:round;stroke-miterlimit:10;" x1="549.8" y1="396.1" x2="538.8" y2="396.1"/>
			
				<line style="fill:none;stroke:#DDCC77;stroke-width:0.5;stroke-linecap:round;stroke-miterlimit:10;" x1="549.8" y1="400.9" x2="538.8" y2="400.9"/>
			
				<line style="fill:none;stroke:#DDCC77;stroke-width:0.5;stroke-linecap:round;stroke-miterlimit:10;" x1="549.8" y1="405.9" x2="538.8" y2="405.9"/>
			
				<line style="fill:none;stroke:#DDCC77;stroke-width:0.5;stroke-linecap:round;stroke-miterlimit:10;" x1="549.8" y1="410.7" x2="538.8" y2="410.7"/>
			
				<line style="fill:none;stroke:#DDCC77;stroke-width:0.5;stroke-linecap:round;stroke-miterlimit:10;" x1="535.9" y1="383" x2="535.9" y2="413.7"/>
			
				<line style="fill:none;stroke:#DDCC77;stroke-width:0.5;stroke-linecap:round;stroke-miterlimit:10;" x1="552.8" y1="383" x2="552.8" y2="413.7"/>
		</g>
		<g>
			<g>
				<path style="fill:#DDCC77;" d="M507.7,400.9l0.2,1.1l0,0l0.2-1.1l1.1-4.8h0.9l-2.1,7.3h-0.9l-2.3-7.3h0.9L507.7,400.9z"/>
				<path style="fill:#DDCC77;" d="M513,400.9h-2.1l-0.7,2.1h-0.9l2.1-7.3h0.7l2.1,7.3h-0.9L513,400.9z M511.1,400.2h1.8l-0.7-2.3
					l-0.2-1.1l0,0l-0.2,1.1L511.1,400.2z"/>
				<path style="fill:#DDCC77;" d="M516.2,400.9l0.2,1.1l0,0l0.2-1.1l1.1-4.8h0.9l-2.1,7.3h-0.7l-2.3-7.3h0.9L516.2,400.9z"/>
			</g>
		</g>
	</g>
	<g>
		<line style="fill:none;stroke:#DDCC77;stroke-width:0.5;stroke-miterlimit:10;" x1="356.1" y1="538.7" x2="356.1" y2="531.4"/>
		<rect x="351.3" y="520.6" style="fill:none;stroke:#DDCC77;stroke-width:0.5;stroke-miterlimit:10;" width="9.4" height="11"/>
		<g>
			<path style="fill:#DDCC77;" d="M358.9,524.3h-2.1v6h-0.7v-6h-2.1v-0.7h4.8V524.3L358.9,524.3z"/>
		</g>
	</g>
	<g>
		<line style="fill:none;stroke:#DDCC77;stroke-width:0.5;stroke-miterlimit:10;" x1="422.8" y1="538.9" x2="422.8" y2="531.6"/>
		<rect x="418.2" y="520.9" style="fill:none;stroke:#DDCC77;stroke-width:0.5;stroke-miterlimit:10;" width="9.4" height="11"/>
		<g>
			<path style="fill:#DDCC77;" d="M425.5,524.5h-2.1v6h-0.9v-6h-2.1v-0.7h4.8L425.5,524.5L425.5,524.5z"/>
		</g>
	</g>
	<g>
		<line style="fill:none;stroke:#DDCC77;stroke-width:0.5;stroke-miterlimit:10;" x1="497.6" y1="539.4" x2="497.6" y2="531.8"/>
		<rect x="492.8" y="521.3" style="fill:none;stroke:#DDCC77;stroke-width:0.5;stroke-miterlimit:10;" width="9.4" height="11"/>
		<g>
			<path style="fill:#DDCC77;" d="M500.1,524.7h-2.1v6h-0.9v-6h-1.8v-0.7h4.8V524.7L500.1,524.7z"/>
		</g>
	</g>
	<g>
		<line style="fill:none;stroke:#DDCC77;stroke-width:0.5;stroke-miterlimit:10;" x1="561.5" y1="538.9" x2="561.5" y2="531.6"/>
		<rect x="556.9" y="520.9" style="fill:none;stroke:#DDCC77;stroke-width:0.5;stroke-miterlimit:10;" width="9.4" height="11"/>
		<g>
			<path style="fill:#DDCC77;" d="M564.3,524.5h-2.1v6h-0.9v-6h-2.1v-0.7h4.8L564.3,524.5L564.3,524.5z"/>
		</g>
	</g>
	<polygon style="fill:#010101;stroke:#DDCC77;stroke-width:0.5;stroke-miterlimit:10;" points="357.3,491.3 393.9,491.3 
		381.1,479.4 368.7,479.4 	"/>
	<g>
		<g>
			
				<rect x="505.9" y="254.8" style="fill:#010101;stroke:#DDCC77;stroke-width:0.5;stroke-miterlimit:10;" width="37.5" height="31.4"/>
			<path style="stroke:#DDCC77;stroke-width:0.5;stroke-miterlimit:10;" d="M537.2,258.5h-13c-0.7,0-1.1-0.2-1.8-0.2s-1.1,0-1.8,0.2
				l0,0l0,0c-5.3,0.9-9.2,5.3-9.2,10.8c0,6,4.8,11,11,11s11-4.8,11-11c0-0.7,0-1.1-0.2-1.8h3.9L537.2,258.5L537.2,258.5z"/>
			<polygon style="fill:#010101;stroke:#DDCC77;stroke-width:0.5;stroke-miterlimit:10;" points="543.4,254.8 551,254.8 
				556.2,286.2 543.4,286.2 			"/>
			
				<rect x="490.8" y="254.8" style="fill:#010101;stroke:#DDCC77;stroke-width:0.5;stroke-miterlimit:10;" width="15.1" height="31.4"/>
			
				<rect x="475.4" y="254.8" style="fill:#010101;stroke:#DDCC77;stroke-width:0.5;stroke-miterlimit:10;" width="15.1" height="31.4"/>
			
				<rect x="444.5" y="254.8" style="fill:#010101;stroke:#DDCC77;stroke-width:0.5;stroke-miterlimit:10;" width="8.9" height="31.4"/>
			
				<rect x="453.7" y="254.8" style="fill:#010101;stroke:#DDCC77;stroke-width:0.5;stroke-miterlimit:10;" width="22" height="31.4"/>
			<polyline style="fill:none;stroke:#DDCC77;stroke-width:0.5;stroke-miterlimit:10;" points="444.7,286.2 453.2,281.1 
				444.5,276.3 453.2,271.3 444.5,266.3 453.2,260.1 443.8,254.8 			"/>
			
				<rect x="504" y="300.1" style="fill:#010101;stroke:#DDCC77;stroke-width:0.5;stroke-miterlimit:10;" width="39.6" height="31.4"/>
			<path style="stroke:#DDCC77;stroke-width:0.5;stroke-miterlimit:10;" d="M512.1,304h13c0.7,0,1.1-0.2,1.8-0.2s1.1,0,1.8,0.2l0,0
				l0,0c5.3,0.9,9.2,5.3,9.2,10.8c0,6-4.8,11-11,11s-11-4.8-11-11c0-0.7,0-1.1,0.2-1.8h-3.9L512.1,304L512.1,304z"/>
			
				<rect x="543.9" y="300.1" style="fill:#010101;stroke:#DDCC77;stroke-width:0.5;stroke-miterlimit:10;" width="9.8" height="31.4"/>
			
				<rect x="485.5" y="300.1" style="fill:#010101;stroke:#DDCC77;stroke-width:0.5;stroke-miterlimit:10;" width="9.4" height="31.4"/>
			
				<rect x="494.7" y="300.1" style="fill:#010101;stroke:#DDCC77;stroke-width:0.5;stroke-miterlimit:10;" width="9.4" height="31.4"/>
			<polygon style="fill:#010101;stroke:#DDCC77;stroke-width:0.5;stroke-miterlimit:10;" points="375.4,300.1 375.4,331.5 
				412.5,331.5 412.5,331.5 437.4,331.5 444.5,331.5 485.5,331.5 485.5,300.1 444.5,300.1 444.5,254.8 412.5,254.8 408.6,254.8 
				375.4,254.8 375.4,286.2 408.6,286.2 408.6,300.1 			"/>
			<g>
				<line style="fill:none;stroke:#DDCC77;stroke-width:0.5;stroke-miterlimit:10;" x1="443.8" y1="293" x2="408.6" y2="293"/>
				<line style="fill:none;stroke:#DDCC77;stroke-width:0.5;stroke-miterlimit:10;" x1="441.5" y1="289.6" x2="435.1" y2="296.3"/>
				<line style="fill:none;stroke:#DDCC77;stroke-width:0.5;stroke-miterlimit:10;" x1="434.2" y1="289.6" x2="427.6" y2="296.3"/>
				<line style="fill:none;stroke:#DDCC77;stroke-width:0.5;stroke-miterlimit:10;" x1="426.7" y1="289.6" x2="420.2" y2="296.3"/>
				<line style="fill:none;stroke:#DDCC77;stroke-width:0.5;stroke-miterlimit:10;" x1="419.1" y1="289.6" x2="412.7" y2="296.3"/>
			</g>
			<g>
				<line style="fill:none;stroke:#DDCC77;stroke-width:0.5;stroke-miterlimit:10;" x1="404.4" y1="331.3" x2="404.4" y2="300.6"/>
				<line style="fill:none;stroke:#DDCC77;stroke-width:0.5;stroke-miterlimit:10;" x1="407.7" y1="329.7" x2="401.2" y2="323.3"/>
				<line style="fill:none;stroke:#DDCC77;stroke-width:0.5;stroke-miterlimit:10;" x1="407.7" y1="322.1" x2="401.2" y2="315.7"/>
				<line style="fill:none;stroke:#DDCC77;stroke-width:0.5;stroke-miterlimit:10;" x1="407.7" y1="314.6" x2="401.2" y2="308.2"/>
				<line style="fill:none;stroke:#DDCC77;stroke-width:0.5;stroke-miterlimit:10;" x1="407.7" y1="307.2" x2="401.2" y2="300.6"/>
			</g>
			<g>
				<line style="fill:none;stroke:#DDCC77;stroke-width:0.5;stroke-miterlimit:10;" x1="404.4" y1="285.5" x2="404.4" y2="255"/>
				<line style="fill:none;stroke:#DDCC77;stroke-width:0.5;stroke-miterlimit:10;" x1="407.7" y1="284.1" x2="401.2" y2="277.5"/>
				<line style="fill:none;stroke:#DDCC77;stroke-width:0.5;stroke-miterlimit:10;" x1="407.7" y1="276.6" x2="401.2" y2="270.2"/>
				<line style="fill:none;stroke:#DDCC77;stroke-width:0.5;stroke-miterlimit:10;" x1="407.7" y1="269" x2="401.2" y2="262.8"/>
				<line style="fill:none;stroke:#DDCC77;stroke-width:0.5;stroke-miterlimit:10;" x1="407.7" y1="261.5" x2="401.2" y2="255"/>
			</g>
			<g>
				<path style="fill:#DDCC77;" d="M484.8,271.1h-3.7v3.2h-0.9v-7.1h0.9v3.2h3.7v-3.2h0.9v7.1h-0.9V271.1z"/>
			</g>
			<g>
				<path style="fill:#DDCC77;" d="M491.7,316.2H488v3.2h-0.9v-7.1h0.9v3.2h3.7v-3.2h0.9v7.1h-0.9V316.2z"/>
			</g>
			<g>
				<path style="fill:#DDCC77;" d="M500.8,274c-0.2,0.2-0.7,0.2-0.9,0.2s-0.7,0-0.9,0c-0.7,0-0.9,0-1.1-0.2c-0.2,0-0.9-0.2-0.9-0.7
					c-0.2-0.2-0.7-0.7-0.7-1.1c0-0.7-0.2-0.9-0.2-1.8c0-0.7,0-1.1,0.2-1.8c0.2-0.7,0.7-0.9,0.9-1.1c0.2-0.2,0.7-0.7,0.9-0.7
					s0.9-0.2,1.1-0.2s0.9,0,0.9,0c0.2,0,0.7,0,0.7,0.2l-0.2,0.9c-0.2-0.2-0.9-0.2-1.4-0.2c-0.2,0-0.7,0-0.9,0.2
					c-0.2,0.2-0.7,0.2-0.9,0.7c-0.2,0.2-0.2,0.7-0.7,0.9c0,0.2-0.2,0.9-0.2,1.4c0,0.7,0,0.9,0.2,1.1c0,0.2,0.2,0.7,0.7,0.9
					c0.2,0.2,0.7,0.7,0.9,0.7s0.7,0.2,0.9,0.2s0.7,0,0.9,0s0.7-0.2,0.7-0.2L500.8,274L500.8,274z"/>
			</g>
		</g>
		<line style="fill:none;stroke:#DDCC77;stroke-width:0.5;stroke-miterlimit:10;" x1="549.8" y1="247.7" x2="557.2" y2="290.1"/>
	</g>
	<line style="fill:none;stroke:#DDCC77;stroke-width:0.5;stroke-miterlimit:10;" x1="562.4" y1="250.2" x2="566.1" y2="271.3"/>
	<line style="fill:none;stroke:#DDCC77;stroke-width:0.5;stroke-miterlimit:10;" x1="561" y1="270.4" x2="564.9" y2="291.4"/>
</g>
</svg>
