<?xml version="1.0" encoding="utf-8"?>
<!-- Generator: Adobe Illustrator 18.0.0, SVG Export Plug-In . SVG Version: 6.00 Build 0)  -->
<!DOCTYPE svg PUBLIC "-//W3C//DTD SVG 1.1//EN" "http://www.w3.org/Graphics/SVG/1.1/DTD/svg11.dtd">
<svg version="1.1" id="Layer_1" xmlns="http://www.w3.org/2000/svg" xmlns:xlink="http://www.w3.org/1999/xlink" x="0px" y="0px"
	 viewBox="0 0 612 792" enable-background="new 0 0 612 792" xml:space="preserve">
<path id="cp-dots" fill="none" stroke="#45AB99" stroke-width="0.5" stroke-miterlimit="10" stroke-dasharray="3" d="M452.5,286.6
	H159.7c-2.7,0-4.9-2.2-4.9-4.9V103.5c0-2.7,2.2-4.9,4.9-4.9h292.8c2.7,0,4.9,2.2,4.9,4.9v178.2C457.4,284.4,455.2,286.6,452.5,286.6
	z"/>
<path id="dis-dots" fill="none" stroke="#DDCC77" stroke-width="0.5" stroke-miterlimit="10" stroke-dasharray="3" d="M452.9,479
	H159.2c-2.5,0-4.5-2-4.5-4.5V308.2c0-2.5,2-4.5,4.5-4.5h293.7c2.5,0,4.5,2,4.5,4.5v166.3C457.4,477,455.4,479,452.9,479z"/>
<g id="cp-dis-pipes">
	<polygon fill="#010101" stroke="#DDCC77" stroke-width="0.5" stroke-miterlimit="10" points="207.4,199 204.4,199 204.4,276.6 
		204.4,338 304.6,338 304.6,374.5 307.6,374.5 307.6,335 207.4,335 	"/>
	<polygon fill="#010101" stroke="#DDCC77" stroke-width="0.5" stroke-miterlimit="10" points="336.1,245.4 339.1,245.4 339.1,328.1 
		325,328.1 325,374.7 322,374.7 322,325.2 336.1,325.2 	"/>
	<polygon fill="#010101" stroke="#DDCC77" stroke-width="0.5" stroke-miterlimit="10" points="256.4,198 254,198 254.4,276.6 
		254.4,327.9 311.6,327.9 311.6,374.5 314.6,374.5 314.6,325 257.4,325 	"/>
	<polygon fill="#010101" stroke="#DDCC77" stroke-width="0.5" stroke-miterlimit="10" points="380.4,253.4 383.5,253.4 383.4,339 
		332.3,339 332.3,374.7 329.3,374.7 329.3,336 380.4,336 	"/>
</g>
<polygon id="diffuser" fill="#010101" stroke="#DDCC77" stroke-width="0.5839" stroke-miterlimit="10" points="248,627.7 
	286.9,627.7 273.4,614.8 260,614.8 "/>
<path id="boiler" fill="#010101" stroke="#45AB99" stroke-miterlimit="10" d="M269.9,178.1v4.1h-6.8c-0.8-9.6-7.9-17.2-16.5-17.2
	h-64.8c-5.9,0-11.1,3.6-14.1,9h-4.1v25.8h4.1c2.9,5.4,8.1,9,14.1,9v11.3h10.3v-11.3h40.2v11.3h10.3v-11.3h4
	c8.4,0,15.4-7.2,16.5-16.6h6.8v3.2H285v-17.2H269.9z"/>
<path id="cp-piper-back-tower" stroke="#45AB99" stroke-width="0.5" stroke-miterlimit="10" d="M409.1,229.3h2.4v-67.9v-4.2
	c0-0.8-0.5-1.4-1.2-1.4h-19.5l-0.5,2.8l17.6,0c0.6,0,1.2,0.6,1.2,1.4V229.3z"/>
<g id="tower">
	<path fill="none" stroke="#45AB99" stroke-width="0.8901" stroke-miterlimit="10" d="M387.3,171.7c-0.1,0.5-0.5,0.9-1,0.9h-40.9
		H345l-2.6-13.7l-7.4-38.8c-0.1-0.6,0.4-1.2,1-1.2h59.3c0.6,0,1.1,0.6,1,1.2L387.3,171.7z"/>
	<line fill="none" stroke="#45AB99" stroke-width="1.1722" stroke-miterlimit="10" x1="338.4" y1="140.5" x2="392.7" y2="140.5"/>
	<g>
		<path fill="none" stroke="#45AB99" stroke-width="1.0488" stroke-linecap="round" stroke-miterlimit="10" d="M352.4,147.4l2.3-2
			c0.2-0.2,0.4-0.5,0.4-0.8v-3.6"/>
		
			<line fill="none" stroke="#45AB99" stroke-width="1.0488" stroke-linecap="round" stroke-miterlimit="10" x1="357.3" y1="147.4" x2="355" y2="145.1"/>
	</g>
	<g>
		<path fill="none" stroke="#45AB99" stroke-width="1.0488" stroke-linecap="round" stroke-miterlimit="10" d="M373.6,146.9l2.3-2
			c0.2-0.2,0.4-0.5,0.4-0.8v-3.6"/>
		
			<line fill="none" stroke="#45AB99" stroke-width="1.0488" stroke-linecap="round" stroke-miterlimit="10" x1="378.6" y1="146.9" x2="376.3" y2="144.6"/>
	</g>
	<path fill="none" stroke="#45AB99" stroke-width="0.8901" stroke-miterlimit="10" d="M367.6,153.4h-4c-0.6,0-1-0.5-1-1v-3.4
		c0-0.6,0.5-1,1-1h4c0.6,0,1,0.5,1,1v3.4C368.6,152.9,368.2,153.4,367.6,153.4z"/>
	
		<line fill="none" stroke="#45AB99" stroke-width="1.0488" stroke-linecap="round" stroke-miterlimit="10" x1="365.6" y1="153.7" x2="365.6" y2="171.5"/>
	<path id="waterpath" fill="none" stroke="#45AB99" stroke-width="0.8901" stroke-miterlimit="10" d="M343,161.1
		c-0.2-0.8,0.7-1.5,1.5-1.2c3.5,1.7,11.7,4.1,22.3-1.1c0,0,11.8-5.6,22.2-1c0.4,0.2,0.7,0.7,0.6,1.2l-2.5,12.7
		c-0.1,0.5-0.5,0.8-1,0.8l-39.8,0.1c-0.5,0-0.9-0.3-1-0.8L343,161.1z"/>
</g>
<path id="chiller" fill="#010101" stroke="#45AB99" stroke-miterlimit="10" d="M431.6,242.3v-3.9H426v-8.5h-2.6v5.6
	c-1.6-2.5-4.4-4.5-7.9-5.7c-0.3-12.7-10.7-17.3-17.7-17.3h-28.3v-5.9H330v21.8h39.5v-5.9h28.3c0.7,0,6.6,0.2,7.6,6.1h-61.9
	c-7.4,0-13.6,3.4-15.8,8.1v-8.3h-4.8v25.8h4.8v-6.7c2.2,4.7,8.4,8.1,15.8,8.1v11.3h10.3v-11.3H394v11.3h10.3v-11.3h4
	c6.7,0,12.4-2.8,15.1-6.9v6.9h2.6v-8.5h5.5v-3.9H426v-0.9H431.6z"/>
<path id="cp-pipe-tower" stroke="#45AB99" stroke-width="0.5" stroke-miterlimit="10" d="M327.1,228.4h-2.4v-70.9v-1.2
	c0-0.8,0.5-1.4,1.2-1.4h14.5c0.6,0,1,0.5,1.2,1.1l0.5,0c0.1,0.9-0.4,1.7-1.2,1.7l-12.6,0c-0.6,0-1.2,0.6-1.2,1.4V228.4z"/>
<path id="cp-fan" fill="#010101" stroke="#45AB99" stroke-width="0.8901" stroke-miterlimit="10" d="M376,135.5v-16.8
	c0.1-0.7,0.2-1.5,0.2-2.2c0-0.8-0.1-1.5-0.2-2.2v-0.1h0c-1.1-6.8-7-11.9-14-11.9c-7.9,0-14.2,6.4-14.2,14.2
	c0,7.9,6.4,14.2,14.2,14.2c0.8,0,1.6-0.1,2.4-0.2v5H376z"/>
<g id="dis-pump2">
	<circle fill="#010101" stroke="#DDCC77" stroke-miterlimit="10" cx="377.1" cy="329.2" r="13.5"/>
	<path fill="#010101" stroke="#DDCC77" stroke-miterlimit="10" d="M363.6,346.4l5.7-5.3c0,0,3.2,2.5,7.9,2.6
		c4.7,0.1,7.9-2.5,7.9-2.5l5.7,5.3H363.6z"/>
</g>
<g id="dis-pump">
	<circle fill="#010101" stroke="#DDCC77" stroke-miterlimit="10" cx="211.9" cy="329.2" r="13.5"/>
	<path fill="#010101" stroke="#DDCC77" stroke-miterlimit="10" d="M198.4,346.4l5.7-5.3c0,0,3.2,2.5,7.9,2.6
		c4.7,0.1,7.9-2.5,7.9-2.5l5.7,5.3H198.4z"/>
</g>
<g id="cp-pump">
	<circle fill="#010101" stroke="#45AB99" stroke-miterlimit="10" cx="319" cy="179.4" r="13.5"/>
	<path fill="#010101" stroke="#45AB99" stroke-miterlimit="10" d="M305.4,196.6l5.7-5.3c0,0,3.2,2.5,7.9,2.6
		c4.7,0.1,7.9-2.5,7.9-2.5l5.7,5.3H305.4z"/>
</g>
<path id="ducts" fill="none" stroke="#DDCC77" stroke-width="0.4827" stroke-miterlimit="10" stroke-dasharray="2.8964" d="
	M453.1,692.7h-294c-2.4,0-4.4-2-4.4-4.4v-188c0-2.4,2-4.4,4.4-4.4h294c2.4,0,4.4,2,4.4,4.4v188C457.4,690.7,455.5,692.7,453.1,692.7
	z"/>
<polygon id="vav-duct" fill="#010101" stroke="#DDCC77" stroke-width="0.5839" stroke-miterlimit="10" points="395.7,394.7 
	398.5,408.3 402.4,408.1 402.4,522.5 189.3,522.2 189.3,614.6 202.6,614.6 202.6,538.5 260.2,538.5 260.2,614.6 273.6,614.6 
	273.6,538.5 416.8,538.5 416.8,514.4 416.8,394.7 "/>
<g id="zone1">
	<path fill="#010101" stroke="#DDCC77" stroke-width="0.5" stroke-miterlimit="10" d="M223.5,678.3h-55.6c-2,0-3.6-1.6-3.6-3.6
		v-42.9c0-2,1.6-3.6,3.6-3.6h55.6c2,0,3.6,1.6,3.6,3.6v42.9C227.1,676.7,225.5,678.3,223.5,678.3z"/>
	<g>
		<g>
			<path fill="#DDCC77" d="M185.8,652.5l3.1-5.7l0.4-0.4h-3.4v-0.8h4.2v0.8l-3.1,5.8l-0.4,0.4h3.4v0.8h-4.2V652.5z"/>
			<path fill="#DDCC77" d="M190.3,650.5c0-1,0.2-1.7,0.5-2.2c0.3-0.5,0.8-0.7,1.5-0.7c0.7,0,1.2,0.2,1.5,0.7
				c0.3,0.5,0.5,1.2,0.5,2.2c0,1-0.2,1.7-0.5,2.2s-0.8,0.7-1.5,0.7c-0.7,0-1.2-0.2-1.5-0.7C190.4,652.2,190.3,651.5,190.3,650.5z
				 M191.1,650.5c0,0.3,0,0.6,0.1,0.9c0,0.3,0.1,0.5,0.2,0.7c0.1,0.2,0.2,0.3,0.4,0.4c0.1,0.1,0.3,0.2,0.5,0.2
				c0.4,0,0.7-0.2,0.9-0.5c0.2-0.3,0.3-0.9,0.3-1.7c0-0.3,0-0.6-0.1-0.9c0-0.3-0.1-0.5-0.2-0.7c-0.1-0.2-0.2-0.3-0.4-0.4
				c-0.1-0.1-0.3-0.2-0.5-0.2c-0.4,0-0.7,0.2-0.9,0.5S191.1,649.7,191.1,650.5z"/>
			<path fill="#DDCC77" d="M198.1,653.3v-3.4c0-0.5-0.1-0.9-0.2-1.2c-0.1-0.2-0.4-0.4-0.7-0.4c-0.3,0-0.5,0.1-0.7,0.3
				c-0.2,0.2-0.3,0.4-0.4,0.6v4h-0.8v-5.5h0.6l0.1,0.6h0c0.1-0.2,0.3-0.4,0.6-0.5c0.2-0.1,0.5-0.2,0.9-0.2c0.2,0,0.4,0,0.6,0.1
				c0.2,0.1,0.3,0.2,0.5,0.3c0.1,0.2,0.2,0.4,0.3,0.6c0.1,0.3,0.1,0.6,0.1,1v3.6H198.1z"/>
			<path fill="#DDCC77" d="M203.4,652.9c-0.2,0.2-0.4,0.3-0.7,0.4c-0.3,0.1-0.6,0.1-0.9,0.1c-0.3,0-0.6-0.1-0.9-0.2
				c-0.3-0.1-0.5-0.3-0.6-0.6c-0.2-0.3-0.3-0.6-0.4-0.9c-0.1-0.4-0.1-0.7-0.1-1.2c0-0.9,0.2-1.7,0.5-2.1s0.8-0.7,1.5-0.7
				c0.2,0,0.4,0,0.6,0.1s0.4,0.2,0.5,0.3c0.2,0.2,0.3,0.4,0.4,0.6s0.1,0.6,0.1,1.1c0,0.1,0,0.3,0,0.4c0,0.1,0,0.3,0,0.4h-2.8
				c0,0.3,0,0.6,0.1,0.9s0.1,0.5,0.2,0.7c0.1,0.2,0.3,0.3,0.4,0.4c0.2,0.1,0.4,0.1,0.6,0.1c0.2,0,0.4,0,0.6-0.1s0.3-0.2,0.4-0.3
				L203.4,652.9z M202.8,649.9c0-0.6-0.1-1-0.2-1.2c-0.2-0.3-0.4-0.4-0.7-0.4c-0.3,0-0.6,0.1-0.8,0.4c-0.2,0.3-0.3,0.7-0.4,1.2
				H202.8z"/>
		</g>
	</g>
</g>
<g id="zone2">
	<path id="zoneoutline" fill="#010101" stroke="#DDCC77" stroke-width="0.5" stroke-miterlimit="10" d="M293.3,678.3h-55.6
		c-2,0-3.6-1.6-3.6-3.6v-42.9c0-2,1.6-3.6,3.6-3.6h55.6c2,0,3.6,1.6,3.6,3.6v42.9C296.9,676.7,295.2,678.3,293.3,678.3z"/>
	<g id="text">
		<g>
			<path fill="#DDCC77" d="M256.8,652.5l3.1-5.7l0.4-0.4h-3.4v-0.8h4.2v0.8l-3.1,5.8l-0.4,0.4h3.4v0.8h-4.2V652.5z"/>
			<path fill="#DDCC77" d="M261.3,650.5c0-1,0.2-1.7,0.5-2.2s0.8-0.7,1.5-0.7c0.7,0,1.2,0.2,1.5,0.7c0.3,0.5,0.5,1.2,0.5,2.2
				c0,1-0.2,1.7-0.5,2.2s-0.8,0.7-1.5,0.7c-0.7,0-1.2-0.2-1.5-0.7S261.3,651.5,261.3,650.5z M262.1,650.5c0,0.3,0,0.6,0.1,0.9
				c0,0.3,0.1,0.5,0.2,0.7c0.1,0.2,0.2,0.3,0.4,0.4c0.1,0.1,0.3,0.2,0.5,0.2c0.4,0,0.7-0.2,0.9-0.5s0.3-0.9,0.3-1.7
				c0-0.3,0-0.6-0.1-0.9c0-0.3-0.1-0.5-0.2-0.7c-0.1-0.2-0.2-0.3-0.4-0.4s-0.3-0.2-0.5-0.2c-0.4,0-0.7,0.2-0.9,0.5
				S262.1,649.7,262.1,650.5z"/>
			<path fill="#DDCC77" d="M269.1,653.3v-3.4c0-0.5-0.1-0.9-0.2-1.2c-0.1-0.2-0.4-0.4-0.7-0.4c-0.3,0-0.5,0.1-0.7,0.3
				s-0.3,0.4-0.4,0.6v4h-0.8v-5.5h0.6l0.1,0.6h0c0.1-0.2,0.3-0.4,0.6-0.5c0.2-0.1,0.5-0.2,0.9-0.2c0.2,0,0.4,0,0.6,0.1
				s0.3,0.2,0.5,0.3c0.1,0.2,0.2,0.4,0.3,0.6c0.1,0.3,0.1,0.6,0.1,1v3.6H269.1z"/>
			<path fill="#DDCC77" d="M274.4,652.9c-0.2,0.2-0.4,0.3-0.7,0.4c-0.3,0.1-0.6,0.1-0.9,0.1c-0.3,0-0.6-0.1-0.9-0.2
				c-0.3-0.1-0.5-0.3-0.6-0.6c-0.2-0.3-0.3-0.6-0.4-0.9c-0.1-0.4-0.1-0.7-0.1-1.2c0-0.9,0.2-1.7,0.5-2.1s0.8-0.7,1.5-0.7
				c0.2,0,0.4,0,0.6,0.1c0.2,0.1,0.4,0.2,0.5,0.3s0.3,0.4,0.4,0.6c0.1,0.3,0.1,0.6,0.1,1.1c0,0.1,0,0.3,0,0.4c0,0.1,0,0.3,0,0.4
				h-2.8c0,0.3,0,0.6,0.1,0.9c0.1,0.3,0.1,0.5,0.2,0.7c0.1,0.2,0.3,0.3,0.4,0.4c0.2,0.1,0.4,0.1,0.6,0.1c0.2,0,0.4,0,0.6-0.1
				s0.3-0.2,0.4-0.3L274.4,652.9z M273.8,649.9c0-0.5-0.1-1-0.2-1.2c-0.2-0.3-0.4-0.4-0.7-0.4c-0.3,0-0.6,0.1-0.8,0.4
				c-0.2,0.3-0.3,0.7-0.4,1.2H273.8z"/>
		</g>
	</g>
</g>
<g id="air-compressor">
	<path id="back" fill="#010101" stroke="#45AB99" stroke-miterlimit="10" d="M229.2,115.8l-1.8-1.8c-1.5-1.5-4-1.5-5.6,0l-2.5,2.5
		c-2.2-1.3-4.7-2-7.4-2c-2.7,0-5.2,0.7-7.4,2L202,114c-1.5-1.5-4-1.5-5.6,0l-1.8,1.8c-1.5,1.5-1.5,4,0,5.6l3.3,3.3
		c-0.5,1.4-0.7,2.9-0.7,4.5c0,5.8,3.3,10.7,8.1,13.1l-4.3,7.5h21.8l-4.3-7.5c4.8-2.4,8.1-7.4,8.1-13.1c0-1.6-0.2-3.1-0.7-4.5
		l3.3-3.3C230.8,119.8,230.8,117.3,229.2,115.8z"/>
	<circle id="circle" fill="#010101" stroke="#45AB99" stroke-miterlimit="10" cx="211.9" cy="129.1" r="11.9"/>
</g>
<polygon id="ducts2" fill="#010101" stroke="#DDCC77" stroke-width="0.5839" stroke-miterlimit="10" points="397.8,375.3 400,388.8 
	436.9,388.6 436.3,554.9 339.8,554.8 339.8,579.2 353.2,579.2 353.2,571.1 404.7,571.1 404.7,579.2 418.1,579.2 418.1,571.1 
	451.2,570.6 451.2,375.3 "/>
<g id="terminal1">
	
		<rect x="331.6" y="579" fill="#010101" stroke="#DDCC77" stroke-width="0.6449" stroke-miterlimit="10" width="31.9" height="49.2"/>
	<line fill="none" stroke="#DDCC77" stroke-linecap="round" stroke-miterlimit="10" x1="337" y1="605.9" x2="358.1" y2="584.8"/>
	<g>
		<path fill="#DDCC77" d="M348,618.8h-3.7v3.5h-0.9v-7.7h0.9v3.4h3.7v-3.4h0.9v7.7H348V618.8z"/>
	</g>
	<line fill="none" stroke="#DDCC77" stroke-width="0.6449" stroke-miterlimit="10" x1="331.6" y1="611.5" x2="363.5" y2="611.5"/>
</g>
<g id="terminal2">
	
		<rect x="395.5" y="579" fill="#010101" stroke="#DDCC77" stroke-width="0.6449" stroke-miterlimit="10" width="31.9" height="49.2"/>
	<line fill="none" stroke="#DDCC77" stroke-linecap="round" stroke-miterlimit="10" x1="400.9" y1="605.9" x2="422" y2="584.8"/>
	<g>
		<path fill="#DDCC77" d="M411.9,618.8h-3.7v3.5h-0.9v-7.7h0.9v3.4h3.7v-3.4h0.9v7.7h-0.9V618.8z"/>
	</g>
	<line fill="none" stroke="#DDCC77" stroke-width="0.6449" stroke-miterlimit="10" x1="395.5" y1="611.5" x2="427.4" y2="611.5"/>
</g>
<g id="zone1_1_">
	<path fill="#010101" stroke="#DDCC77" stroke-width="0.5" stroke-miterlimit="10" d="M373.5,678.3h-55.6c-2,0-3.6-1.6-3.6-3.6
		v-42.9c0-2,1.6-3.6,3.6-3.6h55.6c2,0,3.6,1.6,3.6,3.6v42.9C377.1,676.7,375.5,678.3,373.5,678.3z"/>
	<g>
		<g>
			<path fill="#DDCC77" d="M337.5,652.5l3.1-5.7l0.4-0.4h-3.4v-0.8h4.2v0.8l-3.1,5.8l-0.4,0.4h3.4v0.8h-4.2V652.5z"/>
			<path fill="#DDCC77" d="M341.9,650.5c0-1,0.2-1.7,0.5-2.2s0.8-0.7,1.5-0.7c0.7,0,1.2,0.2,1.5,0.7s0.5,1.2,0.5,2.2
				c0,1-0.2,1.7-0.5,2.2c-0.3,0.5-0.8,0.7-1.5,0.7c-0.7,0-1.2-0.2-1.5-0.7C342.1,652.2,341.9,651.5,341.9,650.5z M342.8,650.5
				c0,0.3,0,0.6,0.1,0.9s0.1,0.5,0.2,0.7c0.1,0.2,0.2,0.3,0.4,0.4c0.1,0.1,0.3,0.2,0.5,0.2c0.4,0,0.7-0.2,0.9-0.5
				c0.2-0.3,0.3-0.9,0.3-1.7c0-0.3,0-0.6-0.1-0.9s-0.1-0.5-0.2-0.7c-0.1-0.2-0.2-0.3-0.4-0.4c-0.1-0.1-0.3-0.2-0.5-0.2
				c-0.4,0-0.7,0.2-0.9,0.5C342.9,649.2,342.8,649.8,342.8,650.5z"/>
			<path fill="#DDCC77" d="M349.8,653.3v-3.4c0-0.6-0.1-0.9-0.2-1.2c-0.1-0.2-0.4-0.4-0.7-0.4c-0.3,0-0.5,0.1-0.7,0.3
				c-0.2,0.2-0.3,0.4-0.4,0.6v4h-0.8v-5.5h0.6l0.1,0.6h0c0.1-0.2,0.3-0.4,0.6-0.5s0.5-0.2,0.9-0.2c0.2,0,0.4,0,0.6,0.1
				c0.2,0.1,0.3,0.2,0.5,0.3c0.1,0.2,0.2,0.4,0.3,0.6c0.1,0.3,0.1,0.6,0.1,1v3.6H349.8z"/>
			<path fill="#DDCC77" d="M355.1,652.9c-0.2,0.2-0.4,0.3-0.7,0.4s-0.6,0.1-0.9,0.1c-0.3,0-0.6-0.1-0.9-0.2
				c-0.3-0.1-0.5-0.3-0.6-0.6c-0.2-0.3-0.3-0.6-0.4-0.9c-0.1-0.4-0.1-0.7-0.1-1.2c0-0.9,0.2-1.7,0.5-2.1c0.3-0.5,0.8-0.7,1.5-0.7
				c0.2,0,0.4,0,0.6,0.1c0.2,0.1,0.4,0.2,0.5,0.3c0.2,0.2,0.3,0.4,0.4,0.6c0.1,0.3,0.1,0.6,0.1,1.1c0,0.1,0,0.3,0,0.4s0,0.3,0,0.4
				h-2.8c0,0.3,0,0.6,0.1,0.9c0.1,0.3,0.1,0.5,0.2,0.7s0.3,0.3,0.4,0.4c0.2,0.1,0.4,0.1,0.6,0.1c0.2,0,0.4,0,0.6-0.1
				c0.2-0.1,0.3-0.2,0.4-0.3L355.1,652.9z M354.4,649.9c0-0.6-0.1-1-0.2-1.2c-0.2-0.3-0.4-0.4-0.7-0.4c-0.3,0-0.6,0.1-0.8,0.4
				c-0.2,0.3-0.3,0.7-0.4,1.2H354.4z"/>
		</g>
	</g>
</g>
<g id="zone2_1_">
	<path fill="#010101" stroke="#DDCC77" stroke-width="0.5" stroke-miterlimit="10" d="M441.4,678.3h-55.6c-2,0-3.6-1.6-3.6-3.6
		v-42.9c0-2,1.6-3.6,3.6-3.6h55.6c2,0,3.6,1.6,3.6,3.6v42.9C445,676.7,443.4,678.3,441.4,678.3z"/>
	<g>
		<g>
			<path fill="#DDCC77" d="M404.7,652.5l3.1-5.7l0.4-0.4h-3.4v-0.8h4.2v0.8l-3.1,5.8l-0.4,0.4h3.4v0.8h-4.2V652.5z"/>
			<path fill="#DDCC77" d="M409.2,650.5c0-1,0.2-1.7,0.5-2.2c0.3-0.5,0.8-0.7,1.5-0.7c0.7,0,1.2,0.2,1.5,0.7
				c0.3,0.5,0.5,1.2,0.5,2.2c0,1-0.2,1.7-0.5,2.2s-0.8,0.7-1.5,0.7c-0.7,0-1.2-0.2-1.5-0.7S409.2,651.5,409.2,650.5z M410,650.5
				c0,0.3,0,0.6,0.1,0.9c0,0.3,0.1,0.5,0.2,0.7c0.1,0.2,0.2,0.3,0.4,0.4c0.1,0.1,0.3,0.2,0.5,0.2c0.4,0,0.7-0.2,0.9-0.5
				c0.2-0.3,0.3-0.9,0.3-1.7c0-0.3,0-0.6-0.1-0.9c0-0.3-0.1-0.5-0.2-0.7s-0.2-0.3-0.4-0.4s-0.3-0.2-0.5-0.2c-0.4,0-0.7,0.2-0.9,0.5
				S410,649.7,410,650.5z"/>
			<path fill="#DDCC77" d="M417,653.3v-3.4c0-0.5-0.1-0.9-0.2-1.2c-0.1-0.2-0.4-0.4-0.7-0.4c-0.3,0-0.5,0.1-0.7,0.3
				s-0.3,0.4-0.4,0.6v4h-0.8v-5.5h0.6l0.1,0.6h0c0.1-0.2,0.3-0.4,0.6-0.5c0.2-0.1,0.5-0.2,0.9-0.2c0.2,0,0.4,0,0.6,0.1
				c0.2,0.1,0.3,0.2,0.5,0.3c0.1,0.2,0.2,0.4,0.3,0.6c0.1,0.3,0.1,0.6,0.1,1v3.6H417z"/>
			<path fill="#DDCC77" d="M422.3,652.9c-0.2,0.2-0.4,0.3-0.7,0.4c-0.3,0.1-0.6,0.1-0.9,0.1c-0.3,0-0.6-0.1-0.9-0.2
				c-0.3-0.1-0.5-0.3-0.6-0.6c-0.2-0.3-0.3-0.6-0.4-0.9s-0.1-0.7-0.1-1.2c0-0.9,0.2-1.7,0.5-2.1s0.8-0.7,1.5-0.7
				c0.2,0,0.4,0,0.6,0.1c0.2,0.1,0.4,0.2,0.5,0.3s0.3,0.4,0.4,0.6c0.1,0.3,0.1,0.6,0.1,1.1c0,0.1,0,0.3,0,0.4c0,0.1,0,0.3,0,0.4
				h-2.8c0,0.3,0,0.6,0.1,0.9c0.1,0.3,0.1,0.5,0.2,0.7c0.1,0.2,0.3,0.3,0.4,0.4c0.2,0.1,0.4,0.1,0.6,0.1c0.2,0,0.4,0,0.6-0.1
				s0.3-0.2,0.4-0.3L422.3,652.9z M421.7,649.9c0-0.5-0.1-1-0.2-1.2c-0.2-0.3-0.4-0.4-0.7-0.4c-0.3,0-0.6,0.1-0.8,0.4
				c-0.2,0.3-0.3,0.7-0.4,1.2H421.7z"/>
		</g>
	</g>
</g>
<g>
	<polygon fill="#010101" stroke="#DDCC77" stroke-width="0.5" stroke-miterlimit="10" points="198.4,254.6 206.3,259.2 198.4,263.8 
			"/>
	<polygon fill="#010101" stroke="#DDCC77" stroke-width="0.5" stroke-miterlimit="10" points="214.3,263.8 206.4,259.2 214.3,254.6 
			"/>
</g>
<g>
	<g>
		<polygon fill="#010101" stroke="#DDCC77" stroke-width="0.5" stroke-miterlimit="10" points="261.5,250.4 257,258.4 252.4,250.4 
					"/>
		<polygon fill="#010101" stroke="#DDCC77" stroke-width="0.5" stroke-miterlimit="10" points="252.4,266.4 257,258.4 261.5,266.4 
					"/>
		<polygon fill="#010101" stroke="#DDCC77" stroke-width="0.5" stroke-miterlimit="10" points="249,253.8 257,258.4 249,262.9 		"/>
	</g>
	<line fill="none" stroke="#DDCC77" stroke-width="0.5" stroke-miterlimit="10" x1="257" y1="258.4" x2="266.2" y2="258.4"/>
	
		<rect x="266.2" y="251.5" fill="none" stroke="#DDCC77" stroke-width="0.5812" stroke-miterlimit="10" width="10.2" height="13.8"/>
	<g>
		<path fill="#DDCC77" d="M270.9,254.7h0.8v7h-0.8V254.7z"/>
	</g>
</g>
<g>
	<line fill="none" stroke="#45AB99" stroke-width="0.75" stroke-miterlimit="10" x1="243.4" y1="165" x2="243.4" y2="157.1"/>
	<rect x="238.5" y="145.6" fill="none" stroke="#45AB99" stroke-width="0.75" stroke-miterlimit="10" width="10.2" height="11.8"/>
	<g>
		<path fill="#45AB99" d="M246.4,149.4h-2.2v6.3h-0.8v-6.3h-2.2v-0.7h5.2V149.4z"/>
	</g>
</g>
<g>
	<line fill="none" stroke="#DDCC77" stroke-width="0.75" stroke-miterlimit="10" x1="211.8" y1="374.6" x2="211.8" y2="366.7"/>
	<rect x="206.8" y="355.2" fill="none" stroke="#DDCC77" stroke-width="0.75" stroke-miterlimit="10" width="10.2" height="11.8"/>
	<g>
		<path fill="#DDCC77" d="M214.7,359h-2.2v6.3h-0.8V359h-2.2v-0.7h5.2V359z"/>
	</g>
</g>
<g>
	<g>
		<polygon fill="#010101" stroke="#DDCC77" stroke-width="0.5" stroke-miterlimit="10" points="333.9,311.6 338.5,303.7 
			343.1,311.6 		"/>
		<polygon fill="#010101" stroke="#DDCC77" stroke-width="0.5" stroke-miterlimit="10" points="343.1,295.7 338.5,303.6 
			333.9,295.7 		"/>
		<polygon fill="#010101" stroke="#DDCC77" stroke-width="0.5" stroke-miterlimit="10" points="346.4,308.3 338.5,303.7 
			346.4,299.1 		"/>
	</g>
	<line fill="none" stroke="#DDCC77" stroke-width="0.5" stroke-miterlimit="10" x1="338.5" y1="303.6" x2="329.3" y2="303.6"/>
	
		<rect x="318.6" y="296.7" fill="#010101" stroke="#DDCC77" stroke-width="0.5812" stroke-miterlimit="10" width="10.2" height="13.8"/>
	<g>
		<path fill="#DDCC77" d="M323.3,300h0.8v7h-0.8V300z"/>
	</g>
</g>
<g>
	
		<rect x="351.1" y="355.5" fill="#010101" stroke="#DDCC77" stroke-width="0.5353" stroke-miterlimit="10" width="10.2" height="11.7"/>
	<line fill="none" stroke="#DDCC77" stroke-width="0.5" stroke-miterlimit="10" x1="356" y1="375.3" x2="356" y2="367.8"/>
	<g>
		<path fill="#DDCC77" d="M355.6,358.3h0.8v7h-0.8V358.3z"/>
	</g>
</g>
<g>
	<g>
		
			<rect x="322.1" y="512" fill="#010101" stroke="#DDCC77" stroke-width="0.7901" stroke-miterlimit="10" width="72" height="32.7"/>
		<line fill="none" stroke="#DDCC77" stroke-linecap="round" stroke-miterlimit="10" x1="383" y1="515.8" x2="371.2" y2="515.8"/>
		<line fill="none" stroke="#DDCC77" stroke-linecap="round" stroke-miterlimit="10" x1="383" y1="520.9" x2="371.2" y2="520.9"/>
		<line fill="none" stroke="#DDCC77" stroke-linecap="round" stroke-miterlimit="10" x1="383" y1="526" x2="371.2" y2="526"/>
		<line fill="none" stroke="#DDCC77" stroke-linecap="round" stroke-miterlimit="10" x1="383" y1="531.1" x2="371.2" y2="531.1"/>
		<line fill="none" stroke="#DDCC77" stroke-linecap="round" stroke-miterlimit="10" x1="383" y1="536.2" x2="371.2" y2="536.2"/>
		<line fill="none" stroke="#DDCC77" stroke-linecap="round" stroke-miterlimit="10" x1="383" y1="541.3" x2="371.2" y2="541.3"/>
		
			<line fill="none" stroke="#DDCC77" stroke-width="0.5" stroke-linecap="round" stroke-miterlimit="10" x1="368.1" y1="512" x2="368.1" y2="544.7"/>
		
			<line fill="none" stroke="#DDCC77" stroke-width="0.5" stroke-linecap="round" stroke-miterlimit="10" x1="386.1" y1="512" x2="386.1" y2="544.7"/>
	</g>
	<g>
		<g>
			<path fill="#DDCC77" d="M337.9,530.8l0.2,1.2h0l0.2-1.2l1.4-5.2h0.8l-2.3,7.8h-0.4l-2.4-7.8h0.9L337.9,530.8z"/>
			<path fill="#DDCC77" d="M343.8,531h-2.2l-0.6,2.2h-0.8l2.3-7.8h0.5l2.3,7.8h-0.9L343.8,531z M341.9,530.3h1.8l-0.7-2.4l-0.2-1.2
				h0l-0.2,1.2L341.9,530.3z"/>
			<path fill="#DDCC77" d="M347.3,530.8l0.2,1.2h0l0.2-1.2l1.4-5.2h0.8l-2.3,7.8h-0.4l-2.4-7.8h0.9L347.3,530.8z"/>
		</g>
	</g>
</g>
<g>
	<line fill="none" stroke="#DDCC77" stroke-width="0.75" stroke-miterlimit="10" x1="176.1" y1="678.3" x2="176.1" y2="670.4"/>
	<rect x="171.2" y="658.9" fill="none" stroke="#DDCC77" stroke-width="0.75" stroke-miterlimit="10" width="10.2" height="11.8"/>
	<g>
		<path fill="#DDCC77" d="M179.1,662.7h-2.2v6.3h-0.8v-6.3h-2.2v-0.7h5.2V662.7z"/>
	</g>
</g>
<g>
	<line fill="none" stroke="#DDCC77" stroke-width="0.75" stroke-miterlimit="10" x1="247.3" y1="678.6" x2="247.3" y2="670.7"/>
	<rect x="242.3" y="659.2" fill="none" stroke="#DDCC77" stroke-width="0.75" stroke-miterlimit="10" width="10.2" height="11.8"/>
	<g>
		<path fill="#DDCC77" d="M250.2,663h-2.2v6.3h-0.8V663h-2.2v-0.7h5.2V663z"/>
	</g>
</g>
<g>
	<line fill="none" stroke="#DDCC77" stroke-width="0.75" stroke-miterlimit="10" x1="327.2" y1="679" x2="327.2" y2="671.1"/>
	<rect x="322.2" y="659.6" fill="none" stroke="#DDCC77" stroke-width="0.75" stroke-miterlimit="10" width="10.2" height="11.8"/>
	<g>
		<path fill="#DDCC77" d="M330.1,663.4H328v6.3h-0.8v-6.3H325v-0.7h5.2V663.4z"/>
	</g>
</g>
<g>
	<line fill="none" stroke="#DDCC77" stroke-width="0.75" stroke-miterlimit="10" x1="395.5" y1="678.6" x2="395.5" y2="670.7"/>
	<rect x="390.6" y="659.2" fill="none" stroke="#DDCC77" stroke-width="0.75" stroke-miterlimit="10" width="10.2" height="11.8"/>
	<g>
		<path fill="#DDCC77" d="M398.5,663h-2.2v6.3h-0.8V663h-2.2v-0.7h5.2V663z"/>
	</g>
</g>
<polygon fill="#010101" stroke="#DDCC77" stroke-width="0.5839" stroke-miterlimit="10" points="177.3,627.7 216.2,627.7 
	202.7,614.8 189.3,614.8 "/>
<g>
	<g>
		
			<rect x="336" y="374.7" fill="#010101" stroke="#DDCC77" stroke-width="0.5839" stroke-miterlimit="10" width="40.3" height="33.6"/>
		<path stroke="#DDCC77" stroke-miterlimit="10" d="M369.7,378.9h-13.8c-0.6-0.1-1.2-0.2-1.8-0.2c-0.6,0-1.2,0.1-1.8,0.2h-0.1v0
			c-5.6,0.9-9.8,5.7-9.8,11.5c0,6.4,5.2,11.6,11.7,11.6c6.5,0,11.7-5.2,11.7-11.6c0-0.7-0.1-1.3-0.2-1.9h4.1V378.9z"/>
		<polygon fill="#010101" stroke="#DDCC77" stroke-width="0.5839" stroke-miterlimit="10" points="376.3,374.7 384.2,374.7 
			390,408.3 376.3,408.3 		"/>
		
			<rect x="319.8" y="374.7" fill="#010101" stroke="#DDCC77" stroke-width="0.5839" stroke-miterlimit="10" width="16.3" height="33.6"/>
		
			<rect x="303.5" y="374.7" fill="#010101" stroke="#DDCC77" stroke-width="0.5839" stroke-miterlimit="10" width="16.3" height="33.6"/>
		
			<rect x="270.5" y="374.7" fill="#010101" stroke="#DDCC77" stroke-width="0.5839" stroke-miterlimit="10" width="9.5" height="33.6"/>
		
			<rect x="280.3" y="374.7" fill="#010101" stroke="#DDCC77" stroke-width="0.5839" stroke-miterlimit="10" width="23.3" height="33.6"/>
		<polyline fill="none" stroke="#DDCC77" stroke-width="0.4366" stroke-miterlimit="10" points="270.9,408.2 279.7,403.1 
			270.5,397.9 279.8,392.6 270.4,387.2 279.8,380.6 270,374.9 		"/>
		
			<rect x="334.3" y="423.1" fill="#010101" stroke="#DDCC77" stroke-width="0.5839" stroke-miterlimit="10" width="42.5" height="33.6"/>
		<path stroke="#DDCC77" stroke-miterlimit="10" d="M342.8,427.3h13.8c0.6-0.1,1.2-0.2,1.8-0.2c0.6,0,1.2,0.1,1.8,0.2h0.1v0
			c5.6,0.9,9.8,5.7,9.8,11.5c0,6.4-5.2,11.6-11.7,11.6c-6.5,0-11.7-5.2-11.7-11.6c0-0.7,0.1-1.3,0.2-1.9h-4.1V427.3z"/>
		
			<rect x="376.8" y="423.1" fill="#010101" stroke="#DDCC77" stroke-width="0.5839" stroke-miterlimit="10" width="10.4" height="33.6"/>
		
			<rect x="314.1" y="423.1" fill="#010101" stroke="#DDCC77" stroke-width="0.5839" stroke-miterlimit="10" width="10.1" height="33.6"/>
		
			<rect x="324.2" y="423.2" fill="#010101" stroke="#DDCC77" stroke-width="0.5839" stroke-miterlimit="10" width="10.1" height="33.6"/>
		<polygon fill="#010101" stroke="#DDCC77" stroke-width="0.5839" stroke-miterlimit="10" points="196.6,423.2 196.6,456.7 
			236.2,456.7 236.2,456.7 263,456.7 270.4,456.7 314.1,456.7 314.1,423.1 270.4,423.1 270.4,374.7 236.2,374.7 232.1,374.7 
			196.6,374.7 196.6,408.3 232.1,408.3 232.1,423.2 		"/>
		<g>
			<line fill="none" stroke="#DDCC77" stroke-width="0.6169" stroke-miterlimit="10" x1="270" y1="415.7" x2="232.1" y2="415.7"/>
			<line fill="none" stroke="#DDCC77" stroke-width="0.5" stroke-miterlimit="10" x1="267.4" y1="412.3" x2="260.5" y2="419.2"/>
			<line fill="none" stroke="#DDCC77" stroke-width="0.5" stroke-miterlimit="10" x1="259.4" y1="412.3" x2="252.5" y2="419.2"/>
			<line fill="none" stroke="#DDCC77" stroke-width="0.5" stroke-miterlimit="10" x1="251.4" y1="412.3" x2="244.5" y2="419.2"/>
			<line fill="none" stroke="#DDCC77" stroke-width="0.5" stroke-miterlimit="10" x1="243.4" y1="412.3" x2="236.5" y2="419.2"/>
		</g>
		<g>
			<line fill="none" stroke="#DDCC77" stroke-width="0.5" stroke-miterlimit="10" x1="227.8" y1="456.4" x2="227.8" y2="423.9"/>
			<line fill="none" stroke="#DDCC77" stroke-width="0.5" stroke-miterlimit="10" x1="231.2" y1="454.8" x2="224.3" y2="447.8"/>
			<line fill="none" stroke="#DDCC77" stroke-width="0.5" stroke-miterlimit="10" x1="231.2" y1="446.8" x2="224.3" y2="439.9"/>
			<line fill="none" stroke="#DDCC77" stroke-width="0.5" stroke-miterlimit="10" x1="231.2" y1="438.8" x2="224.3" y2="431.9"/>
			<line fill="none" stroke="#DDCC77" stroke-width="0.5" stroke-miterlimit="10" x1="231.2" y1="430.8" x2="224.3" y2="423.9"/>
		</g>
		<g>
			<line fill="none" stroke="#DDCC77" stroke-width="0.5" stroke-miterlimit="10" x1="227.8" y1="407.7" x2="227.8" y2="375.2"/>
			<line fill="none" stroke="#DDCC77" stroke-width="0.5" stroke-miterlimit="10" x1="231.2" y1="406.1" x2="224.3" y2="399.2"/>
			<line fill="none" stroke="#DDCC77" stroke-width="0.5" stroke-miterlimit="10" x1="231.2" y1="398.1" x2="224.3" y2="391.2"/>
			<line fill="none" stroke="#DDCC77" stroke-width="0.5" stroke-miterlimit="10" x1="231.2" y1="390.1" x2="224.3" y2="383.2"/>
			<line fill="none" stroke="#DDCC77" stroke-width="0.5" stroke-miterlimit="10" x1="231.2" y1="382.2" x2="224.3" y2="375.2"/>
		</g>
		<g>
			<path fill="#DDCC77" d="M313.5,392.1h-3.7v3.5h-0.9v-7.7h0.9v3.4h3.7v-3.4h0.9v7.7h-0.9V392.1z"/>
		</g>
		<g>
			<path fill="#DDCC77" d="M321,440.5h-3.7v3.5h-0.9v-7.7h0.9v3.4h3.7v-3.4h0.9v7.7H321V440.5z"/>
		</g>
		<g>
			<path fill="#DDCC77" d="M330.8,395.3c-0.2,0.2-0.5,0.3-0.8,0.4c-0.3,0.1-0.7,0.1-1.1,0.1c-0.5,0-0.9-0.1-1.3-0.2
				s-0.8-0.4-1.1-0.7c-0.3-0.3-0.5-0.7-0.7-1.2c-0.2-0.5-0.3-1.1-0.3-1.8c0-0.7,0.1-1.3,0.3-1.8c0.2-0.5,0.5-0.9,0.8-1.2
				s0.7-0.6,1.1-0.7c0.4-0.1,0.8-0.2,1.2-0.2c0.4,0,0.8,0,1.1,0.1c0.3,0,0.5,0.1,0.7,0.2l-0.2,0.8c-0.4-0.2-0.9-0.3-1.5-0.3
				c-0.3,0-0.6,0.1-0.9,0.2c-0.3,0.1-0.6,0.3-0.8,0.5c-0.2,0.2-0.4,0.6-0.6,1c-0.1,0.4-0.2,0.9-0.2,1.5c0,0.5,0.1,1,0.2,1.4
				s0.3,0.7,0.5,1c0.2,0.3,0.5,0.5,0.8,0.6c0.3,0.1,0.7,0.2,1,0.2c0.3,0,0.6,0,0.9-0.1c0.2-0.1,0.5-0.2,0.6-0.3L330.8,395.3z"/>
		</g>
	</g>
	<line fill="none" stroke="#DDCC77" stroke-width="0.5839" stroke-miterlimit="10" x1="382.9" y1="367.2" x2="390.8" y2="412.4"/>
</g>
<line fill="none" stroke="#DDCC77" stroke-width="0.588" stroke-miterlimit="10" x1="396.5" y1="369.9" x2="400.5" y2="392.4"/>
<line fill="none" stroke="#DDCC77" stroke-width="0.588" stroke-miterlimit="10" x1="395.1" y1="391.5" x2="399" y2="413.9"/>
</svg>
