<?xml version="1.0" encoding="utf-8"?>
<!-- Generator: Adobe Illustrator 18.0.0, SVG Export Plug-In . SVG Version: 6.00 Build 0)  -->
<!DOCTYPE svg PUBLIC "-//W3C//DTD SVG 1.1//EN" "http://www.w3.org/Graphics/SVG/1.1/DTD/svg11.dtd">
<svg version="1.1" id="Layer_1" xmlns="http://www.w3.org/2000/svg" xmlns:xlink="http://www.w3.org/1999/xlink" x="0px" y="0px"
	 viewBox="60.2 0 129.2 250" enable-background="new 60.2 0 129.2 250" xml:space="preserve">
<path id="cp-dots" fill="none" stroke="#45AB99" stroke-width="0.5" stroke-miterlimit="10" stroke-dasharray="3" d="M184.8,77.8
	H65.2c-1.2,0-1.9-0.9-1.9-1.9V2.9c0-1.2,0.9-1.9,1.9-1.9h119.6c1.2,0,1.9,0.9,1.9,1.9v72.9C186.9,76.9,186,77.8,184.8,77.8z"/>
<path id="dis-dots" fill="none" stroke="#DDCC77" stroke-width="0.5" stroke-miterlimit="10" stroke-dasharray="3" d="M185.1,156.4
	h-120c-1,0-1.8-0.8-1.8-1.8v-68c0-1,0.8-1.8,1.8-1.8h120c1,0,1.8,0.8,1.8,1.8v68C186.9,155.6,186.1,156.4,185.1,156.4z"/>
<g id="cp-dis-pipes">
	<polygon fill="#010101" stroke="#DDCC77" stroke-width="0.5" stroke-miterlimit="10" points="84.7,41.9 83.4,41.9 83.4,73.6 
		83.4,98.7 124.5,98.7 124.5,113.6 125.6,113.6 125.6,97.5 84.7,97.5 	"/>
	<polygon fill="#010101" stroke="#DDCC77" stroke-width="0.5" stroke-miterlimit="10" points="137.3,60.9 138.5,60.9 138.5,94.7 
		132.8,94.7 132.8,113.8 131.6,113.8 131.6,93.6 137.3,93.6 	"/>
	<polygon fill="#010101" stroke="#DDCC77" stroke-width="0.5" stroke-miterlimit="10" points="104.7,41.5 103.8,41.5 103.9,73.6 
		103.9,94.6 127.3,94.6 127.3,113.6 128.5,113.6 128.5,93.4 105.2,93.4 	"/>
	<polygon fill="#010101" stroke="#DDCC77" stroke-width="0.5" stroke-miterlimit="10" points="155.4,64.2 156.7,64.2 156.6,99.1 
		135.7,99.1 135.7,113.8 134.6,113.8 134.6,98 155.4,98 	"/>
</g>
<polygon id="diffuser" fill="#010101" stroke="#DDCC77" stroke-width="0.5" stroke-miterlimit="10" points="101.3,217.1 
	117.2,217.1 111.7,211.9 106.2,211.9 "/>
<path id="boiler" fill="#010101" stroke="#45AB99" stroke-width="0.5" stroke-miterlimit="10" d="M110.2,33.4v1.7h-2.7
	c-0.4-3.9-3.2-7-6.7-7H74.2c-2.5,0-4.5,1.4-5.8,3.6h-1.7v10.5h1.7c1.2,2.2,3.4,3.6,5.8,3.6v4.7h4.1v-4.7h16.4v4.7h4.3v-4.7h1.7
	c3.5,0,6.3-3,6.7-6.7h2.7v1.3h6.2v-7H110.2L110.2,33.4z"/>
<path id="cp-piper-back-tower" stroke="#45AB99" stroke-width="0.5" stroke-miterlimit="10" d="M167.1,54.3h1V26.5v-1.7
	c0-0.4-0.3-0.5-0.5-0.5h-8l-0.3,1.2h7.3c0.3,0,0.5,0.3,0.5,0.5L167.1,54.3L167.1,54.3z"/>
<g id="tower">
	<path fill="none" stroke="#45AB99" stroke-width="0.5" stroke-miterlimit="10" d="M158.3,30.8c0,0.3-0.3,0.4-0.4,0.4h-16.7h-0.1
		l-1-5.6l-3-15.8c0-0.3,0.1-0.5,0.4-0.5h24.2c0.3,0,0.4,0.3,0.4,0.5L158.3,30.8z"/>
	<line fill="none" stroke="#45AB99" stroke-width="0.5" stroke-miterlimit="10" x1="138.2" y1="18" x2="160.5" y2="18"/>
	<g>
		<path fill="none" stroke="#45AB99" stroke-width="0.5" stroke-linecap="round" stroke-miterlimit="10" d="M143.9,20.8l0.9-0.8
			c0.1-0.1,0.1-0.3,0.1-0.4v-1.4"/>
		
			<line fill="none" stroke="#45AB99" stroke-width="0.5" stroke-linecap="round" stroke-miterlimit="10" x1="146" y1="20.8" x2="145.1" y2="19.9"/>
	</g>
	<g>
		<path fill="none" stroke="#45AB99" stroke-width="0.5" stroke-linecap="round" stroke-miterlimit="10" d="M152.6,20.7l0.9-0.8
			c0.1-0.1,0.1-0.3,0.1-0.4v-1.4"/>
		
			<line fill="none" stroke="#45AB99" stroke-width="0.5" stroke-linecap="round" stroke-miterlimit="10" x1="154.6" y1="20.7" x2="153.7" y2="19.6"/>
	</g>
	<path fill="none" stroke="#45AB99" stroke-width="0.5" stroke-miterlimit="10" d="M150.1,23.3h-1.7c-0.3,0-0.4-0.3-0.4-0.4v-1.4
		c0-0.3,0.3-0.4,0.4-0.4h1.7c0.3,0,0.4,0.3,0.4,0.4v1.4C150.6,23.1,150.4,23.3,150.1,23.3z"/>
	
		<line fill="none" stroke="#45AB99" stroke-width="0.5" stroke-linecap="round" stroke-miterlimit="10" x1="149.3" y1="23.4" x2="149.3" y2="30.6"/>
	<path id="waterpath" fill="none" stroke="#45AB99" stroke-width="0.5" stroke-miterlimit="10" d="M140.1,26.5
		c-0.1-0.4,0.3-0.6,0.6-0.5c1.4,0.6,4.8,1.7,9.1-0.4c0,0,4.8-2.3,9.1-0.4c0.1,0.1,0.3,0.3,0.3,0.5l-1,5.2c0,0.3-0.3,0.4-0.4,0.4
		h-16.3c-0.3,0-0.4-0.1-0.4-0.4L140.1,26.5z"/>
</g>
<path id="chiller" fill="#010101" stroke="#45AB99" stroke-width="0.5" stroke-miterlimit="10" d="M176.3,59.6v-1.6h-2.3v-3.5h-1
	v2.3c-0.6-1-1.8-1.8-3.2-2.3c-0.1-5.2-4.4-7.1-7.3-7.1h-11.5V45h-16.2V54h16.2v-2.5h11.5c0.3,0,2.7,0.1,3.1,2.5h-25.2
	c-3,0-5.6,1.4-6.5,3.4V54h-1.9v10.5h1.9v-2.7c0.9,1.9,3.5,3.4,6.5,3.4v4.7h4.3v-4.7H161v4.7h4.3v-4.7h1.7c2.7,0,5-1.2,6.2-2.8v2.8h1
	v-3.5h2.2V60h-2.2v-0.4H176.3L176.3,59.6z"/>
<path id="cp-pipe-tower" stroke="#45AB99" stroke-width="0.5" stroke-miterlimit="10" d="M133.7,54h-1V25v-0.5
	c0-0.4,0.3-0.5,0.5-0.5h6c0.3,0,0.4,0.3,0.5,0.4h0.3c0,0.4-0.1,0.6-0.5,0.6h-5.2c-0.3,0-0.5,0.3-0.5,0.5V54z"/>
<path id="cp-fan" fill="#010101" stroke="#45AB99" stroke-width="0.5" stroke-miterlimit="10" d="M153.6,16V9.2
	c0-0.3,0.1-0.6,0.1-0.9c0-0.4,0-0.6-0.1-0.9l0,0l0,0c-0.4-2.7-2.8-4.9-5.7-4.9c-3.2,0-5.8,2.6-5.8,5.8s2.6,5.8,5.8,5.8
	c0.4,0,0.6,0,1-0.1V16H153.6z"/>
<g id="dis-pump2">
	<circle fill="#010101" stroke="#DDCC77" stroke-width="0.5" stroke-miterlimit="10" cx="154" cy="95.1" r="5.6"/>
	<path fill="#010101" stroke="#DDCC77" stroke-width="0.5" stroke-miterlimit="10" d="M148.6,102.1l2.3-2.2c0,0,1.3,1,3.2,1
		c1.9,0,3.2-1,3.2-1l2.3,2.2H148.6L148.6,102.1z"/>
</g>
<g id="dis-pump">
	<circle fill="#010101" stroke="#DDCC77" stroke-width="0.5" stroke-miterlimit="10" cx="86.5" cy="95.1" r="5.6"/>
	<path fill="#010101" stroke="#DDCC77" stroke-width="0.5" stroke-miterlimit="10" d="M81,102.1l2.3-2.2c0,0,1.3,1,3.2,1
		s3.2-1,3.2-1l2.3,2.2H81L81,102.1z"/>
</g>
<g id="cp-pump">
	<circle fill="#010101" stroke="#45AB99" stroke-width="0.5" stroke-miterlimit="10" cx="130.3" cy="33.9" r="5.6"/>
	<path fill="#010101" stroke="#45AB99" stroke-width="0.5" stroke-miterlimit="10" d="M124.7,41l2.3-2.2c0,0,1.3,1,3.2,1
		s3.2-1,3.2-1l2.3,2.2H124.7L124.7,41z"/>
</g>
<path id="ducts" fill="none" stroke="#DDCC77" stroke-width="0.5" stroke-miterlimit="10" stroke-dasharray="2.8964" d="
	M185.1,243.8H64.9c-1,0-1.8-0.8-1.8-1.8v-76.8c0-1,0.8-1.8,1.8-1.8h120.1c1,0,1.8,0.8,1.8,1.8v76.8
	C186.9,242.8,186.1,243.8,185.1,243.8z"/>
<polygon id="vav-duct" fill="#010101" stroke="#DDCC77" stroke-width="0.5" stroke-miterlimit="10" points="161.6,121.9 
	162.8,127.5 164.4,127.4 164.4,174.1 77.4,174 77.4,211.8 82.8,211.8 82.8,180.7 106.2,180.7 106.2,211.8 111.8,211.8 111.8,180.7 
	170.3,180.7 170.3,170.9 170.3,121.9 "/>
<g id="zone1">
	<path fill="#010101" stroke="#DDCC77" stroke-width="0.5" stroke-miterlimit="10" d="M91.3,237.8H68.6c-0.8,0-1.4-0.6-1.4-1.4
		v-17.5c0-0.8,0.6-1.4,1.4-1.4h22.8c0.8,0,1.4,0.6,1.4,1.4v17.5C92.8,237.1,92.1,237.8,91.3,237.8z"/>
	<g>
		<g>
			<path fill="#DDCC77" d="M75.9,227.3l1.3-2.3l0.1-0.1h-1.4v-0.4h1.7v0.4l-1.3,2.3l-0.1,0.1h1.4v0.4h-1.7V227.3z"/>
			<path fill="#DDCC77" d="M77.7,226.4c0-0.4,0.1-0.6,0.3-0.9c0.1-0.3,0.4-0.3,0.6-0.3c0.3,0,0.5,0.1,0.6,0.3s0.3,0.5,0.3,0.9
				c0,0.4-0.1,0.6-0.3,0.9c-0.1,0.3-0.4,0.3-0.6,0.3c-0.3,0-0.5-0.1-0.6-0.3C77.7,227.2,77.7,226.9,77.7,226.4z M78,226.4
				c0,0.1,0,0.3,0,0.4s0,0.3,0.1,0.3c0,0.1,0.1,0.1,0.1,0.1s0.1,0.1,0.3,0.1s0.3-0.1,0.4-0.3c0.1-0.1,0.1-0.4,0.1-0.6
				c0-0.1,0-0.3,0-0.4c0-0.1,0-0.3-0.1-0.3c0-0.1-0.1-0.1-0.1-0.1s-0.1-0.1-0.3-0.1c-0.1,0-0.3,0.1-0.4,0.3
				C78.1,225.9,78,226.1,78,226.4z"/>
			<path fill="#DDCC77" d="M80.9,227.6v-1.4c0-0.3,0-0.4-0.1-0.5c0-0.1-0.1-0.1-0.3-0.1c-0.1,0-0.3,0-0.3,0.1
				c-0.1,0.1-0.1,0.1-0.1,0.3v1.7h-0.4v-2.2h0.3v0.3l0,0c0-0.1,0.1-0.1,0.3-0.3c0.1,0,0.3-0.1,0.4-0.1c0.1,0,0.1,0,0.3,0
				s0.1,0.1,0.3,0.1c0,0.1,0.1,0.1,0.1,0.3c0,0.1,0,0.3,0,0.4v1.4L80.9,227.6L80.9,227.6z"/>
			<path fill="#DDCC77" d="M83.1,227.4c-0.1,0.1-0.1,0.1-0.3,0.1s-0.3,0-0.4,0c-0.1,0-0.3,0-0.4-0.1c-0.1,0-0.3-0.1-0.3-0.3
				c-0.1-0.1-0.1-0.3-0.1-0.4s0-0.3,0-0.5c0-0.4,0.1-0.6,0.3-0.9c0.1-0.1,0.4-0.3,0.6-0.3c0.1,0,0.1,0,0.3,0c0.1,0,0.1,0.1,0.3,0.1
				c0.1,0.1,0.1,0.1,0.1,0.3s0,0.3,0,0.4v0.1v0.1H82c0,0.1,0,0.3,0,0.4c0,0.1,0,0.3,0.1,0.3c0,0.1,0.1,0.1,0.1,0.1
				c0.1,0,0.1,0,0.3,0c0.1,0,0.1,0,0.3,0s0.1-0.1,0.1-0.1L83.1,227.4z M82.8,226.1c0-0.3,0-0.4-0.1-0.5c-0.1-0.1-0.1-0.1-0.3-0.1
				s-0.3,0-0.4,0.1c-0.1,0.1-0.1,0.3-0.1,0.5H82.8z"/>
		</g>
	</g>
</g>
<g id="zone2">
	<path id="zoneoutline" fill="#010101" stroke="#DDCC77" stroke-width="0.5" stroke-miterlimit="10" d="M119.8,237.8H97
		c-0.8,0-1.4-0.6-1.4-1.4v-17.5c0-0.8,0.6-1.4,1.4-1.4h22.8c0.8,0,1.4,0.6,1.4,1.4v17.5C121.2,237.1,120.6,237.8,119.8,237.8z"/>
	<g id="text">
		<g>
			<path fill="#DDCC77" d="M104.9,227.3l1.3-2.3l0.1-0.1h-1.4v-0.4h1.7v0.4l-1.3,2.3l-0.1,0.1h1.4v0.4h-1.7V227.3z"/>
			<path fill="#DDCC77" d="M106.7,226.4c0-0.4,0.1-0.6,0.3-0.9c0.1-0.3,0.4-0.3,0.6-0.3c0.3,0,0.5,0.1,0.6,0.3
				c0.1,0.3,0.3,0.5,0.3,0.9c0,0.4-0.1,0.6-0.3,0.9c-0.1,0.3-0.4,0.3-0.6,0.3c-0.3,0-0.5-0.1-0.6-0.3
				C106.9,227.2,106.7,226.9,106.7,226.4z M107,226.4c0,0.1,0,0.3,0,0.4s0,0.3,0.1,0.3c0,0.1,0.1,0.1,0.1,0.1s0.1,0.1,0.3,0.1
				s0.3-0.1,0.4-0.3c0.1-0.1,0.1-0.4,0.1-0.6c0-0.1,0-0.3,0-0.4c0-0.1,0-0.3-0.1-0.3c0-0.1-0.1-0.1-0.1-0.1c-0.1,0-0.1-0.1-0.3-0.1
				c-0.1,0-0.3,0.1-0.4,0.3C107.1,225.9,107,226.1,107,226.4z"/>
			<path fill="#DDCC77" d="M110,227.6v-1.4c0-0.3,0-0.4-0.1-0.5c0-0.1-0.1-0.1-0.3-0.1s-0.3,0-0.3,0.1c-0.1,0.1-0.1,0.1-0.1,0.3v1.7
				h-0.4v-2.2h0.3v0.3l0,0c0-0.1,0.1-0.1,0.3-0.3c0.1,0,0.3-0.1,0.4-0.1c0.1,0,0.1,0,0.3,0s0.1,0.1,0.3,0.1c0,0.1,0.1,0.1,0.1,0.3
				c0,0.1,0,0.3,0,0.4v1.4L110,227.6L110,227.6z"/>
			<path fill="#DDCC77" d="M112.1,227.4c-0.1,0.1-0.1,0.1-0.3,0.1s-0.3,0-0.4,0c-0.1,0-0.3,0-0.4-0.1c-0.1,0-0.3-0.1-0.3-0.3
				c-0.1-0.1-0.1-0.3-0.1-0.4s0-0.3,0-0.5c0-0.4,0.1-0.6,0.3-0.9s0.4-0.3,0.6-0.3c0.1,0,0.1,0,0.3,0c0.1,0,0.1,0.1,0.3,0.1
				c0,0,0.1,0.1,0.1,0.3c0,0.1,0,0.3,0,0.4v0.1v0.1H111c0,0.1,0,0.3,0,0.4c0,0.1,0,0.3,0.1,0.3c0,0.1,0.1,0.1,0.1,0.1
				c0.1,0,0.1,0,0.3,0c0.1,0,0.1,0,0.3,0s0.1-0.1,0.1-0.1L112.1,227.4z M111.8,226.1c0-0.3,0-0.4-0.1-0.5c-0.1-0.1-0.1-0.1-0.3-0.1
				s-0.3,0-0.4,0.1c-0.1,0.1-0.1,0.3-0.1,0.5H111.8z"/>
		</g>
	</g>
</g>
<g id="air-compressor">
	<path id="back" fill="#010101" stroke="#45AB99" stroke-width="0.5" stroke-miterlimit="10" d="M93.7,8l-0.8-0.8
		c-0.6-0.6-1.7-0.6-2.3,0l-1,1c-0.9-0.5-1.9-0.8-3-0.8s-2.1,0.3-3,0.8l-1-1c-0.6-0.6-1.7-0.6-2.3,0L79.4,8c-0.6,0.6-0.6,1.7,0,2.3
		l1.3,1.3c-0.3,0.5-0.3,1.2-0.3,1.8c0,2.3,1.3,4.4,3.4,5.3L82,21.8H91l-1.8-3.1c1.9-1,3.4-3,3.4-5.3c0-0.6-0.1-1.3-0.3-1.8l1.3-1.3
		C94.3,9.5,94.3,8.5,93.7,8z"/>
	<circle id="circle" fill="#010101" stroke="#45AB99" stroke-width="0.5" stroke-miterlimit="10" cx="86.5" cy="13.4" r="4.9"/>
</g>
<polygon id="ducts2" fill="#010101" stroke="#DDCC77" stroke-width="0.5" stroke-miterlimit="10" points="162.5,114 163.5,119.5 
	178.5,119.5 178.2,187.4 138.9,187.3 138.9,197.3 144.3,197.3 144.3,194 165.4,194 165.4,197.3 170.8,197.3 170.8,194 184.3,193.8 
	184.3,114 "/>
<g id="terminal1">
	
		<rect x="135.5" y="197.3" fill="#010101" stroke="#DDCC77" stroke-width="0.5" stroke-miterlimit="10" width="13.1" height="20.1"/>
	
		<line fill="none" stroke="#DDCC77" stroke-width="0.5" stroke-linecap="round" stroke-miterlimit="10" x1="137.7" y1="208.3" x2="146.2" y2="199.6"/>
	<g>
		<path fill="#DDCC77" d="M142.2,213.5h-1.6v1.4h-0.4v-3.1h0.4v1.4h1.6v-1.4h0.4v3.1h-0.4V213.5z"/>
	</g>
	<line fill="none" stroke="#DDCC77" stroke-width="0.5" stroke-miterlimit="10" x1="135.5" y1="210.5" x2="148.6" y2="210.5"/>
</g>
<g id="terminal2">
	
		<rect x="161.6" y="197.3" fill="#010101" stroke="#DDCC77" stroke-width="0.5" stroke-miterlimit="10" width="13.1" height="20.1"/>
	
		<line fill="none" stroke="#DDCC77" stroke-width="0.5" stroke-linecap="round" stroke-miterlimit="10" x1="163.8" y1="208.3" x2="172.4" y2="199.6"/>
	<g>
		<path fill="#DDCC77" d="M168.2,213.5h-1.6v1.4h-0.3v-3.1h0.4v1.4h1.6v-1.4h0.4v3.1h-0.4v-1.4H168.2z"/>
	</g>
	<line fill="none" stroke="#DDCC77" stroke-width="0.5" stroke-miterlimit="10" x1="161.6" y1="210.5" x2="174.6" y2="210.5"/>
</g>
<g id="zone1_1_">
	<path fill="#010101" stroke="#DDCC77" stroke-width="0.5" stroke-miterlimit="10" d="M152.6,237.8h-22.8c-0.8,0-1.4-0.6-1.4-1.4
		v-17.5c0-0.8,0.6-1.4,1.4-1.4h22.8c0.8,0,1.4,0.6,1.4,1.4v17.5C154,237.1,153.4,237.8,152.6,237.8z"/>
	<g>
		<g>
			<path fill="#DDCC77" d="M137.8,227.3l1.3-2.3l0.1-0.1h-1.3v-0.4h1.7v0.4l-1.3,2.3l-0.1,0.1h1.4v0.4h-1.7v-0.4H137.8z"/>
			<path fill="#DDCC77" d="M139.6,226.4c0-0.4,0.1-0.6,0.3-0.9s0.4-0.3,0.6-0.3c0.3,0,0.5,0.1,0.6,0.3c0.1,0.3,0.3,0.5,0.3,0.9
				c0,0.4-0.1,0.6-0.3,0.9c-0.1,0.3-0.4,0.3-0.6,0.3c-0.3,0-0.5-0.1-0.6-0.3C139.8,227.2,139.6,226.9,139.6,226.4z M140,226.4
				c0,0.1,0,0.3,0,0.4s0,0.3,0.1,0.3c0.1,0,0.1,0.1,0.1,0.1s0.1,0.1,0.3,0.1c0.1,0,0.3-0.1,0.4-0.3c0.1-0.1,0.1-0.4,0.1-0.6
				c0-0.1,0-0.3,0-0.4c0-0.1,0-0.3-0.1-0.3c0-0.1-0.1-0.1-0.1-0.1s-0.1-0.1-0.3-0.1c-0.1,0-0.3,0.1-0.4,0.3
				C140,225.9,140,226.1,140,226.4z"/>
			<path fill="#DDCC77" d="M142.9,227.6v-1.4c0-0.3,0-0.4-0.1-0.5c0-0.1-0.1-0.1-0.3-0.1c-0.1,0-0.3,0-0.3,0.1
				c-0.1,0.1-0.1,0.1-0.1,0.3v1.7h-0.4v-2.2h0.3v0.3l0,0c0-0.1,0.1-0.1,0.3-0.3c0.1,0,0.3-0.1,0.4-0.1c0.1,0,0.1,0,0.3,0
				c0.1,0,0.1,0.1,0.3,0.1c0,0.1,0.1,0.1,0.1,0.3c0,0.1,0,0.3,0,0.4v1.4L142.9,227.6L142.9,227.6z"/>
			<path fill="#DDCC77" d="M145.1,227.4c-0.1,0.1-0.1,0.1-0.3,0.1c-0.1,0-0.3,0-0.4,0s-0.3,0-0.4-0.1c-0.1,0-0.3-0.1-0.3-0.3
				c-0.1-0.1-0.1-0.3-0.1-0.4s0-0.3,0-0.5c0-0.4,0.1-0.6,0.3-0.9c0.1-0.3,0.4-0.3,0.6-0.3c0.1,0,0.1,0,0.3,0c0.1,0,0.1,0.1,0.3,0.1
				c0.1,0.1,0.1,0.1,0.1,0.3c0,0.1,0,0.3,0,0.4v0.1v0.1H144c0,0.1,0,0.3,0,0.4c0,0.1,0,0.3,0.1,0.3c0,0.1,0.1,0.1,0.1,0.1
				c0.1,0,0.1,0,0.3,0c0.1,0,0.1,0,0.3,0c0.1,0,0.1-0.1,0.1-0.1L145.1,227.4z M144.8,226.1c0-0.3,0-0.4-0.1-0.5
				c-0.1-0.1-0.1-0.1-0.3-0.1s-0.3,0-0.4,0.1s-0.1,0.3-0.1,0.5H144.8z"/>
		</g>
	</g>
</g>
<g id="zone2_1_">
	<path fill="#010101" stroke="#DDCC77" stroke-width="0.5" stroke-miterlimit="10" d="M180.3,237.8h-22.8c-0.8,0-1.4-0.6-1.4-1.4
		v-17.5c0-0.8,0.6-1.4,1.4-1.4h22.8c0.8,0,1.4,0.6,1.4,1.4v17.5C181.8,237.1,181.2,237.8,180.3,237.8z"/>
	<g>
		<g>
			<path fill="#DDCC77" d="M165.4,227.3l1.3-2.3l0.1-0.1h-1.4v-0.4h1.7v0.4l-1.3,2.3l-0.1,0.1h1.4v0.4h-1.7V227.3z"/>
			<path fill="#DDCC77" d="M167.2,226.4c0-0.4,0.1-0.6,0.3-0.9s0.4-0.3,0.6-0.3s0.5,0.1,0.6,0.3c0.1,0.3,0.3,0.5,0.3,0.9
				c0,0.4-0.1,0.6-0.3,0.9c-0.1,0.3-0.4,0.3-0.6,0.3s-0.5-0.1-0.6-0.3C167.2,227.2,167.2,226.9,167.2,226.4z M167.5,226.4
				c0,0.1,0,0.3,0,0.4s0,0.3,0.1,0.3c0.1,0,0.1,0.1,0.1,0.1s0.1,0.1,0.3,0.1c0.1,0,0.3-0.1,0.4-0.3c0.1-0.1,0.1-0.4,0.1-0.6
				c0-0.1,0-0.3,0-0.4c0-0.1,0-0.3-0.1-0.3c0-0.1-0.1-0.1-0.1-0.1c-0.1,0-0.1-0.1-0.3-0.1c-0.1,0-0.3,0.1-0.4,0.3
				C167.6,225.9,167.5,226.1,167.5,226.4z"/>
			<path fill="#DDCC77" d="M170.3,227.6v-1.4c0-0.3,0-0.4-0.1-0.5c0-0.1-0.1-0.1-0.3-0.1s-0.3,0-0.3,0.1c-0.1,0.1-0.1,0.1-0.1,0.3
				v1.7h-0.4v-2.2h0.3v0.3l0,0c0-0.1,0.1-0.1,0.3-0.3c0.1,0,0.3-0.1,0.4-0.1c0.1,0,0.1,0,0.3,0c0.1,0,0.1,0.1,0.3,0.1
				c0,0.1,0.1,0.1,0.1,0.3c0,0.1,0,0.3,0,0.4v1.4L170.3,227.6L170.3,227.6z"/>
			<path fill="#DDCC77" d="M172.5,227.4c-0.1,0.1-0.1,0.1-0.3,0.1c-0.1,0-0.3,0-0.4,0s-0.3,0-0.4-0.1c-0.1,0-0.3-0.1-0.3-0.3
				c-0.1-0.1-0.1-0.3-0.1-0.4s0-0.3,0-0.5c0-0.4,0.1-0.6,0.3-0.9c0.1-0.1,0.4-0.3,0.6-0.3c0.1,0,0.1,0,0.3,0c0.1,0,0.1,0.1,0.3,0.1
				c0,0,0.1,0.1,0.1,0.3c0,0.1,0,0.3,0,0.4v0.1v0.1h-1.2c0,0.1,0,0.3,0,0.4c0,0.1,0,0.3,0.1,0.3c0,0.1,0.1,0.1,0.1,0.1
				c0.1,0,0.1,0,0.3,0s0.1,0,0.3,0c0.1,0,0.1-0.1,0.1-0.1L172.5,227.4z M172.3,226.1c0-0.3,0-0.4-0.1-0.5c-0.1-0.1-0.1-0.1-0.3-0.1
				c-0.1,0-0.3,0-0.4,0.1s-0.1,0.3-0.1,0.5H172.3z"/>
		</g>
	</g>
</g>
<g>
	<polygon fill="#010101" stroke="#DDCC77" stroke-width="0.5" stroke-miterlimit="10" points="81,64.7 84.2,66.5 81,68.5 	"/>
	<polygon fill="#010101" stroke="#DDCC77" stroke-width="0.5" stroke-miterlimit="10" points="87.6,68.5 84.3,66.5 87.6,64.7 	"/>
</g>
<g>
	<g>
		<polygon fill="#010101" stroke="#DDCC77" stroke-width="0.5" stroke-miterlimit="10" points="106.9,62.9 104.9,66.3 103.1,62.9 		
			"/>
		<polygon fill="#010101" stroke="#DDCC77" stroke-width="0.5" stroke-miterlimit="10" points="103.1,69.5 104.9,66.3 106.9,69.5 		
			"/>
		<polygon fill="#010101" stroke="#DDCC77" stroke-width="0.5" stroke-miterlimit="10" points="101.7,64.3 104.9,66.3 101.7,68.1 		
			"/>
	</g>
	<line fill="none" stroke="#DDCC77" stroke-width="0.5" stroke-miterlimit="10" x1="104.9" y1="66.3" x2="108.7" y2="66.3"/>
	<rect x="108.7" y="63.4" fill="none" stroke="#DDCC77" stroke-width="0.5" stroke-miterlimit="10" width="4.1" height="5.7"/>
	<g>
		<path fill="#DDCC77" d="M110.6,64.7h0.4v2.8h-0.4V64.7z"/>
	</g>
</g>
<g>
	<line fill="none" stroke="#45AB99" stroke-width="0.5" stroke-miterlimit="10" x1="99.4" y1="28.1" x2="99.4" y2="24.8"/>
	<rect x="97.4" y="20.2" fill="none" stroke="#45AB99" stroke-width="0.5" stroke-miterlimit="10" width="4.1" height="4.8"/>
	<g>
		<path fill="#45AB99" d="M100.7,21.7h-0.9v2.6h-0.4v-2.6h-0.9v-0.3h2.1v0.3H100.7z"/>
	</g>
</g>
<g>
	<line fill="none" stroke="#DDCC77" stroke-width="0.5" stroke-miterlimit="10" x1="86.5" y1="113.6" x2="86.5" y2="110.5"/>
	<rect x="84.5" y="105.7" fill="none" stroke="#DDCC77" stroke-width="0.5" stroke-miterlimit="10" width="4.1" height="4.8"/>
	<g>
		<path fill="#DDCC77" d="M87.7,107.3h-0.9v2.6h-0.4v-2.6h-0.9V107h2.1v0.3H87.7z"/>
	</g>
</g>
<g>
	<g>
		<polygon fill="#010101" stroke="#DDCC77" stroke-width="0.5" stroke-miterlimit="10" points="136.4,88 138.3,84.8 140.1,88 		"/>
		<polygon fill="#010101" stroke="#DDCC77" stroke-width="0.5" stroke-miterlimit="10" points="140.1,81.4 138.3,84.6 136.4,81.4 		
			"/>
		<polygon fill="#010101" stroke="#DDCC77" stroke-width="0.5" stroke-miterlimit="10" points="141.6,86.6 138.3,84.8 141.6,82.8 		
			"/>
	</g>
	<line fill="none" stroke="#DDCC77" stroke-width="0.5" stroke-miterlimit="10" x1="138.3" y1="84.6" x2="134.6" y2="84.6"/>
	<rect x="130.2" y="81.9" fill="#010101" stroke="#DDCC77" stroke-width="0.5" stroke-miterlimit="10" width="4.1" height="5.7"/>
	<g>
		<path fill="#DDCC77" d="M132.1,83.2h0.4v2.8h-0.4V83.2z"/>
	</g>
</g>
<g>
	<rect x="143.4" y="105.9" fill="#010101" stroke="#DDCC77" stroke-width="0.5" stroke-miterlimit="10" width="4.1" height="4.8"/>
	<line fill="none" stroke="#DDCC77" stroke-width="0.5" stroke-miterlimit="10" x1="145.5" y1="114" x2="145.5" y2="110.9"/>
	<g>
		<path fill="#DDCC77" d="M145.3,107h0.4v2.8h-0.4V107z"/>
	</g>
</g>
<g>
	<g>
		
			<rect x="131.6" y="169.8" fill="#010101" stroke="#DDCC77" stroke-width="0.5" stroke-miterlimit="10" width="29.4" height="13.3"/>
		
			<line fill="none" stroke="#DDCC77" stroke-width="0.5" stroke-linecap="round" stroke-miterlimit="10" x1="156.5" y1="171.4" x2="151.7" y2="171.4"/>
		
			<line fill="none" stroke="#DDCC77" stroke-width="0.5" stroke-linecap="round" stroke-miterlimit="10" x1="156.5" y1="173.5" x2="151.7" y2="173.5"/>
		
			<line fill="none" stroke="#DDCC77" stroke-width="0.5" stroke-linecap="round" stroke-miterlimit="10" x1="156.5" y1="175.5" x2="151.7" y2="175.5"/>
		
			<line fill="none" stroke="#DDCC77" stroke-width="0.5" stroke-linecap="round" stroke-miterlimit="10" x1="156.5" y1="177.6" x2="151.7" y2="177.6"/>
		
			<line fill="none" stroke="#DDCC77" stroke-width="0.5" stroke-linecap="round" stroke-miterlimit="10" x1="156.5" y1="179.8" x2="151.7" y2="179.8"/>
		
			<line fill="none" stroke="#DDCC77" stroke-width="0.5" stroke-linecap="round" stroke-miterlimit="10" x1="156.5" y1="181.9" x2="151.7" y2="181.9"/>
		
			<line fill="none" stroke="#DDCC77" stroke-width="0.5" stroke-linecap="round" stroke-miterlimit="10" x1="150.4" y1="169.8" x2="150.4" y2="183.2"/>
		
			<line fill="none" stroke="#DDCC77" stroke-width="0.5" stroke-linecap="round" stroke-miterlimit="10" x1="157.8" y1="169.8" x2="157.8" y2="183.2"/>
	</g>
	<g>
		<g>
			<path fill="#DDCC77" d="M138.1,177.6l0.1,0.5l0,0l0.1-0.5l0.5-2.1h0.4l-0.9,3.2h-0.4l-1-3.2h0.4L138.1,177.6z"/>
			<path fill="#DDCC77" d="M140.4,177.6h-0.9l-0.3,0.9h-0.4l0.9-3.2h0.3l0.9,3.2h-0.4L140.4,177.6z M139.6,177.3h0.8l-0.3-1
				l-0.1-0.5l0,0l-0.1,0.5L139.6,177.3z"/>
			<path fill="#DDCC77" d="M141.8,177.6l0.1,0.5l0,0l0.1-0.5l0.5-2.1h0.4l-0.9,3.2h-0.3l-1-3.2h0.4L141.8,177.6z"/>
		</g>
	</g>
</g>
<g>
	<line fill="none" stroke="#DDCC77" stroke-width="0.5" stroke-miterlimit="10" x1="71.9" y1="237.8" x2="71.9" y2="234.6"/>
	<rect x="69.8" y="229.9" fill="none" stroke="#DDCC77" stroke-width="0.5" stroke-miterlimit="10" width="4.1" height="4.8"/>
	<g>
		<path fill="#DDCC77" d="M73.1,231.5h-0.9v2.6h-0.3v-2.6H71v-0.3h2.1V231.5z"/>
	</g>
</g>
<g>
	<line fill="none" stroke="#DDCC77" stroke-width="0.5" stroke-miterlimit="10" x1="101" y1="237.9" x2="101" y2="234.7"/>
	<rect x="99" y="230" fill="none" stroke="#DDCC77" stroke-width="0.5" stroke-miterlimit="10" width="4.1" height="4.8"/>
	<g>
		<path fill="#DDCC77" d="M102.2,231.6h-0.9v2.6h-0.4v-2.6H100v-0.3h2.1v0.3H102.2z"/>
	</g>
</g>
<g>
	<line fill="none" stroke="#DDCC77" stroke-width="0.5" stroke-miterlimit="10" x1="133.7" y1="238.1" x2="133.7" y2="234.8"/>
	<rect x="131.6" y="230.2" fill="none" stroke="#DDCC77" stroke-width="0.5" stroke-miterlimit="10" width="4.1" height="4.8"/>
	<g>
		<path fill="#DDCC77" d="M134.8,231.7h-0.9v2.6h-0.4v-2.6h-0.8v-0.3h2.1V231.7L134.8,231.7z"/>
	</g>
</g>
<g>
	<line fill="none" stroke="#DDCC77" stroke-width="0.5" stroke-miterlimit="10" x1="161.6" y1="237.9" x2="161.6" y2="234.7"/>
	<rect x="159.6" y="230" fill="none" stroke="#DDCC77" stroke-width="0.5" stroke-miterlimit="10" width="4.1" height="4.8"/>
	<g>
		<path fill="#DDCC77" d="M162.8,231.6h-0.9v2.6h-0.4v-2.6h-0.9v-0.3h2.1v0.3H162.8z"/>
	</g>
</g>
<polygon fill="#010101" stroke="#DDCC77" stroke-width="0.5" stroke-miterlimit="10" points="72.4,217.1 88.4,217.1 82.8,211.9 
	77.4,211.9 "/>
<g>
	<g>
		
			<rect x="137.3" y="113.8" fill="#010101" stroke="#DDCC77" stroke-width="0.5" stroke-miterlimit="10" width="16.4" height="13.7"/>
		<path stroke="#DDCC77" stroke-width="0.5" stroke-miterlimit="10" d="M151,115.4h-5.7c-0.3,0-0.5-0.1-0.8-0.1
			c-0.3,0-0.5,0-0.8,0.1l0,0l0,0c-2.3,0.4-4,2.3-4,4.7c0,2.6,2.1,4.8,4.8,4.8c2.7,0,4.8-2.1,4.8-4.8c0-0.3,0-0.5-0.1-0.8h1.7
			L151,115.4L151,115.4z"/>
		<polygon fill="#010101" stroke="#DDCC77" stroke-width="0.5" stroke-miterlimit="10" points="153.7,113.8 157,113.8 159.3,127.5 
			153.7,127.5 		"/>
		
			<rect x="130.7" y="113.8" fill="#010101" stroke="#DDCC77" stroke-width="0.5" stroke-miterlimit="10" width="6.6" height="13.7"/>
		<rect x="124" y="113.8" fill="#010101" stroke="#DDCC77" stroke-width="0.5" stroke-miterlimit="10" width="6.6" height="13.7"/>
		
			<rect x="110.5" y="113.8" fill="#010101" stroke="#DDCC77" stroke-width="0.5" stroke-miterlimit="10" width="3.9" height="13.7"/>
		
			<rect x="114.5" y="113.8" fill="#010101" stroke="#DDCC77" stroke-width="0.5" stroke-miterlimit="10" width="9.6" height="13.7"/>
		<polyline fill="none" stroke="#DDCC77" stroke-width="0.5" stroke-miterlimit="10" points="110.6,127.5 114.3,125.3 110.5,123.2 
			114.3,121 110.5,118.8 114.3,116.1 110.2,113.8 		"/>
		
			<rect x="136.5" y="133.6" fill="#010101" stroke="#DDCC77" stroke-width="0.5" stroke-miterlimit="10" width="17.3" height="13.7"/>
		<path stroke="#DDCC77" stroke-width="0.5" stroke-miterlimit="10" d="M140,135.3h5.7c0.3,0,0.5-0.1,0.8-0.1s0.5,0,0.8,0.1l0,0l0,0
			c2.3,0.4,4,2.3,4,4.7c0,2.6-2.1,4.8-4.8,4.8c-2.7,0-4.8-2.1-4.8-4.8c0-0.3,0-0.5,0.1-0.8h-1.7L140,135.3L140,135.3z"/>
		
			<rect x="153.9" y="133.6" fill="#010101" stroke="#DDCC77" stroke-width="0.5" stroke-miterlimit="10" width="4.3" height="13.7"/>
		
			<rect x="128.4" y="133.6" fill="#010101" stroke="#DDCC77" stroke-width="0.5" stroke-miterlimit="10" width="4.1" height="13.7"/>
		
			<rect x="132.4" y="133.6" fill="#010101" stroke="#DDCC77" stroke-width="0.5" stroke-miterlimit="10" width="4.1" height="13.7"/>
		<polygon fill="#010101" stroke="#DDCC77" stroke-width="0.5" stroke-miterlimit="10" points="80.3,133.6 80.3,147.3 96.5,147.3 
			96.5,147.3 107.4,147.3 110.5,147.3 128.4,147.3 128.4,133.6 110.5,133.6 110.5,113.8 96.5,113.8 94.8,113.8 80.3,113.8 
			80.3,127.5 94.8,127.5 94.8,133.6 		"/>
		<g>
			<line fill="none" stroke="#DDCC77" stroke-width="0.5" stroke-miterlimit="10" x1="110.2" y1="130.5" x2="94.8" y2="130.5"/>
			<line fill="none" stroke="#DDCC77" stroke-width="0.5" stroke-miterlimit="10" x1="109.2" y1="129" x2="106.4" y2="131.9"/>
			<line fill="none" stroke="#DDCC77" stroke-width="0.5" stroke-miterlimit="10" x1="106" y1="129" x2="103.1" y2="131.9"/>
			<line fill="none" stroke="#DDCC77" stroke-width="0.5" stroke-miterlimit="10" x1="102.7" y1="129" x2="99.9" y2="131.9"/>
			<line fill="none" stroke="#DDCC77" stroke-width="0.5" stroke-miterlimit="10" x1="99.4" y1="129" x2="96.6" y2="131.9"/>
		</g>
		<g>
			<line fill="none" stroke="#DDCC77" stroke-width="0.5" stroke-miterlimit="10" x1="93" y1="147.2" x2="93" y2="133.8"/>
			<line fill="none" stroke="#DDCC77" stroke-width="0.5" stroke-miterlimit="10" x1="94.4" y1="146.5" x2="91.6" y2="143.7"/>
			<line fill="none" stroke="#DDCC77" stroke-width="0.5" stroke-miterlimit="10" x1="94.4" y1="143.2" x2="91.6" y2="140.4"/>
			<line fill="none" stroke="#DDCC77" stroke-width="0.5" stroke-miterlimit="10" x1="94.4" y1="139.9" x2="91.6" y2="137.1"/>
			<line fill="none" stroke="#DDCC77" stroke-width="0.5" stroke-miterlimit="10" x1="94.4" y1="136.7" x2="91.6" y2="133.8"/>
		</g>
		<g>
			<line fill="none" stroke="#DDCC77" stroke-width="0.5" stroke-miterlimit="10" x1="93" y1="127.2" x2="93" y2="113.9"/>
			<line fill="none" stroke="#DDCC77" stroke-width="0.5" stroke-miterlimit="10" x1="94.4" y1="126.6" x2="91.6" y2="123.7"/>
			<line fill="none" stroke="#DDCC77" stroke-width="0.5" stroke-miterlimit="10" x1="94.4" y1="123.3" x2="91.6" y2="120.5"/>
			<line fill="none" stroke="#DDCC77" stroke-width="0.5" stroke-miterlimit="10" x1="94.4" y1="120" x2="91.6" y2="117.3"/>
			<line fill="none" stroke="#DDCC77" stroke-width="0.5" stroke-miterlimit="10" x1="94.4" y1="116.7" x2="91.6" y2="113.9"/>
		</g>
		<g>
			<path fill="#DDCC77" d="M128.1,120.9h-1.6v1.4h-0.4v-3.1h0.4v1.4h1.6v-1.4h0.4v3.1h-0.4V120.9z"/>
		</g>
		<g>
			<path fill="#DDCC77" d="M131.1,140.6h-1.6v1.4h-0.4v-3.1h0.4v1.4h1.6v-1.4h0.4v3.1h-0.4V140.6z"/>
		</g>
		<g>
			<path fill="#DDCC77" d="M135.1,122.2c-0.1,0.1-0.3,0.1-0.4,0.1s-0.3,0-0.4,0c-0.3,0-0.4,0-0.5-0.1c-0.1,0-0.4-0.1-0.4-0.3
				c-0.1-0.1-0.3-0.3-0.3-0.5c0-0.3-0.1-0.4-0.1-0.8c0-0.3,0-0.5,0.1-0.8c0.1-0.3,0.3-0.4,0.4-0.5s0.3-0.3,0.4-0.3
				c0.1,0,0.4-0.1,0.5-0.1s0.4,0,0.4,0c0.1,0,0.3,0,0.3,0.1l-0.1,0.4c-0.1-0.1-0.4-0.1-0.6-0.1c-0.1,0-0.3,0-0.4,0.1
				s-0.3,0.1-0.4,0.3c-0.1,0.1-0.1,0.3-0.3,0.4c0,0.1-0.1,0.4-0.1,0.6c0,0.3,0,0.4,0.1,0.5c0,0.1,0.1,0.3,0.3,0.4
				c0.1,0.1,0.3,0.3,0.4,0.3s0.3,0.1,0.4,0.1c0.1,0,0.3,0,0.4,0s0.3-0.1,0.3-0.1L135.1,122.2z"/>
		</g>
	</g>
	<line fill="none" stroke="#DDCC77" stroke-width="0.5" stroke-miterlimit="10" x1="156.5" y1="110.7" x2="159.7" y2="129.2"/>
</g>
<line fill="none" stroke="#DDCC77" stroke-width="0.5" stroke-miterlimit="10" x1="162" y1="111.8" x2="163.6" y2="121"/>
<line fill="none" stroke="#DDCC77" stroke-width="0.5" stroke-miterlimit="10" x1="161.4" y1="120.6" x2="163.1" y2="129.8"/>
</svg>
