<?xml version="1.0" encoding="utf-8"?>
<!-- Generator: Adobe Illustrator 18.0.0, SVG Export Plug-In . SVG Version: 6.00 Build 0)  -->
<!DOCTYPE svg PUBLIC "-//W3C//DTD SVG 1.1//EN" "http://www.w3.org/Graphics/SVG/1.1/DTD/svg11.dtd">
<svg version="1.1" id="hvac" xmlns="http://www.w3.org/2000/svg" xmlns:xlink="http://www.w3.org/1999/xlink" x="0px" y="0px"
	 viewBox="120.8 0 129.2 245.9" style="enable-background:new 120.8 0 129.2 245.9;" xml:space="preserve">
<path id="cp-dots" style="fill:none;stroke:#45AB99;stroke-width:0.5;stroke-miterlimit:10;stroke-dasharray:3;" d="M245.2,77.8
	H125.6c-1.2,0-1.9-0.9-1.9-1.9v-73c0-1.2,0.9-1.9,1.9-1.9h119.6c1.2,0,1.9,0.9,1.9,1.9v72.9C247.3,76.9,246.4,77.8,245.2,77.8z"/>
<path id="dis-dots" style="fill:none;stroke:#DDCC77;stroke-width:0.5;stroke-miterlimit:10;stroke-dasharray:3;" d="M245.5,156.4
	h-120c-1,0-1.8-0.8-1.8-1.8v-68c0-1,0.8-1.8,1.8-1.8h120c1,0,1.8,0.8,1.8,1.8v68C247.3,155.6,246.5,156.4,245.5,156.4z"/>
<g id="cp-dis-pipes">
	<polygon style="fill:#010101;stroke:#DDCC77;stroke-width:0.5;stroke-miterlimit:10;" points="145.1,41.9 143.8,41.9 143.8,73.6 
		143.8,98.7 184.9,98.7 184.9,113.6 186,113.6 186,97.5 145.1,97.5 	"/>
	<polygon style="fill:#010101;stroke:#DDCC77;stroke-width:0.5;stroke-miterlimit:10;" points="197.7,60.9 198.9,60.9 198.9,94.7 
		193.2,94.7 193.2,113.8 192,113.8 192,93.6 197.7,93.6 	"/>
	<polygon style="fill:#010101;stroke:#DDCC77;stroke-width:0.5;stroke-miterlimit:10;" points="165.1,41.5 164.2,41.5 164.3,73.6 
		164.3,94.6 187.7,94.6 187.7,113.6 188.9,113.6 188.9,93.4 165.6,93.4 	"/>
	<polygon style="fill:#010101;stroke:#DDCC77;stroke-width:0.5;stroke-miterlimit:10;" points="215.8,64.2 217.1,64.2 217,99.1 
		196.1,99.1 196.1,113.8 195,113.8 195,98 215.8,98 	"/>
</g>
<polygon id="diffuser" style="fill:#010101;stroke:#DDCC77;stroke-width:0.5;stroke-miterlimit:10;" points="161.7,217.1 
	177.6,217.1 172.1,211.9 166.6,211.9 "/>
<path id="boiler" style="fill:#010101;stroke:#45AB99;stroke-width:0.5;stroke-miterlimit:10;" d="M170.6,33.4v1.7h-2.7
	c-0.4-3.9-3.2-7-6.7-7h-26.6c-2.5,0-4.5,1.4-5.8,3.6h-1.7v10.5h1.7c1.2,2.2,3.4,3.6,5.8,3.6v4.7h4.1v-4.7h16.4v4.7h4.3v-4.7h1.7
	c3.5,0,6.3-3,6.7-6.7h2.7v1.3h6.2v-7H170.6L170.6,33.4z"/>
<path id="cp-piper-back-tower" style="stroke:#45AB99;stroke-width:0.5;stroke-miterlimit:10;" d="M227.5,54.3h1V26.5v-1.7
	c0-0.4-0.3-0.5-0.5-0.5h-8l-0.3,1.2h7.3c0.3,0,0.5,0.3,0.5,0.5V54.3L227.5,54.3z"/>
<g id="tower">
	<path style="fill:none;stroke:#45AB99;stroke-width:0.5;stroke-miterlimit:10;" d="M218.7,30.8c0,0.3-0.3,0.4-0.4,0.4h-16.7h-0.1
		l-1-5.6l-3-15.8c0-0.3,0.1-0.5,0.4-0.5h24.2c0.3,0,0.4,0.3,0.4,0.5L218.7,30.8z"/>
	<line style="fill:none;stroke:#45AB99;stroke-width:0.5;stroke-miterlimit:10;" x1="198.6" y1="18" x2="220.9" y2="18"/>
	<g>
		<path style="fill:none;stroke:#45AB99;stroke-width:0.5;stroke-linecap:round;stroke-miterlimit:10;" d="M204.3,20.8l0.9-0.8
			c0.1-0.1,0.1-0.3,0.1-0.4v-1.4"/>
		
			<line style="fill:none;stroke:#45AB99;stroke-width:0.5;stroke-linecap:round;stroke-miterlimit:10;" x1="206.4" y1="20.8" x2="205.5" y2="19.9"/>
	</g>
	<g>
		<path style="fill:none;stroke:#45AB99;stroke-width:0.5;stroke-linecap:round;stroke-miterlimit:10;" d="M213,20.7l0.9-0.8
			c0.1-0.1,0.1-0.3,0.1-0.4v-1.4"/>
		
			<line style="fill:none;stroke:#45AB99;stroke-width:0.5;stroke-linecap:round;stroke-miterlimit:10;" x1="215" y1="20.7" x2="214.1" y2="19.6"/>
	</g>
	<path style="fill:none;stroke:#45AB99;stroke-width:0.5;stroke-miterlimit:10;" d="M210.5,23.3h-1.7c-0.3,0-0.4-0.3-0.4-0.4v-1.4
		c0-0.3,0.3-0.4,0.4-0.4h1.7c0.3,0,0.4,0.3,0.4,0.4v1.4C211,23.1,210.8,23.3,210.5,23.3z"/>
	
		<line style="fill:none;stroke:#45AB99;stroke-width:0.5;stroke-linecap:round;stroke-miterlimit:10;" x1="209.7" y1="23.4" x2="209.7" y2="30.6"/>
	<path id="waterpath" style="fill:none;stroke:#45AB99;stroke-width:0.5;stroke-miterlimit:10;" d="M200.5,26.5
		c-0.1-0.4,0.3-0.6,0.6-0.5c1.4,0.6,4.8,1.7,9.1-0.4c0,0,4.8-2.3,9.1-0.4c0.1,0.1,0.3,0.3,0.3,0.5l-1,5.2c0,0.3-0.3,0.4-0.4,0.4
		h-16.3c-0.3,0-0.4-0.1-0.4-0.4L200.5,26.5z"/>
</g>
<path id="chiller" style="fill:#010101;stroke:#45AB99;stroke-width:0.5;stroke-miterlimit:10;" d="M236.7,59.6V58h-2.3v-3.5h-1v2.3
	c-0.6-1-1.8-1.8-3.2-2.3c-0.1-5.2-4.4-7.1-7.3-7.1h-11.5V45h-16.2v9h16.2v-2.5h11.5c0.3,0,2.7,0.1,3.1,2.5h-25.2
	c-3,0-5.6,1.4-6.5,3.4V54h-1.9v10.5h1.9v-2.7c0.9,1.9,3.5,3.4,6.5,3.4v4.7h4.3v-4.7h16.3v4.7h4.3v-4.7h1.7c2.7,0,5-1.2,6.2-2.8v2.8
	h1v-3.5h2.2V60h-2.2v-0.4H236.7L236.7,59.6z"/>
<path id="cp-pipe-tower" style="stroke:#45AB99;stroke-width:0.5;stroke-miterlimit:10;" d="M194.1,54h-1V25v-0.5
	c0-0.4,0.3-0.5,0.5-0.5h6c0.3,0,0.4,0.3,0.5,0.4h0.3c0,0.4-0.1,0.6-0.5,0.6h-5.2c-0.3,0-0.5,0.3-0.5,0.5V54H194.1z"/>
<path id="cp-fan" style="fill:#010101;stroke:#45AB99;stroke-width:0.5;stroke-miterlimit:10;" d="M214,16V9.2
	c0-0.3,0.1-0.6,0.1-0.9c0-0.4,0-0.6-0.1-0.9l0,0l0,0c-0.4-2.7-2.8-4.9-5.7-4.9c-3.2,0-5.8,2.6-5.8,5.8s2.6,5.8,5.8,5.8
	c0.4,0,0.6,0,1-0.1v2H214z"/>
<path id="ds-pump2" style="fill:#010101;stroke:#DDCC77;stroke-width:0.5539;stroke-miterlimit:10;" d="M220,95.1
	c0-3.1-2.5-5.6-5.6-5.6s-5.6,2.5-5.6,5.6c0,1.9,0.9,3.5,2.3,4.5l-2.1,2.5h11l-2.2-2.6C219.1,98.5,220,96.9,220,95.1z"/>
<path id="ds-pump1" style="fill:#010101;stroke:#DDCC77;stroke-width:0.5725;stroke-miterlimit:10;" d="M152.5,95.1
	c0-3.1-2.5-5.6-5.6-5.6s-5.6,2.5-5.6,5.6c0,1.8,0.8,3.4,2.2,4.4l-2.1,2.6h11l-2.1-2.6C151.7,98.5,152.5,96.9,152.5,95.1z"/>
<path id="cp-pump" style="fill:#010101;stroke:#45AB99;stroke-width:0.5652;stroke-miterlimit:10;" d="M196.3,33.9
	c0-3.1-2.5-5.6-5.6-5.6s-5.6,2.5-5.6,5.6c0,1.8,0.9,3.4,2.2,4.4l-2.2,2.7h11l-2.1-2.6C195.4,37.4,196.3,35.8,196.3,33.9z"/>
<path id="ducts" style="fill:none;stroke:#DDCC77;stroke-width:0.5;stroke-miterlimit:10;stroke-dasharray:2.8964;" d="M245.5,243.8
	H125.3c-1,0-1.8-0.8-1.8-1.8v-76.8c0-1,0.8-1.8,1.8-1.8h120.1c1,0,1.8,0.8,1.8,1.8V242C247.3,242.8,246.5,243.8,245.5,243.8z"/>
<polygon id="vav-duct" style="fill:#010101;stroke:#DDCC77;stroke-width:0.5;stroke-miterlimit:10;" points="222,121.9 223.2,127.5 
	224.8,127.4 224.8,174.1 137.8,174 137.8,211.8 143.2,211.8 143.2,180.7 166.6,180.7 166.6,211.8 172.2,211.8 172.2,180.7 
	230.7,180.7 230.7,170.9 230.7,121.9 "/>
<g id="zone1">
	<path style="fill:#010101;stroke:#DDCC77;stroke-width:0.5;stroke-miterlimit:10;" d="M151.7,237.8H129c-0.8,0-1.4-0.6-1.4-1.4
		v-17.5c0-0.8,0.6-1.4,1.4-1.4h22.8c0.8,0,1.4,0.6,1.4,1.4v17.5C153.2,237.1,152.5,237.8,151.7,237.8z"/>
	<g>
		<g>
			<path style="fill:#DDCC77;" d="M136.3,227.3l1.3-2.3l0.1-0.1h-1.4v-0.4h1.7v0.4l-1.3,2.3l-0.1,0.1h1.4v0.4h-1.7V227.3z"/>
			<path style="fill:#DDCC77;" d="M138.1,226.4c0-0.4,0.1-0.6,0.3-0.9c0.1-0.3,0.4-0.3,0.6-0.3c0.3,0,0.5,0.1,0.6,0.3
				s0.3,0.5,0.3,0.9s-0.1,0.6-0.3,0.9c-0.1,0.3-0.4,0.3-0.6,0.3c-0.3,0-0.5-0.1-0.6-0.3C138.1,227.2,138.1,226.9,138.1,226.4z
				 M138.4,226.4c0,0.1,0,0.3,0,0.4s0,0.3,0.1,0.3c0,0.1,0.1,0.1,0.1,0.1s0.1,0.1,0.3,0.1s0.3-0.1,0.4-0.3c0.1-0.1,0.1-0.4,0.1-0.6
				c0-0.1,0-0.3,0-0.4c0-0.1,0-0.3-0.1-0.3c0-0.1-0.1-0.1-0.1-0.1s-0.1-0.1-0.3-0.1c-0.1,0-0.3,0.1-0.4,0.3
				C138.5,225.9,138.4,226.1,138.4,226.4z"/>
			<path style="fill:#DDCC77;" d="M141.3,227.6v-1.4c0-0.3,0-0.4-0.1-0.5c0-0.1-0.1-0.1-0.3-0.1c-0.1,0-0.3,0-0.3,0.1
				c-0.1,0.1-0.1,0.1-0.1,0.3v1.7h-0.4v-2.2h0.3v0.3l0,0c0-0.1,0.1-0.1,0.3-0.3c0.1,0,0.3-0.1,0.4-0.1s0.1,0,0.3,0s0.1,0.1,0.3,0.1
				c0,0.1,0.1,0.1,0.1,0.3c0,0.1,0,0.3,0,0.4v1.4H141.3L141.3,227.6z"/>
			<path style="fill:#DDCC77;" d="M143.5,227.4c-0.1,0.1-0.1,0.1-0.3,0.1s-0.3,0-0.4,0c-0.1,0-0.3,0-0.4-0.1c-0.1,0-0.3-0.1-0.3-0.3
				c-0.1-0.1-0.1-0.3-0.1-0.4s0-0.3,0-0.5c0-0.4,0.1-0.6,0.3-0.9c0.1-0.1,0.4-0.3,0.6-0.3c0.1,0,0.1,0,0.3,0c0.1,0,0.1,0.1,0.3,0.1
				c0.1,0.1,0.1,0.1,0.1,0.3s0,0.3,0,0.4v0.1v0.1h-1.2c0,0.1,0,0.3,0,0.4c0,0.1,0,0.3,0.1,0.3c0,0.1,0.1,0.1,0.1,0.1
				c0.1,0,0.1,0,0.3,0c0.1,0,0.1,0,0.3,0s0.1-0.1,0.1-0.1L143.5,227.4z M143.2,226.1c0-0.3,0-0.4-0.1-0.5s-0.1-0.1-0.3-0.1
				s-0.3,0-0.4,0.1c-0.1,0.1-0.1,0.3-0.1,0.5H143.2z"/>
		</g>
	</g>
</g>
<g id="zone2">
	<path id="zoneoutline" style="fill:#010101;stroke:#DDCC77;stroke-width:0.5;stroke-miterlimit:10;" d="M180.2,237.8h-22.8
		c-0.8,0-1.4-0.6-1.4-1.4v-17.5c0-0.8,0.6-1.4,1.4-1.4h22.8c0.8,0,1.4,0.6,1.4,1.4v17.5C181.6,237.1,181,237.8,180.2,237.8z"/>
	<g id="text">
		<g>
			<path style="fill:#DDCC77;" d="M165.3,227.3l1.3-2.3l0.1-0.1h-1.4v-0.4h1.7v0.4l-1.3,2.3l-0.1,0.1h1.4v0.4h-1.7V227.3z"/>
			<path style="fill:#DDCC77;" d="M167.1,226.4c0-0.4,0.1-0.6,0.3-0.9c0.1-0.3,0.4-0.3,0.6-0.3c0.3,0,0.5,0.1,0.6,0.3
				c0.1,0.3,0.3,0.5,0.3,0.9s-0.1,0.6-0.3,0.9c-0.1,0.3-0.4,0.3-0.6,0.3c-0.3,0-0.5-0.1-0.6-0.3
				C167.3,227.2,167.1,226.9,167.1,226.4z M167.4,226.4c0,0.1,0,0.3,0,0.4s0,0.3,0.1,0.3c0,0.1,0.1,0.1,0.1,0.1s0.1,0.1,0.3,0.1
				s0.3-0.1,0.4-0.3c0.1-0.1,0.1-0.4,0.1-0.6c0-0.1,0-0.3,0-0.4c0-0.1,0-0.3-0.1-0.3c0-0.1-0.1-0.1-0.1-0.1c-0.1,0-0.1-0.1-0.3-0.1
				c-0.1,0-0.3,0.1-0.4,0.3C167.5,225.9,167.4,226.1,167.4,226.4z"/>
			<path style="fill:#DDCC77;" d="M170.4,227.6v-1.4c0-0.3,0-0.4-0.1-0.5c0-0.1-0.1-0.1-0.3-0.1s-0.3,0-0.3,0.1
				c-0.1,0.1-0.1,0.1-0.1,0.3v1.7h-0.4v-2.2h0.3v0.3l0,0c0-0.1,0.1-0.1,0.3-0.3c0.1,0,0.3-0.1,0.4-0.1c0.1,0,0.1,0,0.3,0
				s0.1,0.1,0.3,0.1c0,0.1,0.1,0.1,0.1,0.3c0,0.1,0,0.3,0,0.4v1.4H170.4L170.4,227.6z"/>
			<path style="fill:#DDCC77;" d="M172.5,227.4c-0.1,0.1-0.1,0.1-0.3,0.1s-0.3,0-0.4,0c-0.1,0-0.3,0-0.4-0.1c-0.1,0-0.3-0.1-0.3-0.3
				c-0.1-0.1-0.1-0.3-0.1-0.4s0-0.3,0-0.5c0-0.4,0.1-0.6,0.3-0.9c0.2-0.3,0.4-0.3,0.6-0.3c0.1,0,0.1,0,0.3,0c0.1,0,0.1,0.1,0.3,0.1
				c0,0,0.1,0.1,0.1,0.3c0,0.1,0,0.3,0,0.4v0.1v0.1h-1.2c0,0.1,0,0.3,0,0.4c0,0.1,0,0.3,0.1,0.3c0,0.1,0.1,0.1,0.1,0.1
				c0.1,0,0.1,0,0.3,0c0.1,0,0.1,0,0.3,0s0.1-0.1,0.1-0.1L172.5,227.4z M172.2,226.1c0-0.3,0-0.4-0.1-0.5s-0.1-0.1-0.3-0.1
				s-0.3,0-0.4,0.1c-0.1,0.1-0.1,0.3-0.1,0.5H172.2z"/>
		</g>
	</g>
</g>
<g id="air-compressor">
	<path id="back" style="fill:#010101;stroke:#45AB99;stroke-width:0.5;stroke-miterlimit:10;" d="M154.1,8l-0.8-0.8
		c-0.6-0.6-1.7-0.6-2.3,0l-1,1c-0.9-0.5-1.9-0.8-3-0.8s-2.1,0.3-3,0.8l-1-1c-0.6-0.6-1.7-0.6-2.3,0L139.8,8c-0.6,0.6-0.6,1.7,0,2.3
		l1.3,1.3c-0.3,0.5-0.3,1.2-0.3,1.8c0,2.3,1.3,4.4,3.4,5.3l-1.8,3.1h9l-1.8-3.1c1.9-1,3.4-3,3.4-5.3c0-0.6-0.1-1.3-0.3-1.8l1.3-1.3
		C154.7,9.5,154.7,8.5,154.1,8z"/>
</g>
<polygon id="ducts2" style="fill:#010101;stroke:#DDCC77;stroke-width:0.5;stroke-miterlimit:10;" points="222.9,114 223.9,119.5 
	238.9,119.5 238.6,187.4 199.3,187.3 199.3,197.3 204.7,197.3 204.7,194 225.8,194 225.8,197.3 231.2,197.3 231.2,194 244.7,193.8 
	244.7,114 "/>
<g id="terminal1">
	
		<rect x="195.9" y="197.3" style="fill:#010101;stroke:#DDCC77;stroke-width:0.5;stroke-miterlimit:10;" width="13.1" height="20.1"/>
	
		<line style="fill:none;stroke:#DDCC77;stroke-width:0.5;stroke-linecap:round;stroke-miterlimit:10;" x1="198.1" y1="208.3" x2="206.6" y2="199.6"/>
	<g>
		<path style="fill:#DDCC77;" d="M202.6,213.5H201v1.4h-0.4v-3.1h0.4v1.4h1.6v-1.4h0.4v3.1h-0.4V213.5z"/>
	</g>
	<line style="fill:none;stroke:#DDCC77;stroke-width:0.5;stroke-miterlimit:10;" x1="195.9" y1="210.5" x2="209" y2="210.5"/>
</g>
<g id="terminal2">
	<rect x="222" y="197.3" style="fill:#010101;stroke:#DDCC77;stroke-width:0.5;stroke-miterlimit:10;" width="13.1" height="20.1"/>
	
		<line style="fill:none;stroke:#DDCC77;stroke-width:0.5;stroke-linecap:round;stroke-miterlimit:10;" x1="224.2" y1="208.3" x2="232.8" y2="199.6"/>
	<g>
		<path style="fill:#DDCC77;" d="M228.6,213.5H227v1.4h-0.3v-3.1h0.4v1.4h1.6v-1.4h0.4v3.1h-0.4L228.6,213.5L228.6,213.5z"/>
	</g>
	<line style="fill:none;stroke:#DDCC77;stroke-width:0.5;stroke-miterlimit:10;" x1="222" y1="210.5" x2="235" y2="210.5"/>
</g>
<g id="zone1_1_">
	<path style="fill:#010101;stroke:#DDCC77;stroke-width:0.5;stroke-miterlimit:10;" d="M213,237.8h-22.8c-0.8,0-1.4-0.6-1.4-1.4
		v-17.5c0-0.8,0.6-1.4,1.4-1.4H213c0.8,0,1.4,0.6,1.4,1.4v17.5C214.4,237.1,213.8,237.8,213,237.8z"/>
	<g>
		<g>
			<path style="fill:#DDCC77;" d="M198.2,227.3l1.3-2.3l0.1-0.1h-1.3v-0.4h1.7v0.4l-1.3,2.3l-0.1,0.1h1.4v0.4h-1.7L198.2,227.3
				L198.2,227.3z"/>
			<path style="fill:#DDCC77;" d="M200,226.4c0-0.4,0.1-0.6,0.3-0.9c0.2-0.3,0.4-0.3,0.6-0.3c0.3,0,0.5,0.1,0.6,0.3
				c0.1,0.3,0.3,0.5,0.3,0.9s-0.1,0.6-0.3,0.9c-0.1,0.3-0.4,0.3-0.6,0.3c-0.3,0-0.5-0.1-0.6-0.3C200.2,227.2,200,226.9,200,226.4z
				 M200.4,226.4c0,0.1,0,0.3,0,0.4s0,0.3,0.1,0.3s0.1,0.1,0.1,0.1s0.1,0.1,0.3,0.1c0.1,0,0.3-0.1,0.4-0.3c0.1-0.1,0.1-0.4,0.1-0.6
				c0-0.1,0-0.3,0-0.4c0-0.1,0-0.3-0.1-0.3c0-0.1-0.1-0.1-0.1-0.1s-0.1-0.1-0.3-0.1c-0.1,0-0.3,0.1-0.4,0.3
				C200.4,225.9,200.4,226.1,200.4,226.4z"/>
			<path style="fill:#DDCC77;" d="M203.3,227.6v-1.4c0-0.3,0-0.4-0.1-0.5c0-0.1-0.1-0.1-0.3-0.1c-0.1,0-0.3,0-0.3,0.1
				c-0.1,0.1-0.1,0.1-0.1,0.3v1.7h-0.4v-2.2h0.3v0.3l0,0c0-0.1,0.1-0.1,0.3-0.3c0.1,0,0.3-0.1,0.4-0.1c0.1,0,0.1,0,0.3,0
				c0.1,0,0.1,0.1,0.3,0.1c0,0.1,0.1,0.1,0.1,0.3c0,0.1,0,0.3,0,0.4v1.4H203.3L203.3,227.6z"/>
			<path style="fill:#DDCC77;" d="M205.5,227.4c-0.1,0.1-0.1,0.1-0.3,0.1c-0.1,0-0.3,0-0.4,0c-0.1,0-0.3,0-0.4-0.1
				c-0.1,0-0.3-0.1-0.3-0.3c-0.1-0.1-0.1-0.3-0.1-0.4s0-0.3,0-0.5c0-0.4,0.1-0.6,0.3-0.9c0.1-0.3,0.4-0.3,0.6-0.3c0.1,0,0.1,0,0.3,0
				c0.1,0,0.1,0.1,0.3,0.1c0.1,0.1,0.1,0.1,0.1,0.3c0,0.1,0,0.3,0,0.4v0.1v0.1h-1.2c0,0.1,0,0.3,0,0.4c0,0.1,0,0.3,0.1,0.3
				c0,0.1,0.1,0.1,0.1,0.1c0.1,0,0.1,0,0.3,0c0.1,0,0.1,0,0.3,0c0.1,0,0.1-0.1,0.1-0.1L205.5,227.4z M205.2,226.1
				c0-0.3,0-0.4-0.1-0.5s-0.1-0.1-0.3-0.1s-0.3,0-0.4,0.1c-0.1,0.1-0.1,0.3-0.1,0.5H205.2z"/>
		</g>
	</g>
</g>
<g id="zone2_1_">
	<path style="fill:#010101;stroke:#DDCC77;stroke-width:0.5;stroke-miterlimit:10;" d="M240.7,237.8h-22.8c-0.8,0-1.4-0.6-1.4-1.4
		v-17.5c0-0.8,0.6-1.4,1.4-1.4h22.8c0.8,0,1.4,0.6,1.4,1.4v17.5C242.2,237.1,241.6,237.8,240.7,237.8z"/>
	<g>
		<g>
			<path style="fill:#DDCC77;" d="M225.8,227.3l1.3-2.3l0.1-0.1h-1.4v-0.4h1.7v0.4l-1.3,2.3l-0.1,0.1h1.4v0.4h-1.7V227.3z"/>
			<path style="fill:#DDCC77;" d="M227.6,226.4c0-0.4,0.1-0.6,0.3-0.9c0.2-0.3,0.4-0.3,0.6-0.3s0.5,0.1,0.6,0.3
				c0.1,0.3,0.3,0.5,0.3,0.9s-0.1,0.6-0.3,0.9c-0.1,0.3-0.4,0.3-0.6,0.3s-0.5-0.1-0.6-0.3C227.6,227.2,227.6,226.9,227.6,226.4z
				 M227.9,226.4c0,0.1,0,0.3,0,0.4s0,0.3,0.1,0.3s0.1,0.1,0.1,0.1s0.1,0.1,0.3,0.1c0.1,0,0.3-0.1,0.4-0.3c0.1-0.1,0.1-0.4,0.1-0.6
				c0-0.1,0-0.3,0-0.4c0-0.1,0-0.3-0.1-0.3c0-0.1-0.1-0.1-0.1-0.1c-0.1,0-0.1-0.1-0.3-0.1c-0.1,0-0.3,0.1-0.4,0.3
				C228,225.9,227.9,226.1,227.9,226.4z"/>
			<path style="fill:#DDCC77;" d="M230.7,227.6v-1.4c0-0.3,0-0.4-0.1-0.5c0-0.1-0.1-0.1-0.3-0.1s-0.3,0-0.3,0.1
				c-0.1,0.1-0.1,0.1-0.1,0.3v1.7h-0.4v-2.2h0.3v0.3l0,0c0-0.1,0.1-0.1,0.3-0.3c0.1,0,0.3-0.1,0.4-0.1s0.1,0,0.3,0
				c0.1,0,0.1,0.1,0.3,0.1c0,0.1,0.1,0.1,0.1,0.3c0,0.1,0,0.3,0,0.4v1.4H230.7L230.7,227.6z"/>
			<path style="fill:#DDCC77;" d="M232.9,227.4c-0.1,0.1-0.1,0.1-0.3,0.1c-0.1,0-0.3,0-0.4,0c-0.1,0-0.3,0-0.4-0.1
				c-0.1,0-0.3-0.1-0.3-0.3c-0.1-0.1-0.1-0.3-0.1-0.4s0-0.3,0-0.5c0-0.4,0.1-0.6,0.3-0.9c0.1-0.1,0.4-0.3,0.6-0.3c0.1,0,0.1,0,0.3,0
				c0.1,0,0.1,0.1,0.3,0.1c0,0,0.1,0.1,0.1,0.3c0,0.1,0,0.3,0,0.4v0.1v0.1h-1.2c0,0.1,0,0.3,0,0.4c0,0.1,0,0.3,0.1,0.3
				c0,0.1,0.1,0.1,0.1,0.1c0.1,0,0.1,0,0.3,0s0.1,0,0.3,0c0.1,0,0.1-0.1,0.1-0.1L232.9,227.4z M232.7,226.1c0-0.3,0-0.4-0.1-0.5
				s-0.1-0.1-0.3-0.1c-0.1,0-0.3,0-0.4,0.1c-0.1,0.1-0.1,0.3-0.1,0.5H232.7z"/>
		</g>
	</g>
</g>
<g>
	<polygon style="fill:#010101;stroke:#DDCC77;stroke-width:0.5;stroke-miterlimit:10;" points="141.4,64.7 144.6,66.5 141.4,68.5 	
		"/>
	<polygon style="fill:#010101;stroke:#DDCC77;stroke-width:0.5;stroke-miterlimit:10;" points="148,68.5 144.7,66.5 148,64.7 	"/>
</g>
<g>
	<g>
		<polygon style="fill:#010101;stroke:#DDCC77;stroke-width:0.5;stroke-miterlimit:10;" points="167.3,62.9 165.3,66.3 163.5,62.9 
					"/>
		<polygon style="fill:#010101;stroke:#DDCC77;stroke-width:0.5;stroke-miterlimit:10;" points="163.5,69.5 165.3,66.3 167.3,69.5 
					"/>
		<polygon style="fill:#010101;stroke:#DDCC77;stroke-width:0.5;stroke-miterlimit:10;" points="162.1,64.3 165.3,66.3 162.1,68.1 
					"/>
	</g>
	<line style="fill:none;stroke:#DDCC77;stroke-width:0.5;stroke-miterlimit:10;" x1="165.3" y1="66.3" x2="169.1" y2="66.3"/>
	<rect x="169.1" y="63.4" style="fill:none;stroke:#DDCC77;stroke-width:0.5;stroke-miterlimit:10;" width="4.1" height="5.7"/>
	<g>
		<path style="fill:#DDCC77;" d="M171,64.7h0.4v2.8H171V64.7z"/>
	</g>
</g>
<g>
	<line style="fill:none;stroke:#45AB99;stroke-width:0.5;stroke-miterlimit:10;" x1="159.8" y1="28.1" x2="159.8" y2="24.8"/>
	<rect x="157.8" y="20.2" style="fill:none;stroke:#45AB99;stroke-width:0.5;stroke-miterlimit:10;" width="4.1" height="4.8"/>
	<g>
		<path style="fill:#45AB99;" d="M161.1,21.7h-0.9v2.6h-0.4v-2.6h-0.9v-0.3h2.1L161.1,21.7L161.1,21.7z"/>
	</g>
</g>
<g>
	<line style="fill:none;stroke:#DDCC77;stroke-width:0.5;stroke-miterlimit:10;" x1="146.9" y1="113.6" x2="146.9" y2="110.5"/>
	<rect x="144.9" y="105.7" style="fill:none;stroke:#DDCC77;stroke-width:0.5;stroke-miterlimit:10;" width="4.1" height="4.8"/>
	<g>
		<path style="fill:#DDCC77;" d="M148.1,107.3h-0.9v2.6h-0.4v-2.6h-0.9V107h2.1L148.1,107.3L148.1,107.3z"/>
	</g>
</g>
<g>
	<g>
		<polygon style="fill:#010101;stroke:#DDCC77;stroke-width:0.5;stroke-miterlimit:10;" points="196.8,88 198.7,84.8 200.5,88 		"/>
		<polygon style="fill:#010101;stroke:#DDCC77;stroke-width:0.5;stroke-miterlimit:10;" points="200.5,81.4 198.7,84.6 196.8,81.4 
					"/>
		<polygon style="fill:#010101;stroke:#DDCC77;stroke-width:0.5;stroke-miterlimit:10;" points="202,86.6 198.7,84.8 202,82.8 		"/>
	</g>
	<line style="fill:none;stroke:#DDCC77;stroke-width:0.5;stroke-miterlimit:10;" x1="198.7" y1="84.6" x2="195" y2="84.6"/>
	<rect x="190.6" y="81.9" style="fill:#010101;stroke:#DDCC77;stroke-width:0.5;stroke-miterlimit:10;" width="4.1" height="5.7"/>
	<g>
		<path style="fill:#DDCC77;" d="M192.5,83.2h0.4V86h-0.4V83.2z"/>
	</g>
</g>
<g>
	<rect x="203.8" y="105.9" style="fill:#010101;stroke:#DDCC77;stroke-width:0.5;stroke-miterlimit:10;" width="4.1" height="4.8"/>
	<line style="fill:none;stroke:#DDCC77;stroke-width:0.5;stroke-miterlimit:10;" x1="205.9" y1="114" x2="205.9" y2="110.9"/>
	<g>
		<path style="fill:#DDCC77;" d="M205.7,107h0.4v2.8h-0.4V107z"/>
	</g>
</g>
<g>
	<g>
		
			<rect x="192" y="169.8" style="fill:#010101;stroke:#DDCC77;stroke-width:0.5;stroke-miterlimit:10;" width="29.4" height="13.3"/>
		
			<line style="fill:none;stroke:#DDCC77;stroke-width:0.5;stroke-linecap:round;stroke-miterlimit:10;" x1="216.9" y1="171.4" x2="212.1" y2="171.4"/>
		
			<line style="fill:none;stroke:#DDCC77;stroke-width:0.5;stroke-linecap:round;stroke-miterlimit:10;" x1="216.9" y1="173.5" x2="212.1" y2="173.5"/>
		
			<line style="fill:none;stroke:#DDCC77;stroke-width:0.5;stroke-linecap:round;stroke-miterlimit:10;" x1="216.9" y1="175.5" x2="212.1" y2="175.5"/>
		
			<line style="fill:none;stroke:#DDCC77;stroke-width:0.5;stroke-linecap:round;stroke-miterlimit:10;" x1="216.9" y1="177.6" x2="212.1" y2="177.6"/>
		
			<line style="fill:none;stroke:#DDCC77;stroke-width:0.5;stroke-linecap:round;stroke-miterlimit:10;" x1="216.9" y1="179.8" x2="212.1" y2="179.8"/>
		
			<line style="fill:none;stroke:#DDCC77;stroke-width:0.5;stroke-linecap:round;stroke-miterlimit:10;" x1="216.9" y1="181.9" x2="212.1" y2="181.9"/>
		
			<line style="fill:none;stroke:#DDCC77;stroke-width:0.5;stroke-linecap:round;stroke-miterlimit:10;" x1="210.8" y1="169.8" x2="210.8" y2="183.2"/>
		
			<line style="fill:none;stroke:#DDCC77;stroke-width:0.5;stroke-linecap:round;stroke-miterlimit:10;" x1="218.2" y1="169.8" x2="218.2" y2="183.2"/>
	</g>
	<g>
		<g>
			<path style="fill:#DDCC77;" d="M198.5,177.6l0.1,0.5l0,0l0.1-0.5l0.5-2.1h0.4l-0.9,3.2h-0.4l-1-3.2h0.4L198.5,177.6z"/>
			<path style="fill:#DDCC77;" d="M200.8,177.6h-0.9l-0.3,0.9h-0.4l0.9-3.2h0.3l0.9,3.2h-0.4L200.8,177.6z M200,177.3h0.8l-0.3-1
				l-0.1-0.5l0,0l-0.1,0.5L200,177.3z"/>
			<path style="fill:#DDCC77;" d="M202.2,177.6l0.1,0.5l0,0l0.1-0.5l0.5-2.1h0.4l-0.9,3.2h-0.3l-1-3.2h0.4L202.2,177.6z"/>
		</g>
	</g>
</g>
<g>
	<line style="fill:none;stroke:#DDCC77;stroke-width:0.5;stroke-miterlimit:10;" x1="132.3" y1="237.8" x2="132.3" y2="234.6"/>
	<rect x="130.2" y="229.9" style="fill:none;stroke:#DDCC77;stroke-width:0.5;stroke-miterlimit:10;" width="4.1" height="4.8"/>
	<g>
		<path style="fill:#DDCC77;" d="M133.5,231.5h-0.9v2.6h-0.3v-2.6h-0.9v-0.3h2.1L133.5,231.5L133.5,231.5z"/>
	</g>
</g>
<g>
	<line style="fill:none;stroke:#DDCC77;stroke-width:0.5;stroke-miterlimit:10;" x1="161.4" y1="237.9" x2="161.4" y2="234.7"/>
	<rect x="159.4" y="230" style="fill:none;stroke:#DDCC77;stroke-width:0.5;stroke-miterlimit:10;" width="4.1" height="4.8"/>
	<g>
		<path style="fill:#DDCC77;" d="M162.6,231.6h-0.9v2.6h-0.4v-2.6h-0.9v-0.3h2.1L162.6,231.6L162.6,231.6z"/>
	</g>
</g>
<g>
	<line style="fill:none;stroke:#DDCC77;stroke-width:0.5;stroke-miterlimit:10;" x1="194.1" y1="238.1" x2="194.1" y2="234.8"/>
	<rect x="192" y="230.2" style="fill:none;stroke:#DDCC77;stroke-width:0.5;stroke-miterlimit:10;" width="4.1" height="4.8"/>
	<g>
		<path style="fill:#DDCC77;" d="M195.2,231.7h-0.9v2.6h-0.4v-2.6h-0.8v-0.3h2.1L195.2,231.7L195.2,231.7z"/>
	</g>
</g>
<g>
	<line style="fill:none;stroke:#DDCC77;stroke-width:0.5;stroke-miterlimit:10;" x1="222" y1="237.9" x2="222" y2="234.7"/>
	<rect x="220" y="230" style="fill:none;stroke:#DDCC77;stroke-width:0.5;stroke-miterlimit:10;" width="4.1" height="4.8"/>
	<g>
		<path style="fill:#DDCC77;" d="M223.2,231.6h-0.9v2.6h-0.4v-2.6H221v-0.3h2.1L223.2,231.6L223.2,231.6z"/>
	</g>
</g>
<polygon style="fill:#010101;stroke:#DDCC77;stroke-width:0.5;stroke-miterlimit:10;" points="132.8,217.1 148.8,217.1 143.2,211.9 
	137.8,211.9 "/>
<g>
	<g>
		
			<rect x="197.7" y="113.8" style="fill:#010101;stroke:#DDCC77;stroke-width:0.5;stroke-miterlimit:10;" width="16.4" height="13.7"/>
		<path style="stroke:#DDCC77;stroke-width:0.5;stroke-miterlimit:10;" d="M211.4,115.4h-5.7c-0.3,0-0.5-0.1-0.8-0.1s-0.5,0-0.8,0.1
			l0,0l0,0c-2.3,0.4-4,2.3-4,4.7c0,2.6,2.1,4.8,4.8,4.8s4.8-2.1,4.8-4.8c0-0.3,0-0.5-0.1-0.8h1.7L211.4,115.4L211.4,115.4z"/>
		<polygon style="fill:#010101;stroke:#DDCC77;stroke-width:0.5;stroke-miterlimit:10;" points="214.1,113.8 217.4,113.8 
			219.7,127.5 214.1,127.5 		"/>
		
			<rect x="191.1" y="113.8" style="fill:#010101;stroke:#DDCC77;stroke-width:0.5;stroke-miterlimit:10;" width="6.6" height="13.7"/>
		
			<rect x="184.4" y="113.8" style="fill:#010101;stroke:#DDCC77;stroke-width:0.5;stroke-miterlimit:10;" width="6.6" height="13.7"/>
		
			<rect x="170.9" y="113.8" style="fill:#010101;stroke:#DDCC77;stroke-width:0.5;stroke-miterlimit:10;" width="3.9" height="13.7"/>
		
			<rect x="174.9" y="113.8" style="fill:#010101;stroke:#DDCC77;stroke-width:0.5;stroke-miterlimit:10;" width="9.6" height="13.7"/>
		<polyline style="fill:none;stroke:#DDCC77;stroke-width:0.5;stroke-miterlimit:10;" points="171,127.5 174.7,125.3 170.9,123.2 
			174.7,121 170.9,118.8 174.7,116.1 170.6,113.8 		"/>
		
			<rect x="196.9" y="133.6" style="fill:#010101;stroke:#DDCC77;stroke-width:0.5;stroke-miterlimit:10;" width="17.3" height="13.7"/>
		<path style="stroke:#DDCC77;stroke-width:0.5;stroke-miterlimit:10;" d="M200.4,135.3h5.7c0.3,0,0.5-0.1,0.8-0.1s0.5,0,0.8,0.1
			l0,0l0,0c2.3,0.4,4,2.3,4,4.7c0,2.6-2.1,4.8-4.8,4.8s-4.8-2.1-4.8-4.8c0-0.3,0-0.5,0.1-0.8h-1.7L200.4,135.3L200.4,135.3z"/>
		
			<rect x="214.3" y="133.6" style="fill:#010101;stroke:#DDCC77;stroke-width:0.5;stroke-miterlimit:10;" width="4.3" height="13.7"/>
		
			<rect x="188.8" y="133.6" style="fill:#010101;stroke:#DDCC77;stroke-width:0.5;stroke-miterlimit:10;" width="4.1" height="13.7"/>
		
			<rect x="192.8" y="133.6" style="fill:#010101;stroke:#DDCC77;stroke-width:0.5;stroke-miterlimit:10;" width="4.1" height="13.7"/>
		<polygon style="fill:#010101;stroke:#DDCC77;stroke-width:0.5;stroke-miterlimit:10;" points="140.7,133.6 140.7,147.3 
			156.9,147.3 156.9,147.3 167.8,147.3 170.9,147.3 188.8,147.3 188.8,133.6 170.9,133.6 170.9,113.8 156.9,113.8 155.2,113.8 
			140.7,113.8 140.7,127.5 155.2,127.5 155.2,133.6 		"/>
		<g>
			<line style="fill:none;stroke:#DDCC77;stroke-width:0.5;stroke-miterlimit:10;" x1="170.6" y1="130.5" x2="155.2" y2="130.5"/>
			<line style="fill:none;stroke:#DDCC77;stroke-width:0.5;stroke-miterlimit:10;" x1="169.6" y1="129" x2="166.8" y2="131.9"/>
			<line style="fill:none;stroke:#DDCC77;stroke-width:0.5;stroke-miterlimit:10;" x1="166.4" y1="129" x2="163.5" y2="131.9"/>
			<line style="fill:none;stroke:#DDCC77;stroke-width:0.5;stroke-miterlimit:10;" x1="163.1" y1="129" x2="160.3" y2="131.9"/>
			<line style="fill:none;stroke:#DDCC77;stroke-width:0.5;stroke-miterlimit:10;" x1="159.8" y1="129" x2="157" y2="131.9"/>
		</g>
		<g>
			<line style="fill:none;stroke:#DDCC77;stroke-width:0.5;stroke-miterlimit:10;" x1="153.4" y1="147.2" x2="153.4" y2="133.8"/>
			<line style="fill:none;stroke:#DDCC77;stroke-width:0.5;stroke-miterlimit:10;" x1="154.8" y1="146.5" x2="152" y2="143.7"/>
			<line style="fill:none;stroke:#DDCC77;stroke-width:0.5;stroke-miterlimit:10;" x1="154.8" y1="143.2" x2="152" y2="140.4"/>
			<line style="fill:none;stroke:#DDCC77;stroke-width:0.5;stroke-miterlimit:10;" x1="154.8" y1="139.9" x2="152" y2="137.1"/>
			<line style="fill:none;stroke:#DDCC77;stroke-width:0.5;stroke-miterlimit:10;" x1="154.8" y1="136.7" x2="152" y2="133.8"/>
		</g>
		<g>
			<line style="fill:none;stroke:#DDCC77;stroke-width:0.5;stroke-miterlimit:10;" x1="153.4" y1="127.2" x2="153.4" y2="113.9"/>
			<line style="fill:none;stroke:#DDCC77;stroke-width:0.5;stroke-miterlimit:10;" x1="154.8" y1="126.6" x2="152" y2="123.7"/>
			<line style="fill:none;stroke:#DDCC77;stroke-width:0.5;stroke-miterlimit:10;" x1="154.8" y1="123.3" x2="152" y2="120.5"/>
			<line style="fill:none;stroke:#DDCC77;stroke-width:0.5;stroke-miterlimit:10;" x1="154.8" y1="120" x2="152" y2="117.3"/>
			<line style="fill:none;stroke:#DDCC77;stroke-width:0.5;stroke-miterlimit:10;" x1="154.8" y1="116.7" x2="152" y2="113.9"/>
		</g>
		<g>
			<path style="fill:#DDCC77;" d="M188.5,120.9h-1.6v1.4h-0.4v-3.1h0.4v1.4h1.6v-1.4h0.4v3.1h-0.4V120.9z"/>
		</g>
		<g>
			<path style="fill:#DDCC77;" d="M191.5,140.6h-1.6v1.4h-0.4v-3.1h0.4v1.4h1.6v-1.4h0.4v3.1h-0.4V140.6z"/>
		</g>
		<g>
			<path style="fill:#DDCC77;" d="M195.5,122.2c-0.1,0.1-0.3,0.1-0.4,0.1c-0.1,0-0.3,0-0.4,0c-0.3,0-0.4,0-0.5-0.1
				c-0.1,0-0.4-0.1-0.4-0.3c-0.1-0.1-0.3-0.3-0.3-0.5c0-0.3-0.1-0.4-0.1-0.8c0-0.3,0-0.5,0.1-0.8s0.3-0.4,0.4-0.5
				c0.1-0.1,0.3-0.3,0.4-0.3s0.4-0.1,0.5-0.1s0.4,0,0.4,0c0.1,0,0.3,0,0.3,0.1l-0.1,0.4c-0.1-0.1-0.4-0.1-0.6-0.1
				c-0.1,0-0.3,0-0.4,0.1c-0.1,0.1-0.3,0.1-0.4,0.3c-0.1,0.1-0.1,0.3-0.3,0.4c0,0.1-0.1,0.4-0.1,0.6c0,0.3,0,0.4,0.1,0.5
				c0,0.1,0.1,0.3,0.3,0.4c0.1,0.1,0.3,0.3,0.4,0.3c0.1,0,0.3,0.1,0.4,0.1c0.1,0,0.3,0,0.4,0c0.1,0,0.3-0.1,0.3-0.1L195.5,122.2
				L195.5,122.2z"/>
		</g>
	</g>
	<line style="fill:none;stroke:#DDCC77;stroke-width:0.5;stroke-miterlimit:10;" x1="216.9" y1="110.7" x2="220.1" y2="129.2"/>
</g>
<line style="fill:none;stroke:#DDCC77;stroke-width:0.5;stroke-miterlimit:10;" x1="222.4" y1="111.8" x2="224" y2="121"/>
<line style="fill:none;stroke:#DDCC77;stroke-width:0.5;stroke-miterlimit:10;" x1="221.8" y1="120.6" x2="223.5" y2="129.8"/>
</svg>
