<?xml version="1.0" encoding="utf-8"?>
<!-- Generator: Adobe Illustrator 18.0.0, SVG Export Plug-In . SVG Version: 6.00 Build 0)  -->
<!DOCTYPE svg PUBLIC "-//W3C//DTD SVG 1.1//EN" "http://www.w3.org/Graphics/SVG/1.1/DTD/svg11.dtd">
<svg version="1.1" id="Layer_1" xmlns="http://www.w3.org/2000/svg" xmlns:xlink="http://www.w3.org/1999/xlink" x="0px" y="0px"
	 viewBox="0 0 50 50" enable-background="new 0 0 50 50" xml:space="preserve">
<g>
	<defs>
		<rect id="SVGID_1_" x="-4" y="-6.8" width="27.1" height="60.4"/>
	</defs>
	<clipPath id="SVGID_2_">
		<use xlink:href="#SVGID_1_"  overflow="visible"/>
	</clipPath>
	<path clip-path="url(#SVGID_2_)" fill="#FFFFFF" d="M41.9,34.7L40.8,34l0.7-1.3c0.2-0.4,0.1-1-0.3-1.3c-0.4-0.3-0.9-0.1-1.2,0.3
		l-0.7,1.3L37,31.6l0.7-1.3l0.6,0.4c0.4,0.3,0.9,0.1,1.2-0.3c0.2-0.4,0.1-1-0.3-1.3l-0.6-0.4l0-0.1c0.4-0.7,0.4-1.6-0.1-1.9
		c-0.4-0.3-1.1,0.1-1.5,0.8l0,0.1l-0.6-0.4c-0.4-0.3-0.9-0.1-1.2,0.3c-0.2,0.4-0.1,1,0.3,1.3l0.6,0.4l-0.7,1.3l-2.3-1.4l0.7-1.3
		c0.2-0.4,0.1-1-0.3-1.3c-0.4-0.3-0.9-0.1-1.2,0.3l-0.7,1.3l-4.7-3c0-0.1,0-0.3,0-0.4c0-0.3,0-0.6-0.1-0.9l4.8-3.8l1,1.4
		c0.3,0.4,0.8,0.5,1.2,0.2c0.4-0.3,0.5-0.9,0.2-1.3l-1-1.4l2.1-1.7l0.8,1.1l-0.6,0.5c-0.4,0.3-0.5,0.9-0.2,1.3
		c0.3,0.4,0.8,0.5,1.2,0.2l0.6-0.5l0.3,0.5c0.5,0.7,1.2,1,1.6,0.6c0.4-0.3,0.4-1.2-0.1-1.9l-0.3-0.5l0.5-0.4
		c0.4-0.3,0.5-0.9,0.2-1.3c-0.3-0.4-0.8-0.5-1.2-0.2l-0.5,0.4L36.6,16l2.2-1.7l1,1.4c0.3,0.4,0.8,0.5,1.2,0.2
		c0.4-0.3,0.5-0.9,0.2-1.3l-1-1.4l1-0.8c0.6-0.5,0.7-1.3,0.3-1.9c-0.4-0.6-1.2-0.7-1.8-0.3l-1,0.8l-0.8-1.2
		c-0.3-0.4-0.8-0.5-1.2-0.2c-0.4,0.3-0.5,0.9-0.2,1.3l0.8,1.2l-2.2,1.7l-0.8-1.2l0.6-0.5c0.4-0.3,0.5-0.9,0.2-1.3
		c-0.3-0.4-0.8-0.5-1.2-0.2l-0.6,0.5l0-0.1c-0.5-0.7-1.2-1-1.6-0.6c-0.4,0.3-0.4,1.2,0.1,1.9l0.1,0.1l-0.6,0.5
		c-0.4,0.3-0.5,0.9-0.2,1.3c0.3,0.4,0.8,0.5,1.2,0.2l0.6-0.5l0.8,1.2l-2.1,1.7l-0.8-1.2c-0.3-0.4-0.8-0.5-1.2-0.2
		c-0.4,0.3-0.5,0.9-0.2,1.3l0.8,1.2l-4.6,3.7c-0.4-0.4-0.9-0.6-1.4-0.8l0-4.7h1.7c0.5,0,0.9-0.4,0.9-0.9c0-0.5-0.4-0.9-0.9-0.9h-1.7
		v-2.8h1.3v0.9c0,0.5,0.4,0.9,0.9,0.9c0.5,0,0.9-0.4,0.9-0.9v-0.9h0.5c0.8,0,1.5-0.5,1.5-1c0-0.6-0.6-1-1.5-1h-0.5V8.7
		c0-0.5-0.4-0.9-0.9-0.9c-0.5,0-0.9,0.4-0.9,0.9v0.7h-1.3V6.5h1.7c0.5,0,0.9-0.4,0.9-0.9c0-0.5-0.4-0.9-0.9-0.9h-1.7V3.3
		c0-0.8-0.6-1.4-1.3-1.4c-0.7,0-1.3,0.6-1.3,1.4v1.3h-1.4c-0.5,0-0.9,0.4-0.9,0.9c0,0.5,0.4,0.9,0.9,0.9h1.4v2.9h-1.4V8.6
		c0-0.5-0.4-0.9-0.9-0.9c-0.5,0-0.9,0.4-0.9,0.9v0.8h-0.1c-0.8,0-1.4,0.5-1.4,1c0,0.6,0.6,1,1.4,1h0.1v0.8c0,0.5,0.4,0.9,0.9,0.9
		c0.5,0,0.9-0.4,0.9-0.9v-0.8h1.4v2.8h-1.4c-0.5,0-0.9,0.4-0.9,0.9c0,0.5,0.4,0.9,0.9,0.9h1.4v4.8c-0.2,0.1-0.5,0.2-0.7,0.4l-5-3.1
		l0.8-1.5c0.2-0.4,0.1-1-0.3-1.3c-0.4-0.3-0.9-0.1-1.2,0.3l-0.8,1.5l-2.3-1.4l0.7-1.2l0.7,0.4c0.4,0.3,0.9,0.1,1.2-0.3
		c0.2-0.4,0.1-1-0.3-1.3l-0.7-0.4l0.3-0.5c0.4-0.7,0.4-1.6-0.1-1.9c-0.4-0.3-1.1,0.1-1.5,0.8L12,11.9l-0.6-0.3
		c-0.4-0.3-0.9-0.1-1.2,0.3c-0.2,0.4-0.1,1,0.3,1.3l0.6,0.3l-0.7,1.2l-2.3-1.5l0.8-1.5c0.2-0.4,0.1-1-0.3-1.3
		c-0.4-0.3-0.9-0.1-1.2,0.3l-0.8,1.5l-1.1-0.7c-0.6-0.4-1.4-0.2-1.7,0.5c-0.4,0.7-0.1,1.5,0.5,1.9l1.1,0.7L4.6,16
		c-0.2,0.4-0.1,1,0.3,1.3c0.4,0.3,0.9,0.1,1.2-0.3l0.7-1.3l2.3,1.5l-0.7,1.3L7.8,18c-0.4-0.3-0.9-0.1-1.2,0.3
		c-0.2,0.4-0.1,1,0.3,1.3L7.6,20l0,0.1c-0.4,0.7-0.4,1.6,0.1,1.9c0.4,0.3,1.1-0.1,1.5-0.8l0-0.1l0.6,0.4c0.4,0.3,0.9,0.1,1.2-0.3
		c0.2-0.4,0.1-1-0.3-1.3l-0.6-0.4l0.7-1.3l2.3,1.4l-0.7,1.3c-0.2,0.4-0.1,1,0.3,1.3c0.4,0.3,0.9,0.1,1.2-0.3l0.7-1.3l4.8,3
		c-0.1,0.4-0.2,0.9-0.2,1.3c0,0.2,0,0.4,0.1,0.6l-3.8,3.3l-1-1.4c-0.3-0.4-0.8-0.5-1.2-0.1c-0.4,0.3-0.4,0.9-0.1,1.3l1,1.4l-2,1.8
		l-0.8-1.1l0.6-0.5c0.4-0.3,0.4-0.9,0.1-1.3c-0.3-0.4-0.8-0.5-1.2-0.1L10,29l-0.3-0.5C9.1,27.9,8.4,27.6,8,28
		c-0.4,0.4-0.3,1.2,0.2,1.8l0.3,0.5L8,30.7C7.7,31,7.6,31.6,7.9,32c0.3,0.4,0.8,0.5,1.2,0.1l0.5-0.4l0.8,1.1l-2.1,1.8l-1-1.4
		c-0.3-0.4-0.8-0.5-1.2-0.1c-0.4,0.3-0.4,0.9-0.1,1.3l1,1.4l-1,0.8c-0.5,0.5-0.6,1.3-0.2,1.9c0.4,0.6,1.2,0.7,1.8,0.2l1-0.8l0.9,1.2
		c0.3,0.4,0.8,0.5,1.2,0.1c0.4-0.3,0.4-0.9,0.1-1.3l-0.9-1.2L12,35l0.9,1.2l-0.6,0.5C12,37,11.9,37.6,12.2,38
		c0.3,0.4,0.8,0.5,1.2,0.1l0.6-0.5l0.1,0.1c0.5,0.7,1.2,0.9,1.6,0.6c0.4-0.3,0.3-1.2-0.2-1.8l-0.1-0.1l0.6-0.5
		c0.4-0.3,0.4-0.9,0.1-1.3c-0.3-0.4-0.8-0.5-1.2-0.1l-0.6,0.5l-0.9-1.2l2-1.8l0.9,1.2c0.3,0.4,0.8,0.5,1.2,0.1
		c0.4-0.3,0.4-0.9,0.1-1.3l-0.9-1.2l3.4-2.9c0.4,0.4,0.9,0.7,1.4,0.9v5.5h-1.7c-0.5,0-0.9,0.4-0.9,0.9c0,0.5,0.4,0.9,0.9,0.9h1.7V39
		h-1.3v-0.9c0-0.5-0.4-0.9-0.9-0.9c-0.5,0-0.9,0.4-0.9,0.9V39h-0.6c-0.8,0-1.4,0.5-1.4,1s0.7,1,1.4,1h0.6v0.7c0,0.5,0.4,0.9,0.9,0.9
		c0.5,0,0.9-0.4,0.9-0.9V41h1.3v2.9h-1.7c-0.5,0-0.9,0.4-0.9,0.9c0,0.5,0.4,0.9,0.9,0.9h1.7v1.4c0,0.8,0.6,1.4,1.3,1.4
		c0.7,0,1.3-0.6,1.3-1.4v-1.3h1.4c0.5,0,0.9-0.4,0.9-0.9c0-0.5-0.4-0.9-0.9-0.9h-1.4l0-2.9h1.4v0.8c0,0.5,0.4,0.9,0.9,0.9
		c0.5,0,0.9-0.4,0.9-0.9V41h0.1c0.8,0,1.4-0.5,1.4-1s-0.6-1-1.4-1h-0.1v-0.8c0-0.5-0.4-0.9-0.9-0.9c-0.5,0-0.9,0.4-0.9,0.9V39h-1.4
		v-2.8h1.4c0.5,0,0.9-0.4,0.9-0.9c0-0.5-0.4-0.9-0.9-0.9h-1.4l0-5.5c0.6-0.2,1.1-0.6,1.5-1l4.5,2.8l-0.8,1.5c-0.2,0.4-0.1,1,0.3,1.3
		c0.4,0.3,0.9,0.1,1.2-0.3l0.8-1.5l2.3,1.4l-0.7,1.2l-0.7-0.4c-0.4-0.3-0.9-0.1-1.2,0.3c-0.2,0.4-0.1,1,0.3,1.3l0.7,0.4l-0.3,0.5
		c-0.4,0.7-0.4,1.6,0.1,1.9c0.4,0.3,1.1-0.1,1.5-0.8l0.3-0.5l0.6,0.3c0.4,0.3,0.9,0.1,1.2-0.3c0.2-0.4,0.1-1-0.3-1.3L35,35.2
		l0.7-1.2l2.3,1.5L37.2,37c-0.2,0.4-0.1,1,0.3,1.3c0.4,0.3,0.9,0.1,1.2-0.3l0.8-1.5l1.1,0.7c0.6,0.4,1.4,0.2,1.7-0.5
		C42.7,35.9,42.5,35.1,41.9,34.7z"/>
</g>
<polygon fill="#FFFFFF" points="37.2,27.8 49.3,24.7 37.2,21.7 46.1,13.1 34.2,16.5 37.6,4.6 29,13.5 25.9,1.4 25.9,1.5 25.9,48 
	25.9,48.1 29,36 37.6,44.9 34.2,33 46.1,36.4 "/>
</svg>
