<?xml version="1.0" encoding="utf-8"?>
<!-- Generator: Adobe Illustrator 20.1.0, SVG Export Plug-In . SVG Version: 6.00 Build 0)  -->
<!DOCTYPE svg PUBLIC "-//W3C//DTD SVG 1.1//EN" "http://www.w3.org/Graphics/SVG/1.1/DTD/svg11.dtd">
<svg version="1.1" id="Layer_1" xmlns="http://www.w3.org/2000/svg" xmlns:xlink="http://www.w3.org/1999/xlink" x="0px" y="0px"
	 viewBox="0 0 103.6 109" style="enable-background:new 0 0 103.6 109;" xml:space="preserve">
<style type="text/css">
	.st0{clip-path:url(#SVGID_2_);fill:#FFFFFF;}
	.st1{fill:#FFFFFF;}
</style>
<g>
	<g>
		<defs>
			<rect id="SVGID_1_" x="11.6" y="10.7" width="39.8" height="88.7"/>
		</defs>
		<clipPath id="SVGID_2_">
			<use xlink:href="#SVGID_1_"  style="overflow:visible;"/>
		</clipPath>
		<path class="st0" d="M79,71.6l-1.6-1l1-1.9c0.4-0.7,0.1-1.5-0.5-1.9c-0.6-0.4-1.4-0.2-1.7,0.5l-1,1.9l-3.4-2.2l1-1.9l0.9,0.6
			c0.6,0.4,1.4,0.2,1.7-0.5c0.4-0.7,0.1-1.5-0.5-1.9l-0.9-0.6l0.1-0.1c0.6-1.1,0.5-2.3-0.1-2.7c-0.7-0.4-1.7,0.1-2.3,1.2l-0.1,0.1
			l-0.9-0.6c-0.6-0.4-1.4-0.2-1.7,0.5c-0.4,0.7-0.1,1.5,0.5,1.9l0.9,0.6l-1,1.9l-3.3-2.1l1-1.9c0.4-0.7,0.1-1.5-0.5-1.9
			c-0.6-0.4-1.4-0.2-1.7,0.5l-1,1.9l-7-4.4c0-0.2,0.1-0.4,0.1-0.6c0-0.5-0.1-0.9-0.2-1.4l7-5.6l1.5,2.1c0.4,0.6,1.2,0.7,1.8,0.3
			c0.6-0.5,0.7-1.3,0.3-1.9l-1.5-2.1L69,46l1.2,1.7l-1,0.8c-0.6,0.5-0.7,1.3-0.3,1.9c0.4,0.6,1.2,0.7,1.8,0.3l1-0.8l0.5,0.7
			c0.7,1,1.8,1.4,2.4,0.9c0.6-0.5,0.5-1.7-0.2-2.7l-0.5-0.7l0.8-0.6c0.6-0.4,0.7-1.3,0.3-1.9c-0.4-0.6-1.2-0.7-1.8-0.3l-0.8,0.6
			l-1.2-1.7l3.2-2.6l1.5,2.1c0.4,0.6,1.2,0.7,1.8,0.3c0.6-0.5,0.7-1.3,0.3-1.9L76.5,40l1.5-1.2c0.8-0.7,1-1.9,0.4-2.8
			c-0.6-0.9-1.8-1.1-2.6-0.4l-1.5,1.2L73,35.1c-0.4-0.6-1.2-0.7-1.8-0.3c-0.6,0.4-0.7,1.3-0.3,1.9l1.2,1.7L69,41l-1.2-1.7l0.9-0.7
			c0.6-0.4,0.7-1.3,0.3-1.9c-0.4-0.6-1.2-0.7-1.8-0.3L66.2,37l-0.1-0.1c-0.7-1-1.8-1.4-2.4-0.9c-0.6,0.5-0.5,1.7,0.2,2.7l0.1,0.1
			l-0.9,0.7c-0.6,0.5-0.7,1.3-0.3,1.9c0.4,0.6,1.2,0.7,1.8,0.3l0.9-0.7l1.2,1.7l-3.1,2.5l-1.2-1.7c-0.4-0.6-1.2-0.7-1.8-0.3
			c-0.6,0.5-0.7,1.3-0.3,1.9l1.2,1.7l-6.8,5.4c-0.6-0.5-1.3-0.9-2-1.1l0-6.9h2.4c0.7,0,1.3-0.6,1.3-1.4c0-0.8-0.6-1.4-1.3-1.4h-2.4
			v-4.1h2v1.3c0,0.8,0.6,1.4,1.3,1.4c0.7,0,1.3-0.6,1.3-1.4v-1.3h0.8c1.2,0,2.1-0.7,2.1-1.5c0-0.8-1-1.5-2.1-1.5h-0.8v-1
			c0-0.8-0.6-1.4-1.3-1.4c-0.7,0-1.3,0.6-1.3,1.4v1h-2v-4.3h2.4c0.7,0,1.3-0.6,1.3-1.4c0-0.8-0.6-1.4-1.3-1.4h-2.4v-2
			c0-1.1-0.8-2-1.9-2c-1,0-1.9,0.9-1.9,2v2h-2c-0.7,0-1.3,0.6-1.3,1.4c0,0.8,0.6,1.4,1.3,1.4h2v4.3h-2v-1.1c0-0.8-0.6-1.4-1.3-1.4
			c-0.7,0-1.3,0.6-1.3,1.4v1.1h-0.1c-1.2,0-2.1,0.7-2.1,1.5c0,0.8,1,1.5,2.1,1.5h0.1v1.1c0,0.8,0.6,1.4,1.3,1.4
			c0.7,0,1.3-0.6,1.3-1.4v-1.1h2v4.1h-2c-0.7,0-1.3,0.6-1.3,1.4c0,0.8,0.6,1.4,1.3,1.4h2v7.1c-0.4,0.2-0.7,0.3-1,0.6l-7.4-4.6
			l1.2-2.3c0.4-0.7,0.2-1.5-0.5-1.9c-0.6-0.4-1.4-0.2-1.7,0.5l-1.2,2.3l-3.3-2.1l1-1.8l1,0.6c0.6,0.4,1.4,0.2,1.7-0.5
			c0.4-0.7,0.1-1.5-0.5-1.9l-1-0.6l0.4-0.7c0.6-1.1,0.5-2.3-0.1-2.7c-0.7-0.4-1.7,0.1-2.3,1.2l-0.4,0.8l-0.8-0.5
			c-0.6-0.4-1.4-0.2-1.7,0.5c-0.4,0.7-0.1,1.5,0.5,1.9l0.8,0.5l-1,1.8l-3.4-2.2l1.2-2.3c0.4-0.7,0.1-1.5-0.5-1.9
			c-0.6-0.4-1.4-0.2-1.7,0.5l-1.2,2.3l-1.6-1c-0.9-0.6-2-0.2-2.6,0.7c-0.5,1-0.2,2.2,0.7,2.8l1.6,1l-1,1.9c-0.4,0.7-0.1,1.5,0.5,1.9
			c0.6,0.4,1.4,0.2,1.7-0.5l1-1.9l3.4,2.2l-1,1.9L29,47.1c-0.6-0.4-1.4-0.2-1.7,0.5c-0.4,0.7-0.1,1.5,0.5,1.9l0.9,0.6l-0.1,0.1
			c-0.6,1.1-0.5,2.3,0.1,2.7c0.7,0.4,1.7-0.1,2.3-1.2l0.1-0.1l0.9,0.6c0.6,0.4,1.4,0.2,1.7-0.5c0.4-0.7,0.1-1.5-0.5-1.9l-0.9-0.6
			l1-1.9l3.3,2.1l-1,1.9c-0.4,0.7-0.1,1.5,0.5,1.9c0.6,0.4,1.4,0.2,1.7-0.5l1-1.9l7,4.4c-0.2,0.6-0.3,1.3-0.3,1.9
			c0,0.3,0,0.5,0.1,0.8l-5.6,4.9l-1.5-2.1c-0.4-0.6-1.2-0.7-1.8-0.2c-0.5,0.5-0.6,1.3-0.2,1.9l1.5,2l-3,2.6l-1.2-1.6l0.9-0.8
			c0.5-0.5,0.6-1.3,0.2-1.9c-0.4-0.6-1.2-0.7-1.8-0.2l-0.9,0.8l-0.5-0.7c-0.7-1-1.8-1.4-2.4-0.8c-0.6,0.5-0.5,1.7,0.3,2.7l0.5,0.7
			l-0.7,0.6c-0.5,0.5-0.6,1.3-0.2,1.9c0.4,0.6,1.2,0.7,1.8,0.2l0.7-0.6l1.2,1.6l-3.1,2.7l-1.5-2c-0.4-0.6-1.2-0.7-1.8-0.2
			c-0.5,0.5-0.6,1.3-0.2,1.9l1.5,2l-1.4,1.2c-0.8,0.7-0.9,2-0.3,2.8c0.6,0.9,1.8,1,2.6,0.3l1.4-1.2l1.3,1.7c0.4,0.6,1.2,0.7,1.8,0.2
			c0.5-0.5,0.6-1.3,0.2-1.9l-1.3-1.7l3.1-2.7l1.3,1.7l-0.8,0.7c-0.5,0.5-0.6,1.3-0.2,1.9c0.4,0.6,1.2,0.7,1.8,0.2l0.8-0.7l0.1,0.1
			c0.7,1,1.8,1.4,2.4,0.8c0.6-0.5,0.5-1.7-0.3-2.7L40.2,74l0.8-0.7c0.5-0.5,0.6-1.3,0.2-1.9c-0.4-0.6-1.2-0.7-1.8-0.2l-0.8,0.7
			l-1.3-1.7l3-2.6l1.3,1.7c0.4,0.6,1.2,0.7,1.8,0.2c0.5-0.5,0.6-1.3,0.2-1.9l-1.3-1.7l5-4.3c0.6,0.6,1.3,1.1,2.1,1.4v8.1h-2.4
			c-0.7,0-1.3,0.6-1.3,1.4c0,0.8,0.6,1.4,1.3,1.4h2.4v4.1h-2v-1.3c0-0.8-0.6-1.4-1.3-1.4c-0.7,0-1.3,0.6-1.3,1.4v1.3h-0.8
			c-1.2,0-2.1,0.7-2.1,1.5c0,0.8,1,1.5,2.1,1.5h0.8v1c0,0.8,0.6,1.4,1.3,1.4c0.7,0,1.3-0.6,1.3-1.4v-1h2v4.3h-2.4
			c-0.7,0-1.3,0.6-1.3,1.4c0,0.8,0.6,1.4,1.3,1.4h2.4v2c0,1.1,0.8,2,1.9,2c1,0,1.9-0.9,1.9-2v-2h2c0.7,0,1.3-0.6,1.3-1.4
			c0-0.8-0.6-1.4-1.3-1.4h-2l0-4.3h2v1.1c0,0.8,0.6,1.4,1.3,1.4c0.7,0,1.3-0.6,1.3-1.4v-1.1h0.1c1.2,0,2.1-0.7,2.1-1.5
			c0-0.8-1-1.5-2.1-1.5h-0.1v-1.1c0-0.8-0.6-1.4-1.3-1.4c-0.7,0-1.3,0.6-1.3,1.4v1.1h-2v-4.1h2c0.7,0,1.3-0.6,1.3-1.4
			c0-0.8-0.6-1.4-1.3-1.4h-2l0-8.1c0.9-0.3,1.6-0.8,2.3-1.5l6.6,4.2l-1.2,2.3c-0.4,0.7-0.1,1.5,0.5,1.9c0.6,0.4,1.4,0.2,1.7-0.5
			l1.2-2.3l3.3,2.1l-1,1.8l-1-0.6c-0.6-0.4-1.4-0.2-1.7,0.5c-0.4,0.7-0.1,1.5,0.5,1.9l1,0.6L64.9,74c-0.6,1.1-0.5,2.3,0.1,2.7
			c0.7,0.4,1.7-0.1,2.3-1.2l0.4-0.7l0.8,0.5c0.6,0.4,1.4,0.2,1.7-0.5c0.4-0.7,0.1-1.5-0.5-1.9l-0.8-0.5l1-1.8l3.4,2.2L72.1,75
			c-0.4,0.7-0.1,1.5,0.5,1.9c0.6,0.4,1.4,0.2,1.7-0.5l1.2-2.3l1.6,1c0.9,0.6,2,0.2,2.6-0.7C80.2,73.4,79.9,72.2,79,71.6z"/>
	</g>
	<polygon class="st1" points="72.1,61.5 89.8,57 72.1,52.6 85.2,39.9 67.7,44.9 72.7,27.4 60,40.5 55.6,22.8 55.6,22.8 55.6,91.2 
		55.6,91.3 60,73.6 72.7,86.7 67.7,69.1 85.2,74.2 	"/>
</g>
</svg>
