<?xml version="1.0" encoding="utf-8"?>
<!-- Generator: Adobe Illustrator 18.0.0, SVG Export Plug-In . SVG Version: 6.00 Build 0)  -->
<!DOCTYPE svg PUBLIC "-//W3C//DTD SVG 1.1//EN" "http://www.w3.org/Graphics/SVG/1.1/DTD/svg11.dtd">
<svg version="1.1" id="all" xmlns="http://www.w3.org/2000/svg" xmlns:xlink="http://www.w3.org/1999/xlink" x="0px" y="0px"
	 viewBox="0 0 323.5 605.4" enable-background="new 0 0 323.5 605.4" xml:space="preserve">
<g id="space_1_">
	<g id="space" opacity="0">
		
			<rect x="27.9" y="189.7" fill="#88CCEE" stroke="#231F20" stroke-width="0.2054" stroke-miterlimit="10" width="6.2" height="391.7"/>
		
			<rect x="29.1" y="137.5" fill="#88CCEE" stroke="#231F20" stroke-width="0.2054" stroke-miterlimit="10" width="2.9" height="52.5"/>
		
			<rect x="27.6" y="105.8" fill="#88CCEE" stroke="#231F20" stroke-width="0.2054" stroke-miterlimit="10" width="6.7" height="31.4"/>
		
			<rect x="-3.9" y="67" transform="matrix(0.9699 -0.2436 0.2436 0.9699 -12.8681 37.9806)" fill="#88CCEE" stroke="#231F20" stroke-width="0.2054" stroke-miterlimit="10" width="302" height="8.1"/>
		
			<rect x="33.9" y="222.1" fill="none" stroke="#88CCEE" stroke-width="0.1634" stroke-miterlimit="10" width="224.1" height="15.8"/>
		
			<rect x="258.2" y="186.7" fill="#88CCEE" stroke="#231F20" stroke-width="0.2054" stroke-miterlimit="10" width="6.7" height="53.2"/>
		
			<rect x="259.9" y="133.9" fill="#88CCEE" stroke="#231F20" stroke-width="0.2054" stroke-miterlimit="10" width="2.9" height="52.5"/>
		
			<rect x="258.2" y="102.4" fill="#88CCEE" stroke="#231F20" stroke-width="0.2054" stroke-miterlimit="10" width="6.7" height="31.4"/>
		
			<rect x="259.9" y="76.5" fill="#88CCEE" stroke="#231F20" stroke-width="0.2054" stroke-miterlimit="10" width="2.9" height="26"/>
		<polygon fill="#88CCEE" stroke="#231F20" stroke-width="0.2054" stroke-miterlimit="10" points="264.7,76.9 258.2,76.9 
			258.2,47.4 264.7,45.2 		"/>
		
			<rect x="33.7" y="555.6" fill="#88CCEE" stroke="#231F20" stroke-width="0.2054" stroke-miterlimit="10" width="22.2" height="24.8"/>
		
			<rect x="24.6" y="580.4" fill="#88CCEE" stroke="#231F20" stroke-width="0.2054" stroke-miterlimit="10" width="35.5" height="6.7"/>
		
			<rect x="236.8" y="555.6" fill="#88CCEE" stroke="#231F20" stroke-width="0.2054" stroke-miterlimit="10" width="22.2" height="25.2"/>
		
			<rect x="232.9" y="580.4" fill="#88CCEE" stroke="#231F20" stroke-width="0.2054" stroke-miterlimit="10" width="35.5" height="6.7"/>
		<polygon fill="none" stroke="#88CCEE" stroke-width="0.1027" stroke-miterlimit="10" points="131.6,113.6 53.2,113.6 56.8,107.9 
			128.1,107.9 		"/>
		<line fill="none" stroke="#88CCEE" stroke-width="0.1027" stroke-miterlimit="10" x1="63" y1="107.5" x2="67.9" y2="94.6"/>
		<line fill="none" stroke="#88CCEE" stroke-width="0.1027" stroke-miterlimit="10" x1="124" y1="107.5" x2="117.8" y2="82.4"/>
		<polygon fill="none" stroke="#88CCEE" stroke-width="0.1027" stroke-miterlimit="10" points="224.2,114.4 145.9,114.4 
			149.5,108.4 220.7,108.4 		"/>
		<line fill="none" stroke="#88CCEE" stroke-width="0.1027" stroke-miterlimit="10" x1="155.5" y1="107.9" x2="164.5" y2="71.7"/>
		<line fill="none" stroke="#88CCEE" stroke-width="0.1027" stroke-miterlimit="10" x1="216.7" y1="107.9" x2="207.9" y2="61"/>
		<g>
			
				<line fill="none" stroke="#88CCEE" stroke-width="7.917207e-02" stroke-miterlimit="10" x1="112.3" y1="394.1" x2="112.3" y2="407.1"/>
			<path fill="none" stroke="#88CCEE" stroke-width="7.917207e-02" stroke-miterlimit="10" d="M117.8,411.7c0,2.9-11.2,2.9-11.2,0
				s2.4-5.4,5.4-5.4C115.5,406.2,117.8,408.7,117.8,411.7z"/>
		</g>
		<g>
			
				<line fill="none" stroke="#88CCEE" stroke-width="7.917207e-02" stroke-miterlimit="10" x1="179.3" y1="393.5" x2="179.3" y2="406.8"/>
			<path fill="none" stroke="#88CCEE" stroke-width="7.917207e-02" stroke-miterlimit="10" d="M185,411.4c0,2.9-11.2,2.9-11.2,0
				s2.4-5.4,5.4-5.4C182.6,405.6,185,408.2,185,411.4z"/>
		</g>
		<g opacity="0.4">
			<g>
				<path fill="none" stroke="#88CCEE" stroke-width="1.2324" stroke-miterlimit="10" d="M299.6,187.2c-9.7,0-9.7-4.6-19.5-4.6
					c-9.7,0-9.7,4.6-19.5,4.6c-9.7,0-9.7-4.6-19.5-4.6c-9.9,0-9.9,4.6-19.5,4.6c-1.2,0-2.4,0-3.5-0.2"/>
				<g>
					<path fill="#88CCEE" d="M202,182.8c8.5-0.7,18.7-3.4,26-6.9l-7.9,11.4l1.2,13.8C216.8,194.4,208.9,187.2,202,182.8z"/>
				</g>
			</g>
		</g>
		
			<rect x="259.4" y="524.9" fill="#88CCEE" stroke="#231F20" stroke-width="0.2054" stroke-miterlimit="10" width="6.7" height="55.5"/>
		
			<rect x="257.9" y="265" fill="#88CCEE" stroke="#231F20" stroke-width="0.2054" stroke-miterlimit="10" width="6.7" height="31.4"/>
		<g opacity="0.4">
			<g>
				<path fill="none" stroke="#88CCEE" stroke-width="1.2324" stroke-miterlimit="10" d="M298.1,320.5c0,0-10.2,0-18.7,0
					c-8.7,0-5.3-8.8-20.5-8.8c-15.2,0-130.2,0-130.2,0s-39.3,2.4-39.3-13.4v-30.1c0,0-0.2-13.2,23.8-13.8c0,0,139.5,0,146.2,0
					c6.7,0,10.5,6.4,17.2,6.4c3.5,0,13.2,0,22.1,0"/>
				<g>
					<path fill="#88CCEE" d="M314.9,260.7c-7.9,2.9-17.5,7.9-23.4,12.9l4.8-12.9l-4.8-12.9C297.6,252.9,307.3,258,314.9,260.7z"/>
				</g>
			</g>
		</g>
		<ellipse stroke="#88CCEE" stroke-width="9.934057e-02" stroke-miterlimit="10" cx="80.1" cy="224" rx="10.2" ry="2.2"/>
		<ellipse stroke="#88CCEE" stroke-width="9.934057e-02" stroke-miterlimit="10" cx="143.1" cy="224" rx="10.2" ry="2.2"/>
		<ellipse stroke="#88CCEE" stroke-width="9.934057e-02" stroke-miterlimit="10" cx="206.4" cy="224" rx="10.2" ry="2.2"/>
		<g opacity="0.57">
			<g>
				<line fill="none" stroke="#88CCEE" stroke-width="0.2054" stroke-miterlimit="10" x1="80.1" y1="224" x2="80.1" y2="215.4"/>
				<g>
					<path fill="#88CCEE" d="M80.1,208.5c1.2,3.4,3.4,7.2,5.3,9.7l-5.3-1.9l-5.3,1.9C76.8,215.6,78.8,211.7,80.1,208.5z"/>
				</g>
			</g>
		</g>
		<g opacity="0.57">
			<g>
				
					<line fill="none" stroke="#88CCEE" stroke-width="0.2054" stroke-miterlimit="10" x1="143.1" y1="222.4" x2="143.1" y2="213.7"/>
				<g>
					<path fill="#88CCEE" d="M143.1,206.7c1.2,3.4,3.4,7.2,5.3,9.7l-5.3-1.9l-5.3,1.9C139.8,214.2,142.1,210.1,143.1,206.7z"/>
				</g>
			</g>
		</g>
		<g opacity="0.57">
			<g>
				
					<line fill="none" stroke="#88CCEE" stroke-width="0.2054" stroke-miterlimit="10" x1="206.4" y1="226.6" x2="206.4" y2="217.8"/>
				<g>
					<path fill="#88CCEE" d="M206.4,211c1.2,3.4,3.4,7.2,5.3,9.7l-5.3-1.9l-5.4,1.9C203.2,218.1,205.2,214.2,206.4,211z"/>
				</g>
			</g>
		</g>
		
			<rect x="34.8" y="374.2" fill="none" stroke="#88CCEE" stroke-width="0.1634" stroke-miterlimit="10" width="224.1" height="15.8"/>
		<ellipse stroke="#88CCEE" stroke-width="9.934057e-02" stroke-miterlimit="10" cx="81.1" cy="376.4" rx="10.2" ry="2.2"/>
		<ellipse stroke="#88CCEE" stroke-width="9.934057e-02" stroke-miterlimit="10" cx="144.2" cy="376.4" rx="10.2" ry="2.2"/>
		<ellipse stroke="#88CCEE" stroke-width="9.934057e-02" stroke-miterlimit="10" cx="207.4" cy="376.4" rx="10.2" ry="2.2"/>
		<g opacity="0.57">
			<g>
				<line fill="none" stroke="#88CCEE" stroke-width="0.2054" stroke-miterlimit="10" x1="81.1" y1="376.4" x2="81.1" y2="367.8"/>
				<g>
					<path fill="#88CCEE" d="M81.1,360.8c1.2,3.4,3.4,7.2,5.3,9.7l-5.3-1.9l-5.3,1.9C77.8,368.2,79.9,364,81.1,360.8z"/>
				</g>
			</g>
		</g>
		<g opacity="0.57">
			<g>
				<line fill="none" stroke="#88CCEE" stroke-width="0.2054" stroke-miterlimit="10" x1="144.2" y1="375" x2="144.2" y2="366"/>
				<g>
					<path fill="#88CCEE" d="M144.2,359.2c1.2,3.4,3.4,7.2,5.3,9.7l-5.3-1.9l-5.3,1.9C140.9,366.7,143,362.5,144.2,359.2z"/>
				</g>
			</g>
		</g>
		<g opacity="0.57">
			<g>
				<line fill="none" stroke="#88CCEE" stroke-width="0.2054" stroke-miterlimit="10" x1="207.4" y1="379" x2="207.4" y2="370.5"/>
				<g>
					<path fill="#88CCEE" d="M207.4,363.5c1.2,3.4,3.4,7.2,5.3,9.7l-5.3-1.9l-5.3,1.9C203.9,370.6,206.2,366.7,207.4,363.5z"/>
				</g>
			</g>
		</g>
		
			<rect x="44.9" y="273.8" fill="none" stroke="#88CCEE" stroke-width="0.1702" stroke-miterlimit="10" width="12.9" height="19.2"/>
		<path fill="none" stroke="#88CCEE" stroke-width="0.1702" stroke-miterlimit="10" d="M51.3,276.5c-2.9,0-5.1,2.2-5.1,5.1h9.9
			C56.5,278.6,54.2,276.5,51.3,276.5z"/>
		<line fill="none" stroke="#88CCEE" stroke-width="0.1702" stroke-miterlimit="10" x1="51" y1="283.4" x2="51.3" y2="278.3"/>
		
			<rect x="259.4" y="432.5" fill="#88CCEE" stroke="#231F20" stroke-width="0.2054" stroke-miterlimit="10" width="6.7" height="53.2"/>
		
			<rect x="261.1" y="393.5" fill="#88CCEE" stroke="#231F20" stroke-width="0.2054" stroke-miterlimit="10" width="2.9" height="38.7"/>
		
			<rect x="259.4" y="355.7" fill="#88CCEE" stroke="#231F20" stroke-width="0.2054" stroke-miterlimit="10" width="6.7" height="37.5"/>
		
			<rect x="261.1" y="485.6" fill="#88CCEE" stroke="#231F20" stroke-width="0.2054" stroke-miterlimit="10" width="2.9" height="38.7"/>
		<polygon fill="#88CCEE" stroke="#231F20" stroke-width="0.2054" stroke-miterlimit="10" points="258.9,555.6 33.7,555.6 
			33.7,543.7 259.4,544 		"/>
		<path stroke="#88CCEE" stroke-width="6.832194e-02" stroke-miterlimit="10" d="M62.5,498.2H35.9c0,4.1,4.2,7.2,10.2,8.5L44.4,541
			h9.9l-2.9-34.3C57.5,506,62.5,502.4,62.5,498.2z"/>
		
			<rect x="37.2" y="496" fill="none" stroke="#88CCEE" stroke-width="8.432148e-02" stroke-miterlimit="10" width="1.7" height="1.9"/>
		
			<rect x="37.9" y="494.3" fill="none" stroke="#88CCEE" stroke-width="8.432148e-02" stroke-miterlimit="10" width="0.5" height="1.9"/>
		<path fill="none" stroke="#F3743F" stroke-width="8.432148e-02" stroke-miterlimit="10" d="M108.2,528.9v17.5h-71L37,500.6
			l2.4-3.4c0,0-0.2-4.6,0-4.8c0.7-1.2,5.3-2.9,6.2-2.2c0.5,0.2,0.5,1.2,0.5,1.2"/>
		<g>
			<path fill="none" stroke="#89CCED" stroke-width="4.216015e-02" stroke-miterlimit="10" d="M39.9,498.2c-0.2,0-0.7-0.2-0.7-0.7
				c-0.2-4.8,0-5.1,0-5.3c0.7-1.6,5.8-2.9,7.1-2.4c1,0.5,1,1.7,1,1.9c0,0.5-0.2,0.7-0.7,0.7l0,0c-0.5,0-0.7-0.2-0.7-0.7
				c0-0.2,0-0.5-0.2-0.7c-1,0-4.6,1.2-5.1,1.9c0,0.5,0,2.9,0,4.6C40.6,497.8,40.3,498.2,39.9,498.2L39.9,498.2z"/>
		</g>
		<ellipse fill="#88CCEE" cx="37.1" cy="493.8" rx="1.2" ry="0.2"/>
		<ellipse fill="#88CCEE" cx="39.2" cy="493.8" rx="1.2" ry="0.2"/>
		
			<rect x="259.9" y="297.5" fill="#88CCEE" stroke="#231F20" stroke-width="0.2054" stroke-miterlimit="10" width="2.9" height="59.4"/>
		
			<rect x="259.9" y="239.9" fill="#88CCEE" stroke="#231F20" stroke-width="0.2054" stroke-miterlimit="10" width="2.9" height="26"/>
		<g>
			<line fill="none" stroke="#88CCEE" stroke-width="0.1027" stroke-miterlimit="10" x1="51.2" y1="273.8" x2="51.2" y2="265"/>
			
				<rect x="45.5" y="251.9" fill="none" stroke="#88CCEE" stroke-width="0.1027" stroke-miterlimit="10" width="11.7" height="13.4"/>
			
				<text transform="matrix(1 0 0 1 48.289 263.3187)" opacity="0.57" fill="#88CCEE" enable-background="new    " font-family="'PTSans-Regular'" font-size="11.4026">T</text>
		</g>
		<path stroke="#88CCEE" stroke-width="7.194861e-02" stroke-miterlimit="10" d="M143.7,541h-36.2c-2.9,0-4.8-2.2-4.8-4.8v-94.4
			c0-2.9,2.2-4.8,4.8-4.8h36c2.9,0,4.8,2.2,4.8,4.8v94.4C148.5,538.5,146.1,541,143.7,541z"/>
	</g>
</g>
<g id="hvac">
	<path id="d2-outline" fill="none" stroke="#DDCC77" stroke-miterlimit="10" stroke-dasharray="2.8964" d="M309.4,594.9h-294
		c-2.4,0-4.4-2-4.4-4.4v-188c0-2.4,2-4.4,4.4-4.4h294c2.4,0,4.4,2,4.4,4.4v188C313.8,592.9,311.8,594.9,309.4,594.9z"/>
	<path id="d1-outline" fill="none" stroke="#DDCC77" stroke-miterlimit="10" stroke-dasharray="3.0591" d="M309.2,388.3H15.7
		c-2.5,0-4.6-2.1-4.6-4.6V210.5c0-2.5,2.1-4.6,4.6-4.6h293.5c2.5,0,4.6,2.1,4.6,4.6v173.1C313.8,386.2,311.7,388.3,309.2,388.3z"/>
	<path id="cp-outline" fill="none" stroke="#44AA99" stroke-miterlimit="10" stroke-dasharray="3" d="M308.8,193.8H16
		c-2.7,0-4.9-2.2-4.9-4.9V10.7c0-2.7,2.2-4.9,4.9-4.9h292.8c2.7,0,4.9,2.2,4.9,4.9v178.2C313.8,191.6,311.6,193.8,308.8,193.8z"/>
	<g id="pipes">
		<g>
			<polygon fill="#930318" points="63.8,106.2 60.7,106.2 60.7,183.8 60.8,245.2 161,245.2 161,281.8 164,281.8 164,242.2 
				63.8,242.2 			"/>
			<polygon fill="#1B39B2" points="192.4,152.6 195.4,152.6 195.4,235.4 181.3,235.4 181.3,282 178.3,282 178.3,232.4 192.4,232.4 
							"/>
			<polygon fill="#930318" points="112.8,105.2 110.3,105.2 110.8,183.8 110.8,235.2 168,235.2 168,281.8 171,281.8 171,232.2 
				113.8,232.2 			"/>
			<polygon fill="#1B39B2" points="236.8,160.6 239.8,160.6 239.8,246.2 188.6,246.2 188.6,281.9 185.6,282 185.6,243.2 
				236.8,243.2 			"/>
		</g>
		<path fill="#1B39B2" d="M183.4,135.6H181V60.7v-1.2c0-0.8,0.5-1.4,1.2-1.4h20.5c0.6,0,1,0.5,1.2,1.1l0.5,0
			c0.1,0.9-0.4,1.7-1.2,1.7l-18.6,0c-0.6,0-1.2,0.6-1.2,1.4V135.6z"/>
		<path fill="#1B39B2" d="M265.4,130.5h2.4V62.6v-5.2c0-0.8-0.5-1.4-1.2-1.4h-19.5l-0.5,2.8l17.6,0c0.6,0,1.2,0.6,1.2,1.4V130.5z"/>
	</g>
	<polygon id="duct2" opacity="0.2" fill="#DDCC77" points="255.2,282.5 257.4,296 293.2,295.8 292.7,462.1 196.1,462 196.1,486.4 
		209.5,486.4 209.5,478.3 261,478.3 261,486.4 274.4,486.4 274.4,478.3 307.6,477.8 307.6,282.5 	"/>
	<polygon id="duct1" opacity="0.2" fill="#DDCC77" points="252,301.9 254.8,315.5 258.8,315.3 258.8,429.7 45.6,429.4 45.6,521.9 
		59,521.9 59,445.7 116.5,445.7 116.5,521.9 129.9,521.9 129.9,445.7 273.1,445.7 273.1,421.6 273.1,301.9 	"/>
	<polygon id="duct2-outline" fill="none" stroke="#DDCC77" stroke-miterlimit="10" points="255.2,282.5 257.4,296 293.2,295.8 
		292.7,462.1 196.1,462 196.1,486.4 209.5,486.4 209.5,478.3 261,478.3 261,486.4 274.4,486.4 274.4,478.3 307.6,477.8 307.6,282.5 
			"/>
	<polygon id="duct1-outline" fill="none" stroke="#DDCC77" stroke-miterlimit="10" points="252,301.9 254.8,315.5 258.8,315.3 
		258.8,429.7 45.6,429.4 45.6,521.9 59,521.9 59,445.7 116.5,445.7 116.5,521.9 129.9,521.9 129.9,445.7 273.1,445.7 273.1,421.6 
		273.1,301.9 	"/>
	
		<line id="ductconnectionline2" fill="none" stroke="#DDCC77" stroke-miterlimit="10" x1="253.1" y1="277.1" x2="258.7" y2="299.2"/>
	<line id="ductconnectionline1" fill="none" stroke="#DDCC77" stroke-miterlimit="10" x1="251" y1="298.7" x2="255.9" y2="320.8"/>
	<g id="terminal2">
		<rect x="251.5" y="486.3" stroke="#DDCC77" stroke-miterlimit="10" width="31.9" height="49.2"/>
		<line fill="none" stroke="#DDCC77" stroke-linecap="round" stroke-miterlimit="10" x1="256.9" y1="513.2" x2="278" y2="492.1"/>
		<line fill="none" stroke="#DDCC77" stroke-miterlimit="10" x1="251.5" y1="518.7" x2="283.4" y2="518.7"/>
		<path fill="#930318" d="M282.6,528.9v3c-2.4,0-3.5-2.7-4.3-4.9c-0.5-1.2-1.2-3.1-1.7-3.1c-0.6,0-1.3,1.8-1.7,3.1
			c-0.8,2.2-1.9,4.9-4.3,4.9c-2.4,0-3.5-2.7-4.3-4.9c-0.5-1.2-1.2-3.1-1.7-3.1c-0.6,0-1.3,1.8-1.7,3.1c-0.8,2.2-1.9,4.9-4.3,4.9
			c-2.4,0-3.5-2.7-4.3-4.9c-0.5-1.2-1.2-3.1-1.7-3.1v-3c2.4,0,3.5,2.7,4.3,4.9c0.5,1.2,1.2,3.1,1.7,3.1c0.6,0,1.3-1.8,1.7-3.1
			c0.8-2.2,1.9-4.9,4.3-4.9c2.4,0,3.5,2.7,4.3,4.9c0.5,1.2,1.2,3.1,1.7,3.1c0.6,0,1.3-1.8,1.7-3.1c0.8-2.2,1.9-4.9,4.3-4.9
			s3.5,2.7,4.3,4.9C281.3,527.1,282,528.9,282.6,528.9z"/>
	</g>
	<g id="terminal1">
		<rect x="188" y="486.3" stroke="#DDCC77" stroke-miterlimit="10" width="31.9" height="49.2"/>
		<line fill="none" stroke="#DDCC77" stroke-linecap="round" stroke-miterlimit="10" x1="193.4" y1="513.2" x2="214.4" y2="492.1"/>
		<line fill="none" stroke="#DDCC77" stroke-miterlimit="10" x1="188" y1="518.7" x2="219.8" y2="518.7"/>
		<path fill="#930318" d="M219.1,528.9v3c-2.4,0-3.5-2.7-4.3-4.9c-0.5-1.2-1.2-3.1-1.7-3.1c-0.6,0-1.3,1.8-1.7,3.1
			c-0.8,2.2-1.9,4.9-4.3,4.9c-2.4,0-3.5-2.7-4.3-4.9c-0.5-1.2-1.2-3.1-1.7-3.1c-0.6,0-1.3,1.8-1.7,3.1c-0.8,2.2-1.9,4.9-4.3,4.9
			c-2.4,0-3.5-2.7-4.3-4.9c-0.5-1.2-1.2-3.1-1.7-3.1v-3c2.4,0,3.5,2.7,4.3,4.9c0.5,1.2,1.2,3.1,1.7,3.1c0.6,0,1.3-1.8,1.7-3.1
			c0.8-2.2,1.9-4.9,4.3-4.9c2.4,0,3.5,2.7,4.3,4.9c0.5,1.2,1.2,3.1,1.7,3.1c0.6,0,1.3-1.8,1.7-3.1c0.8-2.2,1.9-4.9,4.3-4.9
			c2.4,0,3.5,2.7,4.3,4.9C217.8,527.1,218.5,528.9,219.1,528.9z"/>
	</g>
	<g id="vav">
		<rect x="193.8" y="419.3" stroke="#DDCC77" stroke-width="0.9349" stroke-miterlimit="10" width="56.6" height="32.7"/>
		
			<line fill="none" stroke="#930318" stroke-width="3" stroke-linecap="round" stroke-miterlimit="10" x1="238.7" y1="423" x2="226.1" y2="423"/>
		
			<line fill="none" stroke="#930318" stroke-width="3" stroke-linecap="round" stroke-miterlimit="10" x1="238.7" y1="428.1" x2="226.1" y2="428.1"/>
		
			<line fill="none" stroke="#930318" stroke-width="3" stroke-linecap="round" stroke-miterlimit="10" x1="238.7" y1="433.2" x2="226.1" y2="433.2"/>
		
			<line fill="none" stroke="#930318" stroke-width="3" stroke-linecap="round" stroke-miterlimit="10" x1="238.7" y1="438.3" x2="226.1" y2="438.3"/>
		
			<line fill="none" stroke="#930318" stroke-width="3" stroke-linecap="round" stroke-miterlimit="10" x1="238.7" y1="443.4" x2="226.1" y2="443.4"/>
		
			<line fill="none" stroke="#930318" stroke-width="3" stroke-linecap="round" stroke-miterlimit="10" x1="238.7" y1="448.5" x2="226.1" y2="448.5"/>
		<line fill="none" stroke="#DDCC77" stroke-linecap="round" stroke-miterlimit="10" x1="222.9" y1="419.3" x2="222.9" y2="451.9"/>
		<line fill="none" stroke="#DDCC77" stroke-linecap="round" stroke-miterlimit="10" x1="242" y1="419.3" x2="242" y2="451.9"/>
	</g>
	<g id="diffuser2">
		<polygon stroke="#DDCC77" stroke-miterlimit="10" points="104.7,534.7 143.6,534.7 130,521.8 116.7,521.8 		"/>
		<polygon stroke="#DDCC77" stroke-miterlimit="10" points="131.6,535.2 114.6,535.2 116.6,522.3 129.6,522.3 		"/>
	</g>
	<g id="diffuser1">
		<polygon stroke="#DDCC77" stroke-miterlimit="10" points="33.7,534.9 72.6,534.9 59,522 45.7,522 		"/>
		<polygon stroke="#DDCC77" stroke-miterlimit="10" points="60.6,535.4 43.6,535.4 45.6,522.5 58.6,522.5 		"/>
	</g>
	<path id="zone1" stroke="#DDCC77" stroke-miterlimit="10" d="M79.9,585.5H24.3c-2,0-3.6-1.6-3.6-3.6V539c0-2,1.6-3.6,3.6-3.6h55.6
		c2,0,3.6,1.6,3.6,3.6v42.9C83.4,583.9,81.8,585.5,79.9,585.5z"/>
	<path id="zone2" stroke="#DDCC77" stroke-miterlimit="10" d="M149.6,585.5H94c-2,0-3.6-1.6-3.6-3.6V539c0-2,1.6-3.6,3.6-3.6h55.6
		c2,0,3.6,1.6,3.6,3.6v42.9C153.2,583.9,151.6,585.5,149.6,585.5z"/>
	<path id="zone3" stroke="#DDCC77" stroke-miterlimit="10" d="M229.9,585.5h-55.6c-2,0-3.6-1.6-3.6-3.6V539c0-2,1.6-3.6,3.6-3.6
		h55.6c2,0,3.6,1.6,3.6,3.6v42.9C233.4,583.9,231.8,585.5,229.9,585.5z"/>
	<path id="zone4" stroke="#DDCC77" stroke-miterlimit="10" d="M297.8,585.5h-55.6c-2,0-3.6-1.6-3.6-3.6V539c0-2,1.6-3.6,3.6-3.6
		h55.6c2,0,3.6,1.6,3.6,3.6v42.9C301.3,583.9,299.7,585.5,297.8,585.5z"/>
	<g id="zone1-temp">
		<line fill="none" stroke="#DDCC77" stroke-width="0.75" stroke-miterlimit="10" x1="32.5" y1="585.5" x2="32.5" y2="577.6"/>
		<rect x="27.5" y="566.1" fill="none" stroke="#DDCC77" stroke-width="0.75" stroke-miterlimit="10" width="10.2" height="11.8"/>
		<text transform="matrix(1 0 0 1 29.8546 576.1619)" fill="#DDCC77" font-family="'PTSans-Regular'" font-size="10">T</text>
	</g>
	<g id="zone2-temp">
		<line fill="none" stroke="#DDCC77" stroke-width="0.75" stroke-miterlimit="10" x1="103.6" y1="585.9" x2="103.6" y2="578"/>
		<rect x="98.7" y="566.5" fill="none" stroke="#DDCC77" stroke-width="0.75" stroke-miterlimit="10" width="10.2" height="11.8"/>
		<text transform="matrix(1 0 0 1 101.0255 576.5068)" fill="#DDCC77" font-family="'PTSans-Regular'" font-size="10">T</text>
	</g>
	<g id="zone3-temp">
		<line fill="none" stroke="#DDCC77" stroke-width="0.75" stroke-miterlimit="10" x1="183.5" y1="586.2" x2="183.5" y2="578.3"/>
		<rect x="178.6" y="566.8" fill="none" stroke="#DDCC77" stroke-width="0.75" stroke-miterlimit="10" width="10.2" height="11.8"/>
		<text transform="matrix(1 0 0 1 180.9244 576.8519)" fill="#DDCC77" font-family="'PTSans-Regular'" font-size="10">T</text>
	</g>
	<g id="zone4-temp">
		<line fill="none" stroke="#DDCC77" stroke-width="0.75" stroke-miterlimit="10" x1="251.9" y1="585.9" x2="251.9" y2="578"/>
		<rect x="246.9" y="566.5" fill="none" stroke="#DDCC77" stroke-width="0.75" stroke-miterlimit="10" width="10.2" height="11.8"/>
		<text transform="matrix(1 0 0 1 249.2405 576.5068)" fill="#DDCC77" font-family="'PTSans-Regular'" font-size="10">T</text>
	</g>
	<g id="ahu">
		<g id="ahu-back">
			<rect x="190.7" y="330.3" stroke="#DDCC77" stroke-miterlimit="10" width="42.5" height="33.6"/>
			<rect x="126.9" y="281.9" stroke="#DDCC77" stroke-miterlimit="10" width="9.5" height="33.6"/>
			<rect x="136.6" y="281.9" stroke="#DDCC77" stroke-miterlimit="10" width="23.3" height="33.6"/>
			<rect x="233.2" y="330.3" stroke="#DDCC77" stroke-miterlimit="10" width="10.4" height="33.6"/>
			<rect x="166.4" y="330.3" stroke="#DDCC77" stroke-miterlimit="10" width="14.1" height="33.6"/>
			<rect x="180.6" y="330.4" stroke="#DDCC77" stroke-miterlimit="10" width="10.1" height="33.6"/>
			<rect x="192.4" y="281.9" stroke="#DDCC77" stroke-width="0.5133" stroke-miterlimit="10" width="40.3" height="33.6"/>
			<polygon stroke="#DDCC77" stroke-miterlimit="10" points="232.7,281.9 240.6,281.9 246.4,315.5 232.7,315.5 			"/>
			<rect x="176.1" y="281.9" stroke="#DDCC77" stroke-miterlimit="10" width="16.3" height="33.6"/>
			<rect x="159.9" y="281.9" stroke="#DDCC77" stroke-miterlimit="10" width="16.3" height="33.6"/>
			<polygon stroke="#DDCC77" stroke-miterlimit="10" points="52.9,330.4 52.9,363.9 92.6,363.9 92.6,363.9 119.3,363.9 126.8,363.9 
				166.4,363.9 166.4,330.3 126.8,330.3 126.8,281.9 92.6,281.9 88.4,281.9 52.9,281.9 52.9,315.5 88.4,315.5 88.4,330.4 			"/>
		</g>
		<g>
			<line fill="none" stroke="#DDCC77" stroke-miterlimit="10" x1="126.4" y1="322.9" x2="88.4" y2="322.9"/>
			<line fill="none" stroke="#DDCC77" stroke-miterlimit="10" x1="123.7" y1="319.5" x2="116.8" y2="326.4"/>
			<line fill="none" stroke="#DDCC77" stroke-miterlimit="10" x1="115.7" y1="319.5" x2="108.8" y2="326.4"/>
			<line fill="none" stroke="#DDCC77" stroke-miterlimit="10" x1="107.8" y1="319.5" x2="100.9" y2="326.4"/>
			<line fill="none" stroke="#DDCC77" stroke-miterlimit="10" x1="99.8" y1="319.5" x2="92.9" y2="326.4"/>
		</g>
		<polyline fill="none" stroke="#DDCC77" stroke-miterlimit="10" points="127.3,315.4 136.1,310.4 126.9,305.1 136.2,299.8 
			126.7,294.4 136.2,287.8 126.4,282.1 		"/>
		<g>
			<line fill="none" stroke="#DDCC77" stroke-miterlimit="10" x1="84.1" y1="363.6" x2="84.1" y2="331.1"/>
			<line fill="none" stroke="#DDCC77" stroke-miterlimit="10" x1="87.6" y1="362" x2="80.7" y2="355.1"/>
			<line fill="none" stroke="#DDCC77" stroke-miterlimit="10" x1="87.6" y1="354" x2="80.7" y2="347.1"/>
			<line fill="none" stroke="#DDCC77" stroke-miterlimit="10" x1="87.6" y1="346" x2="80.7" y2="339.1"/>
			<line fill="none" stroke="#DDCC77" stroke-miterlimit="10" x1="87.6" y1="338.1" x2="80.7" y2="331.1"/>
		</g>
		<g>
			<line fill="none" stroke="#DDCC77" stroke-miterlimit="10" x1="84.1" y1="314.9" x2="84.1" y2="282.5"/>
			<line fill="none" stroke="#DDCC77" stroke-miterlimit="10" x1="87.6" y1="313.3" x2="80.7" y2="306.4"/>
			<line fill="none" stroke="#DDCC77" stroke-miterlimit="10" x1="87.6" y1="305.3" x2="80.7" y2="298.4"/>
			<line fill="none" stroke="#DDCC77" stroke-miterlimit="10" x1="87.6" y1="297.4" x2="80.7" y2="290.4"/>
			<line fill="none" stroke="#DDCC77" stroke-miterlimit="10" x1="87.6" y1="289.4" x2="80.7" y2="282.5"/>
		</g>
		<g id="fan2">
			<ellipse fill="#010101" stroke="#DDCC77" stroke-miterlimit="10" cx="206.9" cy="354.7" rx="2.7" ry="7.7"/>
			<ellipse fill="#010101" stroke="#DDCC77" stroke-miterlimit="10" cx="206.3" cy="339.5" rx="2.7" ry="7.7"/>
			<path fill="#010101" stroke="#DDCC77" stroke-miterlimit="10" d="M205.4,346.3h8.8c0.4,0,0.7,0.4,0.7,0.7l0,0
				c0,0.4-0.4,0.7-0.7,0.7h-8.8c-0.4,0-0.7-0.4-0.7-0.7l0,0C204.6,346.7,204.9,346.3,205.4,346.3z"/>
		</g>
		<g id="fan1">
			<ellipse fill="#010101" stroke="#DDCC77" stroke-miterlimit="10" cx="212.2" cy="290.8" rx="2.7" ry="7.7"/>
			<ellipse fill="#010101" stroke="#DDCC77" stroke-miterlimit="10" cx="212.8" cy="306" rx="2.7" ry="7.7"/>
			<path fill="#010101" stroke="#DDCC77" stroke-miterlimit="10" d="M213.7,299.2h-8.8c-0.4,0-0.7-0.4-0.7-0.7l0,0
				c0-0.4,0.4-0.7,0.7-0.7h8.8c0.4,0,0.7,0.4,0.7,0.7l0,0C214.5,298.9,214.2,299.2,213.7,299.2z"/>
		</g>
		<line fill="none" stroke="#DDCC77" stroke-miterlimit="10" x1="239.3" y1="274.5" x2="247.1" y2="319.7"/>
		<path id="heat-coil1_1_" fill="#930318" d="M171.6,363.3h-3c0-2.6,2.7-3.7,4.9-4.6c1.2-0.5,3.1-1.2,3.1-1.9c0-0.6-1.8-1.4-3.1-1.9
			c-2.2-0.9-4.9-2-4.9-4.6c0-2.6,2.7-3.7,4.9-4.6c1.2-0.5,3.1-1.2,3.1-1.9c0-0.6-1.8-1.4-3.1-1.9c-2.2-0.9-4.9-2-4.9-4.6
			c0-2.6,2.7-3.7,4.9-4.6c1.2-0.5,3.1-1.2,3.1-1.9h3c0,2.6-2.7,3.7-4.9,4.6c-1.2,0.5-3.1,1.2-3.1,1.9c0,0.6,1.8,1.4,3.1,1.9
			c2.2,0.9,4.9,2,4.9,4.6c0,2.6-2.7,3.7-4.9,4.6c-1.2,0.5-3.1,1.2-3.1,1.9c0,0.6,1.8,1.4,3.1,1.9c2.2,0.9,4.9,2,4.9,4.6
			s-2.7,3.7-4.9,4.6C173.5,361.9,171.6,362.7,171.6,363.3z"/>
		<path id="heat-coil1" fill="#930318" d="M166.1,315h-3c0-2.6,2.7-3.7,4.9-4.6c1.2-0.5,3.1-1.2,3.1-1.9c0-0.6-1.8-1.4-3.1-1.9
			c-2.2-0.9-4.9-2-4.9-4.6c0-2.6,2.7-3.7,4.9-4.6c1.2-0.5,3.1-1.2,3.1-1.9c0-0.6-1.8-1.4-3.1-1.9c-2.2-0.9-4.9-2-4.9-4.6
			c0-2.6,2.7-3.7,4.9-4.6c1.2-0.5,3.1-1.2,3.1-1.9h3c0,2.6-2.7,3.7-4.9,4.6c-1.2,0.5-3.1,1.2-3.1,1.9c0,0.6,1.8,1.4,3.1,1.9
			c2.2,0.9,4.9,2,4.9,4.6c0,2.6-2.7,3.7-4.9,4.6c-1.2,0.5-3.1,1.2-3.1,1.9c0,0.6,1.8,1.4,3.1,1.9c2.2,0.9,4.9,2,4.9,4.6
			c0,2.6-2.7,3.7-4.9,4.6C168,313.6,166.1,314.3,166.1,315z"/>
		<path id="cool-coil" fill="#1B39B2" d="M181.7,314.8h-3c0-2.6,2.7-3.7,4.9-4.6c1.2-0.5,3.1-1.2,3.1-1.9c0-0.6-1.8-1.4-3.1-1.9
			c-2.2-0.9-4.9-2-4.9-4.6c0-2.6,2.7-3.7,4.9-4.6c1.2-0.5,3.1-1.2,3.1-1.9c0-0.6-1.8-1.4-3.1-1.9c-2.2-0.9-4.9-2-4.9-4.6
			c0-2.6,2.7-3.7,4.9-4.6c1.2-0.5,3.1-1.2,3.1-1.9h3c0,2.6-2.7,3.7-4.9,4.6c-1.2,0.5-3.1,1.2-3.1,1.9c0,0.6,1.8,1.4,3.1,1.9
			c2.2,0.9,4.9,2,4.9,4.6c0,2.6-2.7,3.7-4.9,4.6c-1.2,0.5-3.1,1.2-3.1,1.9c0,0.6,1.8,1.4,3.1,1.9c2.2,0.9,4.9,2,4.9,4.6
			s-2.7,3.7-4.9,4.6C183.5,313.5,181.7,314.2,181.7,314.8z"/>
	</g>
	<path id="d-pump2" stroke="#DDCC77" stroke-miterlimit="10" d="M252,230.8h-13.8c-0.6-0.1-1.2-0.2-1.8-0.2c-0.6,0-1.2,0.1-1.8,0.2
		h-0.1v0c-5.6,0.9-9.8,5.7-9.8,11.5c0,6.4,5.2,11.6,11.7,11.6c6.5,0,11.7-5.2,11.7-11.6c0-0.7-0.1-1.3-0.2-1.9h4.1V230.8z"/>
	<path id="d-pump1" stroke="#DDCC77" stroke-miterlimit="10" d="M76.4,213.8H62.6c-0.6-0.1-1.2-0.2-1.8-0.2s-1.2,0.1-1.8,0.2h-0.1v0
		c-5.6,0.9-9.8,5.7-9.8,11.5c0,6.4,5.2,11.6,11.7,11.6c6.5,0,11.7-5.2,11.7-11.6c0-0.7-0.1-1.3-0.2-1.9h4.1V213.8z"/>
	<path id="cp-pump" stroke="#44AA99" stroke-miterlimit="10" d="M197.9,76.2h-13.8c-0.6-0.1-1.2-0.2-1.8-0.2c-0.6,0-1.2,0.1-1.8,0.2
		h-0.1v0c-5.6,0.9-9.8,5.7-9.8,11.5c0,6.4,5.2,11.6,11.7,11.6c6.5,0,11.7-5.2,11.7-11.6c0-0.7-0.1-1.3-0.2-1.9h4.1V76.2z"/>
	<g id="cp-valve">
		<polygon stroke="#44AA99" stroke-miterlimit="10" points="67.9,152.2 61.7,162.9 55.6,152.2 		"/>
		<polygon stroke="#44AA99" stroke-miterlimit="10" points="55.6,173.6 61.7,163 67.9,173.6 		"/>
	</g>
	<g id="cp-valve-control">
		<g>
			<polygon stroke="#44AA99" stroke-miterlimit="10" points="117.4,152.2 111.3,162.8 105.2,152.2 			"/>
			<polygon stroke="#44AA99" stroke-miterlimit="10" points="105.2,173.6 111.3,162.9 117.4,173.6 			"/>
			<polygon stroke="#44AA99" stroke-miterlimit="10" points="100.7,156.7 111.3,162.8 100.7,169 			"/>
		</g>
		<line stroke="#44AA99" stroke-miterlimit="10" x1="111.3" y1="162.9" x2="123.7" y2="162.9"/>
		<rect x="123.7" y="153.6" stroke="#44AA99" stroke-miterlimit="10" width="13.7" height="18.5"/>
		
			<text transform="matrix(1 0 0 1 128.5597 167.3767)" stroke="#44AA99" stroke-miterlimit="10" font-family="'PTSans-Regular'" font-size="13.4164">I</text>
	</g>
	<g id="boiler-temp">
		<line fill="none" stroke="#44AA99" stroke-width="0.75" stroke-miterlimit="10" x1="99.8" y1="72.2" x2="99.8" y2="64.3"/>
		<rect x="94.8" y="52.8" stroke="#44AA99" stroke-miterlimit="10" width="10.2" height="11.8"/>
		<text transform="matrix(1 0 0 1 97.1737 62.873)" fill="#44AA99" font-family="'PTSans-Regular'" font-size="10">T</text>
	</g>
	<g id="ahu-temp">
		<line fill="none" stroke="#DDCC77" stroke-miterlimit="10" x1="68.1" y1="281.8" x2="68.1" y2="273.9"/>
		<rect x="63.2" y="262.4" stroke="#DDCC77" stroke-miterlimit="10" width="10.2" height="11.8"/>
		<text transform="matrix(1 0 0 1 65.4934 272.4767)" fill="#DDCC77" font-family="'PTSans-Regular'" font-size="10">T</text>
	</g>
	<g id="control">
		<rect x="207.4" y="262.7" stroke="#DDCC77" stroke-width="0.5353" stroke-miterlimit="10" width="10.2" height="11.7"/>
		<line fill="none" stroke="#DDCC77" stroke-width="0.5" stroke-miterlimit="10" x1="212.4" y1="282.5" x2="212.4" y2="275.1"/>
		<text transform="matrix(1 0 0 1 210.8811 272.4766)" fill="#DDCC77" font-family="'PTSans-Regular'" font-size="10">I</text>
	</g>
	<g id="d-valve">
		<g>
			<polygon stroke="#DDCC77" stroke-miterlimit="10" points="201.1,201.4 194.9,212.1 188.8,201.4 			"/>
			<polygon stroke="#DDCC77" stroke-miterlimit="10" points="188.8,222.8 194.9,212.2 201.1,222.8 			"/>
			<polygon stroke="#DDCC77" stroke-miterlimit="10" points="184.3,205.9 194.9,212.1 184.3,218.2 			"/>
		</g>
		<line stroke="#DDCC77" stroke-miterlimit="10" x1="194.9" y1="212.1" x2="207.3" y2="212.1"/>
		<rect x="207.3" y="202.8" stroke="#DDCC77" stroke-miterlimit="10" width="13.7" height="18.5"/>
		
			<text transform="matrix(1 0 0 1 212.2035 216.5975)" stroke="#DDCC77" stroke-miterlimit="10" font-family="'PTSans-Regular'" font-size="13.4164">I</text>
	</g>
	<g id="tower">
		<path stroke="#44AA99" stroke-width="0.8901" stroke-miterlimit="10" d="M246.7,66.9c-0.1,1.5-0.5,1.9-1,1.9h-40.9h-0.4l-2.6-13.7
			l-7.4-38.8c-0.1-0.6,0.4-1.2,1-1.2h59.3c0.6,0,1.1,0.6,1,0.2L246.7,66.9z"/>
		<line fill="none" stroke="#44AA99" stroke-width="1.1722" stroke-miterlimit="10" x1="197.8" y1="36.7" x2="252" y2="36.7"/>
		<g>
			<path fill="none" stroke="#44AA99" stroke-width="1.0488" stroke-linecap="round" stroke-miterlimit="10" d="M211.7,43.6l2.3-2
				c0.2-0.2,0.4-0.5,0.4-0.8v-3.6"/>
			
				<line fill="none" stroke="#44AA99" stroke-width="1.0488" stroke-linecap="round" stroke-miterlimit="10" x1="216.7" y1="43.6" x2="214.4" y2="41.3"/>
		</g>
		<g>
			<path fill="none" stroke="#44AA99" stroke-width="1.0488" stroke-linecap="round" stroke-miterlimit="10" d="M233,43.1l2.3-2
				c0.2-0.2,0.4-0.5,0.4-0.8v-3.6"/>
			
				<line fill="none" stroke="#44AA99" stroke-width="1.0488" stroke-linecap="round" stroke-miterlimit="10" x1="237.9" y1="43.1" x2="235.6" y2="40.8"/>
		</g>
		<path fill="none" stroke="#44AA99" stroke-width="0.8901" stroke-miterlimit="10" d="M226.9,49.6h-4c-0.6,0-1-0.5-1-1v-3.4
			c0-0.6,0.5-1,1-1h4c0.6,0,1,0.5,1,1v3.4C228,49.1,227.5,49.6,226.9,49.6z"/>
		
			<line fill="none" stroke="#44AA99" stroke-width="1.0488" stroke-linecap="round" stroke-miterlimit="10" x1="224.9" y1="49.9" x2="224.9" y2="67.7"/>
		<path fill="none" stroke="#44AA99" stroke-width="0.8901" stroke-miterlimit="10" d="M202.3,57.3c-0.2-0.8,0.7-1.5,1.5-1.2
			c3.5,1.7,11.7,4.1,22.3-1.1c0,0,11.8-5.6,22.2-1c0.4,0.2,0.7,0.7,0.6,0.2l-2.5,12.7c-0.1,1.5-0.5,1.8-1,1.8l-39.8,0.1
			c-0.5,0-0.9-0.3-1-0.8L202.3,57.3z"/>
		<g id="fan_2_">
			<ellipse stroke="#44AA99" stroke-miterlimit="10" cx="232.5" cy="24.5" rx="7.7" ry="2.7"/>
			<ellipse stroke="#44AA99" stroke-miterlimit="10" cx="217.3" cy="25.1" rx="7.7" ry="2.7"/>
			<path stroke="#44AA99" stroke-miterlimit="10" d="M224.1,26v-8.8c0-0.4,0.4-0.7,0.7-0.7l0,0c0.4,0,0.7,0.4,0.7,0.7V26
				c0,0.4-0.4,0.7-0.7,0.7l0,0C224.5,26.8,224.1,26.5,224.1,26z"/>
		</g>
	</g>
	<a xlink:href="/#/chiller/basics" ><path id="chiller" stroke="#44AA99" stroke-miterlimit="10" d="M287.9,149.5v-3.9h-5.5V137h-2.6v5.6c-1.6-2.5-4.4-4.5-7.9-5.7
		c-0.3-12.7-10.7-17.3-17.7-17.3h-28.3v-5.9h-39.5v21.8h39.5v-5.9h28.3c0.7,0,6.6,0.2,7.6,6.1h-61.9c-7.4,0-13.6,3.4-15.8,8.1v-8.3
		h-4.8v25.8h4.8v-6.7c2.2,4.7,8.4,8.1,15.8,8.1v11.3h10.3v-11.3h40.2v11.3h10.3v-11.3h4c6.7,0,12.4-2.8,15.1-6.9v6.9h2.6v-8.5h5.5
		v-3.9h-5.5v-0.9H287.9z"/></a>
	<path id="boiler" stroke="#44AA99" stroke-miterlimit="10" d="M126.3,85.3v4.1h-6.8c-0.8-9.6-7.9-17.2-16.5-17.2H38.2
		c-5.9,0-11.1,3.6-14.1,9H20V107h4.1c2.9,5.4,8.1,9,14.1,9v11.3h10.3V116h40.2v11.3H99V116h4c8.4,0,15.4-7.2,16.5-16.6h6.8v3.2h15.1
		V85.3H126.3z"/>
	<polygon id="ductoutline2" display="none" fill="none" stroke="#DDCC77" stroke-miterlimit="10" points="254.7,282.2 257.9,295.7 
		293.7,295.6 293.2,461.8 196.6,461.7 196.6,486.1 210,486.1 210,478 261.5,478 261.5,486.1 274.9,486.1 274.9,478 308.1,477.5 
		308.1,282.2 	"/>
</g>
</svg>
