<?xml version="1.0" encoding="utf-8"?>
<svg version="1.1"

	 id="svg" onload="init(evt)" xmlns:cc="http://creativecommons.org/ns#" xmlns:dc="http://purl.org/dc/elements/1.1/" xmlns:inkscape="http://www.inkscape.org/namespaces/inkscape" xmlns:svg="http://www.w3.org/2000/svg" xmlns:rdf="http://www.w3.org/1999/02/22-rdf-syntax-ns#" xmlns:sodipodi="http://sodipodi.sourceforge.net/DTD/sodipodi-0.dtd"
	 xmlns="http://www.w3.org/2000/svg" xmlns:xlink="http://www.w3.org/1999/xlink" xmlns:a="http://ns.adobe.com/AdobeSVGViewerExtensions/3.0/"
	 x="0px" y="0px" viewBox="720 315 413 792" enable-background="new 720 315 413 792" xml:space="preserve">
    
    <script type="text/ecmascript">
<![CDATA[
  function init(evt)
  {
    if ( window.svgDocument == null )
    {
      svgDocument = evt.target.ownerDocument;
    }
    tooltip = svgDocument.getElementById('tooltip');
  }
]]></script>
    
<g id="space_1_">
	<g id="space" opacity="0">
		
			<rect x="775.1" y="565" fill="#88CCEE" stroke="#231F20" stroke-width="0.2054" stroke-miterlimit="10" width="8" height="510.9"/>
		
			<rect x="776.6" y="497" fill="#88CCEE" stroke="#231F20" stroke-width="0.2054" stroke-miterlimit="10" width="3.8" height="68.5"/>
		
			<rect x="774.7" y="455.6" fill="#88CCEE" stroke="#231F20" stroke-width="0.2054" stroke-miterlimit="10" width="8.8" height="41"/>
		
			<rect x="733.6" y="405" transform="matrix(0.9699 -0.2436 0.2436 0.9699 -71.9058 239.0368)" fill="#88CCEE" stroke="#231F20" stroke-width="0.2054" stroke-miterlimit="10" width="394" height="10.5"/>
		<rect x="782.9" y="607.3" fill="none" stroke="#88CCEE" stroke-width="2" stroke-miterlimit="10" width="292.4" height="20.6"/>
		
			<rect x="1075.5" y="561.1" fill="#88CCEE" stroke="#231F20" stroke-width="0.2054" stroke-miterlimit="10" width="8.8" height="69.4"/>
		
			<rect x="1077.7" y="492.3" fill="#88CCEE" stroke="#231F20" stroke-width="0.2054" stroke-miterlimit="10" width="3.8" height="68.5"/>
		
			<rect x="1075.5" y="451.2" fill="#88CCEE" stroke="#231F20" stroke-width="0.2054" stroke-miterlimit="10" width="8.8" height="41"/>
		
			<rect x="1077.7" y="417.4" fill="#88CCEE" stroke="#231F20" stroke-width="0.2054" stroke-miterlimit="10" width="3.8" height="33.9"/>
		<polygon fill="#88CCEE" stroke="#231F20" stroke-width="0.2054" stroke-miterlimit="10" points="1083.9,417.9 1075.5,417.9 
			1075.5,379.5 1083.9,376.6 		"/>
		
			<rect x="782.6" y="1042.4" fill="#88CCEE" stroke="#231F20" stroke-width="0.2054" stroke-miterlimit="10" width="28.9" height="32.4"/>
		
			<rect x="770.7" y="1074.7" fill="#88CCEE" stroke="#231F20" stroke-width="0.2054" stroke-miterlimit="10" width="46.4" height="8.8"/>
		
			<rect x="1047.5" y="1042.4" fill="#88CCEE" stroke="#231F20" stroke-width="0.2054" stroke-miterlimit="10" width="28.9" height="32.9"/>
		
			<rect x="1042.4" y="1074.7" fill="#88CCEE" stroke="#231F20" stroke-width="0.2054" stroke-miterlimit="10" width="46.4" height="8.8"/>
		<polygon stroke="#88CCEE" stroke-width="2" stroke-miterlimit="10" points="910.2,465.7 808,465.7 812.7,458.4 905.7,458.4 		"/>
		<line fill="none" stroke="#88CCEE" stroke-width="2" stroke-miterlimit="10" x1="820.8" y1="457.8" x2="827.2" y2="441"/>
		<line fill="none" stroke="#88CCEE" stroke-width="2" stroke-miterlimit="10" x1="900.3" y1="457.8" x2="892.3" y2="425.1"/>
		<polygon stroke="#88CCEE" stroke-width="2" stroke-miterlimit="10" points="1031,466.9 929,466.9 933.7,459 1026.6,459 		"/>
		<line fill="none" stroke="#88CCEE" stroke-width="2" stroke-miterlimit="10" x1="941.5" y1="458.4" x2="953.2" y2="411.2"/>
		<line fill="none" stroke="#88CCEE" stroke-width="2" stroke-miterlimit="10" x1="1021.3" y1="458.4" x2="1009.8" y2="397.2"/>
		<g>
			
				<line fill="none" stroke="#88CCEE" stroke-width="7.917207e-02" stroke-miterlimit="10" x1="885.1" y1="831.6" x2="885.1" y2="848.6"/>
			<path fill="none" stroke="#88CCEE" stroke-width="7.917207e-02" stroke-miterlimit="10" d="M892.3,854.6c0,3.8-14.6,3.8-14.6,0
				c0-3.8,3.2-7.1,7.1-7.1C889.2,847.5,892.3,850.8,892.3,854.6z"/>
		</g>
		<g>
			
				<line fill="none" stroke="#88CCEE" stroke-width="7.917207e-02" stroke-miterlimit="10" x1="972.5" y1="830.9" x2="972.5" y2="848.2"/>
			<path fill="none" stroke="#88CCEE" stroke-width="7.917207e-02" stroke-miterlimit="10" d="M979.9,854.2c0,3.8-14.6,3.8-14.6,0
				c0-3.8,3.2-7.1,7.1-7.1C976.8,846.7,979.9,850.1,979.9,854.2z"/>
		</g>
		<g opacity="0.4">
			<g>
				<path fill="none" stroke="#88CCEE" stroke-width="2" stroke-miterlimit="10" d="M1129.5,561.8c-12.7,0-12.7-6-25.5-6
					c-12.7,0-12.7,6-25.5,6c-12.7,0-12.7-6-25.5-6c-13,0-13,6-25.5,6c-1.6,0-3.2,0-4.6-0.3"/>
				<g>
					<path fill="#88CCEE" d="M1002.1,556.1c11.1-0.9,24.3-4.4,33.9-9l-10.4,14.9l1.6,18C1021.4,571.3,1011.1,561.8,1002.1,556.1z"/>
				</g>
			</g>
		</g>
		
			<rect x="1077" y="1002.4" fill="#88CCEE" stroke="#231F20" stroke-width="0.2054" stroke-miterlimit="10" width="8.8" height="72.4"/>
		
			<rect x="1075.1" y="663.3" fill="#88CCEE" stroke="#231F20" stroke-width="0.2054" stroke-miterlimit="10" width="8.8" height="41"/>
		<g opacity="0.4">
			<g>
				<path fill="none" stroke="#88CCEE" stroke-width="3" stroke-miterlimit="10" d="M1127.4,735.7c0,0-13.3,0-24.3,0
					c-11.3,0-6.9-11.5-26.7-11.5c-19.8,0-169.9,0-169.9,0s-51.3,3.2-51.3-17.4v-39.3c0,0-0.3-17.2,31.1-18c0,0,182,0,190.7,0
					c8.8,0,13.7,8.3,22.5,8.3c4.6,0,17.2,0,28.8,0"/>
				<g>
					<path fill="#88CCEE" d="M1149.4,657.6c-10.4,3.7-22.8,10.4-30.5,16.8l6.3-16.8l-6.3-16.8
						C1126.9,647.5,1139.4,654.2,1149.4,657.6z"/>
				</g>
			</g>
		</g>
		<ellipse stroke="#88CCEE" stroke-width="9.934057e-02" stroke-miterlimit="10" cx="843.1" cy="609.8" rx="13.3" ry="2.9"/>
		<ellipse stroke="#88CCEE" stroke-width="9.934057e-02" stroke-miterlimit="10" cx="925.3" cy="609.8" rx="13.3" ry="2.9"/>
		<ellipse stroke="#88CCEE" stroke-width="9.934057e-02" stroke-miterlimit="10" cx="1007.9" cy="609.8" rx="13.3" ry="2.9"/>
		<g opacity="0.57">
			<g>
				<line fill="none" stroke="#88CCEE" stroke-width="2" stroke-miterlimit="10" x1="843.1" y1="609.8" x2="843.1" y2="598.6"/>
				<g>
					<path fill="#88CCEE" d="M843.1,589.6c1.6,4.4,4.4,9.4,6.9,12.7l-6.9-2.5l-6.9,2.5C838.8,598.9,841.4,593.7,843.1,589.6z"/>
				</g>
			</g>
		</g>
		<g opacity="0.57">
			<g>
				<line fill="none" stroke="#88CCEE" stroke-width="2" stroke-miterlimit="10" x1="925.3" y1="607.7" x2="925.3" y2="596.4"/>
				<g>
					<path fill="#88CCEE" d="M925.3,587.2c1.6,4.4,4.4,9.4,6.9,12.7l-6.9-2.5l-6.9,2.5C921,597,924,591.7,925.3,587.2z"/>
				</g>
			</g>
		</g>
		<g opacity="0.57">
			<g>
				<line fill="none" stroke="#88CCEE" stroke-width="2" stroke-miterlimit="10" x1="1007.9" y1="613.1" x2="1007.9" y2="601.8"/>
				<g>
					<path fill="#88CCEE" d="M1007.9,592.8c1.6,4.4,4.4,9.4,6.9,12.7l-6.9-2.5l-7.1,2.5C1003.7,602.1,1006.3,597,1007.9,592.8z"/>
				</g>
			</g>
		</g>
		<rect x="784" y="805.8" fill="none" stroke="#88CCEE" stroke-width="2" stroke-miterlimit="10" width="292.4" height="20.6"/>
		<ellipse stroke="#88CCEE" stroke-width="9.934057e-02" stroke-miterlimit="10" cx="844.5" cy="808.6" rx="13.3" ry="2.9"/>
		<ellipse stroke="#88CCEE" stroke-width="9.934057e-02" stroke-miterlimit="10" cx="926.7" cy="808.6" rx="13.3" ry="2.9"/>
		<ellipse stroke="#88CCEE" stroke-width="9.934057e-02" stroke-miterlimit="10" cx="1009.1" cy="808.6" rx="13.3" ry="2.9"/>
		<g opacity="0.57">
			<g>
				<line fill="none" stroke="#88CCEE" stroke-width="2" stroke-miterlimit="10" x1="844.5" y1="808.6" x2="844.5" y2="797.4"/>
				<g>
					<path fill="#88CCEE" d="M844.5,788.3c1.6,4.4,4.4,9.4,6.9,12.7l-6.9-2.5l-6.9,2.5C840.1,797.9,842.9,792.5,844.5,788.3z"/>
				</g>
			</g>
		</g>
		<g opacity="0.57">
			<g>
				<line fill="none" stroke="#88CCEE" stroke-width="2" stroke-miterlimit="10" x1="926.7" y1="806.7" x2="926.7" y2="795.1"/>
				<g>
					<path fill="#88CCEE" d="M926.7,786.1c1.6,4.4,4.4,9.4,6.9,12.7l-6.9-2.5l-6.9,2.5C922.4,796,925.2,790.5,926.7,786.1z"/>
				</g>
			</g>
		</g>
		<g opacity="0.57">
			<g>
				<line fill="none" stroke="#88CCEE" stroke-width="2" stroke-miterlimit="10" x1="1009.1" y1="808.1" x2="1009.1" y2="796.9"/>
				<g>
					<path fill="#88CCEE" d="M1009.1,787.8c1.6,4.4,4.4,9.4,6.9,12.7l-6.9-2.5l-6.9,2.5C1004.6,797.1,1007.6,792.1,1009.1,787.8z"/>
				</g>
			</g>
		</g>
		<rect x="797.2" y="674.7" fill="none" stroke="#88CCEE" stroke-width="2" stroke-miterlimit="10" width="16.8" height="25.1"/>
		<path fill="none" stroke="#88CCEE" stroke-width="2" stroke-miterlimit="10" d="M805.6,678.3c-3.7,0-6.6,2.9-6.6,6.6h13
			C812.3,681.1,809.3,678.3,805.6,678.3z"/>
		<line fill="none" stroke="#88CCEE" stroke-width="2" stroke-miterlimit="10" x1="805.2" y1="687.3" x2="805.6" y2="680.7"/>
		
			<rect x="1077" y="881.8" fill="#88CCEE" stroke="#231F20" stroke-width="0.2054" stroke-miterlimit="10" width="8.8" height="69.4"/>
		
			<rect x="1079.3" y="830.9" fill="#88CCEE" stroke="#231F20" stroke-width="0.2054" stroke-miterlimit="10" width="3.8" height="50.5"/>
		
			<rect x="1077" y="781.5" fill="#88CCEE" stroke="#231F20" stroke-width="0.2054" stroke-miterlimit="10" width="8.8" height="48.9"/>
		
			<rect x="1079.3" y="951" fill="#88CCEE" stroke="#231F20" stroke-width="0.2054" stroke-miterlimit="10" width="3.8" height="50.5"/>
		<polygon fill="#88CCEE" stroke="#231F20" stroke-width="0.2054" stroke-miterlimit="10" points="1076.4,1042.4 782.6,1042.4 
			782.6,1026.8 1077,1027.2 		"/>
		<path fill="#88CCEE" stroke="#231F20" stroke-width="0.2054" stroke-miterlimit="10" d="M820.1,967.5h-34.6
			c0,5.3,5.5,9.4,13.3,11.1l-2.2,48.2h13l-3.7-48.2C813.7,977.6,820.1,973,820.1,967.5z"/>
		
			<rect x="787.2" y="964.7" fill="#88CCEE" stroke="#231F20" stroke-width="0.2054" stroke-miterlimit="10" width="2.2" height="2.5"/>
		
			<rect x="788" y="962.4" fill="#88CCEE" stroke="#231F20" stroke-width="0.2054" stroke-miterlimit="10" width="0.7" height="2.5"/>
		<path fill="none" stroke="#F3743F" stroke-miterlimit="10" d="M879.8,1007.5v22.8h-92.6l-0.3-59.6l3.2-4.4c0,0-0.3-6,0-6.3
			c0.9-1.6,6.9-3.7,8-2.9c0.7,0.3,0.7,1.6,0.7,1.6"/>
		<g>
			<path fill="#88CCEE" stroke="#231F20" stroke-width="0.2054" stroke-miterlimit="10" d="M790.6,967.5c-0.3,0-0.9-0.3-0.9-0.9
				c-0.3-6.3,0-6.6,0-6.9c0.9-2.1,7.6-3.8,9.2-3.2c1.3,0.7,1.3,2.2,1.3,2.5c0,0.7-0.3,0.9-0.9,0.9l0,0c-0.7,0-0.9-0.3-0.9-0.9
				c0-0.3,0-0.7-0.3-0.9c-1.3,0-6,1.6-6.6,2.5c0,0.7,0,3.7,0,6C791.6,966.9,791.2,967.5,790.6,967.5L790.6,967.5z"/>
		</g>
		
			<ellipse fill="#88CCEE" stroke="#231F20" stroke-width="0.2054" stroke-miterlimit="10" cx="787.1" cy="961.8" rx="1.6" ry="0.3"/>
		<ellipse fill="#88CCEE" cx="789.7" cy="961.8" rx="1.6" ry="0.3"/>
		
			<rect x="1077.7" y="705.7" fill="#88CCEE" stroke="#231F20" stroke-width="0.2054" stroke-miterlimit="10" width="3.8" height="77.4"/>
		
			<rect x="1077.7" y="630.6" fill="#88CCEE" stroke="#231F20" stroke-width="0.2054" stroke-miterlimit="10" width="3.8" height="33.9"/>
		<g>
			<line fill="none" stroke="#88CCEE" stroke-width="2" stroke-miterlimit="10" x1="805.5" y1="674.8" x2="805.5" y2="663.3"/>
			<rect x="798" y="646.2" fill="none" stroke="#88CCEE" stroke-width="2" stroke-miterlimit="10" width="15.2" height="17.4"/>
			<g enable-background="new    ">
				<path fill="#88CCEE" stroke="#88CCEE" stroke-miterlimit="10" d="M809.6,651.8h-3.2v9.3h-1.2v-9.3h-3.2v-1.1h7.7V651.8z"/>
			</g>
		</g>
		<path stroke="#F3743F" stroke-width="2" stroke-miterlimit="10" d="M926.1,1026.8h-47.2c-3.7,0-6.3-2.9-6.3-6.3V897.4
			c0-3.7,2.9-6.3,6.3-6.3h46.9c3.7,0,6.3,2.9,6.3,6.3v123.1C932.3,1023.5,929.3,1026.8,926.1,1026.8z"/>
	</g>
</g>
<g id="hvac">
	<path id="d2-outline" fill="none" stroke="#DDCC77" stroke-width="2" stroke-miterlimit="10" stroke-dasharray="2.8964" d="
		M1121,1100.9H734c-3.1,0-5.8-2.6-5.8-5.8V847.7c0-3.1,2.6-5.8,5.8-5.8h386.9c3.1,0,5.8,2.6,5.8,5.8v247.5
		C1126.7,1098.3,1124.2,1100.9,1121,1100.9z"/>
	<path id="d1-outline" fill="none" stroke="#DDCC77" stroke-width="2" stroke-miterlimit="10" stroke-dasharray="3.0591" d="
		M1120.7,829H734.5c-3.3,0-6-2.8-6-6v-228c0-3.3,2.8-6,6-6h386.2c3.3,0,6,2.8,6,6v227.8C1126.7,826.2,1124,829,1120.7,829z"/>
	<path id="cp-outline" fill="none" stroke="#44AA99" stroke-width="2" stroke-miterlimit="10" stroke-dasharray="3" d="M1120.2,573
		H734.9c-3.6,0-6.4-2.9-6.4-6.4V332c0-3.6,2.9-6.4,6.4-6.4h385.3c3.6,0,6.4,2.9,6.4,6.4v234.5C1126.7,570.1,1124,573,1120.2,573z"/>
	<g id="pipesall"><title>Pipes</title>
        <a id="pipelink" xlink:href="#/pipe/basics" target="_top" >
		<g id="pipes">
			<polygon id="polygon4412" fill="#455999" points="797.8,457.8 793.6,457.8 793.6,559.8 793.8,640.6 925.6,640.6 925.6,688.8 
				929.6,688.8 929.6,636.6 797.8,636.6 			"/>
			<polygon id="polygon4414" fill="#ba6919" points="967,518.8 971,518.8 971,627.8 952.3,627.8 952.3,689 948.5,689 948.5,623.9 
				967,623.9 			"/>
			<polygon id="polygon4416" fill="#930318" points="862.2,456.4 859,456.4 859.6,559.8 859.6,627.5 934.9,627.5 934.9,688.8 
				938.9,688.8 938.9,623.5 863.6,623.5 			"/>
			<polygon id="polygon4418" fill="#1B39B2" points="1025.4,529.3 1029.4,529.3 1029.4,642 962,642 962,689 958,689 958,638 
				1025.4,638 			"/>
		
		<path id="path4420" fill="#ba6919" d="M955.1,496.4H952v-98.6v-1.6c0-1,0.7-1.9,1.6-1.9h27.1c0.8,0,1.4,0.7,1.6,1.4h0.7
			c0.2,1.2-0.5,2.2-1.6,2.2h-24.5c-0.8,0-1.6,0.8-1.6,1.9v96.5H955.1z"/>
		<path id="path4422" fill="#1B39B2" d="M1063.1,489.6h3.1v-89.4v-6.9c0-1-0.7-1.9-1.6-1.9H1039l-0.7,3.6h23.1
			c0.8,0,1.6,0.8,1.6,1.9v92.7L1063.1,489.6L1063.1,489.6z"/>
            </g>
    </a>        
	</g>
	<a id="ductlink" xlink:href="#/duct/basics" target="_top" ><title>Ducts</title>
    <polygon id="duct2" opacity="0.15" fill="#DDCC77" enable-background="new    " points="1049.7,689.7 1052.6,707.5 1099.7,707.3 
		1099,926.1 971.8,925.9 971.8,958 989.6,958 989.6,947.5 1057.3,947.5 1057.3,958 1074.9,958 1074.9,947.5 1118.6,946.8 
		1118.6,689.7 	"/>
	<polygon id="duct1" opacity="0.15" fill="#DDCC77" enable-background="new    " points="1045.4,715.2 1049.2,733.1 1054.3,733 
		1054.3,883.4 773.8,883 773.8,1004.9 791.4,1004.9 791.4,904.6 867.2,904.6 867.2,1004.9 884.8,1004.9 884.8,904.6 1073.3,904.6 
		1073.3,872.9 1073.3,715.2 	"/>
	<polygon id="duct2-outline" fill="none" stroke="#DDCC77" stroke-width="2" stroke-miterlimit="10" points="1049.7,689.7 
		1052.6,707.5 1099.7,707.3 1099,926.1 971.8,925.9 971.8,958 989.6,958 989.6,947.5 1057.3,947.5 1057.3,958 1074.9,958 
		1074.9,947.5 1118.6,946.8 1118.6,689.7 	"/>
	<polygon id="duct1-outline" fill="none" stroke="#DDCC77" stroke-width="2" stroke-miterlimit="10" points="1045.4,715.2 
		1049.2,733.1 1054.3,733 1054.3,883.4 773.8,883 773.8,1004.9 791.4,1004.9 791.4,904.6 867.2,904.6 867.2,1004.9 884.8,1004.9 
		884.8,904.6 1073.3,904.6 1073.3,872.9 1073.3,715.2 	"/>
	
		<line id="ductconnectionline2" fill="none" stroke="#DDCC77" stroke-width="2" stroke-miterlimit="10" x1="1046.9" y1="682.6" x2="1054.3" y2="711.7"/>
	
		<line id="ductconnectionline1" fill="none" stroke="#DDCC77" stroke-width="2" stroke-miterlimit="10" x1="1044.2" y1="711.1" x2="1050.6" y2="740.2"/>
        </a>
	<g id="terminal2all"><a id="terminallink2" xlink:href="#/terminal/basics" target="_top" ><title>Terminal Unit</title>
		<rect id="terminal2" x="1044.9" y="958" stroke="#DDCC77" stroke-width="2" stroke-miterlimit="10" width="42" height="64.8"/>
		
			<line id="line4433" fill="none" stroke="#DDCC77" stroke-width="2" stroke-linecap="round" stroke-miterlimit="10" x1="1051.9" y1="993.3" x2="1079.7" y2="965.6"/>
		<line id="line4435" fill="none" stroke="#DDCC77" stroke-miterlimit="10" x1="1044.9" y1="1000.6" x2="1086.8" y2="1000.6"/>
		<path id="path4437" fill="#930318" d="M1085.7,1014v4c-3.1,0-4.6-3.6-5.7-6.4c-0.7-1.6-1.6-4.1-2.2-4.1c-0.8,0-1.7,2.4-2.2,4.1
			c-1,2.9-2.6,6.4-5.7,6.4c-3.1,0-4.6-3.6-5.7-6.4c-0.7-1.6-1.6-4.1-2.2-4.1c-0.8,0-1.7,2.4-2.2,4.1c-1,2.9-2.6,6.4-5.7,6.4
			c-3.1,0-4.6-3.6-5.7-6.4c-0.7-1.6-1.6-4.1-2.2-4.1v-4c3.1,0,4.6,3.6,5.7,6.4c0.7,1.6,1.6,4.1,2.2,4.1c0.8,0,1.7-2.4,2.2-4.1
			c1-2.9,2.6-6.4,5.7-6.4s4.6,3.6,5.7,6.4c0.7,1.6,1.6,4.1,2.2,4.1c0.8,0,1.7-2.4,2.2-4.1c1-2.9,2.6-6.4,5.7-6.4
			c3.1,0,4.6,3.6,5.7,6.4C1084,1011.6,1085,1014,1085.7,1014z"/>
        </a>
	</g>
	<g id="terminal1all"><a id="terminallink1" xlink:href="#/terminal/basics" target="_top" ><title>Terminal Unit</title>
		<rect id="terminal1" x="961.3" y="958" stroke="#DDCC77" stroke-width="2" stroke-miterlimit="10" width="42" height="64.8"/>
		
			<line id="line4442" fill="none" stroke="#DDCC77" stroke-width="2" stroke-linecap="round" stroke-miterlimit="10" x1="968.4" y1="993.3" x2="995.9" y2="965.6"/>
		<line id="line4444" fill="none" stroke="#DDCC77" stroke-miterlimit="10" x1="961.3" y1="1000.6" x2="1003" y2="1000.6"/>
		<path id="path4446" fill="#930318" d="M1002.1,1014v4c-3.1,0-4.6-3.6-5.7-6.4c-0.7-1.6-1.6-4.1-2.2-4.1c-0.8,0-1.7,2.4-2.2,4.1
			c-1,2.9-2.6,6.4-5.7,6.4c-3.1,0-4.6-3.6-5.7-6.4c-0.7-1.6-1.6-4.1-2.2-4.1c-0.8,0-1.7,2.4-2.2,4.1c-1,2.9-2.6,6.4-5.7,6.4
			s-4.6-3.6-5.7-6.4c-0.7-1.6-1.6-4.1-2.2-4.1v-4c3.1,0,4.6,3.6,5.7,6.4c0.7,1.6,1.6,4.1,2.2,4.1c0.8,0,1.7-2.4,2.2-4.1
			c1-2.9,2.6-6.4,5.7-6.4s4.6,3.6,5.7,6.4c0.7,1.6,1.6,4.1,2.2,4.1c0.8,0,1.7-2.4,2.2-4.1c1-2.9,2.6-6.4,5.7-6.4s4.6,3.6,5.7,6.4
			C1000.4,1011.6,1001.5,1014,1002.1,1014z"/>
        </a>
	</g>
	<g id="vavall"><a id="vavlink" xlink:href="#/vav/basics" target="_top" ><title>VAV Box</title>
		<rect id="vav" x="968.9" y="869.8" stroke="#DDCC77" stroke-width="2" stroke-miterlimit="10" width="74.5" height="43.1"/>
		
			<line id="line4451" fill="none" stroke="#930318" stroke-width="3" stroke-linecap="round" stroke-miterlimit="10" x1="1028" y1="874.6" x2="1011.4" y2="874.6"/>
		
			<line id="line4453" fill="none" stroke="#930318" stroke-width="3" stroke-linecap="round" stroke-miterlimit="10" x1="1028" y1="881.3" x2="1011.4" y2="881.3"/>
		
			<line id="line4455" fill="none" stroke="#930318" stroke-width="3" stroke-linecap="round" stroke-miterlimit="10" x1="1028" y1="888" x2="1011.4" y2="888"/>
		
			<line id="line4457" fill="none" stroke="#930318" stroke-width="3" stroke-linecap="round" stroke-miterlimit="10" x1="1028" y1="894.8" x2="1011.4" y2="894.8"/>
		
			<line id="line4459" fill="none" stroke="#930318" stroke-width="3" stroke-linecap="round" stroke-miterlimit="10" x1="1028" y1="901.5" x2="1011.4" y2="901.5"/>
		
			<line id="line4461" fill="none" stroke="#930318" stroke-width="3" stroke-linecap="round" stroke-miterlimit="10" x1="1028" y1="908.2" x2="1011.4" y2="908.2"/>
		
			<line id="line4463" fill="none" stroke="#DDCC77" stroke-linecap="round" stroke-miterlimit="10" x1="1007.1" y1="869.8" x2="1007.1" y2="912.7"/>
		
			<line id="line4465" fill="none" stroke="#DDCC77" stroke-linecap="round" stroke-miterlimit="10" x1="1032.3" y1="869.8" x2="1032.3" y2="912.7"/>
	   </a>
        </g>
	<g id="diffuser2all"><a id="diffuserlink2" xlink:href="#/diffuser/basics" target="_top" ><title>Diffuser</title>
		<g id="diffuser2"><polygon id="polygon4468" stroke="#DDCC77" stroke-width="2" stroke-miterlimit="10" points="851.5,1021.6 902.9,1021.6 
			884.9,1004.7 867.4,1004.7 		"/>
		<polygon id="polygon4470" stroke="#DDCC77" stroke-width="3" stroke-miterlimit="10" points="887,1022.3 864.6,1022.3 
			867.2,1005.4 884.5,1005.4"/></g>
	</a>
        </g>
	<a id="diffuserlink1" xlink:href="#/diffuser/basics" target="_top" ><title>Diffuser</title>
		<g id="diffuser1"><polygon id="polygon4473" stroke="#DDCC77" stroke-width="2" stroke-miterlimit="10" points="758.1,1021.9 809.3,1021.9 
			791.4,1004.9 774,1004.9 		"/>
		<polygon id="polygon4475" stroke="#DDCC77" stroke-width="2" stroke-miterlimit="10" points="793.6,1022.6 771.2,1022.6 
			773.8,1005.6 790.9,1005.6"/>
			</g>
	</a>
	<path id="zone1" stroke="#DDCC77" stroke-width="2" stroke-miterlimit="10" d="M819,1088.5h-73.2c-2.6,0-4.6-2.1-4.6-4.6v-56.5
		c0-2.6,2.1-4.6,4.6-4.6H819c2.6,0,4.6,2.1,4.6,4.6v56.5C823.6,1086.4,821.5,1088.5,819,1088.5z"/>
	<path id="zone2" stroke="#DDCC77" stroke-width="2" stroke-miterlimit="10" d="M910.6,1088.5h-73.2c-2.6,0-4.6-2.1-4.6-4.6v-56.5
		c0-2.6,2.1-4.6,4.6-4.6h73.3c2.6,0,4.6,2.1,4.6,4.6v56.5C915.4,1086.4,913.4,1088.5,910.6,1088.5z"/>
	<path id="zone3" stroke="#DDCC77" stroke-width="2" stroke-miterlimit="10" d="M1016.4,1088.5h-73.3c-2.6,0-4.6-2.1-4.6-4.6v-56.5
		c0-2.6,2.1-4.6,4.6-4.6h73.3c2.6,0,4.6,2.1,4.6,4.6v56.5C1020.9,1086.4,1018.8,1088.5,1016.4,1088.5z"/>
	<path id="zone4" stroke="#DDCC77" stroke-width="2" stroke-miterlimit="10" d="M1105.7,1088.5h-73.3c-2.6,0-4.6-2.1-4.6-4.6v-56.5
		c0-2.6,2.1-4.6,4.6-4.6h73.3c2.6,0,4.6,2.1,4.6,4.6v56.5C1110.3,1086.4,1108.3,1088.5,1105.7,1088.5z"/>
	<g id="zone1-temp">
		
			<line id="line4482" fill="none" stroke="#DDCC77" stroke-width="2" stroke-miterlimit="10" x1="756.6" y1="1088.5" x2="756.6" y2="1078.1"/>
		
			<rect id="rect4484" x="750" y="1063" fill="none" stroke="#DDCC77" stroke-width="2" stroke-miterlimit="10" width="13.4" height="15.5"/>
		<g enable-background="new    ">
			<path fill="#DDCC77" stroke="#DDCC77" stroke-miterlimit="10" d="M760.2,1068h-2.9v8.2h-1.1v-8.2h-2.9v-1h6.8V1068z"/>
		</g>
	</g>
	<g id="zone2-temp">
		
			<line id="line4489" fill="none" stroke="#DDCC77" stroke-width="2" stroke-miterlimit="10" x1="850.2" y1="1089" x2="850.2" y2="1078.7"/>
		
			<rect id="rect4491" x="843.8" y="1063.5" fill="none" stroke="#DDCC77" stroke-width="2" stroke-miterlimit="10" width="13.4" height="15.5"/>
		<g enable-background="new    ">
			<path fill="#DDCC77" stroke="#DDCC77" stroke-miterlimit="10" d="M853.8,1068.4H851v8.2h-1.1v-8.2H847v-1h6.8V1068.4z"/>
		</g>
	</g>
	<g id="zone3-temp">
		
			<line id="line4496" fill="none" stroke="#DDCC77" stroke-width="2" stroke-miterlimit="10" x1="955.3" y1="1089.5" x2="955.3" y2="1079"/>
		
			<rect id="rect4498" x="948.9" y="1064" fill="none" stroke="#DDCC77" stroke-width="2" stroke-miterlimit="10" width="13.4" height="15.5"/>
		<g enable-background="new    ">
			<path fill="#DDCC77" stroke="#DDCC77" stroke-miterlimit="10" d="M959,1068.9h-2.9v8.2H955v-8.2h-2.9v-1h6.8V1068.9z"/>
		</g>
	</g>
	<g id="zone4-temp">
		
			<line id="line4503" fill="none" stroke="#DDCC77" stroke-width="2" stroke-miterlimit="10" x1="1045.4" y1="1089" x2="1045.4" y2="1078.7"/>
		
			<rect id="rect4505" x="1038.7" y="1063.5" fill="none" stroke="#DDCC77" stroke-width="2" stroke-miterlimit="10" width="13.4" height="15.5"/>
		<g enable-background="new    ">
			<path fill="#DDCC77" stroke="#DDCC77" stroke-miterlimit="10" d="M1048.9,1068.4h-2.9v8.2h-1.1v-8.2h-2.9v-1h6.8V1068.4z"/>
		</g>
	</g>
	<g id="ahu">
		<a id="ahu-link" xlink:href="#/ahu/basics" target="_top" ><title>AHU</title>
			<g id="ahu-back">
				<rect id="rect4511" x="964.8" y="752.6" stroke="#DDCC77" stroke-width="2" stroke-miterlimit="10" width="56" height="44.3"/>
				<rect id="rect4513" x="880.8" y="689" stroke="#DDCC77" stroke-width="2" stroke-miterlimit="10" width="12.6" height="44.3"/>
				<rect id="rect4515" x="893.6" y="689" stroke="#DDCC77" stroke-width="2" stroke-miterlimit="10" width="30.7" height="44.3"/>
				
					<rect id="ahu_x5F_bttm_x5F_end" x="1020.8" y="752.6" stroke="#DDCC77" stroke-width="2" stroke-miterlimit="10" width="13.6" height="44.3"/>
				
					<rect id="ahu_x5F_ht_x5F_back2" x="932.9" y="752.6" stroke="#DDCC77" stroke-width="2" stroke-miterlimit="10" width="18.6" height="44.3"/>
				<path id="rect4521" d="M951.5,752.8L951.5,752.8L951.5,752.8z"/>
				<path id="rect4523" d="M967,689L967,689L967,689z"/>
				<rect x="951.5" y="752.6" stroke="#DDCC77" stroke-width="2" stroke-miterlimit="10" width="12.7" height="44.5"/>
				<polygon id="ahu_x5F_to_x5F_duct" stroke="#DDCC77" stroke-width="2" stroke-miterlimit="10" points="1020.1,689 1030.4,689 
					1038.2,733.1 1020.1,733.1 				"/>
				
					<rect id="ahu_x5F_cl_x5F_back" x="945.6" y="689" stroke="#DDCC77" stroke-width="2" stroke-miterlimit="10" width="21.4" height="44.3"/>
				
					<rect id="ahu_x5F_ht_x5F_back" x="924.2" y="689" stroke="#DDCC77" stroke-width="2" stroke-miterlimit="10" width="21.4" height="44.3"/>
				<rect x="967" y="689" stroke="#DDCC77" stroke-width="2" stroke-miterlimit="10" width="53.1" height="44.1"/>
				<polygon id="polygon4531" stroke="#DDCC77" stroke-width="2" stroke-miterlimit="10" points="783.5,752.8 783.5,796.9 
					835.7,796.9 835.7,796.9 870.8,796.9 880.7,796.9 932.9,796.9 932.9,752.6 880.7,752.6 880.7,689 835.7,689 830.1,689 
					783.5,689 783.5,733.1 830.1,733.1 830.1,752.8 				"/>
			</g>
		</a>
		<g id="g4533">
			<line id="line4535" fill="none" stroke="#DDCC77" stroke-miterlimit="10" x1="880.1" y1="742.9" x2="830.1" y2="742.9"/>
			<line id="line4537" fill="none" stroke="#DDCC77" stroke-miterlimit="10" x1="876.7" y1="738.5" x2="867.6" y2="747.6"/>
			<line id="line4539" fill="none" stroke="#DDCC77" stroke-miterlimit="10" x1="866" y1="738.5" x2="857" y2="747.6"/>
			<line id="line4541" fill="none" stroke="#DDCC77" stroke-miterlimit="10" x1="855.7" y1="738.5" x2="846.5" y2="747.6"/>
			<line id="line4543" fill="none" stroke="#DDCC77" stroke-miterlimit="10" x1="845.2" y1="738.5" x2="836" y2="747.6"/>
		</g>
		<polyline id="polyline4545" fill="none" stroke="#DDCC77" stroke-miterlimit="10" points="881.3,733 892.9,726.4 880.8,719.5 
			893.1,712.4 880.5,705.4 893.1,696.8 880.1,689.2 		"/>
		<g id="g4547">
			<line id="line4549" fill="none" stroke="#DDCC77" stroke-miterlimit="10" x1="824.5" y1="796.5" x2="824.5" y2="753.7"/>
			<line id="line4551" fill="none" stroke="#DDCC77" stroke-miterlimit="10" x1="829.1" y1="794.3" x2="820" y2="785.4"/>
			<line id="line4553" fill="none" stroke="#DDCC77" stroke-miterlimit="10" x1="829.1" y1="783.8" x2="820" y2="774.8"/>
			<line id="line4555" fill="none" stroke="#DDCC77" stroke-miterlimit="10" x1="829.1" y1="773.3" x2="820" y2="764.3"/>
			<line id="line4557" fill="none" stroke="#DDCC77" stroke-miterlimit="10" x1="829.1" y1="762.9" x2="820" y2="753.7"/>
		</g>
		<g id="g4559">
			<line id="line4561" fill="none" stroke="#DDCC77" stroke-miterlimit="10" x1="824.5" y1="732.4" x2="824.5" y2="689.7"/>
			<line id="line4563" fill="none" stroke="#DDCC77" stroke-miterlimit="10" x1="829.1" y1="730.2" x2="820" y2="721.2"/>
			<line id="line4565" fill="none" stroke="#DDCC77" stroke-miterlimit="10" x1="829.1" y1="719.7" x2="820" y2="710.7"/>
			<line id="line4567" fill="none" stroke="#DDCC77" stroke-miterlimit="10" x1="829.1" y1="709.3" x2="820" y2="700.2"/>
			<line id="line4569" fill="none" stroke="#DDCC77" stroke-miterlimit="10" x1="829.1" y1="698.8" x2="820" y2="689.7"/>
		</g>
        <a id="fanlink" xlink:href="#/fan/basics" target="_top" >
		<g id="fan2"><title>Fan</title>
			<ellipse id="ellipse4572" stroke="#DDCC77" stroke-miterlimit="10" cx="986.1" cy="784.8" rx="3.6" ry="10.2"/>
			<ellipse id="ellipse4574" stroke="#DDCC77" stroke-miterlimit="10" cx="985.3" cy="764.8" rx="3.6" ry="10.2"/>
			<path id="path4576" stroke="#DDCC77" stroke-miterlimit="10" d="M984,773.6h11.5c0.5,0,0.8,0.5,0.8,0.8l0,0
				c0,0.5-0.5,0.8-0.8,0.8H984c-0.5,0-0.8-0.5-0.8-0.8l0,0C983,774.3,983.5,773.6,984,773.6z"/>
		</g>
		<g id="fan1"><title>Fan</title>
			<ellipse id="ellipse4579" stroke="#DDCC77" stroke-miterlimit="10" cx="993" cy="700.7" rx="3.6" ry="10.2"/>
			<ellipse id="ellipse4581" stroke="#DDCC77" stroke-miterlimit="10" cx="993.9" cy="720.7" rx="3.6" ry="10.2"/>
			<path id="path4583" stroke="#DDCC77" stroke-miterlimit="10" d="M995.1,711.7h-11.5c-0.5,0-0.8-0.5-0.8-0.8l0,0
				c0-0.5,0.5-0.8,0.8-0.8h11.5c0.5,0,0.8,0.5,0.8,0.8l0,0C996.1,711.2,995.8,711.7,995.1,711.7z"/>
		</g>
            </a>
		<line id="line4585" fill="none" stroke="#DDCC77" stroke-miterlimit="10" x1="1028.7" y1="679.2" x2="1039" y2="738.6"/>
		<path id="heat-coil1_1_" fill="#930318" d="M939.6,796h-4c0-3.4,3.6-4.8,6.4-6c1.6-0.7,4.1-1.6,4.1-2.6c0-0.8-2.4-1.9-4.1-2.6
			c-2.9-1.2-6.4-2.6-6.4-6c0-3.4,3.6-4.8,6.4-6c1.6-0.7,4.1-1.6,4.1-2.6c0-0.8-2.4-1.9-4.1-2.6c-2.9-1.2-6.4-2.6-6.4-6
			c0-3.4,3.6-4.8,6.4-6c1.6-0.7,4.1-1.6,4.1-2.6h4c0,3.4-3.6,4.8-6.4,6c-1.6,0.7-4.1,1.6-4.1,2.6c0,0.8,2.4,1.9,4.1,2.6
			c2.9,1.2,6.4,2.6,6.4,6c0,3.4-3.6,4.8-6.4,6c-1.6,0.7-4.1,1.6-4.1,2.6c0,0.8,2.4,1.9,4.1,2.6c2.9,1.2,6.4,2.6,6.4,6
			c0,3.4-3.6,4.8-6.4,6C942.2,794.3,939.6,795.3,939.6,796z"/>
		<path id="heat-coil1" fill="#930318" d="M932.3,732.4h-4c0-3.4,3.6-4.8,6.4-6c1.6-0.7,4.1-1.6,4.1-2.6c0-0.8-2.4-1.9-4.1-2.6
			c-2.9-1.2-6.4-2.6-6.4-6c0-3.4,3.6-4.8,6.4-6c1.6-0.7,4.1-1.6,4.1-2.6c0-0.8-2.4-1.9-4.1-2.6c-2.9-1.2-6.4-2.6-6.4-6
			c0-3.4,3.6-4.8,6.4-6c1.6-0.7,4.1-1.6,4.1-2.6h4c0,3.4-3.6,4.8-6.4,6c-1.6,0.7-4.1,1.6-4.1,2.6c0,0.8,2.4,1.9,4.1,2.6
			c2.9,1.2,6.4,2.6,6.4,6s-3.6,4.8-6.4,6c-1.6,0.7-4.1,1.6-4.1,2.6c0,0.8,2.4,1.9,4.1,2.6c2.9,1.2,6.4,2.6,6.4,6
			c0,3.4-3.6,4.8-6.4,6C934.9,730.7,932.3,731.6,932.3,732.4z"/>
		<path id="cool-coil" fill="#1B39B2" d="M952.9,732.2h-4c0-3.4,3.6-4.8,6.4-6c1.6-0.7,4.1-1.6,4.1-2.6c0-0.8-2.4-1.9-4.1-2.6
			c-2.9-1.2-6.4-2.6-6.4-6c0-3.4,3.6-4.8,6.4-6c1.6-0.7,4.1-1.6,4.1-2.6c0-0.8-2.4-1.9-4.1-2.6c-2.9-1.2-6.4-2.6-6.4-6
			s3.6-4.8,6.4-6c1.6-0.7,4.1-1.6,4.1-2.6h4c0,3.4-3.6,4.8-6.4,6c-1.6,0.7-4.1,1.6-4.1,2.6c0,0.8,2.4,1.9,4.1,2.6
			c2.9,1.2,6.4,2.6,6.4,6c0,3.4-3.6,4.8-6.4,6c-1.6,0.7-4.1,1.6-4.1,2.6c0,0.8,2.4,1.9,4.1,2.6c2.9,1.2,6.4,2.6,6.4,6
			c0,3.4-3.6,4.8-6.4,6C955.3,730.6,952.9,731.4,952.9,732.2z"/>
	</g>
	<a id="pumplink2" xlink:href="#/pump/basics" target="_top" ><title>Pump</title>
        <path id="d-pump2" stroke="#DDCC77" stroke-width="2" stroke-miterlimit="10" d="M1045.4,621.6h-18.1c-0.8-0.2-1.6-0.4-2.4-0.4
		c-0.8,0-1.6,0.2-2.4,0.4l0,0l0,0c-7.4,1.2-12.9,7.6-12.9,15.2c0,8.4,6.9,15.3,15.3,15.3c8.4,0,15.3-6.9,15.3-15.3
		c0-0.8-0.2-1.7-0.4-2.6h5.4v-12.6H1045.4L1045.4,621.6z"/>
        </a>
	<a id="pumplink1" xlink:href="#/pump/basics" target="_top" ><title>Pump</title>
        <path id="d-pump1" stroke="#DDCC77" stroke-width="2" stroke-miterlimit="10" d="M814.3,599.4h-18.1c-0.8-0.2-1.6-0.4-2.4-0.4
		s-1.6,0.2-2.4,0.4h-0.2l0,0c-7.4,1.2-12.9,7.6-12.9,15.2c0,8.4,6.9,15.3,15.3,15.3c8.6,0,15.3-6.9,15.3-15.3c0-0.8-0.2-1.7-0.4-2.6
		h5.4v-12.6H814.3z"/>
        </a>
	<a id="pumplink3" xlink:href="#/pump/basics" target="_top" ><title>Pump</title>
		<path id="cp-pump" stroke="#44AA99" stroke-width="2" stroke-miterlimit="10" d="M974.2,418.3h-18.1c-0.8-0.2-1.6-0.4-2.4-0.4
			s-1.6,0.2-2.4,0.4h-0.2l0,0c-7.4,1.2-12.9,7.6-12.9,15.2c0,8.4,6.9,15.3,15.3,15.3c8.6,0,15.3-6.9,15.3-15.3
			c0-0.8-0.2-1.7-0.4-2.6h5.4L974.2,418.3L974.2,418.3z"/>
	</a>
	<g><a xlink:href="#/valve/basics" target="_top"><title>Valve</title>
		<g id="cp-valve"><polygon id="cp-valvept1" stroke="#44AA99" stroke-width="2" stroke-miterlimit="10" points="803.1,518.2 795,532.4 786.9,518.2 
					"/>
		<polygon id="polygon4598" stroke="#44AA99" stroke-width="2" stroke-miterlimit="10" points="786.9,546.5 795,532.5 803.1,546.5 
					"/>
	      </g> </a> 
        </g>
	<g><a xlink:href="#/valve/basics" target="_top"><title>Valve</title>
		<g id="cp-valve-control">
			<polygon id="polygon4603" stroke="#44AA99" stroke-width="2" stroke-miterlimit="10" points="868.2,518.2 860.3,532.2 
				852.2,518.2 			"/>
			<polygon id="polygon4605" stroke="#44AA99" stroke-width="2" stroke-miterlimit="10" points="852.2,546.5 860.3,532.4 
				868.2,546.5 			"/>
			<polygon id="polygon4607" stroke="#44AA99" stroke-width="2" stroke-miterlimit="10" points="846.4,524.1 860.3,532.2 
				846.4,540.3 			"/>
		
		
			<line id="line4609" fill="none" stroke="#44AA99" stroke-width="2" stroke-miterlimit="10" x1="860.3" y1="532.4" x2="876.7" y2="532.4"/>
		<rect id="rect4611" x="876.7" y="520.1" stroke="#44AA99" stroke-miterlimit="10" width="18.1" height="24.3"/>
		<text id="text4613" transform="matrix(1 0 0 1 883.001 538.2226)" font-family="'PTSans-Regular'" font-size="17.6575">I</text>
		
			<text id="text4615" transform="matrix(1 0 0 1 883.001 538.2226)" fill="#44AA99" stroke="#44AA99" stroke-miterlimit="10" font-family="'PTSans-Regular'" font-size="17.6575">I</text></g></a>
	</g>
	<g id="boiler-temp">
		
			<line id="line4618" fill="none" stroke="#44AA99" stroke-width="2" stroke-miterlimit="10" x1="845.2" y1="412.9" x2="845.2" y2="402.6"/>
		<rect id="rect4620" x="838.6" y="387.4" stroke="#44AA99" stroke-width="2" stroke-miterlimit="10" width="13.4" height="15.5"/>
		<g enable-background="new    ">
			<path fill="#44AA99" stroke="#44AA99" stroke-miterlimit="10" d="M848.8,392.4h-2.9v8.2h-1.1v-8.2h-2.9v-1h6.8V392.4z"/>
		</g>
	</g>
	<g id="ahu-temp">
		
			<line id="line4625" fill="none" stroke="#DDCC77" stroke-width="2" stroke-miterlimit="10" x1="803.4" y1="688.8" x2="803.4" y2="678.5"/>
		<rect id="rect4627" x="796.9" y="663.3" stroke="#DDCC77" stroke-width="2" stroke-miterlimit="10" width="13.4" height="15.5"/>
		<g enable-background="new    ">
			<path fill="#DDCC77" stroke="#DDCC77" stroke-miterlimit="10" d="M807.1,668.3h-2.9v8.2h-1.1v-8.2h-2.9v-1h6.8V668.3z"/>
		</g>
	</g>
	<g id="control">
		<rect id="rect4632" x="986.8" y="663.7" stroke="#DDCC77" stroke-width="2" stroke-miterlimit="10" width="13.4" height="15.3"/>
		
			<line id="line4634" fill="none" stroke="#DDCC77" stroke-width="2" stroke-miterlimit="10" x1="993.3" y1="689.7" x2="993.3" y2="680"/>
		<g enable-background="new    ">
			<path fill="#DDCC77" stroke="#DDCC77" stroke-miterlimit="10" d="M992.7,667.3h1.1v9.2h-1.1V667.3z"/>
		</g>
	</g>
	<g><a xlink:href="#/valve/basics" target="_top">
		<g id="d-valve"><title>Valve</title>
			<polygon id="polygon4641" stroke="#DDCC77" stroke-miterlimit="10" points="978.5,583.1 970.2,597.1 962.4,583.1 			"/>
			<polygon id="polygon4643" stroke="#DDCC77" stroke-miterlimit="10" points="962.4,611.1 970.2,597.1 978.5,611.1 			"/>
			<polygon id="polygon4645" stroke="#DDCC77" stroke-miterlimit="10" points="956.3,588.9 970.2,597.1 956.3,605.1 			"/>
		
		
			<line id="line4647" fill="none" stroke="#DDCC77" stroke-width="2" stroke-miterlimit="10" x1="970.2" y1="597.1" x2="986.6" y2="597.1"/>
		<rect id="rect4649" x="986.6" y="584.9" stroke="#DDCC77" stroke-miterlimit="10" width="18.1" height="24.3"/>
		<text id="text4651" transform="matrix(1 0 0 1 993.085 603.0039)" font-family="'PTSans-Regular'" font-size="17.6575">I</text>
		<g enable-background="new    ">
			<path fill="#DDCC77" stroke="#DDCC77" stroke-miterlimit="10" d="M994.9,590.6h1.5V603h-1.5V590.6z"/>
		</g>
            </g>
        </a>
	</g>
	<g id="tower"><title>Cooling Tower</title>
		<a id="tower-link" xlink:href="#/tower/basics" target="_top">
            <path id="t-outline" stroke="#44AA99" stroke-width="2" stroke-miterlimit="10" d="M1038.5,406c-0.2,1.9-0.7,2.6-1.4,2.6h-53.8
			h-0.5l-3.4-18.1l-9.8-51c-0.2-0.8,0.5-1.6,1.4-1.6h78.1c0.8,0,1.4,0.8,1.4,0.4L1038.5,406z"/></a>
		
			<line id="line4657" fill="none" stroke="#44AA99" stroke-width="1.1722" stroke-miterlimit="10" x1="974" y1="366.3" x2="1045.4" y2="366.3"/>
		<g id="g4659">
			<path id="path4661" fill="none" stroke="#44AA99" stroke-width="1.0488" stroke-linecap="round" stroke-miterlimit="10" d="
				M992.5,375.4l3.1-2.6c0.4-0.4,0.5-0.7,0.5-1v-4.6"/>
			
				<line id="line4663" fill="none" stroke="#44AA99" stroke-width="1.0488" stroke-linecap="round" stroke-miterlimit="10" x1="999.1" y1="375.4" x2="995.9" y2="372.3"/>
		</g>
		<g id="g4665">
			<path id="path4667" fill="none" stroke="#44AA99" stroke-width="1.0488" stroke-linecap="round" stroke-miterlimit="10" d="
				M1020.4,374.7l3.1-2.6c0.4-0.4,0.5-0.7,0.5-1v-4.6"/>
			
				<line id="line4669" fill="none" stroke="#44AA99" stroke-width="1.0488" stroke-linecap="round" stroke-miterlimit="10" x1="1027" y1="374.7" x2="1023.8" y2="371.6"/>
		</g>
		<path id="t-box" fill="none" stroke="#44AA99" stroke-width="0.8901" stroke-miterlimit="10" d="M1012.5,383.3h-5.4
			c-0.8,0-1.4-0.7-1.4-1.4v-4.5c0-0.8,0.7-1.4,1.4-1.4h5.4c0.8,0,1.4,0.7,1.4,1.4v4.5C1013.9,382.6,1013.2,383.3,1012.5,383.3z"/>
		
			<line id="line4672" fill="none" stroke="#44AA99" stroke-width="1.0488" stroke-linecap="round" stroke-miterlimit="10" x1="1009.7" y1="383.6" x2="1009.7" y2="407.1"/>
		<path id="t-water" fill="none" stroke="#44AA99" stroke-width="0.8901" stroke-miterlimit="10" d="M980.1,393.3
			c-0.4-1,0.8-1.9,1.9-1.6c4.6,2.2,15.3,5.4,29.3-1.4c0,0,15.5-7.4,29.3-1.4c0.5,0.4,0.8,0.8,0.8,0.4l-3.3,16.7
			c-0.2,1.9-0.7,2.4-1.4,2.4l-52.4,0.2c-0.7,0-1.2-0.4-1.4-1L980.1,393.3z"/>
		
        <g id="fan_2_"><title>Fan</title>
			<ellipse id="ellipse4676" stroke="#44AA99" stroke-miterlimit="10" cx="1019.7" cy="350.2" rx="10.2" ry="3.6"/>
			<ellipse id="ellipse4678" stroke="#44AA99" stroke-miterlimit="10" cx="999.7" cy="350.9" rx="10.2" ry="3.6"/>
			<path id="path4680" stroke="#44AA99" stroke-miterlimit="10" d="M1008.7,352.1v-11.5c0-0.5,0.5-0.8,0.8-0.8l0,0
				c0.5,0,0.8,0.5,0.8,0.8v11.5c0,0.5-0.5,0.8-0.8,0.8l0,0C1009.2,353.1,1008.7,352.8,1008.7,352.1z"/>
		</g>
	</g>
	<a id="a4682" xlink:href="#/chiller/basics" target="_top"><title>Chiller</title>
		<path id="chiller" stroke="#44AA99" stroke-width="2" stroke-miterlimit="10" d="M1092.8,514.6v-5.2h-7.2v-11.4h-3.4v7.4
			c-2.1-3.3-5.8-5.8-10.3-7.6c-0.4-16.7-14.1-22.7-23.3-22.7h-37.2v-7.8h-52V496h52v-7.8h37.1c0.8,0,8.6,0.4,10,8.1h-81.5
			c-9.8,0-17.9,4.5-20.9,10.7v-10.8h-6.4v34.1h6.4v-8.8c2.9,6.2,11,10.7,20.9,10.7v14.8h13.6v-15h52.9v14.8h13.6V532h5.4
			c8.8,0,16.4-3.6,19.8-9.1v9.1h3.4v-11.2h7.2v-5.2h-7.2v-1.2L1092.8,514.6L1092.8,514.6z"/>
	</a>
    <g id="boilericon">
        <a xlink:href="#/boiler/basics"><title>Boiler</title>
		<path id="boiler" stroke="#44AA99" stroke-width="2" stroke-miterlimit="10" d="M880,430.2v5.4h-9c-1-12.6-10.3-22.6-21.7-22.6
			H764c-7.8,0-14.7,4.6-18.6,11.9H740v33.9h5.4c3.8,7,10.7,11.9,18.6,11.9v14.8h13.6v-14.8h52.9v14.8h13.6v-14.8h5.4
			c11,0,20.3-9.5,21.7-21.9h9v4.1h19.8v-22.7L880,430.2L880,430.2z"/>
            </a>
	</a>
        </g>
    <a id="ductotherlink" xlink:href="#/duct/basics" target="_top"><title>Ducts</title>
	<polygon id="ductoutline2" display="none" fill="none" stroke="#DDCC77" stroke-miterlimit="10" points="1049,689.4 1053.1,707.1 
		1100.4,706.9 1099.7,925.8 972.5,925.6 972.5,957.6 990.3,957.6 990.3,947 1058,947 1058,957.6 1075.6,957.6 1075.6,947 
		1119.3,946.5 1119.3,689.4"/>
    
</g>
    
 </script>
  <!-- or reference JavaScript here: -->
  <script type="application/ecmascript" xlink:href="../js/Title.js">
  </script>

   <script><![CDATA[
      function LoadHandler(event) 
      {
         new Title(event.getTarget().getOwnerDocument(), 12);
      }
   ]]>
    </script>

</svg>
