<?xml version="1.0" encoding="utf-8"?>
<!-- Generator: Adobe Illustrator 18.0.0, SVG Export Plug-In . SVG Version: 6.00 Build 0)  -->
<!DOCTYPE svg PUBLIC "-//W3C//DTD SVG 1.1//EN" "http://www.w3.org/Graphics/SVG/1.1/DTD/svg11.dtd" [
	<!ENTITY ns_flows "http://ns.adobe.com/Flows/1.0/">
	<!ENTITY ns_extend "http://ns.adobe.com/Extensibility/1.0/">
	<!ENTITY ns_ai "http://ns.adobe.com/AdobeIllustrator/10.0/">
	<!ENTITY ns_graphs "http://ns.adobe.com/Graphs/1.0/">
]>
<svg version="1.1"
	 id="svg" xmlns:x="&ns_extend;" xmlns:i="&ns_ai;" xmlns:graph="&ns_graphs;" inkscape:version="0.91 r13725" sodipodi:docname="hvacdiagram-adjust2.svg" xmlns:cc="http://creativecommons.org/ns#" xmlns:dc="http://purl.org/dc/elements/1.1/" xmlns:inkscape="http://www.inkscape.org/namespaces/inkscape" xmlns:svg="http://www.w3.org/2000/svg" xmlns:rdf="http://www.w3.org/1999/02/22-rdf-syntax-ns#" xmlns:sodipodi="http://sodipodi.sourceforge.net/DTD/sodipodi-0.dtd"
	 xmlns="http://www.w3.org/2000/svg" xmlns:xlink="http://www.w3.org/1999/xlink" xmlns:a="http://ns.adobe.com/AdobeSVGViewerExtensions/3.0/"
	 x="0px" y="0px" viewBox="720 315 413 792" enable-background="new 720 315 413 792" xml:space="preserve">
<sodipodi:namedview  inkscape:current-layer="svg" inkscape:window-maximized="0" inkscape:window-y="0" inkscape:window-x="0" inkscape:window-height="860" inkscape:window-width="1097" inkscape:pageshadow="2" inkscape:pageopacity="0" borderopacity="1" gridtolerance="10" objecttolerance="10" bordercolor="#666666" id="namedview4689" pagecolor="#ffffff" guidetolerance="10" inkscape:zoom="6.9086386" inkscape:cy="216.07385" inkscape:cx="160.98923" showgrid="false">
	</sodipodi:namedview>
<g id="space_1_">
</g>
<g>
	<path fill="#FFFFFF" d="M783,1004.9h-7.8v69.8h7.4v-32.3v-0.1v-15.6l0.5,0V1004.9 M776.5,842.9v-2h2.9v2H776.5 M783,565.1h-2.4v0.5
		h-4v-0.5h-1.4v22.8h2.3v2h-2.3V828h2.9v2h-2.9v53.1l7.8,0v-40.2h-0.7v-2h0.7V830h-1.8v-2h1.8V628.9h-1.1v-21.6h1h-1v-1h1.1v-16.4
		h-2.4v-2h2.4V565.1"/>
	<path fill="#FFFFFF" d="M775.2,1004.9H775v69.8h0.2V1004.9 M783.2,1004.9H783v21.8l0.2,0V1004.9 M783.2,842.9H783v40.2l0.2,0V842.9
		 M783.2,830H783v10.9h0.2V830 M783.2,628.9H783V828h0.2v-0.6H783v-21.6h0.2H783v-1h0.2V628.9 M775.2,589.9H775v293.2l0.2,0V830H775
		v-2h0.1V589.9 M783.2,589.9H783v16.4h0.2V589.9 M776.5,564.9H775v0.1h0.1H775v22.9h0.2v-22.8h1.4V564.9 M783.2,564.9h-2.6v0.2h2.4
		v22.8h0.2V564.9"/>
	<polyline fill="#FFFFFF" points="780.4,497.1 776.7,497.1 776.7,565.4 780.4,565.4 780.4,497.1 	"/>
	<path fill="#FFFFFF" d="M776.7,497.1h3.6v68.3h-3.6V497.1 M780.6,496.9h-4v0.1h0.1h-0.1v67.9v0.2v0.5h4v-0.5v-0.2V496.9"/>
	<polyline fill="#FFFFFF" points="783.4,455.7 774.8,455.7 774.8,496.4 783.4,496.4 783.4,455.7 	"/>
	<path fill="#FFFFFF" d="M774.8,455.7h8.6v40.7h-8.6V455.7 M783.6,455.5h-9v0.1h0.1h-0.1v41.1h9V455.5"/>
	<polyline fill="#FFFFFF" points="1120.3,357.3 738.3,453.2 740.9,463.2 825.8,441.9 826.3,440.7 828,441.3 891.4,425.4 
		891.4,425.3 893.3,424.8 893.3,424.9 1077.1,378.8 1084,376.4 1084,377 1122.8,367.3 1120.3,357.3 	"/>
	<path fill="#FFFFFF" d="M891.4,425.4L828,441.3l0.1,0l-0.1,0.2l63.3-15.9L891.4,425.4 M1077.1,378.8l-183.8,46.2l0,0.2l182-45.7
		v-0.1L1077.1,378.8 M1122.9,367.4L1122.9,367.4L1122.9,367.4L1122.9,367.4L1122.9,367.4L1122.9,367.4 M1120.4,357l-382.3,96
		l2.6,10.4l85-21.3l0.1-0.2l-84.9,21.3l-2.5-10l381.9-95.9l2.5,10L1084,377v0.2l39-9.8l0-0.1L1120.4,357"/>
	<path fill="#FFFFFF" d="M924.3,606.3h-80.3v0.6c4.5,0.1,8.3,0.6,10.5,1.4h59.3c0.6-0.2,1.3-0.4,2.1-0.6c2.2-0.5,5.2-0.8,8.4-0.8
		V606.3 M1006.9,606.3h-80.6v0.6c4.5,0.1,8.3,0.6,10.5,1.4h59.6c0.6-0.2,1.3-0.4,2.1-0.6c2.2-0.5,5.2-0.8,8.4-0.8V606.3
		 M1075.3,606.3h-66.4v0.6c4.5,0.1,8.3,0.6,10.5,1.4h54.9v18.6H783.9v-18.6h47.7c0.6-0.2,1.3-0.4,2.1-0.6c2.2-0.5,5.2-0.8,8.4-0.8
		v-0.6h-58.9H783h-1.1v1h1h-1v21.6h1.1h0.2h292.2V606.3"/>
	<path fill="#FFFFFF" d="M1080.3,589.9v-2h3.1v2H1080.3 M1084.1,562.4c-1.6,0.3-3.4,0.5-5.6,0.5c0,0,0,0,0,0c0,0,0,0,0,0
		c-1.1,0-2,0-2.9-0.1l0,25.2h1.7v2h-1.7l0,40.5h8.6V562.4"/>
	<path fill="#FFFFFF" d="M1075.3,562.7v25.2h0.2l0-25.2C1075.5,562.7,1075.4,562.7,1075.3,562.7 M1084.3,562.3c-0.1,0-0.1,0-0.2,0
		v68h-8.6l0-40.5h-0.2v16.4v22.6v1.7h2.2v0h0.1h-0.1v-0.1h4v0.1h2.7V562.3"/>
	<polyline fill="#FFFFFF" points="1081.4,492.4 1077.8,492.4 1077.8,560.7 1081.4,560.7 1081.4,492.4 	"/>
	<path fill="#FFFFFF" d="M1077.8,492.4h3.6v68.3h-3.6V492.4 M1081.6,492.3h-4v0.1h0.1h-0.1v68.5c0.3,0,0.6,0,0.9,0
		c1.1,0,2.2,0,3.1-0.1V492.3"/>
	<polyline fill="#FFFFFF" points="1084.1,451.3 1081.6,451.3 1081.6,451.4 1077.6,451.4 1077.6,451.3 1075.6,451.3 1075.6,492 
		1084.1,492 1084.1,451.3 	"/>
	<polyline fill="#FFFFFF" points="1084.3,451.1 1081.6,451.1 1081.6,451.3 1084.1,451.3 1084.1,492 1075.6,492 1075.6,451.3 
		1077.6,451.3 1077.6,451.1 1075.3,451.1 1075.3,451.2 1075.5,451.2 1075.3,451.2 1075.3,492.3 1077.6,492.3 1081.6,492.3 
		1084.3,492.3 1084.3,451.1 	"/>
	<polyline fill="#FFFFFF" points="1081.4,418 1077.8,418 1077.8,451.2 1081.4,451.2 1081.4,418 	"/>
	<polyline fill="#FFFFFF" points="1081.6,418 1081.4,418 1081.4,451.2 1077.8,451.2 1077.8,418 1077.6,418 1077.6,451.1 
		1077.6,451.3 1077.6,451.4 1081.6,451.4 1081.6,451.3 1081.6,451.1 1081.6,418 	"/>
	<polyline fill="#FFFFFF" points="1083.8,376.7 1075.6,379.5 1075.6,417.8 1083.8,417.8 1083.8,376.7 	"/>
	<path fill="#FFFFFF" d="M1083.9,417.9L1083.9,417.9v-0.1V417.9h0.1H1083.9 M1075.6,417.8v-38.3l8.3-2.8l0,41.1H1075.6 M1084,376.4
		l-6.9,2.4l-1.8,0.6v0.1V418h2.2h0.2h3.6h0.2h2.4v-0.1v-40.6V377V376.4"/>
	<polyline fill="#FFFFFF" points="811.4,1042.5 782.7,1042.5 782.7,1074.6 811.4,1074.6 811.4,1042.5 	"/>
	<polyline fill="#FFFFFF" points="782.5,1042.4 782.5,1042.4 782.5,1074.6 782.7,1074.6 782.7,1042.5 811.4,1042.5 811.4,1074.6 
		811.6,1074.6 811.6,1042.5 782.5,1042.5 782.5,1042.4 	"/>
	<polyline fill="#FFFFFF" points="816.9,1074.8 770.8,1074.8 770.8,1083.4 816.9,1083.4 816.9,1074.8 	"/>
	<path fill="#FFFFFF" d="M770.8,1074.8h46.2v8.6h-46.2V1074.8 M817.1,1074.6h-5.5h-0.2h-28.7h-0.2h-7.4H775h-4.4v0.1h0.1h-0.1v8.9
		h46.6V1074.6"/>
	<polyline fill="#FFFFFF" points="1076.3,1042.5 1047.6,1042.5 1047.6,1074.6 1076.3,1074.6 1076.3,1042.5 	"/>
	<polyline fill="#FFFFFF" points="1076.5,1042.4 1076.5,1042.4 1076.5,1042.5 1047.4,1042.5 1047.4,1074.6 1047.6,1074.6 
		1047.6,1042.5 1076.3,1042.5 1076.3,1074.6 1076.5,1074.6 1076.5,1042.4 	"/>
	<polyline fill="#FFFFFF" points="1088.7,1074.8 1042.5,1074.8 1042.5,1083.4 1088.7,1083.4 1088.7,1074.8 	"/>
	<path fill="#FFFFFF" d="M1042.5,1074.8h46.2v8.6h-46.2V1074.8 M1088.9,1074.6h-3v0.2h-9v-0.2h-0.4h-0.2h-28.7h-0.2h-5v0.1h0.1h-0.1
		v8.9h46.6V1074.6"/>
	<polyline fill="#FFFFFF" points="905.1,459.4 813.3,459.4 809.8,464.7 908.4,464.7 905.1,459.4 	"/>
	<path fill="#FFFFFF" d="M910.2,465.7L910.2,465.7v-1V465.7l0.8-0.5L910.2,465.7 M809.8,464.7l3.5-5.4h91.8l3.3,5.4H809.8
		 M906.2,457.4h-5l0,0.2l-1.9,0.5l-0.2-0.7H822l-0.3,0.8l-1.9-0.7l0-0.1h-7.7l-6,9.4H912l-0.9-1.5L906.2,457.4"/>
	<polyline fill="#FFFFFF" points="826.3,440.7 825.8,441.9 825.7,442.1 819.9,457.4 819.8,457.5 821.7,458.2 822,457.4 828.1,441.5 
		828.1,441.4 828,441.3 826.3,440.7 	"/>
	<polyline fill="#FFFFFF" points="893.3,424.8 891.4,425.3 891.4,425.4 891.4,425.6 899.2,457.4 899.4,458.1 901.3,457.6 
		901.3,457.4 893.4,425.1 893.3,424.9 893.3,424.8 	"/>
	<polyline fill="#FFFFFF" points="1026,460 934.2,460 930.7,465.9 1029.3,465.9 1026,460 	"/>
	<path fill="#FFFFFF" d="M1031,466.9L1031,466.9v-1V466.9l0.9-0.5L1031,466.9 M930.7,465.9l3.5-5.8h91.8l3.3,5.8H930.7 M1027.1,458
		h-4.9l0,0.2l-2,0.4l-0.1-0.5h-77.6l-0.1,0.6l-1.9-0.5l0-0.1h-7.5l-5.9,9.8h105.5l-0.9-1.5L1027.1,458"/>
	<polyline fill="#FFFFFF" points="952.3,410.9 940.5,458 940.5,458.1 942.5,458.6 942.6,458 954.2,411.4 952.3,410.9 	"/>
	<polyline fill="#FFFFFF" points="1010.8,397 1008.8,397.4 1020.2,458 1020.3,458.6 1022.2,458.2 1022.2,458 1010.8,397 	"/>
	<path fill="#FFFFFF" d="M885.1,847.5v1.1h0.1L885.1,847.5C885.2,847.5,885.1,847.5,885.1,847.5 M885.2,831.6L885.2,831.6l-0.1,15.8
		c0,0,0.1,0,0.1,0V831.6"/>
	<path fill="#FFFFFF" d="M892.4,854.6L892.4,854.6L892.4,854.6 M884.9,847.5c-3.9,0-7.1,3.3-7.1,7.1c0,1,0.9,1.7,2.3,2.2
		c1.4,0.5,3.2,0.7,5,0.7c1.8,0,3.6-0.2,5-0.7c1.4-0.5,2.3-1.2,2.3-2.2h0h0c0,0.9-0.9,1.6-2.2,2.1c-1.4,0.5-3.2,0.7-5,0.7
		s-3.6-0.2-5-0.7c-1.4-0.5-2.2-1.2-2.2-2.1c0-1.9,0.8-3.7,2.1-5C881.1,848.3,882.9,847.5,884.9,847.5c0.1,0.1,0.2,0.1,0.2,0.1
		c0,0,0.1,0,0.1,0c4.2,0.2,7.1,3.3,7.1,7h0h0l0,0c0-1.9-0.8-3.7-2.1-5c-1.3-1.2-3-2-5.1-2.1c0,0-0.1,0-0.1,0
		C885,847.5,884.9,847.5,884.9,847.5"/>
	<path fill="#FFFFFF" d="M972.5,847.2C972.5,847.2,972.5,847.2,972.5,847.2L972.5,847.2C972.4,847.2,972.4,847.2,972.5,847.2
		l-0.1,1.1h0.1V847.2 M972.5,830.9L972.5,830.9l-0.1,16.2c0,0,0,0,0,0l0,0c0,0,0,0,0,0V830.9"/>
	<path fill="#FFFFFF" d="M980,854.2L980,854.2L980,854.2 M973.1,847.1c-0.2,0-0.4,0-0.6,0c0,0,0,0,0,0l0,0c0,0,0,0,0,0
		c-3.9,0-7.1,3.3-7.1,7.1c0,1,0.9,1.7,2.3,2.2c1.4,0.5,3.2,0.7,5,0.7c1.8,0,3.6-0.2,5-0.7c1.4-0.5,2.3-1.2,2.3-2.2h0h0
		c0,0.9-0.9,1.6-2.2,2.1c-1.4,0.5-3.2,0.7-5,0.7c-1.8,0-3.6-0.2-5-0.7c-1.4-0.5-2.2-1.2-2.2-2.1c0-1.9,0.8-3.7,2.1-5
		c1.3-1.3,3-2.1,4.9-2.1c0,0,0,0,0,0h0c0,0,0,0,0,0C972.7,847.1,972.9,847.1,973.1,847.1c4,0.1,6.8,3.3,6.8,7.2h0h0l0,0
		c0-2-0.7-3.7-1.9-5C976.9,847.9,975.1,847.1,973.1,847.1"/>
	<path fill="#FFFFFF" d="M1104,554.9C1104,554.9,1104,554.9,1104,554.9C1104,554.9,1104,554.9,1104,554.9c-3.3,0-5.8,0.4-7.8,1
		c-3.1,0.9-5.3,2.2-7.7,3.2c-1.9,0.8-3.9,1.4-6.9,1.7v0.2h-4v-0.1c-2.6-0.1-4.6-0.4-6.3-0.9c-2.8-0.8-4.9-2-7.5-3.1
		c-2.6-1.1-5.8-2-10.7-2c0,0,0,0,0,0c0,0,0,0,0,0c-3.3,0-5.8,0.4-7.9,1c-3.2,0.9-5.3,2.2-7.8,3.2c-2.4,1-5.2,1.8-9.7,1.8
		c-0.1,0-0.2,0-0.3,0c-0.3,0-0.6,0-0.9,0l-0.8,1.2l0.1,0.8c0.6,0,1.3,0,1.9,0c0,0,0.1,0,0.1,0c6.3,0,9.7-1.6,12.9-3.1
		c1.6-0.7,3.1-1.5,5.1-2c1.9-0.5,4.3-0.9,7.4-0.9c3.1,0,5.4,0.4,7.3,0.9c2.9,0.8,4.9,2,7.5,3.1c2,0.8,4.3,1.5,7.5,1.8v-1.6h0.1h-0.1
		V561h9v1.4c0.7-0.1,1.4-0.3,2.1-0.5c3.1-0.9,5.3-2.2,7.7-3.2c2.4-1,5.2-1.8,9.9-1.8c3.1,0,5.4,0.4,7.3,0.9c2.9,0.8,4.9,2,7.5,3.1
		c2.6,1.1,5.8,2,10.6,2c0,0,0,0,0,0v-2c-3.1,0-5.4-0.4-7.3-0.9c-2.8-0.8-4.9-2-7.5-3.1C1112.1,555.7,1108.9,554.9,1104,554.9"/>
	<path fill="#FFFFFF" d="M1084.1,561.2h-8.6v1.5c0.9,0.1,1.9,0.1,2.9,0.1c0,0,0,0,0,0c0,0,0,0,0,0c2.2,0,4-0.2,5.6-0.5V561.2"/>
	<path fill="#FFFFFF" d="M1084.3,561h-9v0.1h0.1h-0.1v1.6c0.1,0,0.1,0,0.2,0v-1.5h8.6v1.2c0.1,0,0.1,0,0.2,0V561"/>
	<path fill="#FFFFFF" d="M1081.6,560.7c-0.9,0.1-2,0.1-3.1,0.1c-0.3,0-0.6,0-0.9,0v0.1h4V560.7"/>
	<path fill="#FFFFFF" d="M1036,547.1c-9.5,4.6-22.8,8-33.9,9c9,5.8,19.3,15.2,25.1,24l-1.5-17.2l-0.1-0.8l0.8-1.2L1036,547.1"/>
	<polyline fill="#FFFFFF" points="1085.7,1002.5 1077.1,1002.5 1077.1,1027.1 1077.1,1027.1 1077.1,1027.2 1077.1,1074.6 
		1085.7,1074.6 1085.7,1002.5 	"/>
	<polyline fill="#FFFFFF" points="1085.9,1002.2 1076.9,1002.2 1076.9,1002.4 1077,1002.4 1076.9,1002.4 1076.9,1027.1 
		1077.1,1027.1 1077.1,1002.5 1085.7,1002.5 1085.7,1074.6 1077.1,1074.6 1077.1,1027.2 1076.9,1032 1076.9,1074.6 1076.9,1074.8 
		1085.9,1074.8 1085.9,1074.6 1085.9,1002.2 	"/>
	<polyline fill="#FFFFFF" points="1083.7,663.4 1081.6,663.4 1081.6,664.6 1077.6,664.6 1077.6,663.4 1075.2,663.4 1075.2,689.7 
		1083.7,689.7 1083.7,663.4 	"/>
	<path fill="#FFFFFF" d="M1077.6,663.2h-2.6v0.1h0.1h-0.1v26.4h0.2l0-26.3h2.4V663.2 M1084,663.2h-2.3v0.2h2.1v26.3h0.2V663.2"/>
	<path fill="#FFFFFF" d="M1127.4,734.2c0,0-3.7,0-8.8,0v3c3,0,5.5,0,7.1,0v-2.4h1.7V734.2 M1081.6,723.1v3c2.1,0.3,3.8,0.8,5.1,1.3
		c1.7,0.7,3,1.6,4.1,2.6c1.6,1.5,2.8,3.2,4.6,4.6c0.9,0.7,1.9,1.4,3.2,1.8c0.3,0.1,0.6,0.2,1,0.3l0-3.1c-1.3-0.5-2.2-1.2-3.2-2.2
		c-1.6-1.6-3.2-3.8-6.2-5.7c-1.5-0.9-3.3-1.7-5.5-2.3C1083.8,723.4,1082.7,723.2,1081.6,723.1 M1076.4,722.8c-0.8,0-1.9,0-3.1,0v3
		c1.2,0,2.3,0,3.1,0c0.4,0,0.8,0,1.2,0v-3C1077.2,722.8,1076.8,722.8,1076.4,722.8 M1081.6,648.8v3.2c0.2,0.1,0.5,0.2,0.7,0.3
		c2.6,1.1,5,2.8,7.7,4.3c2.7,1.5,5.7,2.8,9.4,2.8c0,0,0,0,0,0c4.1,0,14.6,0,25.1,0l0.6-1.7l-0.5-1.3c-10.6,0-21.2,0-25.3,0
		c-2,0-3.7-0.5-5.4-1.2c-2.6-1.1-5-2.8-7.7-4.3C1084.9,650,1083.3,649.3,1081.6,648.8 M1076.9,648C1076.9,648,1076.9,648,1076.9,648
		c-4.3,0-52,0-98.6,0c-23.3,0-46.3,0-63.5,0c-8.6,0-15.7,0-20.7,0c-2.5,0-4.5,0-5.8,0s-2,0-2,0h0l0,0c-7.8,0.2-13.8,1.4-18.3,3.2
		c-6.8,2.6-10.5,6.5-12.3,9.9c-1.8,3.3-1.9,6.1-1.9,6.5l0,0v39.3c0,2.2,0.5,4.2,1.5,6c1.7,3.1,4.6,5.4,8.1,7.2
		c5.2,2.6,11.9,4.1,18.4,4.9c6.5,0.8,12.9,1,17.6,1c4.1,0,6.8-0.2,7.2-0.2c0.3,0,2.6,0,6.4,0c21.7,0,93,0,134.6,0l-0.6-3
		c-17.7,0-40.7,0-62.9,0c-20,0-39.4,0-53.8,0c-7.2,0-13.1,0-17.3,0c-4.1,0-6.5,0-6.5,0h0l0,0l-0.1,0c-0.6,0-3.2,0.2-7,0.2
		c0,0-0.1,0-0.1,0c-7,0-17.9-0.5-26.9-2.8c-4.5-1.2-8.5-2.9-11.3-5c-1.4-1.1-2.5-2.3-3.2-3.7c-0.7-1.3-1.1-2.8-1.1-4.6v-39.3l0,0
		c0-0.1,0-1.1,0.5-2.5c0.7-2.2,2.3-5.5,6.6-8.3c4.3-2.9,11.2-5.3,22.5-5.6c2.1,0,182,0,190.7,0c0.2,0,0.4,0,0.6,0v-3
		C1077.4,648,1077.2,648,1076.9,648"/>
	<path fill="#FFFFFF" d="M1125.7,664.4v-3.1h2v3.1H1125.7 M1125.7,658.3v-3.1h2v3.1H1125.7 M1125.7,652.2v-3.1h2v3.1H1125.7
		 M1118.9,640.9l5.8,15.5l0.5,1.3l-0.6,1.7l-5.6,15.1c2-1.7,4.3-3.3,6.8-5v-2h2v0.7c6.8-4.2,14.7-8,21.7-10.6
		c-7.3-2.5-16.1-6.8-23.4-11.6h-0.4v-0.2C1123.2,644.2,1120.9,642.5,1118.9,640.9"/>
	<path fill="#FFFFFF" d="M842.1,607c-5.1,0.1-9.4,0.8-11.3,1.8c-0.7,0.3-1,0.7-1,1.1c0,0.4,0.4,0.7,1,1.1c0.7,0.3,1.6,0.7,2.8,0.9
		c2.4,0.5,5.7,0.8,9.4,0.8c0,0,0,0,0,0c5.5,0,10.3-0.7,12.3-1.8c0.7-0.3,1-0.7,1-1.1c0-0.4-0.4-0.7-1-1.1c-0.7-0.3-1.6-0.7-2.8-0.9
		c-2.2-0.5-5.1-0.8-8.4-0.8v2.8h-2V607"/>
	<path fill="#FFFFFF" d="M842.1,606.9c-3.3,0.1-6.2,0.4-8.4,0.8c-0.8,0.2-1.5,0.4-2.1,0.6c-0.3,0.1-0.6,0.2-0.8,0.3
		c-0.7,0.3-1.1,0.7-1.1,1.2c0,0.4,0.4,0.8,1.1,1.2c2,1,6.8,1.8,12.3,1.8c3.7,0,7-0.3,9.4-0.8c1.2-0.3,2.2-0.6,2.9-0.9
		c0.7-0.3,1.1-0.7,1.1-1.2c0-0.4-0.4-0.8-1.1-1.2c-0.2-0.1-0.5-0.2-0.8-0.3c-2.2-0.8-6-1.3-10.5-1.4v0.1c3.3,0.1,6.2,0.4,8.4,0.8
		c1.2,0.3,2.2,0.6,2.8,0.9c0.7,0.3,1,0.7,1,1.1c0,0.4-0.4,0.7-1,1.1c-2,1-6.7,1.8-12.3,1.8c0,0,0,0,0,0c-3.7,0-7-0.3-9.4-0.8
		c-1.2-0.3-2.2-0.6-2.8-0.9c-0.7-0.3-1-0.7-1-1.1c0-0.4,0.4-0.7,1-1.1C832.7,607.7,837,607,842.1,606.9L842.1,606.9"/>
	<path fill="#FFFFFF" d="M924.3,607c-5.1,0.1-9.4,0.8-11.3,1.8c-0.7,0.3-1,0.7-1,1.1c0,0.4,0.4,0.7,1,1.1c0.7,0.3,1.6,0.7,2.8,0.9
		c2.4,0.5,5.7,0.8,9.4,0.8c0,0,0,0,0,0c5.5,0,10.3-0.7,12.3-1.8c0.7-0.3,1-0.7,1-1.1c0-0.4-0.4-0.7-1-1.1c-0.7-0.3-1.6-0.7-2.8-0.9
		c-2.2-0.5-5.1-0.8-8.4-0.8v0.8h-2V607"/>
	<path fill="#FFFFFF" d="M924.3,606.9c-3.3,0.1-6.2,0.4-8.4,0.8c-0.8,0.2-1.5,0.4-2.1,0.6c-0.3,0.1-0.6,0.2-0.8,0.3
		c-0.7,0.3-1.1,0.7-1.1,1.2c0,0.4,0.4,0.8,1.1,1.2c2,1,6.8,1.8,12.3,1.8c3.7,0,7-0.3,9.4-0.8c1.2-0.3,2.2-0.6,2.9-0.9
		c0.7-0.3,1.1-0.7,1.1-1.2c0-0.4-0.4-0.8-1.1-1.2c-0.2-0.1-0.5-0.2-0.8-0.3c-2.2-0.8-6-1.3-10.5-1.4v0.1c3.3,0.1,6.2,0.4,8.4,0.8
		c1.2,0.3,2.2,0.6,2.8,0.9c0.7,0.3,1,0.7,1,1.1c0,0.4-0.4,0.7-1,1.1c-2,1-6.7,1.8-12.3,1.8c0,0,0,0,0,0c-3.7,0-7-0.3-9.4-0.8
		c-1.2-0.3-2.2-0.6-2.8-0.9c-0.7-0.3-1-0.7-1-1.1c0-0.4,0.4-0.7,1-1.1C915,607.7,919.3,607,924.3,606.9L924.3,606.9"/>
	<path fill="#FFFFFF" d="M1008.9,607v5.7c5.1-0.1,9.4-0.8,11.3-1.8c0.7-0.3,1-0.7,1-1.1c0-0.4-0.4-0.7-1-1.1
		c-0.7-0.3-1.6-0.7-2.8-0.9C1015.1,607.3,1012.2,607,1008.9,607 M1006.9,607c-5.1,0.1-9.4,0.8-11.3,1.8c-0.7,0.3-1,0.7-1,1.1
		c0,0.4,0.4,0.7,1,1.1c0.7,0.3,1.6,0.7,2.8,0.9c2.2,0.5,5.1,0.8,8.4,0.8V607"/>
	<path fill="#FFFFFF" d="M1008.9,606.9L1008.9,606.9c3.3,0.2,6.2,0.5,8.4,0.9c1.2,0.3,2.2,0.6,2.8,0.9c0.7,0.3,1,0.7,1,1.1
		c0,0.4-0.4,0.7-1,1.1c-1.9,1-6.2,1.7-11.3,1.8v0.1c3.3-0.1,6.2-0.4,8.4-0.8c1.2-0.3,2.2-0.6,2.9-0.9c0.7-0.3,1.1-0.7,1.1-1.2
		c0-0.4-0.4-0.8-1.1-1.2c-0.2-0.1-0.5-0.2-0.8-0.3C1017.2,607.5,1013.4,606.9,1008.9,606.9 M1006.9,606.9c-3.3,0.1-6.2,0.4-8.4,0.8
		c-0.8,0.2-1.5,0.4-2.1,0.6c-0.3,0.1-0.6,0.2-0.8,0.3c-0.7,0.3-1.1,0.7-1.1,1.2c0,0.4,0.4,0.8,1.1,1.2c1.9,1,6.2,1.7,11.3,1.8v-0.1
		c-3.3-0.1-6.2-0.4-8.4-0.8c-1.2-0.3-2.2-0.6-2.8-0.9c-0.7-0.3-1-0.7-1-1.1c0-0.4,0.4-0.7,1-1.1
		C997.5,607.7,1001.8,607,1006.9,606.9L1006.9,606.9"/>
	<polyline fill="#FFFFFF" points="843.1,599.8 842.1,600.2 842.1,606.3 844.1,606.3 844.1,600.2 843.1,599.8 	"/>
	<path fill="#FFFFFF" d="M844.1,606.3h-2v0.6c0.3,0,0.7,0,1,0l0,0c0.3,0,0.7,0,1,0V606.3"/>
	<path fill="#FFFFFF" d="M843.1,606.9C843.1,606.9,843.1,606.9,843.1,606.9L843.1,606.9c-0.3,0-0.7,0-1,0v2.8h2V607
		C843.7,606.9,843.4,606.9,843.1,606.9"/>
	<path fill="#FFFFFF" d="M843.1,606.8L843.1,606.8c-0.3,0-0.7,0-1,0v0.1C842.4,606.9,842.7,606.9,843.1,606.8L843.1,606.8
		C843.1,606.9,843.1,606.9,843.1,606.8c0.3,0.1,0.7,0.1,1,0.1v-0.1C843.7,606.8,843.4,606.8,843.1,606.8"/>
	<path fill="#FFFFFF" d="M843.2,589.9H843c-1.7,4.1-4.2,9.1-6.8,12.4l5.9-2.2l1-0.4l1,0.4l5.9,2.2
		C847.5,599.1,844.8,594.2,843.2,589.9"/>
	<polyline fill="#FFFFFF" points="925.3,597.4 924.3,597.7 924.3,606.3 926.3,606.3 926.3,597.7 925.3,597.4 	"/>
	<path fill="#FFFFFF" d="M926.3,606.3h-2v0.6c0.3,0,0.7,0,1,0l0,0c0.3,0,0.7,0,1,0V606.3"/>
	<path fill="#FFFFFF" d="M925.4,606.9C925.4,606.9,925.3,606.9,925.4,606.9L925.4,606.9c-0.3,0-0.7,0-1,0v0.8h2V607
		C926,606.9,925.7,606.9,925.4,606.9"/>
	<path fill="#FFFFFF" d="M925.3,606.8L925.3,606.8c-0.3,0-0.7,0-1,0v0.1C924.7,606.9,925,606.9,925.3,606.8L925.3,606.8
		C925.3,606.9,925.4,606.9,925.3,606.8c0.3,0.1,0.7,0.1,1,0.1v-0.1C926,606.8,925.7,606.8,925.3,606.8"/>
	<path fill="#FFFFFF" d="M925.3,587.2c-1.3,4.5-4.4,9.8-6.9,12.7l5.9-2.2l1-0.4l1,0.4l5.9,2.2C929.7,596.6,926.9,591.6,925.3,587.2"
		/>
	<polyline fill="#FFFFFF" points="1007.9,603 1006.9,603.3 1006.9,606.3 1008.9,606.3 1008.9,603.3 1007.9,603 	"/>
	<path fill="#FFFFFF" d="M1008.9,606.3h-2v0.6c0.3,0,0.7,0,1,0l0,0c0.3,0,0.7,0,1,0V606.3"/>
	<path fill="#FFFFFF" d="M1006.9,612.7v0.4h2v-0.4c-0.3,0-0.7,0-1,0C1007.6,612.7,1007.2,612.7,1006.9,612.7"/>
	<path fill="#FFFFFF" d="M1007.9,606.9C1007.9,606.9,1007.9,606.9,1007.9,606.9L1007.9,606.9c-0.3,0-0.7,0-1,0v5.7c0.3,0,0.7,0,1,0
		c0,0,0,0,0,0c0.3,0,0.7,0,1,0V607C1008.6,606.9,1008.2,606.9,1007.9,606.9"/>
	<path fill="#FFFFFF" d="M1006.9,612.6L1006.9,612.6c0.3,0.1,0.7,0.1,1,0.1c0.3,0,0.7,0,1,0v-0.1c-0.3,0-0.7,0-1,0c0,0,0,0,0,0
		C1007.6,612.6,1007.2,612.6,1006.9,612.6 M1007.9,606.8L1007.9,606.8c-0.3,0-0.7,0-1,0v0.1C1007.2,606.9,1007.6,606.9,1007.9,606.8
		L1007.9,606.8C1007.9,606.9,1007.9,606.9,1007.9,606.8c0.3,0.1,0.7,0.1,1,0.1v-0.1C1008.6,606.8,1008.2,606.8,1007.9,606.8"/>
	<path fill="#FFFFFF" d="M1007.9,592.8c-1.6,4.2-4.2,9.3-7.1,12.7l6.1-2.2l1-0.4l1,0.4l5.9,2.2
		C1012.3,602.2,1009.5,597.2,1007.9,592.8"/>
	<path fill="#FFFFFF" d="M843.5,804.8h-60.3H783v1h0.2h0.8h-0.8H783v21.6h0.2h271.2v-2H785v-18.6h48.8c0.4-0.1,0.8-0.2,1.2-0.3
		c2.2-0.5,5.2-0.8,8.4-0.8V804.8 M925.7,804.8h-80.3v0.9c3.9,0.1,7.4,0.5,9.6,1.1h61c0.4-0.1,0.8-0.2,1.2-0.3
		c2.2-0.5,5.2-0.8,8.4-0.8V804.8 M1008.1,804.8h-80.4v0.9c3.9,0.1,7.4,0.5,9.6,1.1h61.1c0.4-0.1,0.8-0.2,1.2-0.3
		c2.2-0.5,5.2-0.8,8.4-0.8V804.8 M1054.3,804.8h-44.2v0.9c3.9,0.1,7.4,0.5,9.6,1.1h34.6V804.8 M1076.9,804.8h-3.6v2h2.1v18.6h-2.1v2
		h3.6V804.8"/>
	<path fill="#FFFFFF" d="M843.5,805.8c-5.1,0.1-9.4,0.8-11.3,1.8c-0.7,0.3-1,0.7-1,1.1c0,0.4,0.4,0.7,1,1.1c0.7,0.3,1.6,0.7,2.8,0.9
		c2.4,0.5,5.7,0.8,9.4,0.8c5.5,0,10.3-0.7,12.3-1.8c0.7-0.3,1-0.7,1-1.1c0-0.4-0.4-0.7-1-1.1c-0.7-0.3-1.6-0.7-2.8-0.9
		c-2.2-0.5-5.1-0.8-8.4-0.8v2.8h-2V805.8"/>
	<path fill="#FFFFFF" d="M843.5,805.7c-3.3,0.1-6.2,0.4-8.4,0.8c-0.4,0.1-0.8,0.2-1.2,0.3c-0.7,0.2-1.2,0.4-1.7,0.6
		c-0.7,0.3-1.1,0.7-1.1,1.2c0,0.4,0.4,0.8,1.1,1.2c2,1,6.8,1.8,12.3,1.8c3.7,0,7-0.3,9.4-0.8c1.2-0.3,2.2-0.6,2.9-0.9
		c0.7-0.3,1.1-0.7,1.1-1.2c0-0.4-0.4-0.8-1.1-1.2c-0.4-0.2-1-0.4-1.7-0.6c-2.3-0.6-5.7-1.1-9.6-1.1v0.1c3.3,0.1,6.2,0.4,8.4,0.8
		c1.2,0.3,2.2,0.6,2.8,0.9c0.7,0.3,1,0.7,1,1.1c0,0.4-0.4,0.7-1,1.1c-2,1-6.7,1.8-12.3,1.8c-3.7,0-7-0.3-9.4-0.8
		c-1.2-0.3-2.2-0.6-2.8-0.9c-0.7-0.3-1-0.7-1-1.1c0-0.4,0.4-0.7,1-1.1C834.1,806.5,838.4,805.8,843.5,805.7L843.5,805.7"/>
	<path fill="#FFFFFF" d="M925.7,805.8c-5.1,0.1-9.4,0.8-11.3,1.8c-0.7,0.3-1,0.7-1,1.1c0,0.4,0.4,0.7,1,1.1c0.7,0.3,1.6,0.7,2.8,0.9
		c2.4,0.5,5.7,0.8,9.4,0.8c5.5,0,10.3-0.7,12.3-1.8c0.7-0.3,1-0.7,1-1.1c0-0.4-0.4-0.7-1-1.1c-0.7-0.3-1.6-0.7-2.8-0.9
		c-2.2-0.5-5.1-0.8-8.4-0.8v1h-2V805.8"/>
	<path fill="#FFFFFF" d="M925.7,805.7c-3.3,0.1-6.2,0.4-8.4,0.8c-0.4,0.1-0.8,0.2-1.2,0.3c-0.7,0.2-1.2,0.4-1.7,0.6
		c-0.7,0.3-1.1,0.7-1.1,1.2c0,0.4,0.4,0.8,1.1,1.2c2,1,6.8,1.8,12.3,1.8c3.7,0,7-0.3,9.4-0.8c1.2-0.3,2.2-0.6,2.9-0.9
		c0.7-0.3,1.1-0.7,1.1-1.2c0-0.4-0.4-0.8-1.1-1.2c-0.4-0.2-1-0.4-1.7-0.6c-2.3-0.6-5.7-1.1-9.6-1.1v0.1c3.3,0.1,6.2,0.4,8.4,0.8
		c1.2,0.3,2.2,0.6,2.8,0.9c0.7,0.3,1,0.7,1,1.1c0,0.4-0.4,0.7-1,1.1c-2,1-6.7,1.8-12.3,1.8c-3.7,0-7-0.3-9.4-0.8
		c-1.2-0.3-2.2-0.6-2.8-0.9c-0.7-0.3-1-0.7-1-1.1c0-0.4,0.4-0.7,1-1.1C916.4,806.5,920.7,805.8,925.7,805.7L925.7,805.7"/>
	<path fill="#FFFFFF" d="M1008.1,805.8c-5.1,0.1-9.4,0.8-11.3,1.8c-0.7,0.3-1,0.7-1,1.1c0,0.4,0.4,0.7,1,1.1
		c0.7,0.3,1.6,0.7,2.8,0.9c2.4,0.5,5.7,0.8,9.4,0.8c5.5,0,10.3-0.7,12.3-1.8c0.7-0.3,1-0.7,1-1.1c0-0.4-0.4-0.7-1-1.1
		c-0.7-0.3-1.6-0.7-2.8-0.9c-2.2-0.5-5.1-0.8-8.4-0.8v2.4h-2V805.8"/>
	<path fill="#FFFFFF" d="M1008.1,805.7c-3.3,0.1-6.2,0.4-8.4,0.8c-0.4,0.1-0.8,0.2-1.2,0.3c-0.7,0.2-1.2,0.4-1.7,0.6
		c-0.7,0.3-1.1,0.7-1.1,1.2c0,0.4,0.4,0.8,1.1,1.2c2,1,6.8,1.8,12.3,1.8c3.7,0,7-0.3,9.4-0.8c1.2-0.3,2.2-0.6,2.9-0.9
		c0.7-0.3,1.1-0.7,1.1-1.2c0-0.4-0.4-0.8-1.1-1.2c-0.4-0.2-1-0.4-1.7-0.6c-2.3-0.6-5.7-1.1-9.6-1.1v0.1c3.3,0.1,6.2,0.4,8.4,0.8
		c1.2,0.3,2.2,0.6,2.8,0.9c0.7,0.3,1,0.7,1,1.1c0,0.4-0.4,0.7-1,1.1c-2,1-6.7,1.8-12.3,1.8c-3.7,0-7-0.3-9.4-0.8
		c-1.2-0.3-2.2-0.6-2.8-0.9c-0.7-0.3-1-0.7-1-1.1c0-0.4,0.4-0.7,1-1.1C998.7,806.5,1003,805.8,1008.1,805.7L1008.1,805.7"/>
	<polyline fill="#FFFFFF" points="844.5,798.4 843.5,798.8 843.5,804.8 845.5,804.8 845.5,798.8 844.5,798.4 	"/>
	<path fill="#FFFFFF" d="M845.5,804.8h-2v0.9c0.3,0,0.7,0,1,0l0,0c0.3,0,0.7,0,1,0V804.8"/>
	<path fill="#FFFFFF" d="M844.5,805.7c-0.3,0-0.7,0-1,0v2.8h2v-2.8C845.1,805.7,844.8,805.7,844.5,805.7L844.5,805.7"/>
	<path fill="#FFFFFF" d="M844.5,805.6L844.5,805.6c-0.3,0-0.7,0-1,0v0.1C843.8,805.7,844.1,805.7,844.5,805.6L844.5,805.6
		c0.3,0.1,0.7,0.1,1,0.1v-0.1C845.1,805.7,844.8,805.6,844.5,805.6"/>
	<path fill="#FFFFFF" d="M844.5,788.3c-1.6,4.2-4.4,9.6-6.9,12.7l5.9-2.2l1-0.4l1,0.4l5.9,2.2C848.9,797.7,846.1,792.6,844.5,788.3"
		/>
	<polyline fill="#FFFFFF" points="926.7,796.3 925.7,796.6 925.7,804.8 927.7,804.8 927.7,796.6 926.7,796.3 	"/>
	<path fill="#FFFFFF" d="M927.7,804.8h-2v0.9c0.3,0,0.7,0,1,0l0,0c0.3,0,0.7,0,1,0V804.8"/>
	<path fill="#FFFFFF" d="M926.7,805.7c-0.3,0-0.7,0-1,0v1h2v-1C927.4,805.7,927.1,805.7,926.7,805.7L926.7,805.7"/>
	<path fill="#FFFFFF" d="M926.7,805.6L926.7,805.6c-0.3,0-0.7,0-1,0v0.1C926.1,805.7,926.4,805.7,926.7,805.6L926.7,805.6
		c0.3,0.1,0.7,0.1,1,0.1v-0.1C927.4,805.7,927.1,805.6,926.7,805.6"/>
	<path fill="#FFFFFF" d="M926.7,786.1c-1.6,4.4-4.4,9.9-6.9,12.7l5.9-2.2l1-0.4l1,0.4l5.9,2.2C931.1,795.5,928.3,790.5,926.7,786.1"
		/>
	<polyline fill="#FFFFFF" points="1009.1,798 1008.1,798.3 1008.1,804.8 1010.1,804.8 1010.1,798.3 1009.1,798 	"/>
	<path fill="#FFFFFF" d="M1010.1,804.8h-2v0.9c0.3,0,0.7,0,1,0l0,0c0.3,0,0.7,0,1,0V804.8"/>
	<path fill="#FFFFFF" d="M1009.1,805.7c-0.3,0-0.7,0-1,0v2.4h2v-2.4C1009.8,805.7,1009.5,805.7,1009.1,805.7L1009.1,805.7"/>
	<path fill="#FFFFFF" d="M1009.1,805.6L1009.1,805.6c-0.3,0-0.7,0-1,0v0.1C1008.5,805.7,1008.8,805.7,1009.1,805.6L1009.1,805.6
		c0.3,0.1,0.7,0.1,1,0.1v-0.1C1009.8,805.7,1009.5,805.6,1009.1,805.6"/>
	<path fill="#FFFFFF" d="M1009.1,787.8c-1.5,4.3-4.5,9.3-6.9,12.7l5.9-2.2l1-0.4l1,0.4l5.9,2.2
		C1013.5,797.2,1010.7,792.2,1009.1,787.8"/>
	<path fill="#FFFFFF" d="M798.2,675.7H813v23.1h-14.8v-12.9h-0.2v-1c0-0.7,0.1-1.3,0.2-1.9V675.7 M815,673.7h-8.5v1.1h-2v-1.1h-8.3
		v1h1h-1v26.1H815V673.7"/>
	<path fill="#FFFFFF" d="M805.6,677.3c-2.1,0-4,0.8-5.4,2.2c-1,0.9-1.6,2.2-2,3.5c-0.1,0.6-0.2,1.2-0.2,1.9v1h0.2h6.1l0.1-2H800
		c0.2-1.2,0.7-2.2,1.5-3c1-1,2.4-1.6,4-1.6l0,0c1.5,0,2.9,0.5,3.8,1.4c0.9,0.8,1.4,1.9,1.5,3.2h-4.5l-0.1,2h6.5l0.1-0.9
		c0-0.2,0-0.5,0-0.7c0-2-0.8-3.8-2.2-5C809.4,678,807.6,677.3,805.6,677.3C805.6,677.3,805.6,677.3,805.6,677.3L805.6,677.3
		C805.6,677.3,805.6,677.3,805.6,677.3"/>
	<polyline fill="#FFFFFF" points="804.6,680.6 804.4,683.9 804.3,685.9 804.2,687.3 806.2,687.4 806.3,685.9 806.4,683.9 
		806.6,680.7 804.6,680.6 	"/>
	<path fill="#FFFFFF" d="M1085.7,947.3l-8.6,0.1v3.7h2V951h0.1h-0.1v-0.1h4v0.2h2.5V947.3 M1085.7,881.9h-8.6v44.2l8.6,0V881.9"/>
	<path fill="#FFFFFF" d="M1077.1,947.4l-0.2,0v3.9h2.2v-0.2h-2V947.4 M1085.9,947.3l-0.2,0v3.8h-2.5v0.2h2.7V947.3 M1085.9,881.7h-9
		v0.1h0.1h-0.1v44.3l0.2,0v-44.2h8.6v44.2l0.2,0V881.7"/>
	<polyline fill="#FFFFFF" points="1083,831 1079.4,831 1079.4,840.9 1080.6,840.9 1080.6,842.9 1079.4,842.9 1079.4,881.3 
		1083,881.3 1083,831 	"/>
	<polyline fill="#FFFFFF" points="1083.2,830.8 1079.2,830.8 1079.2,830.9 1079.3,830.9 1079.2,830.9 1079.2,840.9 1079.4,840.9 
		1079.4,831 1083,831 1083,881.3 1079.4,881.3 1079.4,842.9 1079.2,842.9 1079.2,881.5 1083.2,881.5 1083.2,830.8 	"/>
	<path fill="#FFFFFF" d="M1080.9,830v-2h3.1v2H1080.9 M1085.7,781.6h-4.1v1.6h-4v-1.6h-0.4V828h0.7v2h-0.7v0.4h8.6V781.6"/>
	<path fill="#FFFFFF" d="M1077.6,781.4h-0.7v0.1h0.1h-0.1v23.3v22.6v0.6h0.2v-46.3h0.4V781.4 M1085.9,781.4h-4.3v0.2h4.1v48.7h-8.6
		V830h-0.2v0.6h9V781.4"/>
	<polyline fill="#FFFFFF" points="1083,951.1 1079.4,951.1 1079.4,1001.4 1083,1001.4 1083,951.1 	"/>
	<path fill="#FFFFFF" d="M1079.4,951.1h3.6v50.3h-3.6V951.1 M1083.2,950.9h-4v0.1h0.1h-0.1v0.1v0.2v50.3h4v-50.3v-0.2V950.9"/>
	<path fill="#FFFFFF" d="M787.7,1026.9l0,2.8h91.6v-2h-0.4c0,0,0,0,0,0c-1.2,0-2.4-0.3-3.3-0.8L787.7,1026.9 M782.7,1026.9v15.4
		h293.6l0.6-15l-148-0.2c-0.9,0.4-1.8,0.7-2.9,0.7l0,0h-45.8v3h-93.6l0-3.8L782.7,1026.9"/>
	<path fill="#FFFFFF" d="M787.7,1026.7l0,0.2l87.9,0.1c-0.1-0.1-0.3-0.1-0.4-0.2l-65.5-0.1l0,0.2h-13.2l0-0.2L787.7,1026.7
		 M782.5,1026.7v15.6v0.1v0.1h29.1h235.7h29.1l0-0.1l0,0l0.4-10.4l0.2-4.8l0-0.1l-0.2,0l-147.6-0.2c-0.1,0.1-0.2,0.1-0.4,0.2
		l148,0.2l-0.6,15H782.7v-15.4l4,0l0-0.2l-3.5,0l-0.2,0L782.5,1026.7"/>
	<path fill="#FFFFFF" d="M820,967.6h-28.6v8.2c2.1,1.2,4.6,2.1,7.5,2.7l0.1,0l-2.2,48.2h12.7l-3.7-48.2l0.1,0
		C813.6,977.5,819.9,972.9,820,967.6"/>
	<path fill="#FFFFFF" d="M820,967.5h0.1H820 M820.2,967.4h-0.1h-28.7v0.2H820c-0.1,5.4-6.4,10-14.2,10.9l-0.1,0l3.7,48.2h-12.7
		l2.2-48.2l-0.1,0c-2.9-0.6-5.4-1.5-7.5-2.7v0.2c2.1,1.2,4.6,2.1,7.3,2.7l-2.2,48.1l0,0.2h13.2l0-0.2l-3.7-48.1
		c7.8-1,14.3-5.6,14.3-11.2V967.4"/>
	<path fill="#FFFFFF" d="M787.6,1004.9h-1l0.1,21.8l0,0.2l0,3.8h93.6v-3h-1v2h-91.6l0-2.8l0-0.2L787.6,1004.9 M798.2,958.5
		C798.2,958.6,798.2,958.6,798.2,958.5l0,0.1l0,0h0C798.3,958.6,798.3,958.6,798.2,958.5"/>
	<path fill="#FFFFFF" d="M797.9,956.4C797.9,956.4,797.9,956.4,797.9,956.4c-1.2,0-3.1,0.4-4.7,1c-0.7,0.2-1.3,0.5-1.8,0.8v2.3
		c0.2-0.3,0.6-0.5,1.2-0.8c0.6-0.3,1.2-0.6,2-0.8c1.4-0.5,2.9-0.9,3.6-0.9h0l0,0c0.3,0.3,0.3,0.7,0.3,1c0,0.3,0.1,0.5,0.2,0.6
		c0.1,0.1,0.3,0.2,0.6,0.2c0.3,0,0.5-0.1,0.6-0.2c0.1-0.1,0.2-0.3,0.2-0.6c0-0.3,0-1.8-1.2-2.4C798.7,956.5,798.3,956.4,797.9,956.4
		"/>
	<path fill="#FFFFFF" d="M797.9,956.2c-1.3,0-3.1,0.4-4.8,1c-0.6,0.2-1.2,0.5-1.7,0.8v0.2c0.5-0.3,1.2-0.6,1.8-0.8
		c1.6-0.6,3.5-1,4.7-1c0,0,0,0,0,0c0.4,0,0.8,0,1,0.1c1.2,0.6,1.2,2.1,1.2,2.4c0,0.3-0.1,0.5-0.2,0.6c-0.1,0.1-0.3,0.2-0.6,0.2
		c-0.3,0-0.5-0.1-0.6-0.2c-0.1-0.1-0.2-0.3-0.2-0.6c0-0.3,0-0.7-0.3-1l0,0h0c-0.7,0-2.2,0.4-3.6,0.9c-0.7,0.3-1.4,0.5-2,0.8
		c-0.6,0.3-1,0.6-1.2,0.8v6.7c0.1-0.2,0.2-0.4,0.2-0.5l0-0.1h0c0-2.2,0-5.2,0-5.9c0.2-0.2,0.5-0.5,1.1-0.7c1.6-0.8,4.4-1.7,5.4-1.7
		c0.1,0.1,0.2,0.2,0.2,0.4c0,0.1,0,0.1,0,0.2c0,0.1,0,0.2,0,0.3c0,0.3,0.1,0.6,0.3,0.8c0.2,0.2,0.4,0.3,0.8,0.3
		c0.3,0,0.6-0.1,0.8-0.3c0.2-0.2,0.3-0.4,0.3-0.8c0-0.3,0-1.9-1.4-2.6l0,0l0,0C798.7,956.3,798.3,956.2,797.9,956.2"/>
	<polyline fill="#FFFFFF" points="1081.4,707.3 1077.8,707.4 1077.8,783 1081.4,783 1081.4,707.3 	"/>
	<polyline fill="#FFFFFF" points="1081.6,707.3 1081.4,707.3 1081.4,783 1077.8,783 1077.8,707.4 1077.6,707.4 1077.6,722.8 
		1077.6,725.8 1077.6,781.4 1077.6,781.6 1077.6,783.2 1081.6,783.2 1081.6,781.6 1081.6,781.4 1081.6,726.1 1081.6,723.1 
		1081.6,707.3 	"/>
	<polyline fill="#FFFFFF" points="1081.4,630.7 1077.8,630.7 1077.8,664.4 1081.4,664.4 1081.4,630.7 	"/>
	<path fill="#FFFFFF" d="M1077.8,630.7h3.6v33.7h-3.6L1077.8,630.7 M1081.6,630.5h-4v0.1h0.1h-0.1v0V648v3v12.2v0.2v1.1h4v-1.1v-0.2
		v-11.3v-3.2v-18.2V630.5"/>
	<polyline fill="#FFFFFF" points="806.5,664.6 804.5,664.6 804.5,673.7 804.5,674.8 806.5,674.8 806.5,673.7 806.5,664.6 	"/>
	<path fill="#FFFFFF" d="M799,647.2h13.2v15.4H799V647.2 M814.2,645.2H797v1h1h-1v18.4h7.5h2h7.7V645.2"/>
	<polyline fill="#FFFFFF" points="809.1,651.2 802.4,651.2 802.4,651.3 805.6,651.3 805.6,660.6 805.9,660.6 805.9,651.3 
		809.1,651.3 809.1,651.2 	"/>
	<path fill="#FFFFFF" d="M809.6,651.8L809.6,651.8v-0.5V651.8h0.5H809.6 M802.4,651.3v-0.1h6.7v0.1h-3.2v9.3h-0.2v-9.3H802.4
		 M810.1,650.2h-8.7v2.1h3.2l0,9.3h2.2v-9.3h3.2v-0.5v-1.1V650.2"/>
	<path fill="#FFFFFF" d="M931.1,904.6h-46.3v100.3h-11.1v15.7c0,1.4,0.5,2.7,1.4,3.7c0.9,0.9,2.2,1.6,3.8,1.6h47.2c0,0,0,0,0,0
		c1.2,0,2.5-0.6,3.4-1.6c1-1,1.6-2.2,1.6-3.3c0-0.1,0-0.2,0-0.3l0,0V904.6"/>
	<path fill="#FFFFFF" d="M933.1,904.6h-2v116l0,0c0,0.1,0,0.2,0,0.3c0,1.1-0.6,2.3-1.6,3.3c-1,1-2.2,1.6-3.4,1.6c0,0,0,0,0,0l0,0
		h-47.2c-1.6,0-2.9-0.6-3.8-1.6c-0.9-1-1.4-2.3-1.4-3.7v-15.7h-2v15.7c0,1.9,0.7,3.7,2,5.1c0.4,0.5,0.9,0.9,1.5,1.2
		c0.1,0.1,0.2,0.1,0.4,0.2c1,0.5,2.1,0.8,3.3,0.8c0,0,0,0,0,0h0.4h1h45.8c1,0,2-0.3,2.9-0.7c0.1-0.1,0.3-0.1,0.4-0.2
		c0.6-0.3,1.1-0.8,1.6-1.2c1.3-1.3,2.1-2.9,2.2-4.7c0-0.1,0-0.3,0-0.4V904.6"/>
	<path fill="#DDCC77" d="M1122.4,1099.7c-0.4,0.1-0.9,0.2-1.3,0.2h-2.9v2h2.9c0.7,0,1.3-0.1,1.9-0.3L1122.4,1099.7 M1125.6,1096.4
		c-0.2,0.8-0.6,1.5-1.2,2.1l1.4,1.4c0.8-0.8,1.4-1.8,1.7-2.9L1125.6,1096.4 M1125.7,1090.8v2.9h2v-2.9H1125.7 M1125.7,1085.1v2.9h2
		v-2.9H1125.7 M1125.7,1079.3v2.9h2v-2.9H1125.7 M1125.7,1073.5v2.9h2v-2.9H1125.7 M1125.7,1067.7v2.9h2v-2.9H1125.7 M1125.7,1061.9
		v2.9h2v-2.9H1125.7 M1125.7,1056.1v2.9h2v-2.9H1125.7 M1125.7,1050.3v2.9h2v-2.9H1125.7 M1125.7,1044.5v2.9h2v-2.9H1125.7
		 M1125.7,1038.7v2.9h2v-2.9H1125.7 M1125.7,1032.9v2.9h2v-2.9H1125.7 M1125.7,1027.1v2.9h2v-2.9H1125.7 M1125.7,1021.3v2.9h2v-2.9
		H1125.7 M1125.7,1015.5v2.9h2v-2.9H1125.7 M1125.7,1009.7v2.9h2v-2.9H1125.7 M1125.7,1004v2.9h2v-2.9H1125.7 M1125.7,998.2v2.9h2
		v-2.9H1125.7 M1125.7,992.4v2.9h2v-2.9H1125.7 M1125.7,986.6v2.9h2v-2.9H1125.7 M1125.7,980.8v2.9h2v-2.9H1125.7 M1125.7,975v2.9h2
		V975H1125.7 M1125.7,969.2v2.9h2v-2.9H1125.7 M1125.7,963.4v2.9h2v-2.9H1125.7 M1125.7,957.6v2.9h2v-2.9H1125.7 M1125.7,951.8v2.9
		h2v-2.9H1125.7 M1125.7,946v2.9h2V946H1125.7 M1125.7,940.2v2.9h2v-2.9H1125.7 M1125.7,934.4v2.9h2v-2.9H1125.7 M1125.7,928.7v2.9
		h2v-2.9H1125.7 M1125.7,922.9v2.9h2v-2.9H1125.7 M1125.7,917.1v2.9h2v-2.9H1125.7 M1125.7,911.3v2.9h2v-2.9H1125.7 M1125.7,905.5
		v2.9h2v-2.9H1125.7 M1125.7,899.7v2.9h2v-2.9H1125.7 M1125.7,893.9v2.9h2v-2.9H1125.7 M1125.7,888.1v2.9h2v-2.9H1125.7
		 M1125.7,882.3v2.9h2v-2.9H1125.7 M1125.7,876.5v2.9h2v-2.9H1125.7 M1125.7,870.7v2.9h2v-2.9H1125.7 M1125.7,864.9v2.9h2v-2.9
		H1125.7 M1125.7,859.1v2.9h2v-2.9H1125.7 M1125.7,853.3v2.9h2v-2.9H1125.7 M1125.7,847.6l0,0.2v2.7h2l0-2.7l0-0.2L1125.7,847.6
		 M1123.4,843.6c0.7,0.4,1.3,1,1.7,1.7l1.7-1c-0.6-1-1.4-1.8-2.3-2.4L1123.4,843.6 M1118.3,842.9h2.6l0.2,0l0.1-2
		c-0.1,0-0.2,0-0.3,0h-2.6V842.9 M1112.5,842.9h2.9v-2h-2.9V842.9 M1106.7,842.9h2.9v-2h-2.9V842.9 M1100.9,842.9h2.9v-2h-2.9V842.9
		 M1095.1,842.9h2.9v-2h-2.9V842.9 M1089.3,842.9h2.9v-2h-2.9V842.9 M1083.5,842.9h2.9v-2h-2.9V842.9 M1077.7,842.9h2.9v-2h-2.9
		V842.9 M1071.9,842.9h2.9v-2h-2.9V842.9 M1066.1,842.9h2.9v-2h-2.9V842.9 M1060.3,842.9h2.9v-2h-2.9V842.9 M1054.5,842.9h2.9v-2
		h-2.9V842.9 M1048.7,842.9h2.9v-2h-2.9V842.9 M1043,842.9h2.9v-2h-2.9V842.9 M1037.2,842.9h2.9v-2h-2.9V842.9 M1031.4,842.9h2.9v-2
		h-2.9V842.9 M1025.6,842.9h2.9v-2h-2.9V842.9 M1019.8,842.9h2.9v-2h-2.9V842.9 M1014,842.9h2.9v-2h-2.9V842.9 M1008.2,842.9h2.9v-2
		h-2.9V842.9 M1002.4,842.9h2.9v-2h-2.9V842.9 M996.6,842.9h2.9v-2h-2.9V842.9 M990.8,842.9h2.9v-2h-2.9V842.9 M985,842.9h2.9v-2
		H985V842.9 M979.2,842.9h2.9v-2h-2.9V842.9 M973.4,842.9h2.9v-2h-2.9V842.9 M967.7,842.9h2.9v-2h-2.9V842.9 M961.9,842.9h2.9v-2
		h-2.9V842.9 M956.1,842.9h2.9v-2h-2.9V842.9 M950.3,842.9h2.9v-2h-2.9V842.9 M944.5,842.9h2.9v-2h-2.9V842.9 M938.7,842.9h2.9v-2
		h-2.9V842.9 M932.9,842.9h2.9v-2h-2.9V842.9 M927.1,842.9h2.9v-2h-2.9V842.9 M921.3,842.9h2.9v-2h-2.9V842.9 M915.5,842.9h2.9v-2
		h-2.9V842.9 M909.7,842.9h2.9v-2h-2.9V842.9 M903.9,842.9h2.9v-2h-2.9V842.9 M898.1,842.9h2.9v-2h-2.9V842.9 M892.3,842.9h2.9v-2
		h-2.9V842.9 M886.6,842.9h2.9v-2h-2.9V842.9 M880.8,842.9h2.9v-2h-2.9V842.9 M875,842.9h2.9v-2H875V842.9 M869.2,842.9h2.9v-2h-2.9
		V842.9 M863.4,842.9h2.9v-2h-2.9V842.9 M857.6,842.9h2.9v-2h-2.9V842.9 M851.8,842.9h2.9v-2h-2.9V842.9 M846,842.9h2.9v-2H846
		V842.9 M840.2,842.9h2.9v-2h-2.9V842.9 M834.4,842.9h2.9v-2h-2.9V842.9 M828.6,842.9h2.9v-2h-2.9V842.9 M822.8,842.9h2.9v-2h-2.9
		V842.9 M817,842.9h2.9v-2H817V842.9 M811.2,842.9h2.9v-2h-2.9V842.9 M805.5,842.9h2.9v-2h-2.9V842.9 M799.7,842.9h2.9v-2h-2.9
		V842.9 M793.9,842.9h2.9v-2h-2.9V842.9 M788.1,842.9h2.9v-2h-2.9V842.9 M782.3,842.9h2.9v-2h-2.9V842.9 M776.5,842.9h2.9v-2h-2.9
		V842.9 M770.7,842.9h2.9v-2h-2.9V842.9 M764.9,842.9h2.9v-2h-2.9V842.9 M759.1,842.9h2.9v-2h-2.9V842.9 M753.3,842.9h2.9v-2h-2.9
		V842.9 M747.5,842.9h2.9v-2h-2.9V842.9 M741.7,842.9h2.9v-2h-2.9V842.9 M735.9,842.9h2.9v-2h-2.9V842.9 M731,843.9
		c0.6-0.5,1.4-0.8,2.2-1l-0.3-2c-1.2,0.2-2.2,0.7-3.1,1.4L731,843.9 M729.2,848.2v-0.5c0-0.7,0.1-1.3,0.4-1.9l-1.8-0.8
		c-0.4,0.8-0.6,1.8-0.6,2.7v0.5H729.2 M729.2,854v-2.9h-2v2.9H729.2 M729.2,859.8v-2.9h-2v2.9H729.2 M729.2,865.6v-2.9h-2v2.9H729.2
		 M729.2,871.4v-2.9h-2v2.9H729.2 M729.2,877.2v-2.9h-2v2.9H729.2 M729.2,883v-2.9h-2v2.9H729.2 M729.2,888.8v-2.9h-2v2.9H729.2
		 M729.2,894.6v-2.9h-2v2.9H729.2 M729.2,900.4v-2.9h-2v2.9H729.2 M729.2,906.2v-2.9h-2v2.9H729.2 M729.2,911.9v-2.9h-2v2.9H729.2
		 M729.2,917.7v-2.9h-2v2.9H729.2 M729.2,923.5v-2.9h-2v2.9H729.2 M729.2,929.3v-2.9h-2v2.9H729.2 M729.2,935.1v-2.9h-2v2.9H729.2
		 M729.2,940.9V938h-2v2.9H729.2 M729.2,946.7v-2.9h-2v2.9H729.2 M729.2,952.5v-2.9h-2v2.9H729.2 M729.2,958.3v-2.9h-2v2.9H729.2
		 M729.2,964.1v-2.9h-2v2.9H729.2 M729.2,969.9V967h-2v2.9H729.2 M729.2,975.7v-2.9h-2v2.9H729.2 M729.2,981.5v-2.9h-2v2.9H729.2
		 M729.2,987.3v-2.9h-2v2.9H729.2 M729.2,993v-2.9h-2v2.9H729.2 M729.2,998.8v-2.9h-2v2.9H729.2 M729.2,1004.6v-2.9h-2v2.9H729.2
		 M729.2,1010.4v-2.9h-2v2.9H729.2 M729.2,1016.2v-2.9h-2v2.9H729.2 M729.2,1022v-2.9h-2v2.9H729.2 M729.2,1027.8v-2.9h-2v2.9H729.2
		 M729.2,1033.6v-2.9h-2v2.9H729.2 M729.2,1039.4v-2.9h-2v2.9H729.2 M729.2,1045.2v-2.9h-2v2.9H729.2 M729.2,1051v-2.9h-2v2.9H729.2
		 M729.2,1056.8v-2.9h-2v2.9H729.2 M729.2,1062.6v-2.9h-2v2.9H729.2 M729.2,1068.4v-2.9h-2v2.9H729.2 M729.2,1074.1v-2.9h-2v2.9
		H729.2 M729.2,1079.9v-2.9h-2v2.9H729.2 M729.2,1085.7v-2.9h-2v2.9H729.2 M729.2,1091.5v-2.9h-2v2.9H729.2 M729.5,1096.9
		c-0.2-0.6-0.4-1.2-0.4-1.8v-0.6h-2l0,0.6c0,0.9,0.2,1.8,0.5,2.6L729.5,1096.9 M733.1,1099.8c-0.8-0.2-1.5-0.5-2.2-1l-1.3,1.6
		c0.9,0.7,1.9,1.2,3,1.4L733.1,1099.8 M738.7,1099.9h-2.9v2h2.9V1099.9 M744.5,1099.9h-2.9v2h2.9V1099.9 M750.3,1099.9h-2.9v2h2.9
		V1099.9 M756.1,1099.9h-2.9v2h2.9V1099.9 M761.9,1099.9H759v2h2.9V1099.9 M767.7,1099.9h-2.9v2h2.9V1099.9 M773.5,1099.9h-2.9v2
		h2.9V1099.9 M779.3,1099.9h-2.9v2h2.9V1099.9 M785.1,1099.9h-2.9v2h2.9V1099.9 M790.9,1099.9H788v2h2.9V1099.9 M796.7,1099.9h-2.9
		v2h2.9V1099.9 M802.4,1099.9h-2.9v2h2.9V1099.9 M808.2,1099.9h-2.9v2h2.9V1099.9 M814,1099.9h-2.9v2h2.9V1099.9 M819.8,1099.9h-2.9
		v2h2.9V1099.9 M825.6,1099.9h-2.9v2h2.9V1099.9 M831.4,1099.9h-2.9v2h2.9V1099.9 M837.2,1099.9h-2.9v2h2.9V1099.9 M843,1099.9h-2.9
		v2h2.9V1099.9 M848.8,1099.9h-2.9v2h2.9V1099.9 M854.6,1099.9h-2.9v2h2.9V1099.9 M860.4,1099.9h-2.9v2h2.9V1099.9 M866.2,1099.9
		h-2.9v2h2.9V1099.9 M872,1099.9h-2.9v2h2.9V1099.9 M877.8,1099.9h-2.9v2h2.9V1099.9 M883.5,1099.9h-2.9v2h2.9V1099.9 M889.3,1099.9
		h-2.9v2h2.9V1099.9 M895.1,1099.9h-2.9v2h2.9V1099.9 M900.9,1099.9H898v2h2.9V1099.9 M906.7,1099.9h-2.9v2h2.9V1099.9
		 M912.5,1099.9h-2.9v2h2.9V1099.9 M918.3,1099.9h-2.9v2h2.9V1099.9 M924.1,1099.9h-2.9v2h2.9V1099.9 M929.9,1099.9H927v2h2.9
		V1099.9 M935.7,1099.9h-2.9v2h2.9V1099.9 M941.5,1099.9h-2.9v2h2.9V1099.9 M947.3,1099.9h-2.9v2h2.9V1099.9 M953.1,1099.9h-2.9v2
		h2.9V1099.9 M958.8,1099.9H956v2h2.9V1099.9 M964.6,1099.9h-2.9v2h2.9V1099.9 M970.4,1099.9h-2.9v2h2.9V1099.9 M976.2,1099.9h-2.9
		v2h2.9V1099.9 M982,1099.9h-2.9v2h2.9V1099.9 M987.8,1099.9h-2.9v2h2.9V1099.9 M993.6,1099.9h-2.9v2h2.9V1099.9 M999.4,1099.9h-2.9
		v2h2.9V1099.9 M1005.2,1099.9h-2.9v2h2.9V1099.9 M1011,1099.9h-2.9v2h2.9V1099.9 M1016.8,1099.9h-2.9v2h2.9V1099.9 M1022.6,1099.9
		h-2.9v2h2.9V1099.9 M1028.4,1099.9h-2.9v2h2.9V1099.9 M1034.2,1099.9h-2.9v2h2.9V1099.9 M1039.9,1099.9h-2.9v2h2.9V1099.9
		 M1045.7,1099.9h-2.9v2h2.9V1099.9 M1051.5,1099.9h-2.9v2h2.9V1099.9 M1057.3,1099.9h-2.9v2h2.9V1099.9 M1063.1,1099.9h-2.9v2h2.9
		V1099.9 M1068.9,1099.9h-2.9v2h2.9V1099.9 M1074.7,1099.9h-2.9v2h2.9V1099.9 M1080.5,1099.9h-2.9v2h2.9V1099.9 M1086.3,1099.9h-2.9
		v2h2.9V1099.9 M1092.1,1099.9h-2.9v2h2.9V1099.9 M1097.9,1099.9h-2.9v2h2.9V1099.9 M1103.7,1099.9h-2.9v2h2.9V1099.9
		 M1109.5,1099.9h-2.9v2h2.9V1099.9 M1115.3,1099.9h-2.9v2h2.9V1099.9"/>
	<path fill="#DDCC77" d="M1120.7,828h-3.1v2h3.1V828 M1124.8,825.8c-0.5,0.7-1.1,1.3-1.9,1.7l0.9,1.8c1.1-0.5,2-1.3,2.6-2.3
		L1124.8,825.8 M1125.7,820.4v2.3c0,0.2,0,0.4,0,0.7l2,0.2c0-0.3,0.1-0.6,0.1-0.9v-2.3H1125.7L1125.7,820.4 M1125.7,814.3v3.1h2
		v-3.1H1125.7 M1125.7,808.2v3.1h2v-3.1H1125.7 M1125.7,802.1v3.1h2v-3.1H1125.7 M1125.7,796v3.1h2V796H1125.7 M1125.7,789.9v3.1h2
		v-3.1H1125.7 M1125.7,783.7v3.1h2v-3.1H1125.7 M1125.7,777.6v3.1h2v-3.1H1125.7 M1125.7,771.5v3.1h2v-3.1H1125.7 M1125.7,765.4v3.1
		h2v-3.1H1125.7 M1125.7,759.3v3.1h2v-3.1H1125.7 M1125.7,753.1v3.1h2v-3.1H1125.7 M1125.7,747v3.1h2V747H1125.7 M1125.7,740.9v3.1
		h2v-3.1H1125.7 M1125.7,734.8v3.1h2v-3.1H1125.7 M1125.7,728.7v3.1h2v-3.1H1125.7 M1125.7,722.6v3.1h2v-3.1H1125.7 M1125.7,716.4
		v3.1h2v-3.1H1125.7 M1125.7,710.3v3.1h2v-3.1H1125.7 M1125.7,704.2v3.1h2v-3.1H1125.7 M1125.7,698.1v3.1h2v-3.1H1125.7 M1125.7,692
		v3.1h2V692H1125.7 M1125.7,685.8v3.1h2v-3.1H1125.7 M1125.7,679.7v3.1h2v-3.1H1125.7 M1125.7,673.6v3.1h2v-3.1H1125.7
		 M1125.7,667.5v3.1h2v-3.1H1125.7 M1125.7,661.4v3.1h2v-3.1H1125.7 M1125.7,655.3v3.1h2v-3.1H1125.7 M1125.7,649.1v3.1h2v-3.1
		H1125.7 M1125.7,643v3.1h2V643H1125.7 M1125.7,636.9v3.1h2v-3.1H1125.7 M1125.7,630.8v3.1h2v-3.1H1125.7 M1125.7,624.7v3.1h2v-3.1
		H1125.7 M1125.7,618.5v3.1h2v-3.1H1125.7 M1125.7,612.4v3.1h2v-3.1H1125.7 M1125.7,606.3v3.1h2v-3.1H1125.7 M1125.7,600.2v3.1h2
		v-3.1H1125.7 M1125.7,594.2c0,0.2,0.1,0.5,0.1,0.7v2.2h2l0-2.2c0-0.3,0-0.7-0.1-1L1125.7,594.2L1125.7,594.2 M1122.7,590.3
		c0.8,0.3,1.5,0.9,2,1.6l1.6-1.2c-0.7-0.9-1.7-1.7-2.8-2.2L1122.7,590.3 M1117,589.9h3.1v-2h-3.1V589.9 M1110.9,589.9h3.1v-2h-3.1
		V589.9 M1104.8,589.9h3.1v-2h-3.1V589.9 M1098.7,589.9h3.1v-2h-3.1V589.9 M1092.6,589.9h3.1v-2h-3.1V589.9 M1086.5,589.9h3.1v-2
		h-3.1V589.9 M1080.3,589.9h3.1v-2h-3.1V589.9 M1074.2,589.9h3.1v-2h-3.1V589.9 M1068.1,589.9h3.1v-2h-3.1V589.9 M1062,589.9h3.1v-2
		h-3.1V589.9 M1055.9,589.9h3.1v-2h-3.1V589.9 M1049.7,589.9h3.1v-2h-3.1V589.9 M1043.6,589.9h3.1v-2h-3.1V589.9 M1037.5,589.9h3.1
		v-2h-3.1V589.9 M1031.4,589.9h3.1v-2h-3.1V589.9 M1025.3,589.9h3.1v-2h-3.1V589.9 M1019.2,589.9h3.1v-2h-3.1V589.9 M1013,589.9h3.1
		v-2h-3.1V589.9 M1006.9,589.9h3.1v-2h-3.1V589.9 M1000.8,589.9h3.1v-2h-3.1V589.9 M994.7,589.9h3.1v-2h-3.1V589.9 M988.6,589.9h3.1
		v-2h-3.1V589.9 M982.4,589.9h3.1v-2h-3.1V589.9 M976.3,589.9h3.1v-2h-3.1V589.9 M970.2,589.9h3.1v-2h-3.1V589.9 M964.1,589.9h3.1
		v-2h-3.1V589.9 M958,589.9h3.1v-2H958V589.9 M951.9,589.9h3.1v-2h-3.1V589.9 M945.7,589.9h3.1v-2h-3.1V589.9 M939.6,589.9h3.1v-2
		h-3.1V589.9 M933.5,589.9h3.1v-2h-3.1V589.9 M927.4,589.9h3.1v-2h-3.1V589.9 M921.3,589.9h3.1v-2h-3.1V589.9 M915.1,589.9h3.1v-2
		h-3.1V589.9 M909,589.9h3.1v-2H909V589.9 M902.9,589.9h3.1v-2h-3.1V589.9 M896.8,589.9h3.1v-2h-3.1V589.9 M890.7,589.9h3.1v-2h-3.1
		V589.9 M884.6,589.9h3.1v-2h-3.1V589.9 M878.4,589.9h3.1v-2h-3.1V589.9 M872.3,589.9h3.1v-2h-3.1V589.9 M866.2,589.9h3.1v-2h-3.1
		V589.9 M860.1,589.9h3.1v-2h-3.1V589.9 M854,589.9h3.1v-2H854V589.9 M847.8,589.9h3.1v-2h-3.1V589.9 M841.7,589.9h3.1v-2h-3.1
		V589.9 M835.6,589.9h3.1v-2h-3.1V589.9 M829.5,589.9h3.1v-2h-3.1V589.9 M823.4,589.9h3.1v-2h-3.1V589.9 M817.3,589.9h3.1v-2h-3.1
		V589.9 M811.1,589.9h3.1v-2h-3.1V589.9 M805,589.9h3.1v-2H805V589.9 M798.9,589.9h3.1v-2h-3.1V589.9 M792.8,589.9h3.1v-2h-3.1
		V589.9 M786.7,589.9h3.1v-2h-3.1V589.9 M780.5,589.9h3.1v-2h-3.1V589.9 M774.4,589.9h3.1v-2h-3.1V589.9 M768.3,589.9h3.1v-2h-3.1
		V589.9 M762.2,589.9h3.1v-2h-3.1V589.9 M756.1,589.9h3.1v-2h-3.1V589.9 M750,589.9h3.1v-2H750V589.9 M743.8,589.9h3.1v-2h-3.1
		V589.9 M737.7,589.9h3.1v-2h-3.1V589.9 M732.2,590.5c0.7-0.4,1.5-0.6,2.3-0.6h0.2v-2h-0.2c-1.2,0-2.3,0.3-3.3,0.8L732.2,590.5
		 M729.5,594.6c0.1-0.9,0.4-1.7,0.8-2.4l-1.7-1.1c-0.6,1-1.1,2.1-1.1,3.3L729.5,594.6 M729.5,600.6v-3.1h-2v3.1H729.5 M729.5,606.7
		v-3.1h-2v3.1H729.5 M729.5,612.9v-3.1h-2v3.1H729.5 M729.5,619v-3.1h-2v3.1H729.5 M729.5,625.1V622h-2v3.1H729.5 M729.5,631.2v-3.1
		h-2v3.1H729.5 M729.5,637.3v-3.1h-2v3.1H729.5 M729.5,643.5v-3.1h-2v3.1H729.5 M729.5,649.6v-3.1h-2v3.1H729.5 M729.5,655.7v-3.1
		h-2v3.1H729.5 M729.5,661.8v-3.1h-2v3.1H729.5 M729.5,667.9v-3.1h-2v3.1H729.5 M729.5,674V671h-2v3.1H729.5 M729.5,680.2v-3.1h-2
		v3.1H729.5 M729.5,686.3v-3.1h-2v3.1H729.5 M729.5,692.4v-3.1h-2v3.1H729.5 M729.5,698.5v-3.1h-2v3.1H729.5 M729.5,704.6v-3.1h-2
		v3.1H729.5 M729.5,710.8v-3.1h-2v3.1H729.5 M729.5,716.9v-3.1h-2v3.1H729.5 M729.5,723v-3.1h-2v3.1H729.5 M729.5,729.1V726h-2v3.1
		H729.5 M729.5,735.2v-3.1h-2v3.1H729.5 M729.5,741.3v-3.1h-2v3.1H729.5 M729.5,747.5v-3.1h-2v3.1H729.5 M729.5,753.6v-3.1h-2v3.1
		H729.5 M729.5,759.7v-3.1h-2v3.1H729.5 M729.5,765.8v-3.1h-2v3.1H729.5 M729.5,771.9v-3.1h-2v3.1H729.5 M729.5,778.1V775h-2v3.1
		H729.5 M729.5,784.2v-3.1h-2v3.1H729.5 M729.5,790.3v-3.1h-2v3.1H729.5 M729.5,796.4v-3.1h-2v3.1H729.5 M729.5,802.5v-3.1h-2v3.1
		H729.5 M729.5,808.6v-3.1h-2v3.1H729.5 M729.5,814.8v-3.1h-2v3.1H729.5 M729.5,820.9v-3.1h-2v3.1H729.5 M730.6,826.1
		c-0.5-0.7-0.9-1.4-1.1-2.3l-2,0.3c0.2,1.2,0.7,2.3,1.5,3.2L730.6,826.1 M735.2,828h-0.7c-0.7,0-1.3-0.1-1.9-0.4l-0.8,1.8
		c0.8,0.3,1.7,0.5,2.6,0.5h0.7V828 M741.4,828h-3.1v2h3.1V828 M747.5,828h-3.1v2h3.1V828 M753.6,828h-3.1v2h3.1V828 M759.7,828h-3.1
		v2h3.1V828 M765.8,828h-3.1v2h3.1V828 M772,828h-3.1v2h3.1V828 M778.1,828H775v2h3.1V828 M784.2,828h-3.1v2h3.1V828 M790.3,828
		h-3.1v2h3.1V828 M796.4,828h-3.1v2h3.1V828 M802.5,828h-3.1v2h3.1V828 M808.7,828h-3.1v2h3.1V828 M814.8,828h-3.1v2h3.1V828
		 M820.9,828h-3.1v2h3.1V828 M827,828H824v2h3.1V828 M833.1,828h-3.1v2h3.1V828 M839.3,828h-3.1v2h3.1V828 M845.4,828h-3.1v2h3.1
		V828 M851.5,828h-3.1v2h3.1V828 M857.6,828h-3.1v2h3.1V828 M863.7,828h-3.1v2h3.1V828 M869.8,828h-3.1v2h3.1V828 M876,828h-3.1v2
		h3.1V828 M882.1,828H879v2h3.1V828 M888.2,828h-3.1v2h3.1V828 M894.3,828h-3.1v2h3.1V828 M900.4,828h-3.1v2h3.1V828 M906.6,828
		h-3.1v2h3.1V828 M912.7,828h-3.1v2h3.1V828 M918.8,828h-3.1v2h3.1V828 M924.9,828h-3.1v2h3.1V828 M931,828H928v2h3.1V828
		 M937.1,828h-3.1v2h3.1V828 M943.3,828h-3.1v2h3.1V828 M949.4,828h-3.1v2h3.1V828 M955.5,828h-3.1v2h3.1V828 M961.6,828h-3.1v2h3.1
		V828 M967.7,828h-3.1v2h3.1V828 M973.9,828h-3.1v2h3.1V828 M980,828h-3.1v2h3.1V828 M986.1,828H983v2h3.1V828 M992.2,828h-3.1v2
		h3.1V828 M998.3,828h-3.1v2h3.1V828 M1004.4,828h-3.1v2h3.1V828 M1010.6,828h-3.1v2h3.1V828 M1016.7,828h-3.1v2h3.1V828
		 M1022.8,828h-3.1v2h3.1V828 M1028.9,828h-3.1v2h3.1V828 M1035,828h-3.1v2h3.1V828 M1041.2,828h-3.1v2h3.1V828 M1047.3,828h-3.1v2
		h3.1V828 M1053.4,828h-3.1v2h3.1V828 M1059.5,828h-3.1v2h3.1V828 M1065.6,828h-3.1v2h3.1V828 M1071.7,828h-3.1v2h3.1V828
		 M1077.9,828h-3.1v2h3.1V828 M1084,828h-3.1v2h3.1V828 M1090.1,828h-3.1v2h3.1V828 M1096.2,828h-3.1v2h3.1V828 M1102.3,828h-3.1v2
		h3.1V828 M1108.5,828h-3.1v2h3.1V828 M1114.6,828h-3.1v2h3.1V828"/>
	<path fill="none" stroke="#44AA99" stroke-width="2" stroke-miterlimit="10" stroke-dasharray="3,3" d="M1120.2,573H734.9
		c-3.6,0-6.4-2.9-6.4-6.4V332c0-3.6,2.9-6.4,6.4-6.4h385.3c3.6,0,6.4,2.9,6.4,6.4v234.5C1126.7,570.1,1124,573,1120.2,573z"/>
	<polygon fill="#930318" points="797.8,457.8 793.6,457.8 793.6,559.8 793.8,640.6 925.6,640.6 925.6,688.8 929.6,688.8 
		929.6,636.6 797.8,636.6 	"/>
	<polygon fill="#1B39B2" points="967,518.8 971,518.8 971,627.8 952.3,627.8 952.3,689 948.5,689 948.5,623.9 967,623.9 	"/>
	<polygon fill="#930318" points="862.2,456.4 859,456.4 859.6,559.8 859.6,627.5 934.9,627.5 934.9,688.8 938.9,688.8 938.9,623.5 
		863.6,623.5 	"/>
	<polygon fill="#1B39B2" points="1025.4,529.3 1029.4,529.3 1029.4,642 962,642 962,689 958,689 958,638 1025.4,638 	"/>
	<path fill="#1B39B2" d="M955.1,496.4H952v-98.6v-1.6c0-1,0.7-1.9,1.6-1.9h27.1c0.8,0,1.4,0.7,1.6,1.4h0.7c0.2,1.2-0.5,2.2-1.6,2.2
		h-24.5c-0.8,0-1.6,0.8-1.6,1.9v96.5H955.1z"/>
	<path fill="#1B39B2" d="M1063.1,489.6h3.1v-89.4v-6.9c0-1-0.7-1.9-1.6-1.9H1039l-0.7,3.6h23.1c0.8,0,1.6,0.8,1.6,1.9v92.7
		L1063.1,489.6L1063.1,489.6z"/>
	<path fill="#FAF7EB" d="M971.8,925.9V958h17.7v-10.5h67.7V958h17.6v-10.5l2.1,0v-21.4L971.8,925.9 M1100.9,842.9v-2h2.9v2H1100.9
		 M1106.7,842.9v-2h2.9v2H1106.7 M1112.5,842.9v-2h2.9v2H1112.5 M1105.4,830v-2h3.1v2H1105.4 M1111.5,830v-2h3.1v2H1111.5
		 M1099.6,736.8l-0.3,91.1h3v2h-3l-0.3,96.2l-13.1,0v21.2l32.7-0.5V842.9h-0.4v-2h0.4V830h-1v-2h1v-90.7c-4.6,0-10.4,0-15.6,0
		c0,0,0,0,0,0C1101.8,737.2,1100.6,737.1,1099.6,736.8 M1118.6,689.7H1084v14.7h-9v-14.7h-25.3l2.9,17.7l24.9-0.1v-1.7h0.1h-0.1
		v-0.1h4v1.8l18.1-0.1l-0.1,26.4c0.1,0,0.2,0.1,0.3,0.1c0.8,0.3,1.8,0.4,3.1,0.4c5.2,0,11,0,15.6,0V689.7"/>
	<polyline fill="#FAF7EB" points="1083.7,689.7 1075.2,689.7 1075.2,704.2 1083.7,704.2 1083.7,689.7 	"/>
	<polyline fill="#FAF7EB" points="1084,689.7 1083.7,689.7 1083.7,704.2 1075.2,704.2 1075.2,689.7 1075,689.7 1075,704.4 
		1084,704.4 1084,689.7 	"/>
	<path fill="#FAF7EB" d="M1099.6,733.7l0,3.1c1,0.3,2.2,0.4,3.5,0.4c0,0,0,0,0,0c5.2,0,11,0,15.6,0v-3c-4.6,0-10.4,0-15.6,0
		c-1.3,0-2.3-0.2-3.1-0.4C1099.8,733.8,1099.7,733.7,1099.6,733.7"/>
	<polyline fill="#FAF7EB" points="1077.1,926.1 1077.1,947.4 1085.7,947.3 1085.7,926.1 1077.1,926.1 	"/>
	<path fill="#FAF7EB" d="M1085.7,926.1v21.2l0.2,0v-21.2L1085.7,926.1 M1076.9,926.1v21.4l0.2,0v-21.4L1076.9,926.1"/>
	<polyline fill="#FAF7EB" points="1081.4,705.8 1077.8,705.8 1077.8,707.4 1081.4,707.3 1081.4,705.8 	"/>
	<polyline fill="#FAF7EB" points="1081.6,705.6 1077.6,705.6 1077.6,705.7 1077.7,705.7 1077.6,705.7 1077.6,707.4 1077.8,707.4 
		1077.8,705.8 1081.4,705.8 1081.4,707.3 1081.6,707.3 1081.6,705.6 	"/>
	<path fill="#DDCC77" d="M1103.8,840.9h-2.9v2h2.9V840.9 M1109.6,840.9h-2.9v2h2.9V840.9 M1115.4,840.9h-2.9v2h2.9V840.9
		 M1118.6,840.9h-0.4v2h0.4V840.9"/>
	<path fill="#DDCC77" d="M1102.3,828h-3l0,2h3V828 M1108.5,828h-3.1v2h3.1V828 M1114.6,828h-3.1v2h3.1V828 M1118.6,828h-1v2h1V828"
		/>
	<path fill="#FAF7EB" d="M787.4,972.7l0.2,32.1h3.8V976C789.8,975,788.4,974,787.4,972.7 M790,967.3L790,967.3l0.1,0.1
		C790,967.3,790,967.3,790,967.3C790,967.3,790,967.3,790,967.3 M791.4,967.2c-0.1,0.1-0.1,0.1-0.2,0.2h0.2V967.2 M789.5,965v1.1
		l0-0.1C789.6,965.9,789.5,965.5,789.5,965 M773.8,883v121.8h1.1V883.1L773.8,883 M1054.5,842.9v-2h2.9v2H1054.5 M1060.3,842.9v-2
		h2.9v2H1060.3 M1066.1,842.9v-2h2.9v2H1066.1 M1056.5,830v-2h3.1v2H1056.5 M1062.6,830v-2h3.1v2H1062.6 M1068.7,830v-2h3.1v2
		H1068.7 M1073.3,827.4h-19v56l-271.2-0.3v121.8h3.4l-0.2-33.6c-0.7-1.2-1-2.5-1-3.8v-0.1h3.3l0.1-0.1h-1.6v-2.6h0.1h-0.1v-0.1h0.8
		v-2.1h0.1h-0.1v-0.1h0.1h0.8v2.2h0.7c0-0.8-0.1-1.7-0.1-2.5c-0.3,0-0.6,0-0.9-0.1c0,0,0,0,0,0c-0.1,0-0.2,0.1-0.4,0.1
		c-0.3,0.1-0.7,0.1-1.1,0.1c-0.7,0-1.2-0.1-1.5-0.2c-0.1,0-0.2-0.1-0.2-0.2c0-0.1,0.1-0.2,0.2-0.2c0.1,0,0.2-0.1,0.4-0.1
		c0.3-0.1,0.7-0.1,1.1-0.1l0,0c0.7,0,1.2,0.1,1.5,0.2c0,0,0,0,0,0c0.2,0,0.5-0.1,0.9-0.1c0-0.5,0-0.9,0.1-1.2c0-0.1,0-0.2,0.1-0.3
		c0-0.2,0-0.2,0-0.3v0l0,0c0.3-0.6,0.9-1.1,1.8-1.6v-53.4h75.8v100.3h4.4V897.4c0-2.1,0.8-4,2.2-5.2c1.3-1.3,3.1-2,5.1-2h46.9
		c0,0,0,0,0,0c2.1,0,4,0.8,5.2,2.2c1.3,1.3,2,3.1,2,5.1v7.2h140.2v-31.7v-30h-1.4v-2h1.4V827.4 M1073.3,806.8h-19v18.6h19V806.8
		 M1073.3,725.8c-5.3,0-14.4,0-25.7,0l1.6,7.4l5.2-0.2v71.8h19V725.8 M1073.3,715.2h-27.9l1.6,7.5c11.6,0,20.9,0,26.3,0V715.2"/>
	<polyline fill="#FAF7EB" points="775.2,883.1 775.2,1004.9 783,1004.9 783,883.1 775.2,883.1 	"/>
	<path fill="#FAF7EB" d="M783,883.1v121.8h0.2V883.1L783,883.1 M775,883.1v121.8h0.2V883.1L775,883.1"/>
	<path fill="#FAF7EB" d="M1073.3,722.8c-5.4,0-14.8,0-26.3,0l0.6,3c11.3,0,20.3,0,25.7,0V722.8"/>
	<path fill="#FAF7EB" d="M1073.3,825.4h-19v2h19V825.4 M1073.3,804.8h-19v2h19V804.8"/>
	<path fill="#FAF7EB" d="M788.5,967.6h-2.9c0,1.1,0.3,2.2,0.8,3.3l0-0.4L788.5,967.6 M791.4,967.6h-1.7l-2.3,3.2l0,1.6
		c1,1.2,2.3,2.4,4,3.3V967.6"/>
	<path fill="#FAF7EB" d="M787.4,972.4l0,0.3c1,1.2,2.4,2.3,4,3.2v-0.2C789.7,974.8,788.4,973.7,787.4,972.4 M788.7,967.4h-3.3v0.1
		c0,1.4,0.4,2.6,1,3.8l0-0.4c-0.5-1-0.8-2.1-0.8-3.3h2.9L788.7,967.4 M791.4,967.4h-0.2c-0.2,0.1-0.4,0.2-0.6,0.2l0,0
		c-0.2,0-0.4-0.1-0.6-0.2h-0.2l-0.1,0.2h1.7V967.4"/>
	<polyline fill="#FAF7EB" points="789.3,964.8 788.8,964.8 788.8,965 788.7,965 787.9,965 787.9,964.8 787.3,964.8 787.3,967.1 
		788.9,967.1 789.3,966.4 789.3,964.8 	"/>
	<path fill="#FAF7EB" d="M787.9,964.6h-0.8v0.1h0.1h-0.1v2.6h1.6l0.1-0.2h-1.6v-2.3h0.6V964.6 M789.5,964.6h-0.7v0.2h0.5v1.7
		l0.2-0.3V965C789.5,964.9,789.5,964.7,789.5,964.6"/>
	<polyline fill="#FAF7EB" points="788.6,962.5 788.1,962.5 788.1,964.8 788.6,964.8 788.6,962.5 	"/>
	<path fill="#FAF7EB" d="M788.1,962.5h0.4v2.3h-0.4L788.1,962.5 M788.8,962.3H788h-0.1v0.1h0.1h-0.1v2.1v0.2v0.3h0.8h0.1v-0.3v-0.2
		V962.3"/>
	<path fill="#FAF7EB" d="M789.5,962c0,0.8,0,1.7,0.1,2.5c0,0.2,0,0.3,0,0.5c0,0.5,0,0.9,0,1.1l0,0.1l-0.2,0.3l-0.5,0.6l-0.1,0.2
		l-0.1,0.1l-0.1,0.2l-2.1,2.9l0,0.4l0,0.4l0.2,33.6h1l-0.2-32.1l0-0.3l0-1.6l2.3-3.2l0.1-0.2l0.1-0.1c-0.2-0.2-0.3-0.4-0.3-0.7h0
		C789.5,964.5,789.5,963,789.5,962C789.5,962,789.5,962,789.5,962 M789.6,959.9c0,0.1,0,0.2-0.1,0.3c0,0.3,0,0.7-0.1,1.2
		c0,0,0,0,0,0C789.5,960.6,789.5,960.2,789.6,959.9"/>
	<path fill="#FAF7EB" d="M791.4,958.2c-0.8,0.4-1.4,0.9-1.6,1.5c0,0.2-0.1,0.4-0.1,1.8c0,0,0,0,0,0c0.9,0,1.6,0.1,1.6,0.3
		s-0.7,0.3-1.6,0.3c0,0,0,0,0,0c0,1,0,2.4,0.1,4.5v0v0c0,0.3,0.1,0.5,0.3,0.6c0.2,0.1,0.4,0.2,0.5,0.2c0,0,0,0,0,0l0,0
		c0.2,0,0.4-0.1,0.5-0.2c0.1-0.1,0.2-0.3,0.2-0.5l0-0.1l0,0v0c0-2.2,0-5.3,0-6v0l0,0c0,0,0,0,0,0V958.2"/>
	<path fill="#FAF7EB" d="M791.4,960.5C791.4,960.5,791.4,960.5,791.4,960.5L791.4,960.5L791.4,960.5c0,0.7,0,3.8,0,6v0l0,0l0,0.1
		c0,0.1-0.1,0.3-0.2,0.5c-0.1,0.1-0.3,0.2-0.5,0.2l0,0c0,0,0,0,0,0c-0.1,0-0.3-0.1-0.5-0.2c-0.2-0.1-0.3-0.3-0.3-0.6v0v0
		c-0.1-2.1-0.1-3.5-0.1-4.5c-0.1,0-0.1,0-0.2,0c0,1,0,2.4,0.1,4.5h0c0,0.3,0.2,0.6,0.3,0.7c0,0,0,0,0.1,0c0,0,0,0,0.1,0
		c0.2,0.1,0.4,0.2,0.6,0.2l0,0c0.2,0,0.4-0.1,0.6-0.2c0.1-0.1,0.1-0.1,0.2-0.2V960.5 M791.4,958c-0.9,0.5-1.5,1-1.8,1.6l0,0v0
		c0,0.1,0,0.1,0,0.3c0,0.2-0.1,0.7-0.1,1.6c0.1,0,0.1,0,0.2,0c0-1.4,0.1-1.7,0.1-1.8c0.2-0.5,0.8-1,1.6-1.5V958"/>
	<path fill="#FAF7EB" d="M787.1,961.6c-0.4,0-0.7,0-1,0.1c-0.2,0-0.4,0.1-0.5,0.1l0,0c0.1,0,0.2,0.1,0.3,0.1c0.3,0,0.7,0.1,1.1,0.1
		c0.4,0,0.7,0,1-0.1c0,0,0.1,0,0.1,0c-0.1,0-0.1-0.1-0.1-0.1c0,0,0-0.1,0.1-0.1c0,0,0,0,0,0C787.9,961.6,787.5,961.6,787.1,961.6
		L787.1,961.6"/>
	<path fill="#FAF7EB" d="M787.1,961.4L787.1,961.4c-0.4,0-0.8,0-1.1,0.1c-0.1,0-0.3,0.1-0.4,0.1c-0.1,0-0.2,0.1-0.2,0.2
		c0,0.1,0.1,0.2,0.2,0.2c0.3,0.1,0.8,0.2,1.5,0.2c0.4,0,0.8,0,1.1-0.1c0.1,0,0.3-0.1,0.4-0.1c0,0,0,0,0,0c-0.2,0-0.3-0.1-0.4-0.1
		c0,0-0.1,0-0.1,0c-0.3,0-0.6,0.1-1,0.1c-0.4,0-0.8,0-1.1-0.1c-0.1,0-0.2-0.1-0.3-0.1l0,0c0.1,0,0.2-0.1,0.5-0.1
		c0.3,0,0.6-0.1,1-0.1l0,0c0.4,0,0.8,0,1.1,0.1c0,0,0,0,0,0c0.1,0,0.2-0.1,0.4-0.1c0,0,0,0,0,0C788.3,961.5,787.8,961.4,787.1,961.4
		"/>
	<path fill="#FAF7EB" d="M789.7,961.5C789.7,961.5,789.7,961.5,789.7,961.5c-0.1,0-0.2,0-0.2,0c0,0,0,0,0,0c-0.3,0-0.6,0-0.9,0.1
		c-0.2,0-0.3,0.1-0.4,0.1c-0.1,0-0.1,0.1-0.1,0.1c0,0,0,0.1,0.1,0.1c0.1,0,0.2,0.1,0.4,0.1c0.2,0,0.5,0.1,0.9,0.1c0,0,0,0,0,0
		c0.1,0,0.1,0,0.2,0c0,0,0,0,0,0c0.9,0,1.6-0.1,1.6-0.3S790.6,961.5,789.7,961.5"/>
	<path fill="#FAF7EB" d="M925.8,892.2h-46.9c-1.4,0-2.7,0.5-3.7,1.4c-0.9,0.9-1.6,2.2-1.6,3.8v107.5h11.1V904.6h46.3v-7.2
		c0-1.4-0.5-2.7-1.4-3.7C928.7,892.8,927.4,892.2,925.8,892.2"/>
	<path fill="#FAF7EB" d="M925.8,890.2C925.8,890.2,925.8,890.2,925.8,890.2h-46.9c-1.9,0-3.7,0.7-5.1,2c-1.3,1.3-2.2,3.1-2.2,5.2
		v107.5h2V897.4c0-1.6,0.6-2.9,1.6-3.8c1-0.9,2.3-1.4,3.7-1.4h46.9c1.6,0,2.9,0.6,3.8,1.6c0.9,1,1.4,2.3,1.4,3.7v7.2h2v-7.2
		c0-1.9-0.7-3.7-2-5.1C929.8,891,927.9,890.2,925.8,890.2"/>
	<path fill="#DDCC77" d="M1057.4,840.9h-2.9v2h2.9V840.9 M1063.2,840.9h-2.9v2h2.9V840.9 M1069,840.9h-2.9v2h2.9V840.9
		 M1073.3,840.9h-1.4v2h1.4V840.9"/>
	<path fill="#DDCC77" d="M1059.5,828h-3.1v2h3.1V828 M1065.6,828h-3.1v2h3.1V828 M1071.7,828h-3.1v2h3.1V828"/>
	<polygon fill="none" stroke="#DDCC77" stroke-width="2" stroke-miterlimit="10" points="1049.7,689.7 1052.6,707.5 1099.7,707.3 
		1099,926.1 971.8,925.9 971.8,958 989.6,958 989.6,947.5 1057.3,947.5 1057.3,958 1074.9,958 1074.9,947.5 1118.6,946.8 
		1118.6,689.7 	"/>
	<polygon fill="none" stroke="#DDCC77" stroke-width="2" stroke-miterlimit="10" points="1045.4,715.2 1049.2,733.1 1054.3,733 
		1054.3,883.4 773.8,883 773.8,1004.9 791.4,1004.9 791.4,904.6 867.2,904.6 867.2,1004.9 884.8,1004.9 884.8,904.6 1073.3,904.6 
		1073.3,872.9 1073.3,715.2 	"/>
	<line fill="none" stroke="#DDCC77" stroke-width="2" stroke-miterlimit="10" x1="1046.9" y1="682.6" x2="1054.3" y2="711.7"/>
	<line fill="none" stroke="#DDCC77" stroke-width="2" stroke-miterlimit="10" x1="1044.2" y1="711.1" x2="1050.6" y2="740.2"/>
	<rect x="1044.9" y="958" width="42" height="64.8"/>
	<rect x="1044.9" y="958" fill="none" stroke="#DDCC77" stroke-width="2" stroke-miterlimit="10" width="42" height="64.8"/>
	
		<line fill="none" stroke="#DDCC77" stroke-width="2" stroke-linecap="round" stroke-miterlimit="10" x1="1051.9" y1="993.3" x2="1079.7" y2="965.6"/>
	<line fill="none" stroke="#DDCC77" stroke-miterlimit="10" x1="1044.9" y1="1000.6" x2="1086.8" y2="1000.6"/>
	<path fill="#930318" d="M1085.7,1014v4c-3.1,0-4.6-3.6-5.7-6.4c-0.7-1.6-1.6-4.1-2.2-4.1c-0.8,0-1.7,2.4-2.2,4.1
		c-1,2.9-2.6,6.4-5.7,6.4c-3.1,0-4.6-3.6-5.7-6.4c-0.7-1.6-1.6-4.1-2.2-4.1c-0.8,0-1.7,2.4-2.2,4.1c-1,2.9-2.6,6.4-5.7,6.4
		c-3.1,0-4.6-3.6-5.7-6.4c-0.7-1.6-1.6-4.1-2.2-4.1v-4c3.1,0,4.6,3.6,5.7,6.4c0.7,1.6,1.6,4.1,2.2,4.1c0.8,0,1.7-2.4,2.2-4.1
		c1-2.9,2.6-6.4,5.7-6.4s4.6,3.6,5.7,6.4c0.7,1.6,1.6,4.1,2.2,4.1c0.8,0,1.7-2.4,2.2-4.1c1-2.9,2.6-6.4,5.7-6.4
		c3.1,0,4.6,3.6,5.7,6.4C1084,1011.6,1085,1014,1085.7,1014z"/>
	<rect x="961.3" y="958" width="42" height="64.8"/>
	<rect x="961.3" y="958" fill="none" stroke="#DDCC77" stroke-width="2" stroke-miterlimit="10" width="42" height="64.8"/>
	
		<line fill="none" stroke="#DDCC77" stroke-width="2" stroke-linecap="round" stroke-miterlimit="10" x1="968.4" y1="993.3" x2="995.9" y2="965.6"/>
	<line fill="none" stroke="#DDCC77" stroke-miterlimit="10" x1="961.3" y1="1000.6" x2="1003" y2="1000.6"/>
	<path fill="#930318" d="M1002.1,1014v4c-3.1,0-4.6-3.6-5.7-6.4c-0.7-1.6-1.6-4.1-2.2-4.1c-0.8,0-1.7,2.4-2.2,4.1
		c-1,2.9-2.6,6.4-5.7,6.4c-3.1,0-4.6-3.6-5.7-6.4c-0.7-1.6-1.6-4.1-2.2-4.1c-0.8,0-1.7,2.4-2.2,4.1c-1,2.9-2.6,6.4-5.7,6.4
		s-4.6-3.6-5.7-6.4c-0.7-1.6-1.6-4.1-2.2-4.1v-4c3.1,0,4.6,3.6,5.7,6.4c0.7,1.6,1.6,4.1,2.2,4.1c0.8,0,1.7-2.4,2.2-4.1
		c1-2.9,2.6-6.4,5.7-6.4s4.6,3.6,5.7,6.4c0.7,1.6,1.6,4.1,2.2,4.1c0.8,0,1.7-2.4,2.2-4.1c1-2.9,2.6-6.4,5.7-6.4s4.6,3.6,5.7,6.4
		C1000.4,1011.6,1001.5,1014,1002.1,1014z"/>
	<rect x="968.9" y="869.8" width="74.5" height="43.1"/>
	<rect x="968.9" y="869.8" fill="none" stroke="#DDCC77" stroke-width="2" stroke-miterlimit="10" width="74.5" height="43.1"/>
	
		<line fill="none" stroke="#930318" stroke-width="3" stroke-linecap="round" stroke-miterlimit="10" x1="1028" y1="874.6" x2="1011.4" y2="874.6"/>
	
		<line fill="none" stroke="#930318" stroke-width="3" stroke-linecap="round" stroke-miterlimit="10" x1="1028" y1="881.3" x2="1011.4" y2="881.3"/>
	
		<line fill="none" stroke="#930318" stroke-width="3" stroke-linecap="round" stroke-miterlimit="10" x1="1028" y1="888" x2="1011.4" y2="888"/>
	
		<line fill="none" stroke="#930318" stroke-width="3" stroke-linecap="round" stroke-miterlimit="10" x1="1028" y1="894.8" x2="1011.4" y2="894.8"/>
	
		<line fill="none" stroke="#930318" stroke-width="3" stroke-linecap="round" stroke-miterlimit="10" x1="1028" y1="901.5" x2="1011.4" y2="901.5"/>
	
		<line fill="none" stroke="#930318" stroke-width="3" stroke-linecap="round" stroke-miterlimit="10" x1="1028" y1="908.2" x2="1011.4" y2="908.2"/>
	
		<line fill="none" stroke="#DDCC77" stroke-linecap="round" stroke-miterlimit="10" x1="1007.1" y1="869.8" x2="1007.1" y2="912.7"/>
	
		<line fill="none" stroke="#DDCC77" stroke-linecap="round" stroke-miterlimit="10" x1="1032.3" y1="869.8" x2="1032.3" y2="912.7"/>
	<polygon points="851.5,1021.6 902.9,1021.6 884.9,1004.7 867.4,1004.7 	"/>
	<polygon fill="none" stroke="#DDCC77" stroke-width="3" stroke-miterlimit="10" points="851.5,1021.6 902.9,1021.6 884.9,1004.7 
		867.4,1004.7 	"/>
	<polygon points="887,1022.3 864.6,1022.3 867.2,1005.4 884.5,1005.4 	"/>
	<polygon fill="none" stroke="#DDCC77" stroke-width="3" stroke-miterlimit="10" points="887,1022.3 864.6,1022.3 867.2,1005.4 
		884.5,1005.4 	"/>
	<polygon points="758.1,1021.9 809.3,1021.9 791.4,1004.9 774,1004.9 	"/>
	<polygon fill="none" stroke="#DDCC77" stroke-width="2" stroke-miterlimit="10" points="758.1,1021.9 809.3,1021.9 791.4,1004.9 
		774,1004.9 	"/>
	<polygon points="793.6,1022.6 771.2,1022.6 773.8,1005.6 790.9,1005.6 	"/>
	<polygon fill="none" stroke="#DDCC77" stroke-width="2" stroke-miterlimit="10" points="793.6,1022.6 771.2,1022.6 773.8,1005.6 
		790.9,1005.6 	"/>
	<path d="M819,1088.5h-73.2c-2.6,0-4.6-2.1-4.6-4.6v-56.5c0-2.6,2.1-4.6,4.6-4.6H819c2.6,0,4.6,2.1,4.6,4.6v56.5
		C823.6,1086.4,821.5,1088.5,819,1088.5z"/>
	<path fill="none" stroke="#DDCC77" stroke-width="2" stroke-miterlimit="10" d="M819,1088.5h-73.2c-2.6,0-4.6-2.1-4.6-4.6v-56.5
		c0-2.6,2.1-4.6,4.6-4.6H819c2.6,0,4.6,2.1,4.6,4.6v56.5C823.6,1086.4,821.5,1088.5,819,1088.5z"/>
	<path d="M910.6,1088.5h-73.2c-2.6,0-4.6-2.1-4.6-4.6v-56.5c0-2.6,2.1-4.6,4.6-4.6h73.3c2.6,0,4.6,2.1,4.6,4.6v56.5
		C915.4,1086.4,913.4,1088.5,910.6,1088.5z"/>
	<path fill="none" stroke="#DDCC77" stroke-width="2" stroke-miterlimit="10" d="M910.6,1088.5h-73.2c-2.6,0-4.6-2.1-4.6-4.6v-56.5
		c0-2.6,2.1-4.6,4.6-4.6h73.3c2.6,0,4.6,2.1,4.6,4.6v56.5C915.4,1086.4,913.4,1088.5,910.6,1088.5z"/>
	<path d="M1016.4,1088.5h-73.3c-2.6,0-4.6-2.1-4.6-4.6v-56.5c0-2.6,2.1-4.6,4.6-4.6h73.3c2.6,0,4.6,2.1,4.6,4.6v56.5
		C1020.9,1086.4,1018.8,1088.5,1016.4,1088.5z"/>
	<path fill="none" stroke="#DDCC77" stroke-width="2" stroke-miterlimit="10" d="M1016.4,1088.5h-73.3c-2.6,0-4.6-2.1-4.6-4.6v-56.5
		c0-2.6,2.1-4.6,4.6-4.6h73.3c2.6,0,4.6,2.1,4.6,4.6v56.5C1020.9,1086.4,1018.8,1088.5,1016.4,1088.5z"/>
	<path d="M1105.7,1088.5h-73.3c-2.6,0-4.6-2.1-4.6-4.6v-56.5c0-2.6,2.1-4.6,4.6-4.6h73.3c2.6,0,4.6,2.1,4.6,4.6v56.5
		C1110.3,1086.4,1108.3,1088.5,1105.7,1088.5z"/>
	<path fill="none" stroke="#DDCC77" stroke-width="2" stroke-miterlimit="10" d="M1105.7,1088.5h-73.3c-2.6,0-4.6-2.1-4.6-4.6v-56.5
		c0-2.6,2.1-4.6,4.6-4.6h73.3c2.6,0,4.6,2.1,4.6,4.6v56.5C1110.3,1086.4,1108.3,1088.5,1105.7,1088.5z"/>
	<line fill="none" stroke="#DDCC77" stroke-width="2" stroke-miterlimit="10" x1="756.6" y1="1088.5" x2="756.6" y2="1078.1"/>
	<rect x="750" y="1063" fill="none" stroke="#DDCC77" stroke-width="2" stroke-miterlimit="10" width="13.4" height="15.5"/>
	<polygon fill="#DDCC77" points="760.2,1068 757.3,1068 757.3,1076.2 756.2,1076.2 756.2,1068 753.3,1068 753.3,1067 760.2,1067 	
		"/>
	<polygon fill="none" stroke="#DDCC77" stroke-miterlimit="10" points="760.2,1068 757.3,1068 757.3,1076.2 756.2,1076.2 
		756.2,1068 753.3,1068 753.3,1067 760.2,1067 	"/>
	<line fill="none" stroke="#DDCC77" stroke-width="2" stroke-miterlimit="10" x1="850.2" y1="1089" x2="850.2" y2="1078.7"/>
	<rect x="843.8" y="1063.5" fill="none" stroke="#DDCC77" stroke-width="2" stroke-miterlimit="10" width="13.4" height="15.5"/>
	<polygon fill="#DDCC77" points="853.8,1068.4 851,1068.4 851,1076.7 849.9,1076.7 849.9,1068.4 847,1068.4 847,1067.5 
		853.8,1067.5 	"/>
	<polygon fill="none" stroke="#DDCC77" stroke-miterlimit="10" points="853.8,1068.4 851,1068.4 851,1076.7 849.9,1076.7 
		849.9,1068.4 847,1068.4 847,1067.5 853.8,1067.5 	"/>
	<line fill="none" stroke="#DDCC77" stroke-width="2" stroke-miterlimit="10" x1="955.3" y1="1089.5" x2="955.3" y2="1079"/>
	<rect x="948.9" y="1064" fill="none" stroke="#DDCC77" stroke-width="2" stroke-miterlimit="10" width="13.4" height="15.5"/>
	<polygon fill="#DDCC77" points="959,1068.9 956.1,1068.9 956.1,1077.1 955,1077.1 955,1068.9 952.2,1068.9 952.2,1067.9 
		959,1067.9 	"/>
	<polygon fill="none" stroke="#DDCC77" stroke-miterlimit="10" points="959,1068.9 956.1,1068.9 956.1,1077.1 955,1077.1 
		955,1068.9 952.2,1068.9 952.2,1067.9 959,1067.9 	"/>
	<line fill="none" stroke="#DDCC77" stroke-width="2" stroke-miterlimit="10" x1="1045.4" y1="1089" x2="1045.4" y2="1078.7"/>
	<rect x="1038.7" y="1063.5" fill="none" stroke="#DDCC77" stroke-width="2" stroke-miterlimit="10" width="13.4" height="15.5"/>
	<polygon fill="#DDCC77" points="1048.9,1068.4 1046,1068.4 1046,1076.7 1044.9,1076.7 1044.9,1068.4 1042.1,1068.4 1042.1,1067.5 
		1048.9,1067.5 	"/>
	<polygon fill="none" stroke="#DDCC77" stroke-miterlimit="10" points="1048.9,1068.4 1046,1068.4 1046,1076.7 1044.9,1076.7 
		1044.9,1068.4 1042.1,1068.4 1042.1,1067.5 1048.9,1067.5 	"/>
	<rect x="964.8" y="752.6" width="56" height="44.3"/>
	<rect x="964.8" y="752.6" fill="none" stroke="#DDCC77" stroke-width="2" stroke-miterlimit="10" width="56" height="44.3"/>
	<rect x="880.8" y="689" width="12.6" height="44.3"/>
	<rect x="880.8" y="689" fill="none" stroke="#DDCC77" stroke-width="2" stroke-miterlimit="10" width="12.6" height="44.3"/>
	<rect x="893.6" y="689" width="30.7" height="44.3"/>
	<rect x="893.6" y="689" fill="none" stroke="#DDCC77" stroke-width="2" stroke-miterlimit="10" width="30.7" height="44.3"/>
	<rect x="1020.8" y="752.6" width="13.6" height="44.3"/>
	<rect x="1020.8" y="752.6" fill="none" stroke="#DDCC77" stroke-width="2" stroke-miterlimit="10" width="13.6" height="44.3"/>
	<rect x="932.9" y="752.6" width="18.6" height="44.3"/>
	<rect x="932.9" y="752.6" fill="none" stroke="#DDCC77" stroke-width="2" stroke-miterlimit="10" width="18.6" height="44.3"/>
	<path d="M951.5,752.8L951.5,752.8z"/>
	<path d="M967,689L967,689z"/>
	<rect x="951.5" y="752.6" width="12.7" height="44.5"/>
	<rect x="951.5" y="752.6" fill="none" stroke="#DDCC77" stroke-width="2" stroke-miterlimit="10" width="12.7" height="44.5"/>
	<polygon points="1020.1,689 1030.4,689 1038.2,733.1 1020.1,733.1 	"/>
	<polygon fill="none" stroke="#DDCC77" stroke-width="2" stroke-miterlimit="10" points="1020.1,689 1030.4,689 1038.2,733.1 
		1020.1,733.1 	"/>
	<rect x="945.6" y="689" width="21.4" height="44.3"/>
	<rect x="945.6" y="689" fill="none" stroke="#DDCC77" stroke-width="2" stroke-miterlimit="10" width="21.4" height="44.3"/>
	<rect x="924.2" y="689" width="21.4" height="44.3"/>
	<rect x="924.2" y="689" fill="none" stroke="#DDCC77" stroke-width="2" stroke-miterlimit="10" width="21.4" height="44.3"/>
	<rect x="967" y="689" width="53.1" height="44.1"/>
	<rect x="967" y="689" fill="none" stroke="#DDCC77" stroke-width="2" stroke-miterlimit="10" width="53.1" height="44.1"/>
	<polygon points="783.5,752.8 783.5,796.9 835.7,796.9 870.8,796.9 880.7,796.9 932.9,796.9 932.9,752.6 880.7,752.6 880.7,689 
		835.7,689 830.1,689 783.5,689 783.5,733.1 830.1,733.1 830.1,752.8 	"/>
	<polygon fill="none" stroke="#DDCC77" stroke-width="2" stroke-miterlimit="10" points="783.5,752.8 783.5,796.9 835.7,796.9 
		870.8,796.9 880.7,796.9 932.9,796.9 932.9,752.6 880.7,752.6 880.7,689 835.7,689 830.1,689 783.5,689 783.5,733.1 830.1,733.1 
		830.1,752.8 	"/>
	<line fill="none" stroke="#DDCC77" stroke-miterlimit="10" x1="880.1" y1="742.9" x2="830.1" y2="742.9"/>
	<line fill="none" stroke="#DDCC77" stroke-miterlimit="10" x1="876.7" y1="738.5" x2="867.6" y2="747.6"/>
	<line fill="none" stroke="#DDCC77" stroke-miterlimit="10" x1="866" y1="738.5" x2="857" y2="747.6"/>
	<line fill="none" stroke="#DDCC77" stroke-miterlimit="10" x1="855.7" y1="738.5" x2="846.5" y2="747.6"/>
	<line fill="none" stroke="#DDCC77" stroke-miterlimit="10" x1="845.2" y1="738.5" x2="836" y2="747.6"/>
	<polyline fill="none" stroke="#DDCC77" stroke-miterlimit="10" points="881.3,733 892.9,726.4 880.8,719.5 893.1,712.4 
		880.5,705.4 893.1,696.8 880.1,689.2 	"/>
	<line fill="none" stroke="#DDCC77" stroke-miterlimit="10" x1="824.5" y1="796.5" x2="824.5" y2="753.7"/>
	<line fill="none" stroke="#DDCC77" stroke-miterlimit="10" x1="829.1" y1="794.3" x2="820" y2="785.4"/>
	<line fill="none" stroke="#DDCC77" stroke-miterlimit="10" x1="829.1" y1="783.8" x2="820" y2="774.8"/>
	<line fill="none" stroke="#DDCC77" stroke-miterlimit="10" x1="829.1" y1="773.3" x2="820" y2="764.3"/>
	<line fill="none" stroke="#DDCC77" stroke-miterlimit="10" x1="829.1" y1="762.9" x2="820" y2="753.7"/>
	<line fill="none" stroke="#DDCC77" stroke-miterlimit="10" x1="824.5" y1="732.4" x2="824.5" y2="689.7"/>
	<line fill="none" stroke="#DDCC77" stroke-miterlimit="10" x1="829.1" y1="730.2" x2="820" y2="721.2"/>
	<line fill="none" stroke="#DDCC77" stroke-miterlimit="10" x1="829.1" y1="719.7" x2="820" y2="710.7"/>
	<line fill="none" stroke="#DDCC77" stroke-miterlimit="10" x1="829.1" y1="709.3" x2="820" y2="700.2"/>
	<line fill="none" stroke="#DDCC77" stroke-miterlimit="10" x1="829.1" y1="698.8" x2="820" y2="689.7"/>
	<ellipse cx="986.1" cy="784.8" rx="3.6" ry="10.2"/>
	<ellipse fill="none" stroke="#DDCC77" stroke-miterlimit="10" cx="986.1" cy="784.8" rx="3.6" ry="10.2"/>
	<ellipse cx="985.3" cy="764.8" rx="3.6" ry="10.2"/>
	<ellipse fill="none" stroke="#DDCC77" stroke-miterlimit="10" cx="985.3" cy="764.8" rx="3.6" ry="10.2"/>
	<path d="M984,773.6h11.5c0.5,0,0.8,0.5,0.8,0.8c0,0.5-0.5,0.8-0.8,0.8H984c-0.5,0-0.8-0.5-0.8-0.8C983,774.3,983.5,773.6,984,773.6
		z"/>
	<path fill="none" stroke="#DDCC77" stroke-miterlimit="10" d="M984,773.6h11.5c0.5,0,0.8,0.5,0.8,0.8c0,0.5-0.5,0.8-0.8,0.8H984
		c-0.5,0-0.8-0.5-0.8-0.8C983,774.3,983.5,773.6,984,773.6z"/>
	<ellipse cx="993" cy="700.7" rx="3.6" ry="10.2"/>
	<ellipse fill="none" stroke="#DDCC77" stroke-miterlimit="10" cx="993" cy="700.7" rx="3.6" ry="10.2"/>
	<ellipse cx="993.9" cy="720.7" rx="3.6" ry="10.2"/>
	<ellipse fill="none" stroke="#DDCC77" stroke-miterlimit="10" cx="993.9" cy="720.7" rx="3.6" ry="10.2"/>
	<path d="M995.1,711.7h-11.5c-0.5,0-0.8-0.5-0.8-0.8c0-0.5,0.5-0.8,0.8-0.8h11.5c0.5,0,0.8,0.5,0.8,0.8
		C996.1,711.2,995.8,711.7,995.1,711.7z"/>
	<path fill="none" stroke="#DDCC77" stroke-miterlimit="10" d="M995.1,711.7h-11.5c-0.5,0-0.8-0.5-0.8-0.8c0-0.5,0.5-0.8,0.8-0.8
		h11.5c0.5,0,0.8,0.5,0.8,0.8C996.1,711.2,995.8,711.7,995.1,711.7z"/>
	<line fill="none" stroke="#DDCC77" stroke-miterlimit="10" x1="1028.7" y1="679.2" x2="1039" y2="738.6"/>
	<path fill="#930318" d="M939.6,796h-4c0-3.4,3.6-4.8,6.4-6c1.6-0.7,4.1-1.6,4.1-2.6c0-0.8-2.4-1.9-4.1-2.6c-2.9-1.2-6.4-2.6-6.4-6
		c0-3.4,3.6-4.8,6.4-6c1.6-0.7,4.1-1.6,4.1-2.6c0-0.8-2.4-1.9-4.1-2.6c-2.9-1.2-6.4-2.6-6.4-6c0-3.4,3.6-4.8,6.4-6
		c1.6-0.7,4.1-1.6,4.1-2.6h4c0,3.4-3.6,4.8-6.4,6c-1.6,0.7-4.1,1.6-4.1,2.6c0,0.8,2.4,1.9,4.1,2.6c2.9,1.2,6.4,2.6,6.4,6
		c0,3.4-3.6,4.8-6.4,6c-1.6,0.7-4.1,1.6-4.1,2.6c0,0.8,2.4,1.9,4.1,2.6c2.9,1.2,6.4,2.6,6.4,6c0,3.4-3.6,4.8-6.4,6
		C942.2,794.3,939.6,795.3,939.6,796z"/>
	<path fill="#930318" d="M932.3,732.4h-4c0-3.4,3.6-4.8,6.4-6c1.6-0.7,4.1-1.6,4.1-2.6c0-0.8-2.4-1.9-4.1-2.6
		c-2.9-1.2-6.4-2.6-6.4-6c0-3.4,3.6-4.8,6.4-6c1.6-0.7,4.1-1.6,4.1-2.6c0-0.8-2.4-1.9-4.1-2.6c-2.9-1.2-6.4-2.6-6.4-6
		c0-3.4,3.6-4.8,6.4-6c1.6-0.7,4.1-1.6,4.1-2.6h4c0,3.4-3.6,4.8-6.4,6c-1.6,0.7-4.1,1.6-4.1,2.6c0,0.8,2.4,1.9,4.1,2.6
		c2.9,1.2,6.4,2.6,6.4,6s-3.6,4.8-6.4,6c-1.6,0.7-4.1,1.6-4.1,2.6c0,0.8,2.4,1.9,4.1,2.6c2.9,1.2,6.4,2.6,6.4,6c0,3.4-3.6,4.8-6.4,6
		C934.9,730.7,932.3,731.6,932.3,732.4z"/>
	<path fill="#1B39B2" d="M952.9,732.2h-4c0-3.4,3.6-4.8,6.4-6c1.6-0.7,4.1-1.6,4.1-2.6c0-0.8-2.4-1.9-4.1-2.6
		c-2.9-1.2-6.4-2.6-6.4-6c0-3.4,3.6-4.8,6.4-6c1.6-0.7,4.1-1.6,4.1-2.6c0-0.8-2.4-1.9-4.1-2.6c-2.9-1.2-6.4-2.6-6.4-6s3.6-4.8,6.4-6
		c1.6-0.7,4.1-1.6,4.1-2.6h4c0,3.4-3.6,4.8-6.4,6c-1.6,0.7-4.1,1.6-4.1,2.6c0,0.8,2.4,1.9,4.1,2.6c2.9,1.2,6.4,2.6,6.4,6
		c0,3.4-3.6,4.8-6.4,6c-1.6,0.7-4.1,1.6-4.1,2.6c0,0.8,2.4,1.9,4.1,2.6c2.9,1.2,6.4,2.6,6.4,6c0,3.4-3.6,4.8-6.4,6
		C955.3,730.6,952.9,731.4,952.9,732.2z"/>
	<path d="M1045.4,621.6h-18.1c-0.8-0.2-1.6-0.4-2.4-0.4c-0.8,0-1.6,0.2-2.4,0.4c-7.4,1.2-12.9,7.6-12.9,15.2
		c0,8.4,6.9,15.3,15.3,15.3c8.4,0,15.3-6.9,15.3-15.3c0-0.8-0.2-1.7-0.4-2.6h5.4v-12.6H1045.4L1045.4,621.6z"/>
	<path fill="none" stroke="#DDCC77" stroke-width="2" stroke-miterlimit="10" d="M1045.4,621.6h-18.1c-0.8-0.2-1.6-0.4-2.4-0.4
		c-0.8,0-1.6,0.2-2.4,0.4c-7.4,1.2-12.9,7.6-12.9,15.2c0,8.4,6.9,15.3,15.3,15.3c8.4,0,15.3-6.9,15.3-15.3c0-0.8-0.2-1.7-0.4-2.6
		h5.4v-12.6H1045.4L1045.4,621.6z"/>
	<path d="M814.3,599.4h-18.1c-0.8-0.2-1.6-0.4-2.4-0.4s-1.6,0.2-2.4,0.4h-0.2c-7.4,1.2-12.9,7.6-12.9,15.2c0,8.4,6.9,15.3,15.3,15.3
		c8.6,0,15.3-6.9,15.3-15.3c0-0.8-0.2-1.7-0.4-2.6h5.4v-12.6H814.3z"/>
	<path fill="none" stroke="#DDCC77" stroke-width="2" stroke-miterlimit="10" d="M814.3,599.4h-18.1c-0.8-0.2-1.6-0.4-2.4-0.4
		s-1.6,0.2-2.4,0.4h-0.2c-7.4,1.2-12.9,7.6-12.9,15.2c0,8.4,6.9,15.3,15.3,15.3c8.6,0,15.3-6.9,15.3-15.3c0-0.8-0.2-1.7-0.4-2.6h5.4
		v-12.6H814.3z"/>
	<path d="M974.2,418.3h-18.1c-0.8-0.2-1.6-0.4-2.4-0.4s-1.6,0.2-2.4,0.4h-0.2c-7.4,1.2-12.9,7.6-12.9,15.2c0,8.4,6.9,15.3,15.3,15.3
		c8.6,0,15.3-6.9,15.3-15.3c0-0.8-0.2-1.7-0.4-2.6h5.4L974.2,418.3z"/>
	<path fill="none" stroke="#44AA99" stroke-width="2" stroke-miterlimit="10" d="M974.2,418.3h-18.1c-0.8-0.2-1.6-0.4-2.4-0.4
		s-1.6,0.2-2.4,0.4h-0.2c-7.4,1.2-12.9,7.6-12.9,15.2c0,8.4,6.9,15.3,15.3,15.3c8.6,0,15.3-6.9,15.3-15.3c0-0.8-0.2-1.7-0.4-2.6h5.4
		L974.2,418.3z"/>
	<polygon points="803.1,518.2 795,532.4 786.9,518.2 	"/>
	<polygon fill="none" stroke="#44AA99" stroke-width="2" stroke-miterlimit="10" points="803.1,518.2 795,532.4 786.9,518.2 	"/>
	<polygon points="786.9,546.5 795,532.5 803.1,546.5 	"/>
	<polygon fill="none" stroke="#44AA99" stroke-width="2" stroke-miterlimit="10" points="786.9,546.5 795,532.5 803.1,546.5 	"/>
	<polygon points="868.2,518.2 860.3,532.2 852.2,518.2 	"/>
	<polygon fill="none" stroke="#44AA99" stroke-width="2" stroke-miterlimit="10" points="868.2,518.2 860.3,532.2 852.2,518.2 	"/>
	<polygon points="852.2,546.5 860.3,532.4 868.2,546.5 	"/>
	<polygon fill="none" stroke="#44AA99" stroke-width="2" stroke-miterlimit="10" points="852.2,546.5 860.3,532.4 868.2,546.5 	"/>
	<polygon points="846.4,524.1 860.3,532.2 846.4,540.3 	"/>
	<polygon fill="none" stroke="#44AA99" stroke-width="2" stroke-miterlimit="10" points="846.4,524.1 860.3,532.2 846.4,540.3 	"/>
	<line fill="none" stroke="#44AA99" stroke-width="2" stroke-miterlimit="10" x1="860.3" y1="532.4" x2="876.7" y2="532.4"/>
	<rect x="876.7" y="520.1" width="18.1" height="24.3"/>
	<rect x="876.7" y="520.1" fill="none" stroke="#44AA99" stroke-miterlimit="10" width="18.1" height="24.3"/>
	<rect x="884.8" y="525.9" width="1.5" height="12.4"/>
	<rect x="884.8" y="525.9" fill="#44AA99" width="1.5" height="12.4"/>
	<polygon fill="#44AA99" points="884.8,538.2 884.8,538.7 886.8,538.7 886.8,525.4 884.3,525.4 884.3,538.7 884.8,538.7 
		884.8,538.2 885.3,538.2 885.3,526.4 885.8,526.4 885.8,537.7 884.8,537.7 884.8,538.2 885.3,538.2 	"/>
	<line fill="none" stroke="#44AA99" stroke-width="2" stroke-miterlimit="10" x1="845.2" y1="412.9" x2="845.2" y2="402.6"/>
	<rect x="838.6" y="387.4" width="13.4" height="15.5"/>
	<rect x="838.6" y="387.4" fill="none" stroke="#44AA99" stroke-width="2" stroke-miterlimit="10" width="13.4" height="15.5"/>
	<polygon fill="#44AA99" points="848.8,392.4 845.9,392.4 845.9,400.7 844.8,400.7 844.8,392.4 841.9,392.4 841.9,391.5 
		848.8,391.5 	"/>
	<polygon fill="none" stroke="#44AA99" stroke-miterlimit="10" points="848.8,392.4 845.9,392.4 845.9,400.7 844.8,400.7 
		844.8,392.4 841.9,392.4 841.9,391.5 848.8,391.5 	"/>
	<line fill="none" stroke="#DDCC77" stroke-width="2" stroke-miterlimit="10" x1="803.4" y1="688.8" x2="803.4" y2="678.5"/>
	<rect x="796.9" y="663.3" width="13.4" height="15.5"/>
	<rect x="796.9" y="663.3" fill="none" stroke="#DDCC77" stroke-width="2" stroke-miterlimit="10" width="13.4" height="15.5"/>
	<polygon fill="#DDCC77" points="807.1,668.3 804.2,668.3 804.2,676.5 803.1,676.5 803.1,668.3 800.2,668.3 800.2,667.3 
		807.1,667.3 	"/>
	<polygon fill="none" stroke="#DDCC77" stroke-miterlimit="10" points="807.1,668.3 804.2,668.3 804.2,676.5 803.1,676.5 
		803.1,668.3 800.2,668.3 800.2,667.3 807.1,667.3 	"/>
	<rect x="986.8" y="663.7" width="13.4" height="15.3"/>
	<rect x="986.8" y="663.7" fill="none" stroke="#DDCC77" stroke-width="2" stroke-miterlimit="10" width="13.4" height="15.3"/>
	<line fill="none" stroke="#DDCC77" stroke-width="2" stroke-miterlimit="10" x1="993.3" y1="689.7" x2="993.3" y2="680"/>
	<rect x="992.7" y="667.3" fill="#DDCC77" width="1.1" height="9.2"/>
	<rect x="992.7" y="667.3" fill="none" stroke="#DDCC77" stroke-miterlimit="10" width="1.1" height="9.2"/>
	<polygon points="978.5,583.1 970.2,597.1 962.4,583.1 	"/>
	<polygon fill="none" stroke="#DDCC77" stroke-miterlimit="10" points="978.5,583.1 970.2,597.1 962.4,583.1 	"/>
	<polygon points="962.4,611.1 970.2,597.1 978.5,611.1 	"/>
	<polygon fill="none" stroke="#DDCC77" stroke-miterlimit="10" points="962.4,611.1 970.2,597.1 978.5,611.1 	"/>
	<polygon points="956.3,588.9 970.2,597.1 956.3,605.1 	"/>
	<polygon fill="none" stroke="#DDCC77" stroke-miterlimit="10" points="956.3,588.9 970.2,597.1 956.3,605.1 	"/>
	<line fill="none" stroke="#DDCC77" stroke-width="2" stroke-miterlimit="10" x1="970.2" y1="597.1" x2="986.6" y2="597.1"/>
	<rect x="986.6" y="584.9" width="18.1" height="24.3"/>
	<rect x="986.6" y="584.9" fill="none" stroke="#DDCC77" stroke-miterlimit="10" width="18.1" height="24.3"/>
	<rect x="994.9" y="590.6" width="1.5" height="12.4"/>
	<rect x="994.9" y="590.6" fill="#DDCC77" width="1.5" height="12.4"/>
	<rect x="994.9" y="590.6" fill="none" stroke="#DDCC77" stroke-miterlimit="10" width="1.5" height="12.4"/>
	<path d="M1038.5,406c-0.2,1.9-0.7,2.6-1.4,2.6h-53.8h-0.5l-3.4-18.1l-9.8-51c-0.2-0.8,0.5-1.6,1.4-1.6h78.1c0.8,0,1.4,0.8,1.4,0.4
		L1038.5,406z"/>
	<path fill="none" stroke="#44AA99" stroke-width="2" stroke-miterlimit="10" d="M1038.5,406c-0.2,1.9-0.7,2.6-1.4,2.6h-53.8h-0.5
		l-3.4-18.1l-9.8-51c-0.2-0.8,0.5-1.6,1.4-1.6h78.1c0.8,0,1.4,0.8,1.4,0.4L1038.5,406z"/>
	<line fill="none" stroke="#44AA99" stroke-width="1.1722" stroke-miterlimit="10" x1="974" y1="366.3" x2="1045.4" y2="366.3"/>
	<path fill="none" stroke="#44AA99" stroke-width="1.0488" stroke-linecap="round" stroke-miterlimit="10" d="M992.5,375.4l3.1-2.6
		c0.4-0.4,0.5-0.7,0.5-1v-4.6"/>
	
		<line fill="none" stroke="#44AA99" stroke-width="1.0488" stroke-linecap="round" stroke-miterlimit="10" x1="999.1" y1="375.4" x2="995.9" y2="372.3"/>
	<path fill="none" stroke="#44AA99" stroke-width="1.0488" stroke-linecap="round" stroke-miterlimit="10" d="M1020.4,374.7l3.1-2.6
		c0.4-0.4,0.5-0.7,0.5-1v-4.6"/>
	
		<line fill="none" stroke="#44AA99" stroke-width="1.0488" stroke-linecap="round" stroke-miterlimit="10" x1="1027" y1="374.7" x2="1023.8" y2="371.6"/>
	<path fill="none" stroke="#44AA99" stroke-width="0.8901" stroke-miterlimit="10" d="M1012.5,383.3h-5.4c-0.8,0-1.4-0.7-1.4-1.4
		v-4.5c0-0.8,0.7-1.4,1.4-1.4h5.4c0.8,0,1.4,0.7,1.4,1.4v4.5C1013.9,382.6,1013.2,383.3,1012.5,383.3z"/>
	
		<line fill="none" stroke="#44AA99" stroke-width="1.0488" stroke-linecap="round" stroke-miterlimit="10" x1="1009.7" y1="383.6" x2="1009.7" y2="407.1"/>
	<path fill="none" stroke="#44AA99" stroke-width="0.8901" stroke-miterlimit="10" d="M980.1,393.3c-0.4-1,0.8-1.9,1.9-1.6
		c4.6,2.2,15.3,5.4,29.3-1.4c0,0,15.5-7.4,29.3-1.4c0.5,0.4,0.8,0.8,0.8,0.4l-3.3,16.7c-0.2,1.9-0.7,2.4-1.4,2.4l-52.4,0.2
		c-0.7,0-1.2-0.4-1.4-1L980.1,393.3z"/>
	<ellipse cx="1019.7" cy="350.2" rx="10.2" ry="3.6"/>
	<ellipse fill="none" stroke="#44AA99" stroke-miterlimit="10" cx="1019.7" cy="350.2" rx="10.2" ry="3.6"/>
	<ellipse cx="999.7" cy="350.9" rx="10.2" ry="3.6"/>
	<ellipse fill="none" stroke="#44AA99" stroke-miterlimit="10" cx="999.7" cy="350.9" rx="10.2" ry="3.6"/>
	<path d="M1008.7,352.1v-11.5c0-0.5,0.5-0.8,0.8-0.8c0.5,0,0.8,0.5,0.8,0.8v11.5c0,0.5-0.5,0.8-0.8,0.8
		C1009.2,353.1,1008.7,352.8,1008.7,352.1z"/>
	<path fill="none" stroke="#44AA99" stroke-miterlimit="10" d="M1008.7,352.1v-11.5c0-0.5,0.5-0.8,0.8-0.8c0.5,0,0.8,0.5,0.8,0.8
		v11.5c0,0.5-0.5,0.8-0.8,0.8C1009.2,353.1,1008.7,352.8,1008.7,352.1z"/>
	<path d="M1092.8,514.6v-5.2h-7.2v-11.4h-3.4v7.4c-2.1-3.3-5.8-5.8-10.3-7.6c-0.4-16.7-14.1-22.7-23.3-22.7h-37.2v-7.8h-52V496h52
		v-7.8h37.1c0.8,0,8.6,0.4,10,8.1h-81.5c-9.8,0-17.9,4.5-20.9,10.7v-10.8h-6.4v34.1h6.4v-8.8c2.9,6.2,11,10.7,20.9,10.7v14.8h13.6
		v-15h52.9v14.8h13.6V532h5.4c8.8,0,16.4-3.6,19.8-9.1v9.1h3.4v-11.2h7.2v-5.2h-7.2v-1.2L1092.8,514.6z"/>
	<path fill="none" stroke="#44AA99" stroke-width="2" stroke-miterlimit="10" d="M1092.8,514.6v-5.2h-7.2v-11.4h-3.4v7.4
		c-2.1-3.3-5.8-5.8-10.3-7.6c-0.4-16.7-14.1-22.7-23.3-22.7h-37.2v-7.8h-52V496h52v-7.8h37.1c0.8,0,8.6,0.4,10,8.1h-81.5
		c-9.8,0-17.9,4.5-20.9,10.7v-10.8h-6.4v34.1h6.4v-8.8c2.9,6.2,11,10.7,20.9,10.7v14.8h13.6v-15h52.9v14.8h13.6V532h5.4
		c8.8,0,16.4-3.6,19.8-9.1v9.1h3.4v-11.2h7.2v-5.2h-7.2v-1.2L1092.8,514.6z"/>
	<path d="M880,430.2v5.4h-9c-1-12.6-10.3-22.6-21.7-22.6H764c-7.8,0-14.7,4.6-18.6,11.9H740v33.9h5.4c3.8,7,10.7,11.9,18.6,11.9
		v14.8h13.6v-14.8h52.9v14.8h13.6v-14.8h5.4c11,0,20.3-9.5,21.7-21.9h9v4.1h19.8v-22.7L880,430.2z"/>
	<path fill="none" stroke="#44AA99" stroke-width="2" stroke-miterlimit="10" d="M880,430.2v5.4h-9c-1-12.6-10.3-22.6-21.7-22.6H764
		c-7.8,0-14.7,4.6-18.6,11.9H740v33.9h5.4c3.8,7,10.7,11.9,18.6,11.9v14.8h13.6v-14.8h52.9v14.8h13.6v-14.8h5.4
		c11,0,20.3-9.5,21.7-21.9h9v4.1h19.8v-22.7L880,430.2z"/>
</g>
</svg>
