<svg version="1.1" id="svg" xmlns="http://www.w3.org/2000/svg" xmlns:xlink="http://www.w3.org/1999/xlink" x="0px" y="0px" viewBox="601.6 315 248.4 462" enable-background="new 601.6 315 248.4 462" xml:space="preserve" preserveAspectRatio="xMinYMin slice">
  <g id="space_1_">
    <g id="space" opacity="0">
      <rect x="623.2" y="461.6" fill="#8CE" stroke="#231F20" stroke-width="0.2054" stroke-miterlimit="10" width="4.7" height="299.2"/>
      <rect x="624.1" y="421.8" fill="#8CE" stroke="#231F20" stroke-width="0.2054" stroke-miterlimit="10" width="2.2" height="40.1"/>
      <rect x="623" y="397.6" fill="#8CE" stroke="#231F20" stroke-width="0.2054" stroke-miterlimit="10" width="5.1" height="24"/>
      <rect x="598.9" y="367.9" transform="matrix(-0.9699 0.2436 -0.2436 -0.9699 1497.3353 556.9171)" fill="#8CE" stroke="#231F20" stroke-width="0.2054" stroke-miterlimit="10" width="230.7" height="6.2"/>
      <rect x="627.8" y="486.4" fill="none" stroke="#8CE" stroke-width="0.1634" stroke-miterlimit="10" width="171.2" height="12.1"/>
      <rect x="799.1" y="459.4" fill="#8CE" stroke="#231F20" stroke-width="0.2054" stroke-miterlimit="10" width="5.1" height="40.6"/>
      <rect x="800.4" y="419" fill="#8CE" stroke="#231F20" stroke-width="0.2054" stroke-miterlimit="10" width="2.2" height="40.1"/>
      <rect x="799.1" y="395" fill="#8CE" stroke="#231F20" stroke-width="0.2054" stroke-miterlimit="10" width="5.1" height="24"/>
      <rect x="800.4" y="375.2" fill="#8CE" stroke="#231F20" stroke-width="0.2054" stroke-miterlimit="10" width="2.2" height="19.9"/>
      <polygon fill="#8CE" stroke="#231F20" stroke-width="0.2054" stroke-miterlimit="10" points="804,375.5 799.1,375.5 799.1,353 804,351.3"/>
      <rect x="627.6" y="741.1" fill="#8CE" stroke="#231F20" stroke-width="0.2054" stroke-miterlimit="10" width="17" height="18.9"/>
      <rect x="620.7" y="760" fill="#8CE" stroke="#231F20" stroke-width="0.2054" stroke-miterlimit="10" width="27.1" height="5.1"/>
      <rect x="782.7" y="741.1" fill="#8CE" stroke="#231F20" stroke-width="0.2054" stroke-miterlimit="10" width="17" height="19.2"/>
      <rect x="779.8" y="760" fill="#8CE" stroke="#231F20" stroke-width="0.2054" stroke-miterlimit="10" width="27.1" height="5.1"/>
      <polygon fill="none" stroke="#8CE" stroke-width="0.1027" stroke-miterlimit="10" points="702.4,403.5 642.5,403.5 645.3,399.2 699.7,399.2"/>
      <line fill="none" stroke="#8CE" stroke-width="0.1027" stroke-miterlimit="10" x1="650" y1="398.9" x2="653.7" y2="389"/>
      <line fill="none" stroke="#8CE" stroke-width="0.1027" stroke-miterlimit="10" x1="696.6" y1="398.9" x2="691.8" y2="379.7"/>
      <polygon fill="none" stroke="#8CE" stroke-width="0.1027" stroke-miterlimit="10" points="773.1,404.1 713.3,404.1 716.1,399.6 770.4,399.6"/>
      <line fill="none" stroke="#8CE" stroke-width="0.1027" stroke-miterlimit="10" x1="720.6" y1="399.2" x2="727.5" y2="371.5"/>
      <line fill="none" stroke="#8CE" stroke-width="0.1027" stroke-miterlimit="10" x1="767.4" y1="399.2" x2="760.7" y2="363.4"/>
      <g>
        <line fill="none" stroke="#8CE" stroke-width="7.917207e-02" stroke-miterlimit="10" x1="687.6" y1="617.8" x2="687.6" y2="627.7"/>
        <path fill="none" stroke="#8CE" stroke-width="7.917207e-02" stroke-miterlimit="10" d="M691.8,631.2c0,2.2-8.6,2.2-8.6,0 c0-2.2,1.8-4.1,4.1-4.1C690.1,627,691.8,628.9,691.8,631.2z"/>
      </g>
      <g>
        <line fill="none" stroke="#8CE" stroke-width="7.917207e-02" stroke-miterlimit="10" x1="738.8" y1="617.3" x2="738.8" y2="627.5"/>
        <path fill="none" stroke="#8CE" stroke-width="7.917207e-02" stroke-miterlimit="10" d="M743.2,631c0,2.2-8.6,2.2-8.6,0 c0-2.2,1.8-4.1,4.1-4.1C741.3,626.5,743.2,628.5,743.2,631z"/>
      </g>
      <g opacity="0.4">
        <g>
          <path fill="none" stroke="#8CE" stroke-width="1.2324" stroke-miterlimit="10" d="M830.7,459.7c-7.4,0-7.4-3.5-14.9-3.5 c-7.4,0-7.4,3.5-14.9,3.5c-7.4,0-7.4-3.5-14.9-3.5c-7.6,0-7.6,3.5-14.9,3.5c-0.9,0-1.8,0-2.7-0.2"/>
          <g>
            <path fill="#8CE" d="M756.2,456.4c6.5-0.5,14.3-2.6,19.9-5.3l-6,8.7l0.9,10.5C767.5,465.2,761.4,459.7,756.2,456.4z"/>
          </g>
        </g>
      </g>
      <rect x="800" y="717.7" fill="#8CE" stroke="#231F20" stroke-width="0.2054" stroke-miterlimit="10" width="5.1" height="42.4"/>
      <rect x="798.8" y="519.2" fill="#8CE" stroke="#231F20" stroke-width="0.2054" stroke-miterlimit="10" width="5.1" height="24"/>
      <g opacity="0.4">
        <g>
          <path fill="none" stroke="#8CE" stroke-width="1.2324" stroke-miterlimit="10" d="M829.5,561.5c0,0-7.8,0-14.3,0 c-6.6,0-4-6.7-15.7-6.7c-11.6,0-99.4,0-99.4,0s-30,1.8-30-10.2v-23c0,0-0.2-10.1,18.2-10.5c0,0,106.5,0,111.7,0s8,4.9,13.1,4.9 c2.7,0,10.1,0,16.9,0"/>
          <g>
            <path fill="#8CE" d="M842.4,515.9c-6,2.2-13.4,6-17.9,9.9l3.7-9.9l-3.7-9.9C829.2,509.9,836.6,513.8,842.4,515.9z"/>
          </g>
        </g>
      </g>
      <ellipse stroke="#8CE" stroke-width="9.934057e-02" stroke-miterlimit="10" cx="663.1" cy="487.8" rx="7.8" ry="1.7"/>
      <ellipse stroke="#8CE" stroke-width="9.934057e-02" stroke-miterlimit="10" cx="711.2" cy="487.8" rx="7.8" ry="1.7"/>
      <ellipse stroke="#8CE" stroke-width="9.934057e-02" stroke-miterlimit="10" cx="759.5" cy="487.8" rx="7.8" ry="1.7"/>
      <g opacity="0.57">
        <g>
          <line fill="none" stroke="#8CE" stroke-width="0.2054" stroke-miterlimit="10" x1="663.1" y1="487.8" x2="663.1" y2="481.3"/>
          <g>
            <path fill="#8CE" d="M663.1,476c0.9,2.6,2.6,5.5,4,7.4l-4-1.5l-4,1.5C660.5,481.4,662.1,478.5,663.1,476z"/>
          </g>
        </g>
      </g>
      <g opacity="0.57">
        <g>
          <line fill="none" stroke="#8CE" stroke-width="0.2054" stroke-miterlimit="10" x1="711.2" y1="486.6" x2="711.2" y2="480"/>
          <g>
            <path fill="#8CE" d="M711.2,474.6c0.9,2.6,2.6,5.5,4,7.4l-4-1.5l-4,1.5C708.6,480.4,710.4,477.2,711.2,474.6z"/>
          </g>
        </g>
      </g>
      <g opacity="0.57">
        <g>
          <line fill="none" stroke="#8CE" stroke-width="0.2054" stroke-miterlimit="10" x1="759.5" y1="489.8" x2="759.5" y2="483.1"/>
          <g>
            <path fill="#8CE" d="M759.5,477.9c0.9,2.6,2.6,5.5,4,7.4l-4-1.5l-4.1,1.5C757.1,483.3,758.6,480.4,759.5,477.9z"/>
          </g>
        </g>
      </g>
      <rect x="628.5" y="602.6" fill="none" stroke="#8CE" stroke-width="0.1634" stroke-miterlimit="10" width="171.2" height="12.1"/>
      <ellipse stroke="#8CE" stroke-width="9.934057e-02" stroke-miterlimit="10" cx="663.8" cy="604.2" rx="7.8" ry="1.7"/>
      <ellipse stroke="#8CE" stroke-width="9.934057e-02" stroke-miterlimit="10" cx="712" cy="604.2" rx="7.8" ry="1.7"/>
      <ellipse stroke="#8CE" stroke-width="9.934057e-02" stroke-miterlimit="10" cx="760.3" cy="604.2" rx="7.8" ry="1.7"/>
      <g opacity="0.57">
        <g>
          <line fill="none" stroke="#8CE" stroke-width="0.2054" stroke-miterlimit="10" x1="663.8" y1="604.2" x2="663.8" y2="597.7"/>
          <g>
            <path fill="#8CE" d="M663.8,592.3c0.9,2.6,2.6,5.5,4,7.4l-4-1.5l-4,1.5C661.3,598,662.9,594.8,663.8,592.3z"/>
          </g>
        </g>
      </g>
      <g opacity="0.57">
        <g>
          <line fill="none" stroke="#8CE" stroke-width="0.2054" stroke-miterlimit="10" x1="712" y1="603.2" x2="712" y2="596.3"/>
          <g>
            <path fill="#8CE" d="M712,591.1c0.9,2.6,2.6,5.5,4,7.4l-4-1.5l-4,1.5C709.5,596.8,711.1,593.6,712,591.1z"/>
          </g>
        </g>
      </g>
      <g opacity="0.57">
        <g>
          <line fill="none" stroke="#8CE" stroke-width="0.2054" stroke-miterlimit="10" x1="760.3" y1="606.2" x2="760.3" y2="599.7"/>
          <g>
            <path fill="#8CE" d="M760.3,594.4c0.9,2.6,2.6,5.5,4,7.4l-4-1.5l-4,1.5C757.6,599.8,759.4,596.8,760.3,594.4z"/>
          </g>
        </g>
      </g>
      <rect x="636.2" y="525.9" fill="none" stroke="#8CE" stroke-width="0.1702" stroke-miterlimit="10" width="9.9" height="14.7"/>
      <path fill="none" stroke="#8CE" stroke-width="0.1702" stroke-miterlimit="10" d="M641.1,527.9c-2.2,0-3.9,1.7-3.9,3.9h7.6 C645,529.5,643.3,527.9,641.1,527.9z"/>
      <line fill="none" stroke="#8CE" stroke-width="0.1702" stroke-miterlimit="10" x1="640.8" y1="533.2" x2="641.1" y2="529.3"/>
      <rect x="800" y="647.1" fill="#8CE" stroke="#231F20" stroke-width="0.2054" stroke-miterlimit="10" width="5.1" height="40.6"/>
      <rect x="801.3" y="617.3" fill="#8CE" stroke="#231F20" stroke-width="0.2054" stroke-miterlimit="10" width="2.2" height="29.6"/>
      <rect x="800" y="588.4" fill="#8CE" stroke="#231F20" stroke-width="0.2054" stroke-miterlimit="10" width="5.1" height="28.6"/>
      <rect x="801.3" y="687.6" fill="#8CE" stroke="#231F20" stroke-width="0.2054" stroke-miterlimit="10" width="2.2" height="29.6"/>
      <polygon fill="#8CE" stroke="#231F20" stroke-width="0.2054" stroke-miterlimit="10" points="799.6,741.1 627.6,741.1 627.6,732 800,732.2"/>
      <path stroke="#8CE" stroke-width="6.832194e-02" stroke-miterlimit="10" d="M649.6,697.3h-20.3c0,3.1,3.2,5.5,7.8,6.5 l-1.3,26.2h7.6l-2.2-26.2C645.8,703.2,649.6,700.5,649.6,697.3z"/>
      <rect x="630.3" y="695.6" fill="none" stroke="#8CE" stroke-width="8.432148e-02" stroke-miterlimit="10" width="1.3" height="1.5"/>
      <rect x="630.8" y="694.3" fill="none" stroke="#8CE" stroke-width="8.432148e-02" stroke-miterlimit="10" width="0.4" height="1.5"/>
      <path fill="none" stroke="#F3743F" stroke-width="8.432148e-02" stroke-miterlimit="10" d="M684.5,720.7v13.4h-54.2l-0.2-35 l1.8-2.6c0,0-0.2-3.5,0-3.7c0.5-0.9,4-2.2,4.7-1.7c0.4,0.2,0.4,0.9,0.4,0.9"/>
      <g>
        <path fill="none" stroke="#8CE" stroke-width="4.216015e-02" stroke-miterlimit="10" d="M632.4,697.3c-0.2,0-0.5-0.2-0.5-0.5 c-0.2-3.7,0-3.9,0-4c0.5-1.2,4.4-2.2,5.4-1.8c0.8,0.4,0.8,1.3,0.8,1.5c0,0.4-0.2,0.5-0.5,0.5l0,0c-0.4,0-0.5-0.2-0.5-0.5 c0-0.2,0-0.4-0.2-0.5c-0.8,0-3.5,0.9-3.9,1.5c0,0.4,0,2.2,0,3.5C632.9,697,632.7,697.3,632.4,697.3L632.4,697.3z"/>
      </g>
      <ellipse fill="#8CE" cx="630.2" cy="693.9" rx="0.9" ry="0.2"/>
      <ellipse fill="#8CE" cx="631.8" cy="693.9" rx="0.9" ry="0.2"/>
      <rect x="800.4" y="544" fill="#8CE" stroke="#231F20" stroke-width="0.2054" stroke-miterlimit="10" width="2.2" height="45.4"/>
      <rect x="800.4" y="500" fill="#8CE" stroke="#231F20" stroke-width="0.2054" stroke-miterlimit="10" width="2.2" height="19.9"/>
      <g>
        <line fill="none" stroke="#8CE" stroke-width="0.1027" stroke-miterlimit="10" x1="641" y1="525.9" x2="641" y2="519.2"/>
        <rect x="636.6" y="509.2" fill="none" stroke="#8CE" stroke-width="0.1027" stroke-miterlimit="10" width="8.9" height="10.2"/>
        <text transform="matrix(1 0 0 1 638.7588 517.8737)" opacity="0.57" fill="#8CE" enable-background="new " font-family="'PTSans-Regular'" font-size="8.7085">T</text>
      </g>
      <path stroke="#8CE" stroke-width="7.194861e-02" stroke-miterlimit="10" d="M711.6,729.9H684c-2.2,0-3.7-1.7-3.7-3.7v-72.1 c0-2.2,1.7-3.7,3.7-3.7h27.5c2.2,0,3.7,1.7,3.7,3.7v72.1C715.3,728,713.5,729.9,711.6,729.9z"/>
    </g>
  </g>
  <g id="hvac">
    <path id="d2-outline" fill="none" stroke="#DC7" stroke-miterlimit="10" stroke-dasharray="2.8964" d="M838.2,771.1H613.6 c-1.8,0-3.4-1.5-3.4-3.4V624.2c0-1.8,1.5-3.4,3.4-3.4h224.5c1.8,0,3.4,1.5,3.4,3.4v143.6C841.5,769.6,840,771.1,838.2,771.1z"/>
    <path id="d1-outline" fill="none" stroke="#DC7" stroke-miterlimit="10" stroke-dasharray="3.0591" d="M838,613.3H613.9 c-1.9,0-3.5-1.6-3.5-3.5V477.5c0-1.9,1.6-3.5,3.5-3.5H838c1.9,0,3.5,1.6,3.5,3.5v132.2C841.5,611.7,839.9,613.3,838,613.3z"/>
    <path id="cp-outline" fill="none" stroke="#4A9" stroke-miterlimit="10" stroke-dasharray="3" d="M837.7,464.8H614.1 c-2.1,0-3.7-1.7-3.7-3.7V324.9c0-2.1,1.7-3.7,3.7-3.7h223.6c2.1,0,3.7,1.7,3.7,3.7V461C841.5,463.1,839.9,464.8,837.7,464.8z"/>
    <g id="pipes">
      <g>
        <polygon fill="#930318" points="650.6,397.9 648.2,397.9 648.2,457.1 648.3,504 724.8,504 724.8,532 727.1,532 727.1,501.7 650.6,501.7"/>
        <polygon fill="#1B39B2" points="748.8,433.3 751.1,433.3 751.1,496.6 740.3,496.6 740.3,532.1 738.1,532.1 738.1,494.3 748.8,494.3"/>
        <polygon fill="#930318" points="688,397.1 686.1,397.1 686.5,457.1 686.5,496.4 730.2,496.4 730.2,532 732.5,532 732.5,494.1 688.8,494.1"/>
        <polygon fill="#1B39B2" points="782.7,439.4 785,439.4 785,504.8 745.9,504.8 745.9,532.1 743.6,532.1 743.6,502.5 782.7,502.5"/>
      </g>
      <path fill="#1B39B2" d="M741.9,420.3h-1.8v-57.2v-0.9c0-0.6,0.4-1.1,0.9-1.1h15.7c0.5,0,0.8,0.4,0.9,0.8h0.4 c0.1,0.7-0.3,1.3-0.9,1.3h-14.2c-0.5,0-0.9,0.5-0.9,1.1V420.3z"/>
      <path fill="#1B39B2" d="M804.6,416.4h1.8v-51.9v-4c0-0.6-0.4-1.1-0.9-1.1h-14.9l-0.4,2.1h13.4c0.5,0,0.9,0.5,0.9,1.1V416.4z"/>
    </g>
    <polygon id="duct2" opacity="0.15" fill="#DC7" enable-background="new " points="796.8,532.5 798.5,542.8 825.8,542.7 825.4,669.7 751.6,669.6 751.6,688.2 761.9,688.2 761.9,682.1 801.2,682.1 801.2,688.2 811.4,688.2 811.4,682.1 836.8,681.7 836.8,532.5"/>
    <polygon id="duct1" opacity="0.15" fill="#DC7" enable-background="new " points="794.3,547.3 796.5,557.7 799.5,557.6 799.5,644.9 636.7,644.7 636.7,715.4 646.9,715.4 646.9,657.2 690.9,657.2 690.9,715.4 701.1,715.4 701.1,657.2 810.5,657.2 810.5,638.8 810.5,547.3"/>
    <polygon id="duct2-outline" fill="none" stroke="#DC7" stroke-miterlimit="10" points="796.8,532.5 798.5,542.8 825.8,542.7 825.4,669.7 751.6,669.6 751.6,688.2 761.9,688.2 761.9,682.1 801.2,682.1 801.2,688.2 811.4,688.2 811.4,682.1 836.8,681.7 836.8,532.5"/>
    <polygon id="duct1-outline" fill="none" stroke="#DC7" stroke-miterlimit="10" points="794.3,547.3 796.5,557.7 799.5,557.6 799.5,644.9 636.7,644.7 636.7,715.4 646.9,715.4 646.9,657.2 690.9,657.2 690.9,715.4 701.1,715.4 701.1,657.2 810.5,657.2 810.5,638.8 810.5,547.3"/>
    <line id="ductconnectionline2" fill="none" stroke="#DC7" stroke-miterlimit="10" x1="795.2" y1="528.4" x2="799.5" y2="545.3"/>
    <line id="ductconnectionline1" fill="none" stroke="#DC7" stroke-miterlimit="10" x1="793.6" y1="544.9" x2="797.3" y2="561.8"/>
    <g id="terminal2">
      <rect x="794" y="688.2" stroke="#DC7" stroke-miterlimit="10" width="24.4" height="37.6"/>
      <line fill="none" stroke="#DC7" stroke-linecap="round" stroke-miterlimit="10" x1="798.1" y1="708.7" x2="814.2" y2="692.6"/>
      <line fill="none" stroke="#DC7" stroke-miterlimit="10" x1="794" y1="712.9" x2="818.3" y2="712.9"/>
      <path fill="#930318" d="M817.7,720.7v2.3c-1.8,0-2.7-2.1-3.3-3.7c-0.4-0.9-0.9-2.4-1.3-2.4c-0.5,0-1,1.4-1.3,2.4 c-0.6,1.7-1.5,3.7-3.3,3.7s-2.7-2.1-3.3-3.7c-0.4-0.9-0.9-2.4-1.3-2.4c-0.5,0-1,1.4-1.3,2.4c-0.6,1.7-1.5,3.7-3.3,3.7 c-1.8,0-2.7-2.1-3.3-3.7c-0.4-0.9-0.9-2.4-1.3-2.4v-2.3c1.8,0,2.7,2.1,3.3,3.7c0.4,0.9,0.9,2.4,1.3,2.4c0.5,0,1-1.4,1.3-2.4 c0.6-1.7,1.5-3.7,3.3-3.7s2.7,2.1,3.3,3.7c0.4,0.9,0.9,2.4,1.3,2.4c0.5,0,1-1.4,1.3-2.4c0.6-1.7,1.5-3.7,3.3-3.7s2.7,2.1,3.3,3.7 C816.7,719.3,817.3,720.7,817.7,720.7z"/>
    </g>
    <g id="terminal1">
      <rect x="745.5" y="688.2" stroke="#DC7" stroke-miterlimit="10" width="24.4" height="37.6"/>
      <line fill="none" stroke="#DC7" stroke-linecap="round" stroke-miterlimit="10" x1="749.6" y1="708.7" x2="765.6" y2="692.6"/>
      <line fill="none" stroke="#DC7" stroke-miterlimit="10" x1="745.5" y1="712.9" x2="769.7" y2="712.9"/>
      <path fill="#930318" d="M769.2,720.7v2.3c-1.8,0-2.7-2.1-3.3-3.7c-0.4-0.9-0.9-2.4-1.3-2.4c-0.5,0-1,1.4-1.3,2.4 c-0.6,1.7-1.5,3.7-3.3,3.7s-2.7-2.1-3.3-3.7c-0.4-0.9-0.9-2.4-1.3-2.4c-0.5,0-1,1.4-1.3,2.4c-0.6,1.7-1.5,3.7-3.3,3.7 c-1.8,0-2.7-2.1-3.3-3.7c-0.4-0.9-0.9-2.4-1.3-2.4v-2.3c1.8,0,2.7,2.1,3.3,3.7c0.4,0.9,0.9,2.4,1.3,2.4c0.5,0,1-1.4,1.3-2.4 c0.6-1.7,1.5-3.7,3.3-3.7s2.7,2.1,3.3,3.7c0.4,0.9,0.9,2.4,1.3,2.4c0.5,0,1-1.4,1.3-2.4c0.6-1.7,1.5-3.7,3.3-3.7s2.7,2.1,3.3,3.7 C768.2,719.3,768.8,720.7,769.2,720.7z"/>
    </g>
    <g id="vav">
      <rect x="749.9" y="637" stroke="#DC7" stroke-width="0.9349" stroke-miterlimit="10" width="43.2" height="25"/>
      <line fill="none" stroke="#930318" stroke-width="3" stroke-linecap="round" stroke-miterlimit="10" x1="784.2" y1="639.8" x2="774.6" y2="639.8"/>
      <line fill="none" stroke="#930318" stroke-width="3" stroke-linecap="round" stroke-miterlimit="10" x1="784.2" y1="643.7" x2="774.6" y2="643.7"/>
      <line fill="none" stroke="#930318" stroke-width="3" stroke-linecap="round" stroke-miterlimit="10" x1="784.2" y1="647.6" x2="774.6" y2="647.6"/>
      <line fill="none" stroke="#930318" stroke-width="3" stroke-linecap="round" stroke-miterlimit="10" x1="784.2" y1="651.5" x2="774.6" y2="651.5"/>
      <line fill="none" stroke="#930318" stroke-width="3" stroke-linecap="round" stroke-miterlimit="10" x1="784.2" y1="655.4" x2="774.6" y2="655.4"/>
      <line fill="none" stroke="#930318" stroke-width="3" stroke-linecap="round" stroke-miterlimit="10" x1="784.2" y1="659.3" x2="774.6" y2="659.3"/>
      <line fill="none" stroke="#DC7" stroke-linecap="round" stroke-miterlimit="10" x1="772.1" y1="637" x2="772.1" y2="661.9"/>
      <line fill="none" stroke="#DC7" stroke-linecap="round" stroke-miterlimit="10" x1="786.7" y1="637" x2="786.7" y2="661.9"/>
    </g>
    <g id="diffuser2">
      <polygon stroke="#DC7" stroke-miterlimit="10" points="681.8,725.1 711.6,725.1 701.2,715.3 691,715.3"/>
      <polygon stroke="#DC7" stroke-miterlimit="10" points="702.4,725.5 689.4,725.5 690.9,715.7 700.9,715.7"/>
    </g>
    <g id="diffuser1">
      <polygon stroke="#DC7" stroke-miterlimit="10" points="627.6,725.3 657.3,725.3 646.9,715.4 636.8,715.4"/>
      <polygon stroke="#DC7" stroke-miterlimit="10" points="648.2,725.7 635.2,725.7 636.7,715.8 646.6,715.8"/>
    </g>
    <path id="zone1" stroke="#DC7" stroke-miterlimit="10" d="M662.9,763.9h-42.5c-1.5,0-2.7-1.2-2.7-2.7v-32.8 c0-1.5,1.2-2.7,2.7-2.7h42.5c1.5,0,2.7,1.2,2.7,2.7v32.8C665.6,762.7,664.4,763.9,662.9,763.9z"/>
    <path id="zone2" stroke="#DC7" stroke-miterlimit="10" d="M716.1,763.9h-42.5c-1.5,0-2.7-1.2-2.7-2.7v-32.8 c0-1.5,1.2-2.7,2.7-2.7h42.5c1.5,0,2.7,1.2,2.7,2.7v32.8C718.9,762.7,717.7,763.9,716.1,763.9z"/>
    <path id="zone3" stroke="#DC7" stroke-miterlimit="10" d="M777.5,763.9H735c-1.5,0-2.7-1.2-2.7-2.7v-32.8c0-1.5,1.2-2.7,2.7-2.7 h42.5c1.5,0,2.7,1.2,2.7,2.7v32.8C780.1,762.7,778.9,763.9,777.5,763.9z"/>
    <path id="zone4" stroke="#DC7" stroke-miterlimit="10" d="M829.3,763.9h-42.5c-1.5,0-2.7-1.2-2.7-2.7v-32.8 c0-1.5,1.2-2.7,2.7-2.7h42.5c1.5,0,2.7,1.2,2.7,2.7v32.8C832,762.7,830.8,763.9,829.3,763.9z"/>
    <g id="zone1-temp">
      <line fill="none" stroke="#DC7" stroke-width="0.75" stroke-miterlimit="10" x1="626.7" y1="763.9" x2="626.7" y2="757.9"/>
      <rect x="622.9" y="749.1" fill="none" stroke="#DC7" stroke-width="0.75" stroke-miterlimit="10" width="7.8" height="9"/>
      <text transform="matrix(1 0 0 1 624.6797 756.8005)" fill="#DC7" font-family="'PTSans-Regular'" font-size="7.6373">T</text>
    </g>
    <g id="zone2-temp">
      <line fill="none" stroke="#DC7" stroke-width="0.75" stroke-miterlimit="10" x1="681" y1="764.2" x2="681" y2="758.2"/>
      <rect x="677.3" y="749.4" fill="none" stroke="#DC7" stroke-width="0.75" stroke-miterlimit="10" width="7.8" height="9"/>
      <text transform="matrix(1 0 0 1 679.0352 757.0651)" fill="#DC7" font-family="'PTSans-Regular'" font-size="7.6373">T</text>
    </g>
    <g id="zone3-temp">
      <line fill="none" stroke="#DC7" stroke-width="0.75" stroke-miterlimit="10" x1="742" y1="764.5" x2="742" y2="758.4"/>
      <rect x="738.3" y="749.7" fill="none" stroke="#DC7" stroke-width="0.75" stroke-miterlimit="10" width="7.8" height="9"/>
      <text transform="matrix(1 0 0 1 740.0566 757.3288)" fill="#DC7" font-family="'PTSans-Regular'" font-size="7.6373">T</text>
    </g>
    <g id="zone4-temp">
      <line fill="none" stroke="#DC7" stroke-width="0.75" stroke-miterlimit="10" x1="794.3" y1="764.2" x2="794.3" y2="758.2"/>
      <rect x="790.4" y="749.4" fill="none" stroke="#DC7" stroke-width="0.75" stroke-miterlimit="10" width="7.8" height="9"/>
      <text transform="matrix(1 0 0 1 792.2314 757.0651)" fill="#DC7" font-family="'PTSans-Regular'" font-size="7.6373">T</text>
    </g>
    <g id="ahu">
      <g id="ahu-back">
        <rect x="747.5" y="569" fill="#000000" stroke="#DC7" stroke-miterlimit="10" width="32.5" height="25.7"/>
        <rect x="698.8" y="532.1" fill="#000000" stroke="#DC7" stroke-miterlimit="10" width="7.3" height="25.7"/>
        <rect x="706.2" y="532.1" fill="#000000" stroke="#DC7" stroke-miterlimit="10" width="17.8" height="25.7"/>
        <rect x="780" y="569" fill="#000000" stroke="#DC7" stroke-miterlimit="10" width="7.9" height="25.7"/>
        <rect x="729" y="569" fill="#000000" stroke="#DC7" stroke-miterlimit="10" width="10.8" height="25.7"/>
        <rect x="739.8" y="569.1" fill="#000000"stroke="#DC7" stroke-miterlimit="10" width="7.7" height="25.7"/>
        <rect x="748.8" y="532.1" fill="#000000"stroke="#DC7" stroke-width="0.5133" stroke-miterlimit="10" width="30.8" height="25.7"/>
        <polygon stroke="#DC7" stroke-miterlimit="10" points="779.6,532.1 785.6,532.1 790.1,557.7 779.6,557.7"/>
        <rect x="736.4" y="532.1" fill="#000000" stroke="#DC7" stroke-miterlimit="10" width="12.4" height="25.7"/>
        <rect x="724" y="532.1" fill="#000000" stroke="#DC7" stroke-miterlimit="10" width="12.4" height="25.7"/>
        <polygon stroke="#DC7" stroke-miterlimit="10" points="642.3,569.1 642.3,594.7 672.6,594.7 672.6,594.7 693,594.7 698.7,594.7 729,594.7 729,569 698.7,569 698.7,532.1 672.6,532.1 669.4,532.1 642.3,532.1 642.3,557.7 669.4,557.7 669.4,569.1"/>
      </g>
      <g>
        <line fill="000000" stroke="#DC7" stroke-miterlimit="10" x1="698.4" y1="563.4" x2="669.4" y2="563.4"/>
        <line fill="#000000" stroke="#DC7" stroke-miterlimit="10" x1="696.4" y1="560.8" x2="691.1" y2="566.1"/>
        <line fill="#000000" stroke="#DC7" stroke-miterlimit="10" x1="690.2" y1="560.8" x2="685" y2="566.1"/>
        <line fill="#000000" stroke="#DC7" stroke-miterlimit="10" x1="684.2" y1="560.8" x2="678.9" y2="566.1"/>
        <line fill="000000" stroke="#DC7" stroke-miterlimit="10" x1="678.1" y1="560.8" x2="672.8" y2="566.1"/>
      </g>
      <polyline fill="none" stroke="#DC7" stroke-miterlimit="10" points="699.1,557.6 705.8,553.8 698.8,549.8 705.9,545.7 698.6,541.6 705.9,536.6 698.4,532.2"/>
      <g>
        <line fill="none" stroke="#DC7" stroke-miterlimit="10" x1="666.1" y1="594.5" x2="666.1" y2="569.6"/>
        <line fill="none" stroke="#DC7" stroke-miterlimit="10" x1="668.8" y1="593.2" x2="663.5" y2="588"/>
        <line fill="none" stroke="#DC7" stroke-miterlimit="10" x1="668.8" y1="587.1" x2="663.5" y2="581.9"/>
        <line fill="none" stroke="#DC7" stroke-miterlimit="10" x1="668.8" y1="581" x2="663.5" y2="575.8"/>
        <line fill="none" stroke="#DC7" stroke-miterlimit="10" x1="668.8" y1="575" x2="663.5" y2="569.6"/>
      </g>
      <g>
        <line fill="none" stroke="#DC7" stroke-miterlimit="10" x1="666.1" y1="557.3" x2="666.1" y2="532.5"/>
        <line fill="none" stroke="#DC7" stroke-miterlimit="10" x1="668.8" y1="556" x2="663.5" y2="550.8"/>
        <line fill="none" stroke="#DC7" stroke-miterlimit="10" x1="668.8" y1="549.9" x2="663.5" y2="544.7"/>
        <line fill="none" stroke="#DC7" stroke-miterlimit="10" x1="668.8" y1="543.9" x2="663.5" y2="538.6"/>
        <line fill="none" stroke="#DC7" stroke-miterlimit="10" x1="668.8" y1="537.8" x2="663.5" y2="532.5"/>
      </g>
      <g id="fan2">
        <ellipse fill="#000000" stroke="#DC7" stroke-miterlimit="10" cx="759.9" cy="587.7" rx="2.1" ry="5.9"/>
        <ellipse fill="#000000" stroke="#DC7" stroke-miterlimit="10" cx="759.4" cy="576.1" rx="2.1" ry="5.9"/>
        <path fill="#000000" stroke="#DC7" stroke-miterlimit="10" d="M758.7,581.2h6.7c0.3,0,0.5,0.3,0.5,0.5l0,0 c0,0.3-0.3,0.5-0.5,0.5h-6.7c-0.3,0-0.5-0.3-0.5-0.5l0,0C758.1,581.6,758.4,581.2,758.7,581.2z"/>
      </g>
      <g id="fan1">
        <ellipse fill="#000000" stroke="#DC7" stroke-miterlimit="10" cx="763.9" cy="538.9" rx="2.1" ry="5.9"/>
        <ellipse fill="#000000" stroke="#DC7" stroke-miterlimit="10" cx="764.4" cy="550.5" rx="2.1" ry="5.9"/>
        <path fill="#000000" stroke="#DC7" stroke-miterlimit="10" d="M765.1,545.3h-6.7c-0.3,0-0.5-0.3-0.5-0.5l0,0 c0-0.3,0.3-0.5,0.5-0.5h6.7c0.3,0,0.5,0.3,0.5,0.5l0,0C765.7,545,765.5,545.3,765.1,545.3z"/>
      </g>
      <line fill="none" stroke="#DC7" stroke-miterlimit="10" x1="784.6" y1="526.4" x2="790.6" y2="560.9"/>
      <path id="heat-coil1_1_" fill="#930318" d="M732.9,594.2h-2.3c0-2,2.1-2.8,3.7-3.5c0.9-0.4,2.4-0.9,2.4-1.5c0-0.5-1.4-1.1-2.4-1.5 c-1.7-0.7-3.7-1.5-3.7-3.5c0-2,2.1-2.8,3.7-3.5c0.9-0.4,2.4-0.9,2.4-1.5c0-0.5-1.4-1.1-2.4-1.5c-1.7-0.7-3.7-1.5-3.7-3.5 s2.1-2.8,3.7-3.5c0.9-0.4,2.4-0.9,2.4-1.5h2.3c0,2-2.1,2.8-3.7,3.5c-0.9,0.4-2.4,0.9-2.4,1.5c0,0.5,1.4,1.1,2.4,1.5 c1.7,0.7,3.7,1.5,3.7,3.5s-2.1,2.8-3.7,3.5c-0.9,0.4-2.4,0.9-2.4,1.5c0,0.5,1.4,1.1,2.4,1.5c1.7,0.7,3.7,1.5,3.7,3.5 s-2.1,2.8-3.7,3.5C734.4,593.2,732.9,593.8,732.9,594.2z"/>
      <path id="heat-coil1" fill="#930318" d="M728.7,557.3h-2.3c0-2,2.1-2.8,3.7-3.5c0.9-0.4,2.4-0.9,2.4-1.5c0-0.5-1.4-1.1-2.4-1.5 c-1.7-0.7-3.7-1.5-3.7-3.5s2.1-2.8,3.7-3.5c0.9-0.4,2.4-0.9,2.4-1.5c0-0.5-1.4-1.1-2.4-1.5c-1.7-0.7-3.7-1.5-3.7-3.5 s2.1-2.8,3.7-3.5c0.9-0.4,2.4-0.9,2.4-1.5h2.3c0,2-2.1,2.8-3.7,3.5c-0.9,0.4-2.4,0.9-2.4,1.5c0,0.5,1.4,1.1,2.4,1.5 c1.7,0.7,3.7,1.5,3.7,3.5c0,2-2.1,2.8-3.7,3.5c-0.9,0.4-2.4,0.9-2.4,1.5c0,0.5,1.4,1.1,2.4,1.5c1.7,0.7,3.7,1.5,3.7,3.5 s-2.1,2.8-3.7,3.5C730.2,556.3,728.7,556.8,728.7,557.3z"/>
      <path id="cool-coil" fill="#1B39B2" d="M740.6,557.2h-2.3c0-2,2.1-2.8,3.7-3.5c0.9-0.4,2.4-0.9,2.4-1.5c0-0.5-1.4-1.1-2.4-1.5 c-1.7-0.7-3.7-1.5-3.7-3.5s2.1-2.8,3.7-3.5c0.9-0.4,2.4-0.9,2.4-1.5c0-0.5-1.4-1.1-2.4-1.5c-1.7-0.7-3.7-1.5-3.7-3.5 c0-2,2.1-2.8,3.7-3.5c0.9-0.4,2.4-0.9,2.4-1.5h2.3c0,2-2.1,2.8-3.7,3.5c-0.9,0.4-2.4,0.9-2.4,1.5c0,0.5,1.4,1.1,2.4,1.5 c1.7,0.7,3.7,1.5,3.7,3.5s-2.1,2.8-3.7,3.5c-0.9,0.4-2.4,0.9-2.4,1.5c0,0.5,1.4,1.1,2.4,1.5c1.7,0.7,3.7,1.5,3.7,3.5 c0,2-2.1,2.8-3.7,3.5C742,556.2,740.6,556.7,740.6,557.2z"/>
    </g>
    <path id="d-pump2" stroke="#DC7" stroke-miterlimit="10" d="M794.3,493h-10.5c-0.5-0.1-0.9-0.2-1.4-0.2s-0.9,0.1-1.4,0.2H781 l0,0c-4.3,0.7-7.5,4.4-7.5,8.8c0,4.9,4,8.9,8.9,8.9s8.9-4,8.9-8.9c0-0.5-0.1-1-0.2-1.5h3.1V493L794.3,493z"/>
    <path id="d-pump1" stroke="#DC7" stroke-miterlimit="10" d="M660.2,480.1h-10.5c-0.5-0.1-0.9-0.2-1.4-0.2s-0.9,0.1-1.4,0.2h-0.1 l0,0c-4.3,0.7-7.5,4.4-7.5,8.8c0,4.9,4,8.9,8.9,8.9c5,0,8.9-4,8.9-8.9c0-0.5-0.1-1-0.2-1.5h3.1V480.1z"/>
    <a xlink:href="#/pump/basics">
      <path id="cp-pump" stroke="#4A9" stroke-miterlimit="10" d="M753,375h-10.5c-0.5-0.1-0.9-0.2-1.4-0.2s-0.9,0.1-1.4,0.2h-0.1l0,0 c-4.3,0.7-7.5,4.4-7.5,8.8c0,4.9,4,8.9,8.9,8.9c5,0,8.9-4,8.9-8.9c0-0.5-0.1-1-0.2-1.5h3.1L753,375L753,375z"/>
    </a>
    <g id="cp-valve">
      <polygon stroke="#4A9" stroke-miterlimit="10" points="653.7,433 649,441.2 644.3,433"/>
      <polygon stroke="#4A9" stroke-miterlimit="10" points="644.3,449.4 649,441.3 653.7,449.4"/>
    </g>
    <g id="cp-valve-control">
      <g>
        <polygon stroke="#4A9" stroke-miterlimit="10" points="691.5,433 686.9,441.1 682.2,433"/>
        <polygon stroke="#4A9" stroke-miterlimit="10" points="682.2,449.4 686.9,441.2 691.5,449.4"/>
        <polygon stroke="#4A9" stroke-miterlimit="10" points="678.8,436.4 686.9,441.1 678.8,445.8"/>
      </g>
      <line fill="none" stroke="#4A9" stroke-miterlimit="10" x1="686.9" y1="441.2" x2="696.4" y2="441.2"/>
      <rect x="696.4" y="434.1" stroke="#4A9" stroke-miterlimit="10" width="10.5" height="14.1"/>
      <text transform="matrix(1 0 0 1 700.0645 444.5993)" font-family="'PTSans-Regular'" font-size="10.2465">I</text>
      <text transform="matrix(1 0 0 1 700.0645 444.5993)" fill="none" stroke="#4A9" stroke-miterlimit="10" font-family="'PTSans-Regular'" font-size="10.2465">I</text>
    </g>
    <g id="boiler-temp">
      <line fill="none" stroke="#4A9" stroke-width="0.75" stroke-miterlimit="10" x1="678.1" y1="371.9" x2="678.1" y2="365.9"/>
      <rect x="674.3" y="357.1" stroke="#4A9" stroke-miterlimit="10" width="7.8" height="9"/>
      <text transform="matrix(1 0 0 1 676.0938 364.7868)" fill="#4A9" font-family="'PTSans-Regular'" font-size="7.6373">T</text>
    </g>
    <g id="ahu-temp">
      <line fill="none" stroke="#DC7" stroke-miterlimit="10" x1="653.9" y1="532" x2="653.9" y2="526"/>
      <rect x="650.1" y="517.2" stroke="#DC7" stroke-miterlimit="10" width="7.8" height="9"/>
      <text transform="matrix(1 0 0 1 651.8975 524.8679)" fill="#DC7" font-family="'PTSans-Regular'" font-size="7.6373">T</text>
    </g>
    <g id="control">
      <rect x="760.3" y="517.4" stroke="#DC7" stroke-width="0.5353" stroke-miterlimit="10" width="7.8" height="8.9"/>
      <line fill="none" stroke="#DC7" stroke-width="0.5" stroke-miterlimit="10" x1="764.1" y1="532.5" x2="764.1" y2="526.9"/>
      <text transform="matrix(1 0 0 1 762.9355 524.8679)" fill="#DC7" font-family="'PTSans-Regular'" font-size="7.6373">I</text>
    </g>
    <g id="d-valve">
      <g>
        <polygon stroke="#DC7" stroke-miterlimit="10" points="755.5,470.6 750.7,478.8 746.1,470.6"/>
        <polygon stroke="#DC7" stroke-miterlimit="10" points="746.1,486.9 750.7,478.8 755.5,486.9"/>
        <polygon stroke="#DC7" stroke-miterlimit="10" points="742.6,474 750.7,478.8 742.6,483.4"/>
      </g>
      <line fill="none" stroke="#DC7" stroke-miterlimit="10" x1="750.7" y1="478.8" x2="760.2" y2="478.8"/>
      <rect x="760.2" y="471.7" stroke="#DC7" stroke-miterlimit="10" width="10.5" height="14.1"/>
      <text transform="matrix(1 0 0 1 763.9453 482.1911)" font-family="'PTSans-Regular'" font-size="10.2465">I</text>
      <text transform="matrix(1 0 0 1 763.9453 482.1911)" fill="none" stroke="#DC7" stroke-miterlimit="10" font-family="'PTSans-Regular'" font-size="10.2465">I</text>
    </g>
    <g id="tower">
      <path id="t-outline" fill="000000" stroke="#4A9" stroke-width="0.8901" stroke-miterlimit="10" d="M790.3,367.9c-0.1,1.1-0.4,1.5-0.8,1.5h-31.2H758l-2-10.5 l-5.7-29.6c-0.1-0.5,0.3-0.9,0.8-0.9h45.3c0.5,0,0.8,0.5,0.8,0.2L790.3,367.9z"/>
      <line fill="#000000" stroke="#4A9" stroke-width="1.1722" stroke-miterlimit="10" x1="752.9" y1="344.8" x2="794.3" y2="344.8"/>
      <g>
        <path fill="none" stroke="#4A9" stroke-width="1.0488" stroke-linecap="round" stroke-miterlimit="10" d="M763.6,350.1 l1.8-1.5c0.2-0.2,0.3-0.4,0.3-0.6v-2.7"/>
        <line fill="none" stroke="#4A9" stroke-width="1.0488" stroke-linecap="round" stroke-miterlimit="10" x1="767.4" y1="350.1" x2="765.6" y2="348.3"/>
      </g>
      <g>
        <path fill="none" stroke="#4A9" stroke-width="1.0488" stroke-linecap="round" stroke-miterlimit="10" d="M779.8,349.7 l1.8-1.5c0.2-0.2,0.3-0.4,0.3-0.6v-2.7"/>
        <line fill="none" stroke="#4A9" stroke-width="1.0488" stroke-linecap="round" stroke-miterlimit="10" x1="783.6" y1="349.7" x2="781.8" y2="347.9"/>
      </g>
      <path id="t-box" fill="none" stroke="#4A9" stroke-width="0.8901" stroke-miterlimit="10" d="M775.2,354.7h-3.1c-0.5,0-0.8-0.4-0.8-0.8 v-2.6c0-0.5,0.4-0.8,0.8-0.8h3.1c0.5,0,0.8,0.4,0.8,0.8v2.6C776,354.3,775.6,354.7,775.2,354.7z"/>
      <line fill="none" stroke="#4A9" stroke-width="1.0488" stroke-linecap="round" stroke-miterlimit="10" x1="773.6" y1="354.9" x2="773.6" y2="368.5"/>
      <path id="t-water" fill="none" stroke="#4A9" stroke-width="0.8901" stroke-miterlimit="10" d="M756.4,360.5c-0.2-0.6,0.5-1.1,1.1-0.9 c2.7,1.3,8.9,3.1,17-0.8c0,0,9-4.3,17-0.8c0.3,0.2,0.5,0.5,0.5,0.2l-1.9,9.7c-0.1,1.1-0.4,1.4-0.8,1.4l-30.4,0.1 c-0.4,0-0.7-0.2-0.8-0.6L756.4,360.5z"/>
      <g id="fan_2_">
        <ellipse stroke="#4A9" stroke-miterlimit="10" cx="779.4" cy="335.5" rx="5.9" ry="2.1"/>
        <ellipse stroke="#4A9" stroke-miterlimit="10" cx="767.8" cy="335.9" rx="5.9" ry="2.1"/>
        <path stroke="#4A9" stroke-miterlimit="10" d="M773,336.6v-6.7c0-0.3,0.3-0.5,0.5-0.5l0,0c0.3,0,0.5,0.3,0.5,0.5v6.7 c0,0.3-0.3,0.5-0.5,0.5l0,0C773.3,337.2,773,337,773,336.6z"/>
      </g>
    </g>
    <a xlink:href="#/chiller/basics">
      <path id="chiller" stroke="#4A9" stroke-miterlimit="10" d="M821.8,430.9v-3h-4.2v-6.6h-2v4.3c-1.2-1.9-3.4-3.4-6-4.4 c-0.2-9.7-8.2-13.2-13.5-13.2h-21.6v-4.5h-30.2v16.6h30.2v-4.5H796c0.5,0,5,0.2,5.8,4.7h-47.3c-5.7,0-10.4,2.6-12.1,6.2v-6.3h-3.7 V440h3.7v-5.1c1.7,3.6,6.4,6.2,12.1,6.2v8.6h7.9V441h30.7v8.6h7.9V441h3.1c5.1,0,9.5-2.1,11.5-5.3v5.3h2v-6.5h4.2v-3h-4.2v-0.7 L821.8,430.9L821.8,430.9z"/>
    </a>
    <a xlink:href="#/boiler/basics">
      <path id="boiler" stroke="#4A9" stroke-miterlimit="10" d="M698.3,381.9v3.1h-5.2c-0.6-7.3-6-13.1-12.6-13.1h-49.5 c-4.5,0-8.5,2.7-10.8,6.9h-3.1v19.7h3.1c2.2,4.1,6.2,6.9,10.8,6.9v8.6h7.9v-8.6h30.7v8.6h7.9v-8.6h3.1c6.4,0,11.8-5.5,12.6-12.7 h5.2v2.4h11.5v-13.2H698.3z"/>
    </a>
    <polygon id="ductoutline2" display="none" fill="none" stroke="#DC7" stroke-miterlimit="10" points="796.4,532.3 798.8,542.6 826.2,542.5 825.8,669.5 752,669.4 752,688 762.3,688 762.3,681.8 801.6,681.8 801.6,688 811.8,688 811.8,681.8 837.2,681.5 837.2,532.3"/>
  </g>
</svg>