<?xml version="1.0" encoding="utf-8"?>
<!-- Generator: Adobe Illustrator 18.0.0, SVG Export Plug-In . SVG Version: 6.00 Build 0)  -->
<!DOCTYPE svg PUBLIC "-//W3C//DTD SVG 1.1//EN" "http://www.w3.org/Graphics/SVG/1.1/DTD/svg11.dtd">
<svg version="1.1" id="space" xmlns="http://www.w3.org/2000/svg" xmlns:xlink="http://www.w3.org/1999/xlink" x="0px" y="0px"
	 viewBox="0 0 291.2 501.7" style="enable-background:new 0 0 291.2 501.7;" xml:space="preserve">
<g>
	<defs>
		<rect id="SVGID_1_" x="-394.9" y="-466.5" width="1950" height="694"/>
	</defs>
	<clipPath id="SVGID_2_">
		<use xlink:href="#SVGID_1_"  style="overflow:visible;"/>
	</clipPath>
	<g style="clip-path:url(#SVGID_2_);">
		<text transform="matrix(1 0 0 1 -300.577 -318.53)" style="font-family:'TimesNewRomanPSMT'; font-size:12;"> </text>
	</g>
</g>
<rect x="35.3" y="145.2" style="fill:#88CCEE;stroke:#231F20;stroke-miterlimit:10;" width="5.2" height="342"/>
<rect x="36.6" y="99.7" style="fill:#88CCEE;stroke:#231F20;stroke-miterlimit:10;" width="2.6" height="46"/>
<rect x="35.1" y="71.8" style="fill:#88CCEE;stroke:#231F20;stroke-miterlimit:10;" width="5.7" height="27.6"/>
<rect x="7.4" y="37.6" transform="matrix(0.9699 -0.2436 0.2436 0.9699 -5.8079 35.3039)" style="fill:#88CCEE;stroke:#231F20;stroke-miterlimit:10;" width="264.8" height="7.1"/>
<rect x="40.7" y="173.6" style="fill:none;stroke:#88CCEE;stroke-width:0.7954;stroke-miterlimit:10;" width="196.8" height="14"/>
<rect x="237.5" y="142.8" style="fill:#88CCEE;stroke:#231F20;stroke-miterlimit:10;" width="5.8" height="46.7"/>
<rect x="239.1" y="96.6" style="fill:#88CCEE;stroke:#231F20;stroke-miterlimit:10;" width="2.6" height="46"/>
<rect x="237.5" y="68.7" style="fill:#88CCEE;stroke:#231F20;stroke-miterlimit:10;" width="5.7" height="27.6"/>
<rect x="239.1" y="46.1" style="fill:#88CCEE;stroke:#231F20;stroke-miterlimit:10;" width="2.6" height="22.6"/>
<polygon style="fill:#88CCEE;stroke:#231F20;stroke-miterlimit:10;" points="243.2,46.3 237.5,46.3 237.5,20.7 243.2,18.7 "/>
<rect x="40.6" y="466.4" style="fill:#88CCEE;stroke:#231F20;stroke-miterlimit:10;" width="19.6" height="21.7"/>
<rect x="32.6" y="488.1" style="fill:#88CCEE;stroke:#231F20;stroke-miterlimit:10;" width="31" height="5.7"/>
<rect x="218.6" y="466.2" style="fill:#88CCEE;stroke:#231F20;stroke-miterlimit:10;" width="19.6" height="21.9"/>
<rect x="215.3" y="488.1" style="fill:#88CCEE;stroke:#231F20;stroke-miterlimit:10;" width="31" height="5.7"/>
<polygon style="fill:none;stroke:#88CCEE;stroke-width:0.5;stroke-miterlimit:10;" points="126.2,78.7 57.7,78.7 60.7,73.6 
	123.2,73.6 "/>
<line style="fill:none;stroke:#88CCEE;stroke-width:0.5;stroke-miterlimit:10;" x1="66.2" y1="73.2" x2="70.6" y2="62.2"/>
<line style="fill:none;stroke:#88CCEE;stroke-width:0.5;stroke-miterlimit:10;" x1="119.7" y1="73.2" x2="114.3" y2="51.2"/>
<polygon style="fill:none;stroke:#88CCEE;stroke-width:0.5;stroke-miterlimit:10;" points="207.5,79.1 139,79.1 142,74 204.5,74 "/>
<line style="fill:none;stroke:#88CCEE;stroke-width:0.5;stroke-miterlimit:10;" x1="147.5" y1="73.7" x2="155.2" y2="41.8"/>
<line style="fill:none;stroke:#88CCEE;stroke-width:0.5;stroke-miterlimit:10;" x1="201" y1="73.7" x2="193.2" y2="32.5"/>
<g>
	<line style="fill:none;stroke:#88CCEE;stroke-width:0.3853;stroke-miterlimit:10;" x1="109.5" y1="324.6" x2="109.5" y2="336"/>
	<path style="fill:none;stroke:#88CCEE;stroke-width:0.3853;stroke-miterlimit:10;" d="M114.4,340.1c0,2.7-9.7,2.7-9.7,0
		c0-2.7,2.2-4.9,4.9-4.9S114.4,337.4,114.4,340.1z"/>
</g>
<g>
	<line style="fill:none;stroke:#88CCEE;stroke-width:0.3853;stroke-miterlimit:10;" x1="168.4" y1="324.2" x2="168.4" y2="335.6"/>
	<path style="fill:none;stroke:#88CCEE;stroke-width:0.3853;stroke-miterlimit:10;" d="M173.3,339.7c0,2.7-9.7,2.7-9.7,0
		c0-2.7,2.2-4.9,4.9-4.9S173.3,337,173.3,339.7z"/>
</g>
<g style="opacity:0.4;">
	<g>
		<path style="fill:none;stroke:#88CCEE;stroke-width:6;stroke-miterlimit:10;" d="M273.6,143.2c-8.6,0-8.6-4-17.1-4
			c-8.6,0-8.6,4-17.1,4c-8.6,0-8.6-4-17.1-4c-8.6,0-8.6,4-17.1,4c-1.2,0-2.2-0.1-3.1-0.2"/>
		<g>
			<path style="fill:#88CCEE;" d="M188,139.2c7.2-0.8,16.5-2.9,22.7-6l-6.8,10l1.2,12.1C201.1,149.6,194,143.3,188,139.2z"/>
		</g>
	</g>
</g>
<rect x="238.5" y="439.4" style="fill:#88CCEE;stroke:#231F20;stroke-miterlimit:10;" width="5.8" height="48.7"/>
<rect x="237.3" y="211.4" style="fill:#88CCEE;stroke:#231F20;stroke-miterlimit:10;" width="5.7" height="27.6"/>
<g style="opacity:0.4;">
	<g>
		<path style="fill:none;stroke:#88CCEE;stroke-width:6;stroke-miterlimit:10;" d="M272.3,260.1c0,0-9,0-16.5,0s-4.7-7.8-17.9-7.8
			s-114.3,0-114.3,0s-34.4,2.2-34.4-11.7l0-26.5c0,0-0.3-11.6,20.8-12c0,0,122.5,0,128.2,0c5.7,0,9.2,5.6,15.2,5.6
			c3,0,11.6,0,19.4,0"/>
		<g>
			<path style="fill:#88CCEE;" d="M287.3,207.7c-6.8,2.5-15.3,6.8-20.5,11.4l4.1-11.4l-4.1-11.4C272,200.8,280.5,205.2,287.3,207.7z
				"/>
		</g>
	</g>
</g>
<ellipse style="stroke:#88CCEE;stroke-width:0.4837;stroke-miterlimit:10;" cx="81.2" cy="175.6" rx="8.8" ry="2"/>
<ellipse style="stroke:#88CCEE;stroke-width:0.4837;stroke-miterlimit:10;" cx="136.6" cy="175.6" rx="8.8" ry="2"/>
<ellipse style="stroke:#88CCEE;stroke-width:0.4837;stroke-miterlimit:10;" cx="192" cy="175.6" rx="8.8" ry="2"/>
<g style="opacity:0.57;">
	<g>
		<line style="fill:none;stroke:#88CCEE;stroke-miterlimit:10;" x1="81.2" y1="175.6" x2="81.2" y2="167.8"/>
		<g>
			<path style="fill:#88CCEE;" d="M81.2,161.8c1.1,2.8,2.9,6.4,4.8,8.5l-4.8-1.7l-4.8,1.7C78.4,168.2,80.2,164.6,81.2,161.8z"/>
		</g>
	</g>
</g>
<g style="opacity:0.57;">
	<g>
		<line style="fill:none;stroke:#88CCEE;stroke-miterlimit:10;" x1="136.6" y1="174.1" x2="136.6" y2="166.4"/>
		<g>
			<path style="fill:#88CCEE;" d="M136.6,160.4c1.1,2.8,2.9,6.4,4.8,8.5l-4.8-1.7l-4.8,1.7C133.8,166.7,135.6,163.2,136.6,160.4z"/>
		</g>
	</g>
</g>
<g style="opacity:0.57;">
	<g>
		<line style="fill:none;stroke:#88CCEE;stroke-miterlimit:10;" x1="192" y1="177.8" x2="192" y2="170"/>
		<g>
			<path style="fill:#88CCEE;" d="M192,164c1.1,2.8,2.9,6.4,4.8,8.5l-4.8-1.7l-4.8,1.7C189.2,170.4,191,166.8,192,164z"/>
		</g>
	</g>
</g>
<rect x="41.5" y="307.3" style="fill:none;stroke:#88CCEE;stroke-width:0.7954;stroke-miterlimit:10;" width="196.8" height="14"/>
<ellipse style="stroke:#88CCEE;stroke-width:0.4837;stroke-miterlimit:10;" cx="82" cy="309.3" rx="8.8" ry="2"/>
<ellipse style="stroke:#88CCEE;stroke-width:0.4837;stroke-miterlimit:10;" cx="137.4" cy="309.3" rx="8.8" ry="2"/>
<ellipse style="stroke:#88CCEE;stroke-width:0.4837;stroke-miterlimit:10;" cx="192.8" cy="309.3" rx="8.8" ry="2"/>
<g style="opacity:0.57;">
	<g>
		<line style="fill:none;stroke:#88CCEE;stroke-miterlimit:10;" x1="82" y1="309.3" x2="82" y2="301.6"/>
		<g>
			<path style="fill:#88CCEE;" d="M82,295.5c1.1,2.8,2.9,6.4,4.8,8.5l-4.8-1.7l-4.8,1.7C79.2,301.9,81,298.4,82,295.5z"/>
		</g>
	</g>
</g>
<g style="opacity:0.57;">
	<g>
		<line style="fill:none;stroke:#88CCEE;stroke-miterlimit:10;" x1="137.4" y1="307.8" x2="137.4" y2="300.1"/>
		<g>
			<path style="fill:#88CCEE;" d="M137.4,294.1c1.1,2.8,2.9,6.4,4.8,8.5l-4.8-1.7l-4.8,1.7C134.6,300.4,136.4,296.9,137.4,294.1z"/>
		</g>
	</g>
</g>
<g style="opacity:0.57;">
	<g>
		<line style="fill:none;stroke:#88CCEE;stroke-miterlimit:10;" x1="192.8" y1="311.5" x2="192.8" y2="303.8"/>
		<g>
			<path style="fill:#88CCEE;" d="M192.8,297.7c1.1,2.8,2.9,6.4,4.8,8.5l-4.8-1.7l-4.8,1.7C190,304.1,191.8,300.6,192.8,297.7z"/>
		</g>
	</g>
</g>
<rect x="50.4" y="219.1" style="fill:none;stroke:#88CCEE;stroke-width:0.8286;stroke-miterlimit:10;" width="11.4" height="16.9"/>
<path style="fill:none;stroke:#88CCEE;stroke-width:0.8286;stroke-miterlimit:10;" d="M56.1,221.5c-2.4,0-4.3,1.9-4.3,4.3h8.7
	C60.4,223.4,58.5,221.5,56.1,221.5z"/>
<line style="fill:none;stroke:#88CCEE;stroke-width:0.8286;stroke-miterlimit:10;" x1="55.6" y1="227.5" x2="56.1" y2="222.9"/>
<rect x="238.5" y="358.3" style="fill:#88CCEE;stroke:#231F20;stroke-miterlimit:10;" width="5.8" height="46.7"/>
<rect x="240.1" y="324.2" style="fill:#88CCEE;stroke:#231F20;stroke-miterlimit:10;" width="2.6" height="34"/>
<rect x="238.6" y="290.9" style="fill:#88CCEE;stroke:#231F20;stroke-miterlimit:10;" width="5.7" height="33"/>
<rect x="240.1" y="405.1" style="fill:#88CCEE;stroke:#231F20;stroke-miterlimit:10;" width="2.6" height="34"/>
<rect x="41.5" y="452.3" style="fill:#88CCEE;stroke:#231F20;stroke-miterlimit:10;" width="196.8" height="14"/>
<path style="stroke:#88CCEE;stroke-width:0.3327;stroke-miterlimit:10;" d="M65.5,415.9H42.4c0,3.6,3.8,6.5,8.8,7.3l-1.6,30.1h8.6
	l-2.4-29.9C61.4,422.8,65.5,419.7,65.5,415.9z"/>
<rect x="43.6" y="414.1" style="fill:none;stroke:#88CCEE;stroke-width:0.4105;stroke-miterlimit:10;" width="1.6" height="1.8"/>
<rect x="44.1" y="412.4" style="fill:none;stroke:#88CCEE;stroke-width:0.4105;stroke-miterlimit:10;" width="0.4" height="1.7"/>
<path style="fill:none;stroke:#F3743F;stroke-width:0.4105;stroke-miterlimit:10;" d="M105.9,442.7v15.3H43.6l-0.2-39.9l2.3-2.9
	c0,0-0.2-3.9-0.1-4.2c0.6-1,4.7-2.3,5.4-2.1c0.5,0.2,0.5,1.2,0.5,1.2"/>
<g>
	<path style="fill:none;stroke:#89CCED;stroke-width:0.2053;stroke-miterlimit:10;" d="M45.9,415.9c-0.3,0-0.6-0.3-0.6-0.6
		c-0.3-4.1-0.1-4.4,0-4.6c0.7-1.2,5.1-2.7,6.1-2.3c0.8,0.3,0.9,1.6,0.9,1.8c0,0.3-0.3,0.6-0.6,0.6c0,0,0,0,0,0
		c-0.3,0-0.6-0.3-0.6-0.6c0-0.2-0.1-0.5-0.1-0.6c-0.8-0.1-4,1.1-4.5,1.7c-0.1,0.5,0,2.3,0.1,3.9C46.5,415.6,46.3,415.9,45.9,415.9
		C45.9,415.9,45.9,415.9,45.9,415.9z"/>
</g>
<ellipse style="fill:#88CCEE;" cx="43.4" cy="412.1" rx="1" ry="0.3"/>
<ellipse style="fill:#88CCEE;" cx="45.4" cy="412.1" rx="1" ry="0.3"/>
<rect x="239.1" y="239.9" style="fill:#88CCEE;stroke:#231F20;stroke-miterlimit:10;" width="2.6" height="52"/>
<rect x="239.1" y="189.5" style="fill:#88CCEE;stroke:#231F20;stroke-miterlimit:10;" width="2.6" height="22.6"/>
<g>
	<line style="fill:none;stroke:#88CCEE;stroke-width:0.5;stroke-miterlimit:10;" x1="56" y1="219.3" x2="56" y2="211.4"/>
	<rect x="51" y="199.9" style="fill:none;stroke:#88CCEE;stroke-width:0.5;stroke-miterlimit:10;" width="10.2" height="11.8"/>
	
		<text transform="matrix(1 0 0 1 53.327 209.928)" style="opacity:0.57;fill:#88CCEE; font-family:'PTSans-Regular'; font-size:10;">T</text>
</g>
<path style="stroke:#88CCEE;stroke-width:0.3504;stroke-miterlimit:10;" d="M136.9,453.3h-31.6c-2.4,0-4.3-1.9-4.3-4.3v-82.8
	c0-2.4,1.9-4.3,4.3-4.3h31.6c2.4,0,4.3,1.9,4.3,4.3V449C141.2,451.4,139.3,453.3,136.9,453.3z"/>
</svg>
